<svg xmlns="http://www.w3.org/2000/svg" xmlns:xlink="http://www.w3.org/1999/xlink" width="1366" zoomAndPan="magnify" viewBox="0 0 1024.5 576" height="768" preserveAspectRatio="xMidYMid meet" version="1.0"><defs><clipPath id="1a072c95fe"><path d="M 297 0.140625 L 764 0.140625 L 764 51 L 297 51 Z M 297 0.140625 " clip-rule="nonzero"/></clipPath><clipPath id="e8f857c7ab"><path d="M 297 50 L 764 50 L 764 517 L 297 517 Z M 297 50 " clip-rule="nonzero"/></clipPath><clipPath id="8651cf5bf9"><path d="M 297.5 50.308594 L 763.125 50.308594 L 763.125 472.609375 C 763.125 478.335938 762 484.003906 759.808594 489.292969 C 757.617188 494.578125 754.414062 499.382812 750.367188 503.433594 C 746.324219 507.480469 741.519531 510.691406 736.238281 512.882812 C 730.949219 515.070312 725.28125 516.199219 719.5625 516.199219 L 341.0625 516.199219 C 335.34375 516.199219 329.675781 515.070312 324.390625 512.882812 C 319.105469 510.691406 314.304688 507.480469 310.257812 503.433594 C 306.214844 499.382812 303.003906 494.578125 300.816406 489.292969 C 298.625 484.003906 297.5 478.335938 297.5 472.609375 Z M 297.5 50.308594 " clip-rule="nonzero"/></clipPath><linearGradient x1="2460.587625" gradientTransform="matrix(0.152974, 0, 0, 0.153061, 184.518647, 0.140508)" y1="50.043381" x2="3016.201656" gradientUnits="userSpaceOnUse" y2="3495.165937" id="a067132dd3"><stop stop-opacity="1" stop-color="rgb(85.400391%, 90.440369%, 100%)" offset="0"/><stop stop-opacity="1" stop-color="rgb(85.289001%, 90.367126%, 100%)" offset="0.015625"/><stop stop-opacity="1" stop-color="rgb(85.066223%, 90.220642%, 100%)" offset="0.03125"/><stop stop-opacity="1" stop-color="rgb(84.841919%, 90.075684%, 100%)" offset="0.046875"/><stop stop-opacity="1" stop-color="rgb(84.619141%, 89.929199%, 100%)" offset="0.0625"/><stop stop-opacity="1" stop-color="rgb(84.394836%, 89.782715%, 100%)" offset="0.078125"/><stop stop-opacity="1" stop-color="rgb(84.172058%, 89.63623%, 100%)" offset="0.09375"/><stop stop-opacity="1" stop-color="rgb(83.947754%, 89.489746%, 100%)" offset="0.109375"/><stop stop-opacity="1" stop-color="rgb(83.724976%, 89.343262%, 100%)" offset="0.125"/><stop stop-opacity="1" stop-color="rgb(83.500671%, 89.196777%, 100%)" offset="0.138877"/><stop stop-opacity="1" stop-color="rgb(83.389282%, 89.123535%, 100%)" offset="0.140625"/><stop stop-opacity="1" stop-color="rgb(83.277893%, 89.050293%, 100%)" offset="0.15625"/><stop stop-opacity="1" stop-color="rgb(83.055115%, 88.903809%, 100%)" offset="0.171875"/><stop stop-opacity="1" stop-color="rgb(82.830811%, 88.75885%, 100%)" offset="0.1875"/><stop stop-opacity="1" stop-color="rgb(82.608032%, 88.612366%, 100%)" offset="0.203125"/><stop stop-opacity="1" stop-color="rgb(82.383728%, 88.465881%, 100%)" offset="0.21875"/><stop stop-opacity="1" stop-color="rgb(82.16095%, 88.319397%, 100%)" offset="0.234375"/><stop stop-opacity="1" stop-color="rgb(81.936646%, 88.172913%, 100%)" offset="0.25"/><stop stop-opacity="1" stop-color="rgb(81.713867%, 88.026428%, 100%)" offset="0.265625"/><stop stop-opacity="1" stop-color="rgb(81.489563%, 87.879944%, 100%)" offset="0.28125"/><stop stop-opacity="1" stop-color="rgb(81.266785%, 87.733459%, 100%)" offset="0.296875"/><stop stop-opacity="1" stop-color="rgb(81.04248%, 87.586975%, 100%)" offset="0.3125"/><stop stop-opacity="1" stop-color="rgb(80.819702%, 87.442017%, 100%)" offset="0.328125"/><stop stop-opacity="1" stop-color="rgb(80.596924%, 87.295532%, 100%)" offset="0.34375"/><stop stop-opacity="1" stop-color="rgb(80.37262%, 87.149048%, 100%)" offset="0.359375"/><stop stop-opacity="1" stop-color="rgb(80.149841%, 87.002563%, 100%)" offset="0.375"/><stop stop-opacity="1" stop-color="rgb(79.925537%, 86.856079%, 100%)" offset="0.390625"/><stop stop-opacity="1" stop-color="rgb(79.702759%, 86.709595%, 100%)" offset="0.40625"/><stop stop-opacity="1" stop-color="rgb(79.478455%, 86.56311%, 100%)" offset="0.421875"/><stop stop-opacity="1" stop-color="rgb(79.255676%, 86.416626%, 100%)" offset="0.4375"/><stop stop-opacity="1" stop-color="rgb(79.031372%, 86.270142%, 100%)" offset="0.453125"/><stop stop-opacity="1" stop-color="rgb(78.808594%, 86.125183%, 100%)" offset="0.46875"/><stop stop-opacity="1" stop-color="rgb(78.58429%, 85.978699%, 100%)" offset="0.484375"/><stop stop-opacity="1" stop-color="rgb(78.361511%, 85.832214%, 100%)" offset="0.5"/><stop stop-opacity="1" stop-color="rgb(78.138733%, 85.68573%, 100%)" offset="0.515625"/><stop stop-opacity="1" stop-color="rgb(77.914429%, 85.539246%, 100%)" offset="0.53125"/><stop stop-opacity="1" stop-color="rgb(77.69165%, 85.392761%, 100%)" offset="0.546875"/><stop stop-opacity="1" stop-color="rgb(77.467346%, 85.246277%, 100%)" offset="0.5625"/><stop stop-opacity="1" stop-color="rgb(77.244568%, 85.099792%, 100%)" offset="0.578125"/><stop stop-opacity="1" stop-color="rgb(77.020264%, 84.953308%, 100%)" offset="0.59375"/><stop stop-opacity="1" stop-color="rgb(76.797485%, 84.80835%, 100%)" offset="0.609375"/><stop stop-opacity="1" stop-color="rgb(76.573181%, 84.661865%, 100%)" offset="0.625"/><stop stop-opacity="1" stop-color="rgb(76.350403%, 84.515381%, 100%)" offset="0.640625"/><stop stop-opacity="1" stop-color="rgb(76.127625%, 84.368896%, 100%)" offset="0.65625"/><stop stop-opacity="1" stop-color="rgb(75.90332%, 84.222412%, 100%)" offset="0.671875"/><stop stop-opacity="1" stop-color="rgb(75.680542%, 84.075928%, 100%)" offset="0.6875"/><stop stop-opacity="1" stop-color="rgb(75.456238%, 83.929443%, 100%)" offset="0.703125"/><stop stop-opacity="1" stop-color="rgb(75.233459%, 83.782959%, 100%)" offset="0.71875"/><stop stop-opacity="1" stop-color="rgb(75.009155%, 83.636475%, 100%)" offset="0.734375"/><stop stop-opacity="1" stop-color="rgb(74.786377%, 83.491516%, 100%)" offset="0.75"/><stop stop-opacity="1" stop-color="rgb(74.562073%, 83.345032%, 100%)" offset="0.765625"/><stop stop-opacity="1" stop-color="rgb(74.339294%, 83.198547%, 100%)" offset="0.78125"/><stop stop-opacity="1" stop-color="rgb(74.11499%, 83.052063%, 100%)" offset="0.796875"/><stop stop-opacity="1" stop-color="rgb(73.892212%, 82.905579%, 100%)" offset="0.8125"/><stop stop-opacity="1" stop-color="rgb(73.669434%, 82.759094%, 100%)" offset="0.828125"/><stop stop-opacity="1" stop-color="rgb(73.445129%, 82.61261%, 100%)" offset="0.84375"/><stop stop-opacity="1" stop-color="rgb(73.222351%, 82.466125%, 100%)" offset="0.859375"/><stop stop-opacity="1" stop-color="rgb(72.998047%, 82.319641%, 100%)" offset="0.861123"/><stop stop-opacity="1" stop-color="rgb(72.886658%, 82.247925%, 100%)" offset="0.875"/><stop stop-opacity="1" stop-color="rgb(72.775269%, 82.174683%, 100%)" offset="0.890625"/><stop stop-opacity="1" stop-color="rgb(72.550964%, 82.028198%, 100%)" offset="0.90625"/><stop stop-opacity="1" stop-color="rgb(72.328186%, 81.881714%, 100%)" offset="0.921875"/><stop stop-opacity="1" stop-color="rgb(72.103882%, 81.735229%, 100%)" offset="0.9375"/><stop stop-opacity="1" stop-color="rgb(71.881104%, 81.588745%, 100%)" offset="0.953125"/><stop stop-opacity="1" stop-color="rgb(71.658325%, 81.442261%, 100%)" offset="0.96875"/><stop stop-opacity="1" stop-color="rgb(71.434021%, 81.295776%, 100%)" offset="0.984375"/><stop stop-opacity="1" stop-color="rgb(71.211243%, 81.149292%, 100%)" offset="1"/></linearGradient><clipPath id="4f1dbce67e"><path d="M 518 324 L 685 324 L 685 436 L 518 436 Z M 518 324 " clip-rule="nonzero"/></clipPath><clipPath id="7239052c63"><path d="M 663.234375 435.300781 L 539.640625 435.300781 C 537.253906 435.300781 534.945312 434.429688 533.152344 432.847656 C 531.359375 431.265625 530.203125 429.082031 529.90625 426.707031 L 518.5 335.613281 C 518.328125 334.230469 518.449219 332.828125 518.859375 331.5 C 519.269531 330.167969 519.957031 328.941406 520.878906 327.898438 C 521.800781 326.851562 522.929688 326.015625 524.199219 325.445312 C 525.46875 324.871094 526.84375 324.574219 528.234375 324.574219 L 674.640625 324.574219 C 676.03125 324.574219 677.40625 324.871094 678.675781 325.445312 C 679.941406 326.015625 681.074219 326.851562 681.996094 327.898438 C 682.917969 328.941406 683.605469 330.167969 684.015625 331.5 C 684.425781 332.828125 684.546875 334.230469 684.375 335.613281 L 672.96875 426.707031 C 672.667969 429.082031 671.515625 431.265625 669.722656 432.847656 C 667.933594 434.429688 665.625 435.300781 663.234375 435.300781 Z M 663.234375 435.300781 " clip-rule="nonzero"/></clipPath><linearGradient x1="2695.840312" gradientTransform="matrix(0.152974, 0, 0, 0.153061, 184.518647, 0.140508)" y1="2082.523462" x2="2753.496998" gradientUnits="userSpaceOnUse" y2="2880.305911" id="e9402d0033"><stop stop-opacity="1" stop-color="rgb(100%, 100%, 100%)" offset="0"/><stop stop-opacity="1" stop-color="rgb(100%, 100%, 100%)" offset="0.03125"/><stop stop-opacity="1" stop-color="rgb(99.972534%, 99.981689%, 100%)" offset="0.046875"/><stop stop-opacity="1" stop-color="rgb(99.775696%, 99.85199%, 100%)" offset="0.0625"/><stop stop-opacity="1" stop-color="rgb(99.436951%, 99.630737%, 100%)" offset="0.078125"/><stop stop-opacity="1" stop-color="rgb(99.09668%, 99.407959%, 100%)" offset="0.09375"/><stop stop-opacity="1" stop-color="rgb(98.757935%, 99.186707%, 100%)" offset="0.0979228"/><stop stop-opacity="1" stop-color="rgb(98.588562%, 99.075317%, 100%)" offset="0.109375"/><stop stop-opacity="1" stop-color="rgb(98.419189%, 98.963928%, 100%)" offset="0.125"/><stop stop-opacity="1" stop-color="rgb(98.080444%, 98.742676%, 100%)" offset="0.140625"/><stop stop-opacity="1" stop-color="rgb(97.740173%, 98.519897%, 100%)" offset="0.15625"/><stop stop-opacity="1" stop-color="rgb(97.401428%, 98.298645%, 100%)" offset="0.171875"/><stop stop-opacity="1" stop-color="rgb(97.062683%, 98.075867%, 100%)" offset="0.1875"/><stop stop-opacity="1" stop-color="rgb(96.723938%, 97.854614%, 100%)" offset="0.203125"/><stop stop-opacity="1" stop-color="rgb(96.383667%, 97.631836%, 100%)" offset="0.21875"/><stop stop-opacity="1" stop-color="rgb(96.044922%, 97.410583%, 100%)" offset="0.234375"/><stop stop-opacity="1" stop-color="rgb(95.706177%, 97.187805%, 100%)" offset="0.25"/><stop stop-opacity="1" stop-color="rgb(95.367432%, 96.966553%, 100%)" offset="0.265625"/><stop stop-opacity="1" stop-color="rgb(95.027161%, 96.743774%, 100%)" offset="0.28125"/><stop stop-opacity="1" stop-color="rgb(94.688416%, 96.522522%, 100%)" offset="0.296875"/><stop stop-opacity="1" stop-color="rgb(94.34967%, 96.299744%, 100%)" offset="0.3125"/><stop stop-opacity="1" stop-color="rgb(94.010925%, 96.076965%, 100%)" offset="0.328125"/><stop stop-opacity="1" stop-color="rgb(93.670654%, 95.855713%, 100%)" offset="0.34375"/><stop stop-opacity="1" stop-color="rgb(93.331909%, 95.632935%, 100%)" offset="0.359375"/><stop stop-opacity="1" stop-color="rgb(92.993164%, 95.411682%, 100%)" offset="0.375"/><stop stop-opacity="1" stop-color="rgb(92.654419%, 95.188904%, 100%)" offset="0.390625"/><stop stop-opacity="1" stop-color="rgb(92.314148%, 94.967651%, 100%)" offset="0.40625"/><stop stop-opacity="1" stop-color="rgb(91.975403%, 94.744873%, 100%)" offset="0.421875"/><stop stop-opacity="1" stop-color="rgb(91.636658%, 94.523621%, 100%)" offset="0.4375"/><stop stop-opacity="1" stop-color="rgb(91.297913%, 94.300842%, 100%)" offset="0.453125"/><stop stop-opacity="1" stop-color="rgb(90.957642%, 94.07959%, 100%)" offset="0.46875"/><stop stop-opacity="1" stop-color="rgb(90.618896%, 93.856812%, 100%)" offset="0.484375"/><stop stop-opacity="1" stop-color="rgb(90.280151%, 93.635559%, 100%)" offset="0.5"/><stop stop-opacity="1" stop-color="rgb(89.941406%, 93.412781%, 100%)" offset="0.515625"/><stop stop-opacity="1" stop-color="rgb(89.601135%, 93.191528%, 100%)" offset="0.53125"/><stop stop-opacity="1" stop-color="rgb(89.26239%, 92.96875%, 100%)" offset="0.546875"/><stop stop-opacity="1" stop-color="rgb(88.923645%, 92.747498%, 100%)" offset="0.5625"/><stop stop-opacity="1" stop-color="rgb(88.5849%, 92.524719%, 100%)" offset="0.578125"/><stop stop-opacity="1" stop-color="rgb(88.244629%, 92.303467%, 100%)" offset="0.59375"/><stop stop-opacity="1" stop-color="rgb(87.905884%, 92.080688%, 100%)" offset="0.609375"/><stop stop-opacity="1" stop-color="rgb(87.567139%, 91.859436%, 100%)" offset="0.625"/><stop stop-opacity="1" stop-color="rgb(87.228394%, 91.636658%, 100%)" offset="0.640625"/><stop stop-opacity="1" stop-color="rgb(86.888123%, 91.413879%, 100%)" offset="0.65625"/><stop stop-opacity="1" stop-color="rgb(86.549377%, 91.192627%, 100%)" offset="0.671875"/><stop stop-opacity="1" stop-color="rgb(86.210632%, 90.969849%, 100%)" offset="0.6875"/><stop stop-opacity="1" stop-color="rgb(85.871887%, 90.748596%, 100%)" offset="0.703125"/><stop stop-opacity="1" stop-color="rgb(85.531616%, 90.525818%, 100%)" offset="0.71875"/><stop stop-opacity="1" stop-color="rgb(85.192871%, 90.304565%, 100%)" offset="0.734375"/><stop stop-opacity="1" stop-color="rgb(84.854126%, 90.081787%, 100%)" offset="0.75"/><stop stop-opacity="1" stop-color="rgb(84.513855%, 89.860535%, 100%)" offset="0.765625"/><stop stop-opacity="1" stop-color="rgb(84.17511%, 89.637756%, 100%)" offset="0.78125"/><stop stop-opacity="1" stop-color="rgb(83.836365%, 89.416504%, 100%)" offset="0.796875"/><stop stop-opacity="1" stop-color="rgb(83.49762%, 89.193726%, 100%)" offset="0.8125"/><stop stop-opacity="1" stop-color="rgb(83.157349%, 88.972473%, 100%)" offset="0.828125"/><stop stop-opacity="1" stop-color="rgb(82.818604%, 88.749695%, 100%)" offset="0.84375"/><stop stop-opacity="1" stop-color="rgb(82.479858%, 88.528442%, 100%)" offset="0.859375"/><stop stop-opacity="1" stop-color="rgb(82.141113%, 88.305664%, 100%)" offset="0.875"/><stop stop-opacity="1" stop-color="rgb(81.800842%, 88.084412%, 100%)" offset="0.890625"/><stop stop-opacity="1" stop-color="rgb(81.462097%, 87.861633%, 100%)" offset="0.902077"/><stop stop-opacity="1" stop-color="rgb(81.292725%, 87.75177%, 100%)" offset="0.90625"/><stop stop-opacity="1" stop-color="rgb(81.123352%, 87.640381%, 100%)" offset="0.921875"/><stop stop-opacity="1" stop-color="rgb(80.784607%, 87.417603%, 100%)" offset="0.9375"/><stop stop-opacity="1" stop-color="rgb(80.444336%, 87.19635%, 100%)" offset="0.953125"/><stop stop-opacity="1" stop-color="rgb(80.105591%, 86.973572%, 100%)" offset="0.96875"/><stop stop-opacity="1" stop-color="rgb(79.766846%, 86.750793%, 100%)" offset="0.984375"/><stop stop-opacity="1" stop-color="rgb(79.428101%, 86.529541%, 100%)" offset="1"/></linearGradient><clipPath id="1d8e5e721b"><path d="M 184.59375 0.140625 L 326 0.140625 L 326 166 L 184.59375 166 Z M 184.59375 0.140625 " clip-rule="nonzero"/></clipPath><clipPath id="73ff2d7e3d"><path d="M 184.59375 12 L 342 12 L 342 193 L 184.59375 193 Z M 184.59375 12 " clip-rule="nonzero"/></clipPath><clipPath id="b3f1e8dbd8"><path d="M 589 301 L 851 301 L 851 575.859375 L 589 575.859375 Z M 589 301 " clip-rule="nonzero"/></clipPath><clipPath id="dad133a4e6"><path d="M 657 254 L 867.1875 254 L 867.1875 501 L 657 501 Z M 657 254 " clip-rule="nonzero"/></clipPath><clipPath id="1bd5e29d6e"><path d="M 635 286 L 867.1875 286 L 867.1875 538 L 635 538 Z M 635 286 " clip-rule="nonzero"/></clipPath><clipPath id="f4a5af87bc"><path d="M 184.59375 484 L 287 484 L 287 542 L 184.59375 542 Z M 184.59375 484 " clip-rule="nonzero"/></clipPath><clipPath id="c4d4a97591"><path d="M 511 347 L 867.1875 347 L 867.1875 575.859375 L 511 575.859375 Z M 511 347 " clip-rule="nonzero"/></clipPath><clipPath id="8d8827ba91"><path d="M 357 446 L 495 446 L 495 561 L 357 561 Z M 357 446 " clip-rule="nonzero"/></clipPath><clipPath id="9e620d94c3"><path d="M 367.25 446.410156 C 385.90625 451.742188 429.5625 461.269531 486.761719 454.699219 C 487.679688 454.566406 488.617188 454.640625 489.507812 454.90625 C 490.394531 455.171875 491.214844 455.632812 491.910156 456.246094 C 492.605469 456.863281 493.15625 457.625 493.527344 458.476562 C 493.894531 459.328125 494.078125 460.25 494.058594 461.179688 L 494.058594 549.507812 C 494.015625 551.457031 493.289062 553.328125 492.003906 554.792969 C 490.714844 556.257812 488.957031 557.222656 487.027344 557.515625 C 466.664062 560.300781 406.191406 566.261719 361.128906 546.792969 C 359.972656 546.28125 358.996094 545.441406 358.320312 544.375 C 357.644531 543.3125 357.300781 542.070312 357.332031 540.808594 L 357.332031 454.226562 C 357.332031 449.101562 362.484375 445.050781 367.25 446.410156 Z M 367.25 446.410156 " clip-rule="nonzero"/></clipPath><linearGradient x1="1550.379658" gradientTransform="matrix(0.152974, 0, 0, 0.153061, 184.518647, 0.140508)" y1="2868.58584" x2="1628.914191" gradientUnits="userSpaceOnUse" y2="3734.468395" id="14dc1477ab"><stop stop-opacity="1" stop-color="rgb(100%, 100%, 100%)" offset="0"/><stop stop-opacity="1" stop-color="rgb(99.859619%, 99.908447%, 100%)" offset="0.0625"/><stop stop-opacity="1" stop-color="rgb(99.542236%, 99.699402%, 100%)" offset="0.078125"/><stop stop-opacity="1" stop-color="rgb(99.185181%, 99.465942%, 100%)" offset="0.0928925"/><stop stop-opacity="1" stop-color="rgb(99.006653%, 99.34845%, 100%)" offset="0.09375"/><stop stop-opacity="1" stop-color="rgb(98.828125%, 99.230957%, 100%)" offset="0.109375"/><stop stop-opacity="1" stop-color="rgb(98.469543%, 98.997498%, 100%)" offset="0.125"/><stop stop-opacity="1" stop-color="rgb(98.112488%, 98.764038%, 100%)" offset="0.140625"/><stop stop-opacity="1" stop-color="rgb(97.755432%, 98.530579%, 100%)" offset="0.15625"/><stop stop-opacity="1" stop-color="rgb(97.398376%, 98.295593%, 100%)" offset="0.171875"/><stop stop-opacity="1" stop-color="rgb(97.041321%, 98.062134%, 100%)" offset="0.1875"/><stop stop-opacity="1" stop-color="rgb(96.684265%, 97.828674%, 100%)" offset="0.203125"/><stop stop-opacity="1" stop-color="rgb(96.327209%, 97.595215%, 100%)" offset="0.21875"/><stop stop-opacity="1" stop-color="rgb(95.970154%, 97.360229%, 100%)" offset="0.234375"/><stop stop-opacity="1" stop-color="rgb(95.613098%, 97.12677%, 100%)" offset="0.25"/><stop stop-opacity="1" stop-color="rgb(95.256042%, 96.893311%, 100%)" offset="0.265625"/><stop stop-opacity="1" stop-color="rgb(94.898987%, 96.658325%, 100%)" offset="0.28125"/><stop stop-opacity="1" stop-color="rgb(94.541931%, 96.424866%, 100%)" offset="0.296875"/><stop stop-opacity="1" stop-color="rgb(94.184875%, 96.191406%, 100%)" offset="0.3125"/><stop stop-opacity="1" stop-color="rgb(93.82782%, 95.957947%, 100%)" offset="0.328125"/><stop stop-opacity="1" stop-color="rgb(93.470764%, 95.722961%, 100%)" offset="0.34375"/><stop stop-opacity="1" stop-color="rgb(93.112183%, 95.489502%, 100%)" offset="0.359375"/><stop stop-opacity="1" stop-color="rgb(92.755127%, 95.256042%, 100%)" offset="0.375"/><stop stop-opacity="1" stop-color="rgb(92.398071%, 95.022583%, 100%)" offset="0.390625"/><stop stop-opacity="1" stop-color="rgb(92.041016%, 94.787598%, 100%)" offset="0.40625"/><stop stop-opacity="1" stop-color="rgb(91.68396%, 94.554138%, 100%)" offset="0.421875"/><stop stop-opacity="1" stop-color="rgb(91.326904%, 94.320679%, 100%)" offset="0.4375"/><stop stop-opacity="1" stop-color="rgb(90.969849%, 94.087219%, 100%)" offset="0.453125"/><stop stop-opacity="1" stop-color="rgb(90.612793%, 93.852234%, 100%)" offset="0.46875"/><stop stop-opacity="1" stop-color="rgb(90.255737%, 93.618774%, 100%)" offset="0.484375"/><stop stop-opacity="1" stop-color="rgb(89.898682%, 93.385315%, 100%)" offset="0.5"/><stop stop-opacity="1" stop-color="rgb(89.541626%, 93.151855%, 100%)" offset="0.515625"/><stop stop-opacity="1" stop-color="rgb(89.18457%, 92.91687%, 100%)" offset="0.53125"/><stop stop-opacity="1" stop-color="rgb(88.827515%, 92.683411%, 100%)" offset="0.546875"/><stop stop-opacity="1" stop-color="rgb(88.470459%, 92.449951%, 100%)" offset="0.5625"/><stop stop-opacity="1" stop-color="rgb(88.111877%, 92.216492%, 100%)" offset="0.578125"/><stop stop-opacity="1" stop-color="rgb(87.754822%, 91.981506%, 100%)" offset="0.59375"/><stop stop-opacity="1" stop-color="rgb(87.397766%, 91.748047%, 100%)" offset="0.609375"/><stop stop-opacity="1" stop-color="rgb(87.04071%, 91.514587%, 100%)" offset="0.625"/><stop stop-opacity="1" stop-color="rgb(86.683655%, 91.281128%, 100%)" offset="0.640625"/><stop stop-opacity="1" stop-color="rgb(86.326599%, 91.046143%, 100%)" offset="0.65625"/><stop stop-opacity="1" stop-color="rgb(85.969543%, 90.812683%, 100%)" offset="0.671875"/><stop stop-opacity="1" stop-color="rgb(85.612488%, 90.579224%, 100%)" offset="0.6875"/><stop stop-opacity="1" stop-color="rgb(85.255432%, 90.344238%, 100%)" offset="0.703125"/><stop stop-opacity="1" stop-color="rgb(84.898376%, 90.110779%, 100%)" offset="0.71875"/><stop stop-opacity="1" stop-color="rgb(84.541321%, 89.877319%, 100%)" offset="0.734375"/><stop stop-opacity="1" stop-color="rgb(84.184265%, 89.64386%, 100%)" offset="0.75"/><stop stop-opacity="1" stop-color="rgb(83.827209%, 89.408875%, 100%)" offset="0.765625"/><stop stop-opacity="1" stop-color="rgb(83.470154%, 89.175415%, 100%)" offset="0.78125"/><stop stop-opacity="1" stop-color="rgb(83.113098%, 88.941956%, 100%)" offset="0.796875"/><stop stop-opacity="1" stop-color="rgb(82.754517%, 88.708496%, 100%)" offset="0.8125"/><stop stop-opacity="1" stop-color="rgb(82.397461%, 88.473511%, 100%)" offset="0.828125"/><stop stop-opacity="1" stop-color="rgb(82.040405%, 88.240051%, 100%)" offset="0.84375"/><stop stop-opacity="1" stop-color="rgb(81.68335%, 88.006592%, 100%)" offset="0.859375"/><stop stop-opacity="1" stop-color="rgb(81.326294%, 87.773132%, 100%)" offset="0.875"/><stop stop-opacity="1" stop-color="rgb(80.969238%, 87.538147%, 100%)" offset="0.890625"/><stop stop-opacity="1" stop-color="rgb(80.612183%, 87.304688%, 100%)" offset="0.90625"/><stop stop-opacity="1" stop-color="rgb(80.255127%, 87.071228%, 100%)" offset="0.907108"/><stop stop-opacity="1" stop-color="rgb(80.076599%, 86.955261%, 100%)" offset="0.921875"/><stop stop-opacity="1" stop-color="rgb(79.898071%, 86.837769%, 100%)" offset="0.9375"/><stop stop-opacity="1" stop-color="rgb(79.541016%, 86.602783%, 100%)" offset="0.953125"/><stop stop-opacity="1" stop-color="rgb(79.18396%, 86.369324%, 100%)" offset="0.96875"/><stop stop-opacity="1" stop-color="rgb(78.826904%, 86.135864%, 100%)" offset="0.984375"/><stop stop-opacity="1" stop-color="rgb(78.469849%, 85.902405%, 100%)" offset="1"/></linearGradient><clipPath id="961396a3e5"><path d="M 680 13 L 867.1875 13 L 867.1875 236 L 680 236 Z M 680 13 " clip-rule="nonzero"/></clipPath><clipPath id="1c096fc2fb"><path d="M 856.585938 14.242188 C 832.203125 32.15625 787.601562 77.324219 690.261719 92.332031 C 682.808594 93.480469 680.019531 98.785156 680.019531 104.648438 L 680.019531 228.136719 C 680.0625 229.851562 680.691406 231.496094 681.804688 232.800781 C 682.917969 234.101562 684.445312 234.984375 686.132812 235.289062 C 710.683594 239.425781 805.242188 215.292969 861.785156 166.703125 C 867.1875 162.0625 867.1875 154.277344 867.1875 152.660156 L 867.1875 20.402344 C 867.1875 14.917969 860.761719 11.175781 856.585938 14.242188 Z M 856.585938 14.242188 " clip-rule="nonzero"/></clipPath><linearGradient x1="4019.74176" gradientTransform="matrix(0.152974, 0, 0, 0.153061, 184.518647, 0.140508)" y1="-77.55546" x2="4338.875826" gradientUnits="userSpaceOnUse" y2="1587.069334" id="60c26eceab"><stop stop-opacity="1" stop-color="rgb(85.510254%, 90.512085%, 100%)" offset="0"/><stop stop-opacity="1" stop-color="rgb(85.395813%, 90.437317%, 100%)" offset="0.015625"/><stop stop-opacity="1" stop-color="rgb(85.166931%, 90.287781%, 100%)" offset="0.03125"/><stop stop-opacity="1" stop-color="rgb(84.938049%, 90.138245%, 100%)" offset="0.046875"/><stop stop-opacity="1" stop-color="rgb(84.710693%, 89.988708%, 100%)" offset="0.0625"/><stop stop-opacity="1" stop-color="rgb(84.481812%, 89.839172%, 100%)" offset="0.078125"/><stop stop-opacity="1" stop-color="rgb(84.25293%, 89.689636%, 100%)" offset="0.09375"/><stop stop-opacity="1" stop-color="rgb(84.025574%, 89.5401%, 100%)" offset="0.109375"/><stop stop-opacity="1" stop-color="rgb(83.796692%, 89.390564%, 100%)" offset="0.125"/><stop stop-opacity="1" stop-color="rgb(83.569336%, 89.241028%, 100%)" offset="0.135919"/><stop stop-opacity="1" stop-color="rgb(83.454895%, 89.16626%, 100%)" offset="0.140625"/><stop stop-opacity="1" stop-color="rgb(83.340454%, 89.091492%, 100%)" offset="0.15625"/><stop stop-opacity="1" stop-color="rgb(83.111572%, 88.941956%, 100%)" offset="0.171875"/><stop stop-opacity="1" stop-color="rgb(82.884216%, 88.792419%, 100%)" offset="0.1875"/><stop stop-opacity="1" stop-color="rgb(82.655334%, 88.642883%, 100%)" offset="0.203125"/><stop stop-opacity="1" stop-color="rgb(82.426453%, 88.493347%, 100%)" offset="0.21875"/><stop stop-opacity="1" stop-color="rgb(82.199097%, 88.343811%, 100%)" offset="0.234375"/><stop stop-opacity="1" stop-color="rgb(81.970215%, 88.194275%, 100%)" offset="0.25"/><stop stop-opacity="1" stop-color="rgb(81.741333%, 88.044739%, 100%)" offset="0.265625"/><stop stop-opacity="1" stop-color="rgb(81.513977%, 87.895203%, 100%)" offset="0.28125"/><stop stop-opacity="1" stop-color="rgb(81.285095%, 87.745667%, 100%)" offset="0.296875"/><stop stop-opacity="1" stop-color="rgb(81.056213%, 87.59613%, 100%)" offset="0.3125"/><stop stop-opacity="1" stop-color="rgb(80.828857%, 87.446594%, 100%)" offset="0.328125"/><stop stop-opacity="1" stop-color="rgb(80.599976%, 87.297058%, 100%)" offset="0.34375"/><stop stop-opacity="1" stop-color="rgb(80.371094%, 87.147522%, 100%)" offset="0.359375"/><stop stop-opacity="1" stop-color="rgb(80.143738%, 86.997986%, 100%)" offset="0.375"/><stop stop-opacity="1" stop-color="rgb(79.914856%, 86.84845%, 100%)" offset="0.390625"/><stop stop-opacity="1" stop-color="rgb(79.685974%, 86.698914%, 100%)" offset="0.40625"/><stop stop-opacity="1" stop-color="rgb(79.458618%, 86.549377%, 100%)" offset="0.421875"/><stop stop-opacity="1" stop-color="rgb(79.229736%, 86.399841%, 100%)" offset="0.4375"/><stop stop-opacity="1" stop-color="rgb(79.00238%, 86.250305%, 100%)" offset="0.453125"/><stop stop-opacity="1" stop-color="rgb(78.773499%, 86.100769%, 100%)" offset="0.46875"/><stop stop-opacity="1" stop-color="rgb(78.544617%, 85.951233%, 100%)" offset="0.484375"/><stop stop-opacity="1" stop-color="rgb(78.317261%, 85.801697%, 100%)" offset="0.5"/><stop stop-opacity="1" stop-color="rgb(78.088379%, 85.653687%, 100%)" offset="0.515625"/><stop stop-opacity="1" stop-color="rgb(77.859497%, 85.50415%, 100%)" offset="0.53125"/><stop stop-opacity="1" stop-color="rgb(77.632141%, 85.354614%, 100%)" offset="0.546875"/><stop stop-opacity="1" stop-color="rgb(77.403259%, 85.205078%, 100%)" offset="0.5625"/><stop stop-opacity="1" stop-color="rgb(77.174377%, 85.055542%, 100%)" offset="0.578125"/><stop stop-opacity="1" stop-color="rgb(76.947021%, 84.906006%, 100%)" offset="0.59375"/><stop stop-opacity="1" stop-color="rgb(76.71814%, 84.75647%, 100%)" offset="0.609375"/><stop stop-opacity="1" stop-color="rgb(76.489258%, 84.606934%, 100%)" offset="0.625"/><stop stop-opacity="1" stop-color="rgb(76.261902%, 84.457397%, 100%)" offset="0.640625"/><stop stop-opacity="1" stop-color="rgb(76.03302%, 84.307861%, 100%)" offset="0.65625"/><stop stop-opacity="1" stop-color="rgb(75.804138%, 84.158325%, 100%)" offset="0.671875"/><stop stop-opacity="1" stop-color="rgb(75.576782%, 84.008789%, 100%)" offset="0.6875"/><stop stop-opacity="1" stop-color="rgb(75.3479%, 83.859253%, 100%)" offset="0.703125"/><stop stop-opacity="1" stop-color="rgb(75.120544%, 83.709717%, 100%)" offset="0.71875"/><stop stop-opacity="1" stop-color="rgb(74.891663%, 83.560181%, 100%)" offset="0.734375"/><stop stop-opacity="1" stop-color="rgb(74.662781%, 83.410645%, 100%)" offset="0.75"/><stop stop-opacity="1" stop-color="rgb(74.435425%, 83.261108%, 100%)" offset="0.765625"/><stop stop-opacity="1" stop-color="rgb(74.206543%, 83.111572%, 100%)" offset="0.78125"/><stop stop-opacity="1" stop-color="rgb(73.977661%, 82.962036%, 100%)" offset="0.796875"/><stop stop-opacity="1" stop-color="rgb(73.750305%, 82.8125%, 100%)" offset="0.8125"/><stop stop-opacity="1" stop-color="rgb(73.521423%, 82.662964%, 100%)" offset="0.828125"/><stop stop-opacity="1" stop-color="rgb(73.292542%, 82.513428%, 100%)" offset="0.84375"/><stop stop-opacity="1" stop-color="rgb(73.065186%, 82.363892%, 100%)" offset="0.859375"/><stop stop-opacity="1" stop-color="rgb(72.836304%, 82.214355%, 100%)" offset="0.864081"/><stop stop-opacity="1" stop-color="rgb(72.721863%, 82.139587%, 100%)" offset="0.875"/><stop stop-opacity="1" stop-color="rgb(72.607422%, 82.064819%, 100%)" offset="0.890625"/><stop stop-opacity="1" stop-color="rgb(72.380066%, 81.915283%, 100%)" offset="0.90625"/><stop stop-opacity="1" stop-color="rgb(72.151184%, 81.765747%, 100%)" offset="0.921875"/><stop stop-opacity="1" stop-color="rgb(71.922302%, 81.616211%, 100%)" offset="0.9375"/><stop stop-opacity="1" stop-color="rgb(71.694946%, 81.466675%, 100%)" offset="0.953125"/><stop stop-opacity="1" stop-color="rgb(71.466064%, 81.317139%, 100%)" offset="0.96875"/><stop stop-opacity="1" stop-color="rgb(71.237183%, 81.167603%, 100%)" offset="0.984375"/><stop stop-opacity="1" stop-color="rgb(71.009827%, 81.018066%, 100%)" offset="1"/></linearGradient><clipPath id="f59d4028c4"><path d="M 693 0.140625 L 867.1875 0.140625 L 867.1875 189 L 693 189 Z M 693 0.140625 " clip-rule="nonzero"/></clipPath><clipPath id="ee6c14beb6"><path d="M 693 0.140625 L 867.1875 0.140625 L 867.1875 218 L 693 218 Z M 693 0.140625 " clip-rule="nonzero"/></clipPath><clipPath id="75f01d9f27"><path d="M 693 12 L 867.1875 12 L 867.1875 246 L 693 246 Z M 693 12 " clip-rule="nonzero"/></clipPath><clipPath id="f4fe11c6f7"><path d="M 693 44 L 867.1875 44 L 867.1875 278 L 693 278 Z M 693 44 " clip-rule="nonzero"/></clipPath></defs><g clip-path="url(#1a072c95fe)"><path fill="#1c85e8" d="M 321.328125 0.140625 L 739.296875 0.140625 C 745.617188 0.140625 751.675781 2.652344 756.148438 7.125 C 760.613281 11.59375 763.125 17.660156 763.125 23.984375 L 763.125 50.308594 L 297.5 50.308594 L 297.5 23.984375 C 297.5 17.660156 300.011719 11.59375 304.480469 7.125 C 308.949219 2.652344 315.007812 0.140625 321.328125 0.140625 Z M 321.328125 0.140625 " fill-opacity="1" fill-rule="nonzero"/></g><g clip-path="url(#e8f857c7ab)"><g clip-path="url(#8651cf5bf9)"><path fill="url(#a067132dd3)" d="M 297.5 50.308594 L 297.5 516.199219 L 763.125 516.199219 L 763.125 50.308594 Z M 297.5 50.308594 " fill-rule="nonzero"/></g></g><path fill="#ffccb3" d="M 601.726562 349.875 L 474.015625 349.875 L 474.015625 411.933594 L 601.726562 411.933594 Z M 601.726562 349.875 " fill-opacity="1" fill-rule="nonzero"/><path fill="#1f2d49" d="M 473.261719 388.132812 C 458.285156 402.878906 452.390625 475.5 453.179688 516.199219 L 631.476562 516.199219 C 631.476562 516.199219 631.152344 427.441406 617.636719 397.535156 C 605.207031 370.027344 584.542969 410.601562 473.261719 388.132812 Z M 473.261719 388.132812 " fill-opacity="1" fill-rule="nonzero"/><path fill="#1c85e8" d="M 502.730469 215.144531 C 502.730469 215.144531 525.671875 240.90625 518.042969 249.167969 C 502.933594 266.152344 462.746094 298.070312 449.578125 308.636719 C 449.007812 309.070312 448.359375 309.390625 447.664062 309.574219 C 446.972656 309.757812 446.253906 309.800781 445.542969 309.703125 C 444.835938 309.605469 444.152344 309.371094 443.535156 309.007812 C 442.917969 308.644531 442.375 308.164062 441.945312 307.59375 L 410.808594 266.628906 C 409.589844 265.054688 409.023438 263.070312 409.21875 261.085938 C 409.417969 259.105469 410.371094 257.273438 411.875 255.96875 L 472.1875 203.929688 Z M 502.730469 215.144531 " fill-opacity="1" fill-rule="nonzero"/><path fill="#0e66af" d="M 466.519531 247.894531 C 466.519531 247.894531 437.929688 264.894531 435.355469 299.054688 L 441.046875 306.375 C 441.046875 306.375 444.621094 312.605469 449.578125 308.636719 C 454.53125 304.664062 477.445312 286.296875 477.445312 286.296875 Z M 466.519531 247.894531 " fill-opacity="1" fill-rule="nonzero"/><path fill="#1c85e8" d="M 493.246094 260.84375 C 511.078125 260.84375 525.535156 246.382812 525.535156 228.539062 C 525.535156 210.695312 511.078125 196.234375 493.246094 196.234375 C 475.414062 196.234375 460.960938 210.695312 460.960938 228.539062 C 460.960938 246.382812 475.414062 260.84375 493.246094 260.84375 Z M 493.246094 260.84375 " fill-opacity="1" fill-rule="nonzero"/><path fill="#ffccb3" d="M 409.171875 329.808594 L 380.953125 292.425781 L 407.667969 271.675781 L 411.851562 268.304688 L 441.121094 306.601562 L 436.023438 310.269531 Z M 409.171875 329.808594 " fill-opacity="1" fill-rule="nonzero"/><path fill="#ff967c" d="M 436.023438 310.269531 C 428.464844 300.144531 414.253906 280.355469 407.667969 271.675781 L 411.851562 268.304688 L 441.046875 306.375 Z M 436.023438 310.269531 " fill-opacity="1" fill-rule="nonzero"/><path fill="#ffccb3" d="M 394.632812 334.992188 C 407.578125 334.992188 418.070312 324.492188 418.070312 311.539062 C 418.070312 298.585938 407.578125 288.085938 394.632812 288.085938 C 381.6875 288.085938 371.195312 298.585938 371.195312 311.539062 C 371.195312 324.492188 381.6875 334.992188 394.632812 334.992188 Z M 394.632812 334.992188 " fill-opacity="1" fill-rule="nonzero"/><path fill="#ffccb3" d="M 414.480469 298.925781 C 414.480469 298.925781 338.871094 187.824219 335.375 178.390625 C 331.976562 169.175781 314.117188 191.347656 314.117188 191.347656 L 372.632812 319.089844 Z M 414.480469 298.925781 " fill-opacity="1" fill-rule="nonzero"/><path fill="#ffccb3" d="M 518.570312 143.992188 L 509.480469 207.398438 C 509.480469 207.398438 507.09375 215.8125 517.683594 217.089844 C 528.273438 218.363281 550.851562 215.515625 558.917969 206.917969 C 566.980469 198.320312 564.160156 194.058594 564.160156 194.058594 L 547.054688 125.238281 Z M 518.570312 143.992188 " fill-opacity="1" fill-rule="nonzero"/><path fill="#ff967c" d="M 517.304688 152.199219 L 539.539062 144.339844 L 511.996094 185.1875 Z M 517.304688 152.199219 " fill-opacity="1" fill-rule="nonzero"/><path fill="#ffccb3" d="M 493.414062 65.671875 C 493.414062 65.671875 474.339844 110.515625 484.28125 141.25 C 490.765625 161.296875 504.882812 164.898438 537.21875 149.878906 C 566.863281 136.105469 574.5625 125.6875 574.5625 125.6875 L 578.9375 75.699219 C 578.9375 75.699219 512.785156 25.703125 493.414062 65.671875 Z M 493.414062 65.671875 " fill-opacity="1" fill-rule="nonzero"/><path fill="#1c85e8" d="M 509.320312 189.167969 C 509.320312 189.167969 484.886719 195.960938 479.925781 199.929688 C 474.96875 203.898438 467.113281 224.203125 467.113281 247.441406 C 467.113281 280.390625 471.640625 298.082031 471.640625 318.542969 C 471.640625 339.007812 460.875 417.046875 460.875 417.046875 L 619.382812 417.046875 C 615.328125 338.878906 619.382812 199.242188 619.382812 199.242188 L 558.972656 185.316406 C 545.355469 187.664062 509.320312 189.167969 509.320312 189.167969 Z M 509.320312 189.167969 " fill-opacity="1" fill-rule="nonzero"/><path fill="#0e66af" d="M 590.105469 228.539062 C 590.105469 228.539062 569.039062 242.472656 575.246094 256.535156 C 582.222656 272.34375 575.246094 289.753906 575.246094 314.035156 C 572.839844 321.320312 571.453125 328.257812 571.453125 334.152344 C 571.453125 340.046875 568.207031 334.410156 568.207031 351.535156 C 568.207031 363.722656 606.488281 374.292969 605.492188 364.441406 C 598.835938 298.558594 626.503906 256.839844 590.105469 228.539062 Z M 590.105469 228.539062 " fill-opacity="1" fill-rule="nonzero"/><path fill="#ffccb3" d="M 663.0625 354.585938 L 616.398438 358.414062 L 608.433594 324.574219 L 598.835938 298.558594 L 647.945312 292.675781 L 654.082031 321.796875 Z M 663.0625 354.585938 " fill-opacity="1" fill-rule="nonzero"/><path fill="#ff967c" d="M 649.601562 300.539062 L 651.324219 308.707031 L 602.964844 309.746094 L 599.785156 301.121094 Z M 649.601562 300.539062 " fill-opacity="1" fill-rule="nonzero"/><path fill="#1c85e8" d="M 611.355469 262.839844 C 629.1875 262.839844 643.640625 248.375 643.640625 230.535156 C 643.640625 212.691406 629.1875 198.226562 611.355469 198.226562 C 593.523438 198.226562 579.066406 212.691406 579.066406 230.535156 C 579.066406 248.375 593.523438 262.839844 611.355469 262.839844 Z M 611.355469 262.839844 " fill-opacity="1" fill-rule="nonzero"/><path fill="#1c85e8" d="M 605.128906 215.34375 C 605.128906 215.34375 639.15625 209.757812 642.046875 220.628906 C 648.289062 242.492188 655.960938 277.589844 657.828125 294.375 C 657.890625 295.085938 657.8125 295.804688 657.597656 296.488281 C 657.382812 297.171875 657.03125 297.804688 656.570312 298.351562 C 656.109375 298.902344 655.542969 299.351562 654.90625 299.679688 C 654.269531 300.007812 653.574219 300.207031 652.859375 300.261719 L 601.613281 304.640625 C 599.628906 304.824219 597.652344 304.242188 596.082031 303.011719 C 594.515625 301.78125 593.480469 300 593.183594 298.027344 L 579.304688 235.148438 Z M 605.128906 215.34375 " fill-opacity="1" fill-rule="nonzero"/><path fill="#080b09" d="M 505.304688 61.410156 C 505.304688 61.410156 506.511719 83.191406 524.957031 93.746094 C 524.957031 93.746094 530.347656 110.453125 550.476562 114.382812 C 550.476562 114.382812 549.285156 99.027344 558.878906 99.191406 C 575.167969 99.464844 567.15625 124.191406 556.144531 128.246094 C 548.660156 131.003906 544.152344 140.785156 555.261719 163.085938 C 580.773438 153.980469 598.714844 117.210938 591.679688 76.417969 C 586.046875 43.753906 545.574219 33.085938 537.257812 34.148438 C 537.257812 34.148438 502.71875 22.210938 484.535156 54.949219 C 468.992188 82.9375 483.507812 99.640625 483.507812 99.640625 L 491.792969 74.734375 C 491.792969 74.734375 495.253906 77.164062 505.304688 61.410156 Z M 505.304688 61.410156 " fill-opacity="1" fill-rule="nonzero"/><g clip-path="url(#4f1dbce67e)"><g clip-path="url(#7239052c63)"><path fill="url(#e9402d0033)" d="M 518.328125 324.574219 L 518.328125 435.300781 L 684.546875 435.300781 L 684.546875 324.574219 Z M 518.328125 324.574219 " fill-rule="nonzero"/></g></g><path fill="#ffffff" d="M 601.726562 386.921875 C 606.519531 386.921875 610.402344 383.035156 610.402344 378.242188 C 610.402344 373.449219 606.519531 369.5625 601.726562 369.5625 C 596.9375 369.5625 593.054688 373.449219 593.054688 378.242188 C 593.054688 383.035156 596.9375 386.921875 601.726562 386.921875 Z M 601.726562 386.921875 " fill-opacity="1" fill-rule="nonzero"/><path fill="#ffccb3" d="M 317.328125 198.644531 L 309.882812 184.351562 C 309.882812 184.351562 283.546875 169.277344 280.496094 163.828125 C 277.445312 158.378906 276.246094 142.820312 281.648438 138.835938 C 281.648438 138.835938 260.636719 123.046875 264.214844 119.847656 C 267.777344 116.414062 309.058594 147.097656 309.058594 147.097656 C 309.058594 147.097656 304.03125 124.492188 311.667969 123.433594 C 313.738281 132.195312 317.28125 140.539062 322.152344 148.113281 C 330.191406 160.550781 331.183594 171.691406 331.183594 171.691406 L 340.660156 189.890625 Z M 317.328125 198.644531 " fill-opacity="1" fill-rule="nonzero"/><path stroke-linecap="round" transform="matrix(0.152974, 0, 0, 0.153061, 184.518645, 0.140508)" fill="none" stroke-linejoin="round" d="M 644.187083 908.750032 L 727.381384 961.170022 " stroke="#ff967c" stroke-width="13.016" stroke-opacity="1" stroke-miterlimit="4"/><path stroke-linecap="round" transform="matrix(0.152974, 0, 0, 0.153061, 184.518645, 0.140508)" fill="none" stroke-linejoin="round" d="M 631.802419 968.724217 L 702.382237 1012.594695 " stroke="#ff967c" stroke-width="13.016" stroke-opacity="1" stroke-miterlimit="4"/><path stroke-linecap="round" transform="matrix(0.152974, 0, 0, 0.153061, 184.518645, 0.140508)" fill="none" stroke-linejoin="round" d="M 645.514923 1033.547379 L 692.602183 1063.304783 " stroke="#ff967c" stroke-width="13.016" stroke-opacity="1" stroke-miterlimit="4"/><path fill="#ffffff" d="M 332.835938 31.292969 C 336.1875 31.292969 338.902344 28.574219 338.902344 25.222656 C 338.902344 21.875 336.1875 19.15625 332.835938 19.15625 C 329.488281 19.15625 326.773438 21.875 326.773438 25.222656 C 326.773438 28.574219 329.488281 31.292969 332.835938 31.292969 Z M 332.835938 31.292969 " fill-opacity="1" fill-rule="nonzero"/><path fill="#ffffff" d="M 357.332031 31.292969 C 360.679688 31.292969 363.394531 28.574219 363.394531 25.222656 C 363.394531 21.875 360.679688 19.15625 357.332031 19.15625 C 353.980469 19.15625 351.265625 21.875 351.265625 25.222656 C 351.265625 28.574219 353.980469 31.292969 357.332031 31.292969 Z M 357.332031 31.292969 " fill-opacity="1" fill-rule="nonzero"/><path fill="#ffffff" d="M 380.34375 31.292969 C 383.691406 31.292969 386.40625 28.574219 386.40625 25.222656 C 386.40625 21.875 383.691406 19.15625 380.34375 19.15625 C 376.996094 19.15625 374.28125 21.875 374.28125 25.222656 C 374.28125 28.574219 376.996094 31.292969 380.34375 31.292969 Z M 380.34375 31.292969 " fill-opacity="1" fill-rule="nonzero"/><path fill="#febb94" d="M 198.179688 24.480469 C 222.5625 45.285156 286.859375 92.722656 368.523438 94.988281 C 370.195312 95.039062 371.777344 95.738281 372.941406 96.941406 C 374.101562 98.140625 374.75 99.746094 374.75 101.417969 L 374.75 230.886719 C 374.75 232.535156 374.117188 234.125 372.980469 235.320312 C 371.839844 236.519531 370.289062 237.230469 368.636719 237.3125 C 344.085938 238.535156 250.980469 238.394531 189.289062 172.304688 C 188.1875 171.121094 187.578125 169.558594 187.585938 167.9375 L 187.585938 29.382812 C 187.582031 28.15625 187.933594 26.953125 188.59375 25.914062 C 189.257812 24.882812 190.199219 24.054688 191.316406 23.539062 C 192.429688 23.023438 193.667969 22.839844 194.886719 23.007812 C 196.101562 23.171875 197.246094 23.683594 198.179688 24.480469 Z M 198.179688 24.480469 " fill-opacity="0.7" fill-rule="nonzero"/><g clip-path="url(#1d8e5e721b)"><path stroke-linecap="round" transform="matrix(0.152974, 0, 0, 0.153061, 184.518645, 0.140508)" fill="none" stroke-linejoin="miter" d="M 149.770858 408.2846 C 149.770858 408.2846 275.532655 530.478811 447.462437 606.403577 " stroke="#ffffff" stroke-width="33.686001" stroke-opacity="1" stroke-miterlimit="10"/></g><g clip-path="url(#73ff2d7e3d)"><path stroke-linecap="round" transform="matrix(0.152974, 0, 0, 0.153061, 184.518645, 0.140508)" fill="none" stroke-linejoin="miter" d="M 149.770858 556.433597 C 149.770858 556.433597 324.815958 719.716506 552.515032 780.328714 " stroke="#ffffff" stroke-width="33.686001" stroke-opacity="0.4" stroke-miterlimit="10"/></g><path fill="#ffffff" d="M 203.441406 168.230469 L 203.441406 114.15625 L 222.390625 127.722656 L 222.390625 183.105469 Z M 203.441406 168.230469 " fill-opacity="1" fill-rule="nonzero"/><path fill="#ffffff" d="M 235.421875 190.082031 L 235.421875 151.554688 L 254.371094 162.890625 L 254.371094 200.980469 Z M 235.421875 190.082031 " fill-opacity="1" fill-rule="nonzero"/><path fill="#ffffff" d="M 316.449219 220.246094 L 316.449219 181.714844 L 297.5 179.121094 L 297.5 217.210938 Z M 316.449219 220.246094 " fill-opacity="1" fill-rule="nonzero"/><path fill="#ffffff" d="M 347.570312 221.894531 L 347.570312 154.4375 L 328.625 154.4375 L 328.625 221.457031 Z M 347.570312 221.894531 " fill-opacity="1" fill-rule="nonzero"/><path fill="#ffffff" d="M 266.460938 206.964844 L 266.460938 189.347656 L 285.410156 194.679688 L 285.410156 213.832031 Z M 266.460938 206.964844 " fill-opacity="1" fill-rule="nonzero"/><path fill="#96bafd" d="M 245.636719 292.75 C 270.019531 310.660156 334.316406 357.40625 415.980469 349.980469 C 416.773438 349.890625 417.578125 349.96875 418.339844 350.214844 C 419.101562 350.460938 419.800781 350.863281 420.390625 351.40625 C 420.984375 351.945312 421.449219 352.605469 421.761719 353.339844 C 422.078125 354.078125 422.226562 354.875 422.207031 355.671875 L 422.207031 485.140625 C 422.164062 486.851562 421.535156 488.5 420.421875 489.804688 C 419.308594 491.105469 417.78125 491.984375 416.09375 492.292969 C 391.542969 496.429688 289.425781 494.386719 236.746094 441.628906 C 236.199219 441.082031 235.769531 440.433594 235.476562 439.71875 C 235.183594 439.003906 235.035156 438.238281 235.039062 437.464844 L 235.039062 298.910156 C 235.039062 293.421875 241.464844 289.683594 245.636719 292.75 Z M 245.636719 292.75 " fill-opacity="0.7" fill-rule="nonzero"/><path fill="#ffccb3" d="M 638.066406 431.585938 C 638.066406 431.585938 644.601562 432.128906 643.617188 435.425781 C 642.632812 438.726562 636.800781 437.203125 631.476562 440.5 C 626.148438 443.800781 605.097656 446.152344 594.582031 444.398438 C 584.066406 442.644531 581.144531 431.585938 581.144531 431.585938 C 581.144531 431.585938 579.386719 421.09375 597.964844 420.015625 C 616.535156 418.9375 625.179688 424.902344 628.414062 431.367188 Z M 638.066406 431.585938 " fill-opacity="1" fill-rule="nonzero"/><path stroke-linecap="round" transform="matrix(0.152974, 0, 0, 0.153061, 184.518645, 0.140508)" fill="none" stroke-linejoin="miter" d="M 2644.399734 2753.862211 L 2670.62458 2824.402061 " stroke="#e56441" stroke-width="10.147" stroke-opacity="1" stroke-miterlimit="4"/><path stroke-linecap="round" transform="matrix(0.152974, 0, 0, 0.153061, 184.518645, 0.140508)" fill="none" stroke-linejoin="miter" d="M 2712.298337 2742.377793 L 2738.548718 2812.892122 " stroke="#e56441" stroke-width="10.147" stroke-opacity="1" stroke-miterlimit="4"/><path stroke-linecap="round" transform="matrix(0.152974, 0, 0, 0.153061, 184.518645, 0.140508)" fill="none" stroke-linejoin="miter" d="M 2784.027248 2748.34969 L 2810.252093 2818.88954 " stroke="#e56441" stroke-width="10.147" stroke-opacity="1" stroke-miterlimit="4"/><g clip-path="url(#b3f1e8dbd8)"><path fill="#1c85e8" d="M 835.738281 303.28125 C 801.734375 332.300781 712.042969 398.472656 598.132812 401.632812 C 595.804688 401.703125 593.59375 402.679688 591.972656 404.355469 C 590.351562 406.03125 589.445312 408.269531 589.449219 410.601562 L 589.449219 591.195312 C 589.445312 593.5 590.332031 595.714844 591.917969 597.382812 C 593.503906 599.054688 595.675781 600.046875 597.972656 600.160156 C 632.222656 601.867188 762.089844 601.667969 848.148438 509.484375 C 849.679688 507.828125 850.535156 505.652344 850.527344 503.394531 L 850.527344 310.121094 C 850.527344 308.40625 850.035156 306.730469 849.113281 305.285156 C 848.191406 303.839844 846.875 302.6875 845.320312 301.96875 C 843.769531 301.25 842.035156 300.992188 840.34375 301.222656 C 838.644531 301.457031 837.050781 302.171875 835.738281 303.28125 Z M 835.738281 303.28125 " fill-opacity="0.7" fill-rule="nonzero"/></g><g clip-path="url(#dad133a4e6)"><path stroke-linecap="round" transform="matrix(0.152974, 0, 0, 0.153061, 184.518645, 0.140508)" fill="none" stroke-linejoin="miter" d="M 4172.769444 2328.224145 C 4172.769444 2328.224145 3997.341314 2498.678434 3757.538464 2604.590293 " stroke="#ffffff" stroke-width="46.988998" stroke-opacity="1" stroke-miterlimit="10"/></g><g clip-path="url(#1bd5e29d6e)"><path stroke-linecap="round" transform="matrix(0.152974, 0, 0, 0.153061, 184.518645, 0.140508)" fill="none" stroke-linejoin="miter" d="M 4172.769444 2534.892634 C 4172.769444 2534.892634 3928.574508 2762.641411 3610.965324 2847.192251 " stroke="#ffffff" stroke-width="46.988998" stroke-opacity="0.4" stroke-miterlimit="10"/></g><path fill="#ffffff" d="M 805.402344 246.148438 L 701.585938 246.148438 C 699.546875 246.148438 697.53125 246.550781 695.652344 247.332031 C 693.769531 248.109375 692.058594 249.253906 690.617188 250.695312 C 689.179688 252.136719 688.035156 253.847656 687.257812 255.730469 C 686.476562 257.613281 686.074219 259.628906 686.074219 261.667969 L 686.074219 293.804688 C 686.074219 295.84375 686.476562 297.859375 687.257812 299.742188 C 688.035156 301.628906 689.179688 303.335938 690.617188 304.777344 C 692.058594 306.21875 693.769531 307.363281 695.652344 308.144531 C 697.53125 308.921875 699.546875 309.324219 701.585938 309.324219 L 738.441406 309.324219 L 749.3125 320.207031 C 750.332031 321.222656 751.710938 321.796875 753.152344 321.796875 C 754.597656 321.796875 755.976562 321.222656 756.996094 320.207031 L 767.867188 309.324219 L 805.402344 309.324219 C 809.511719 309.324219 813.464844 307.6875 816.367188 304.777344 C 819.28125 301.867188 820.910156 297.921875 820.910156 293.804688 L 820.910156 261.667969 C 820.910156 257.550781 819.28125 253.605469 816.367188 250.695312 C 813.464844 247.785156 809.511719 246.148438 805.402344 246.148438 Z M 805.402344 246.148438 " fill-opacity="1" fill-rule="nonzero"/><path fill="#f4608a" d="M 730.117188 267.542969 C 728.730469 266.261719 726.914062 265.550781 725.027344 265.550781 C 723.140625 265.550781 721.324219 266.261719 719.9375 267.542969 L 718.019531 269.316406 L 716.105469 267.542969 C 714.71875 266.261719 712.902344 265.550781 711.015625 265.550781 C 709.128906 265.550781 707.3125 266.261719 705.925781 267.542969 C 705.195312 268.203125 704.609375 269.015625 704.210938 269.917969 C 703.808594 270.820312 703.601562 271.796875 703.601562 272.78125 C 703.601562 273.769531 703.808594 274.746094 704.210938 275.648438 C 704.609375 276.550781 705.195312 277.359375 705.925781 278.023438 L 718.019531 289.238281 L 730.117188 278.167969 C 730.878906 277.511719 731.496094 276.695312 731.910156 275.78125 C 732.332031 274.863281 732.550781 273.863281 732.550781 272.855469 C 732.550781 271.847656 732.332031 270.851562 731.910156 269.933594 C 731.496094 269.015625 730.878906 268.203125 730.117188 267.542969 Z M 730.117188 267.542969 " fill-opacity="1" fill-rule="nonzero"/><path fill="#1c85e8" d="M 743.621094 274.097656 C 743.726562 272.738281 744.25 271.675781 745.195312 270.90625 C 746.136719 270.136719 747.363281 269.753906 748.871094 269.753906 C 749.875 269.753906 750.742188 269.9375 751.464844 270.308594 C 752.203125 270.664062 752.757812 271.148438 753.125 271.769531 C 753.507812 272.390625 753.699219 273.09375 753.699219 273.875 C 753.699219 274.792969 753.4375 275.582031 752.902344 276.246094 C 752.382812 276.914062 751.703125 277.339844 750.867188 277.535156 L 750.867188 277.644531 C 751.824219 277.878906 752.585938 278.34375 753.148438 279.039062 C 753.707031 279.734375 753.992188 280.644531 753.992188 281.765625 C 753.992188 282.609375 753.800781 283.371094 753.410156 284.050781 C 753.03125 284.714844 752.453125 285.238281 751.683594 285.625 C 750.914062 286.007812 749.992188 286.199219 748.917969 286.199219 C 747.351562 286.199219 746.070312 285.792969 745.0625 284.980469 C 744.058594 284.152344 743.496094 282.984375 743.378906 281.476562 L 745.328125 281.476562 C 745.429688 282.363281 745.789062 283.089844 746.414062 283.648438 C 747.03125 284.210938 747.863281 284.492188 748.898438 284.492188 C 749.929688 284.492188 750.714844 284.226562 751.238281 283.695312 C 751.789062 283.148438 752.066406 282.445312 752.066406 281.589844 C 752.066406 280.480469 751.691406 279.683594 750.957031 279.195312 C 750.214844 278.707031 749.097656 278.464844 747.609375 278.464844 L 747.101562 278.464844 L 747.101562 276.777344 L 747.636719 276.777344 C 748.988281 276.765625 750.019531 276.542969 750.714844 276.113281 C 751.40625 275.671875 751.753906 274.992188 751.753906 274.074219 C 751.753906 273.292969 751.496094 272.664062 750.976562 272.191406 C 750.476562 271.71875 749.75 271.480469 748.808594 271.480469 C 747.894531 271.480469 747.152344 271.71875 746.585938 272.191406 C 746.027344 272.664062 745.695312 273.300781 745.597656 274.097656 Z M 759.125 283.296875 L 756.648438 289.257812 L 755.296875 289.257812 L 756.910156 283.296875 Z M 771.3125 271.8125 L 763.539062 271.8125 L 763.539062 276.867188 C 763.878906 276.394531 764.378906 276.011719 765.042969 275.714844 C 765.710938 275.40625 766.425781 275.25 767.195312 275.25 C 768.421875 275.25 769.417969 275.507812 770.179688 276.027344 C 770.949219 276.527344 771.5 277.1875 771.824219 278 C 772.164062 278.796875 772.332031 279.644531 772.332031 280.546875 C 772.332031 281.613281 772.136719 282.5625 771.734375 283.40625 C 771.339844 284.25 770.722656 284.914062 769.894531 285.402344 C 769.085938 285.890625 768.074219 286.132812 766.859375 286.132812 C 765.316406 286.132812 764.058594 285.734375 763.09375 284.9375 C 762.140625 284.136719 761.550781 283.074219 761.347656 281.746094 L 763.316406 281.746094 C 763.511719 282.585938 763.914062 283.246094 764.539062 283.71875 C 765.15625 284.191406 765.9375 284.425781 766.882812 284.425781 C 768.054688 284.425781 768.925781 284.078125 769.523438 283.386719 C 770.113281 282.675781 770.402344 281.746094 770.402344 280.59375 C 770.402344 279.4375 770.113281 278.554688 769.523438 277.933594 C 768.925781 277.296875 768.058594 276.980469 766.910156 276.980469 C 766.125 276.980469 765.4375 277.171875 764.84375 277.554688 C 764.265625 277.925781 763.851562 278.433594 763.582031 279.085938 L 761.683594 279.085938 L 761.683594 270.042969 L 771.3125 270.042969 Z M 774.773438 284.46875 C 776.644531 282.964844 778.113281 281.730469 779.171875 280.769531 C 780.242188 279.792969 781.136719 278.78125 781.855469 277.734375 C 782.597656 276.667969 782.964844 275.625 782.964844 274.605469 C 782.964844 273.648438 782.730469 272.894531 782.257812 272.347656 C 781.800781 271.785156 781.054688 271.503906 780.019531 271.503906 C 779.015625 271.503906 778.230469 271.820312 777.667969 272.457031 C 777.121094 273.078125 776.832031 273.914062 776.78125 274.960938 L 774.832031 274.960938 C 774.894531 273.308594 775.394531 272.03125 776.339844 271.128906 C 777.289062 270.226562 778.507812 269.773438 780 269.773438 C 781.515625 269.773438 782.722656 270.199219 783.601562 271.039062 C 784.503906 271.882812 784.957031 273.042969 784.957031 274.519531 C 784.957031 275.746094 784.589844 276.941406 783.855469 278.109375 C 783.125 279.261719 782.300781 280.28125 781.371094 281.167969 C 780.441406 282.039062 779.25 283.058594 777.800781 284.226562 L 785.421875 284.226562 L 785.421875 285.910156 L 774.773438 285.910156 Z M 797.609375 271.636719 L 791.453125 286.089844 L 789.414062 286.089844 L 795.660156 271.835938 L 787.113281 271.835938 L 787.113281 270.109375 L 797.609375 270.109375 Z M 797.609375 271.636719 " fill-opacity="1" fill-rule="nonzero"/><g clip-path="url(#f4a5af87bc)"><path fill="#1c85e8" d="M 196.289062 541.941406 L 274.558594 541.941406 C 276.09375 541.941406 277.617188 541.636719 279.035156 541.050781 C 280.453125 540.464844 281.742188 539.601562 282.828125 538.511719 C 283.914062 537.429688 284.773438 536.136719 285.363281 534.71875 C 285.953125 533.296875 286.253906 531.777344 286.253906 530.238281 L 286.253906 506.011719 C 286.253906 504.476562 285.953125 502.953125 285.363281 501.535156 C 284.773438 500.113281 283.914062 498.824219 282.828125 497.738281 C 281.742188 496.652344 280.453125 495.789062 279.035156 495.203125 C 277.617188 494.613281 276.09375 494.3125 274.558594 494.3125 L 246.773438 494.3125 L 238.574219 486.105469 C 237.808594 485.339844 236.765625 484.90625 235.679688 484.90625 C 234.59375 484.90625 233.554688 485.339844 232.785156 486.105469 L 224.585938 494.3125 L 196.289062 494.3125 C 193.1875 494.3125 190.210938 495.542969 188.019531 497.738281 C 185.828125 499.933594 184.59375 502.90625 184.59375 506.011719 L 184.59375 530.238281 C 184.59375 533.34375 185.828125 536.320312 188.019531 538.511719 C 190.210938 540.707031 193.1875 541.941406 196.289062 541.941406 Z M 196.289062 541.941406 " fill-opacity="0.7" fill-rule="nonzero"/></g><path fill="#ffffff" d="M 233.160156 524.082031 C 234.574219 522.945312 235.683594 522.015625 236.484375 521.289062 C 237.285156 520.554688 237.960938 519.792969 238.507812 519.003906 C 239.0625 518.199219 239.339844 517.414062 239.339844 516.644531 C 239.339844 515.921875 239.164062 515.351562 238.804688 514.941406 C 238.460938 514.519531 237.898438 514.304688 237.121094 514.304688 C 236.363281 514.304688 235.773438 514.546875 235.347656 515.023438 C 234.9375 515.492188 234.714844 516.121094 234.679688 516.910156 L 233.210938 516.910156 C 233.257812 515.664062 233.636719 514.703125 234.347656 514.023438 C 235.058594 513.34375 235.976562 513.003906 237.101562 513.003906 C 238.25 513.003906 239.15625 513.320312 239.824219 513.953125 C 240.503906 514.589844 240.84375 515.464844 240.84375 516.578125 C 240.84375 517.503906 240.566406 518.40625 240.007812 519.285156 C 239.464844 520.15625 238.839844 520.921875 238.136719 521.589844 C 237.4375 522.25 236.539062 523.015625 235.449219 523.898438 L 241.195312 523.898438 L 241.195312 525.167969 L 233.160156 525.167969 Z M 242.585938 522.613281 L 242.585938 521.457031 L 248.445312 513.335938 L 250.265625 513.335938 L 250.265625 521.289062 L 251.9375 521.289062 L 251.9375 522.613281 L 250.265625 522.613281 L 250.265625 525.300781 L 248.761719 525.300781 L 248.761719 522.613281 Z M 248.828125 514.925781 L 244.335938 521.289062 L 248.828125 521.289062 Z M 253.421875 516.261719 C 253.5 515.234375 253.894531 514.433594 254.605469 513.855469 C 255.320312 513.273438 256.246094 512.984375 257.378906 512.984375 C 258.136719 512.984375 258.789062 513.125 259.332031 513.402344 C 259.890625 513.671875 260.308594 514.039062 260.585938 514.507812 C 260.875 514.972656 261.019531 515.503906 261.019531 516.09375 C 261.019531 516.785156 260.820312 517.378906 260.417969 517.882812 C 260.03125 518.382812 259.515625 518.707031 258.882812 518.851562 L 258.882812 518.933594 C 259.605469 519.113281 260.179688 519.464844 260.601562 519.988281 C 261.027344 520.511719 261.238281 521.195312 261.238281 522.042969 C 261.238281 522.675781 261.09375 523.25 260.804688 523.765625 C 260.511719 524.265625 260.078125 524.660156 259.5 524.949219 C 258.921875 525.238281 258.226562 525.386719 257.414062 525.386719 C 256.234375 525.386719 255.265625 525.078125 254.507812 524.464844 C 253.75 523.84375 253.328125 522.960938 253.238281 521.828125 L 254.707031 521.828125 C 254.785156 522.492188 255.058594 523.039062 255.527344 523.460938 C 255.992188 523.886719 256.617188 524.097656 257.394531 524.097656 C 258.175781 524.097656 258.765625 523.898438 259.167969 523.496094 C 259.578125 523.085938 259.785156 522.554688 259.785156 521.910156 C 259.785156 521.074219 259.507812 520.472656 258.949219 520.105469 C 258.394531 519.734375 257.550781 519.550781 256.429688 519.550781 L 256.042969 519.550781 L 256.042969 518.28125 L 256.445312 518.28125 C 257.46875 518.273438 258.242188 518.105469 258.765625 517.78125 C 259.289062 517.445312 259.550781 516.933594 259.550781 516.246094 C 259.550781 515.652344 259.355469 515.179688 258.964844 514.824219 C 258.585938 514.46875 258.042969 514.289062 257.328125 514.289062 C 256.640625 514.289062 256.082031 514.46875 255.660156 514.824219 C 255.234375 515.179688 254.984375 515.660156 254.90625 516.261719 Z M 270.019531 516.09375 C 269.773438 514.859375 269.011719 514.238281 267.730469 514.238281 C 266.742188 514.238281 266 514.625 265.511719 515.390625 C 265.019531 516.148438 264.78125 517.402344 264.792969 519.152344 C 265.046875 518.570312 265.472656 518.121094 266.0625 517.796875 C 266.664062 517.464844 267.332031 517.296875 268.066406 517.296875 C 269.214844 517.296875 270.125 517.652344 270.804688 518.367188 C 271.496094 519.078125 271.839844 520.066406 271.839844 521.324219 C 271.839844 522.082031 271.691406 522.761719 271.390625 523.363281 C 271.101562 523.964844 270.65625 524.445312 270.054688 524.796875 C 269.464844 525.15625 268.746094 525.335938 267.898438 525.335938 C 266.75 525.335938 265.855469 525.078125 265.210938 524.566406 C 264.5625 524.054688 264.113281 523.347656 263.855469 522.441406 C 263.601562 521.542969 263.472656 520.425781 263.472656 519.101562 C 263.472656 515.011719 264.898438 512.96875 267.75 512.96875 C 268.839844 512.96875 269.695312 513.265625 270.320312 513.855469 C 270.945312 514.445312 271.3125 515.191406 271.421875 516.09375 Z M 267.75 518.582031 C 267.269531 518.582031 266.820312 518.683594 266.394531 518.882812 C 265.972656 519.074219 265.628906 519.367188 265.359375 519.769531 C 265.105469 520.160156 264.976562 520.636719 264.976562 521.207031 C 264.976562 522.054688 265.222656 522.746094 265.710938 523.277344 C 266.203125 523.800781 266.902344 524.066406 267.816406 524.066406 C 268.59375 524.066406 269.214844 523.824219 269.667969 523.347656 C 270.136719 522.855469 270.371094 522.199219 270.371094 521.375 C 270.371094 520.503906 270.148438 519.824219 269.703125 519.335938 C 269.257812 518.832031 268.605469 518.582031 267.75 518.582031 Z M 267.75 518.582031 " fill-opacity="1" fill-rule="nonzero"/><g clip-path="url(#c4d4a97591)"><path stroke-linecap="round" transform="matrix(0.152974, 0, 0, 0.153061, 184.518645, 0.140508)" fill="none" stroke-linejoin="miter" d="M 2800.369897 3408.065724 C 2800.369897 3408.065724 2963.541041 3373.893199 3038.129916 3294.727275 C 3136.977411 3189.887296 3159.780515 3064.120154 3268.10164 3051.181043 C 3438.065197 3030.891903 3536.606268 3630.965525 3742.957756 3549.783447 C 3949.283709 3468.60137 3900.536649 3020.453843 4023.310805 2944.503556 C 4107.858482 2892.18565 4151.830424 3047.81228 4270.263564 3007.208481 " stroke="#ffffff" stroke-width="46.988998" stroke-opacity="1" stroke-miterlimit="10"/></g><g clip-path="url(#8d8827ba91)"><g clip-path="url(#9e620d94c3)"><path fill="url(#14dc1477ab)" d="M 357.300781 445.050781 L 357.300781 566.261719 L 494.078125 566.261719 L 494.078125 445.050781 Z M 357.300781 445.050781 " fill-rule="nonzero"/></g></g><path fill="#ffffff" d="M 199.882812 527.746094 L 202.449219 527.746094 C 202.925781 527.746094 203.378906 527.554688 203.714844 527.21875 C 204.054688 526.882812 204.242188 526.425781 204.242188 525.949219 L 204.242188 514.148438 C 204.242188 513.671875 204.054688 513.214844 203.714844 512.875 C 203.378906 512.539062 202.925781 512.351562 202.449219 512.351562 L 199.882812 512.351562 C 199.40625 512.351562 198.953125 512.539062 198.613281 512.875 C 198.277344 513.214844 198.089844 513.671875 198.089844 514.148438 L 198.089844 525.949219 C 198.089844 526.425781 198.277344 526.882812 198.613281 527.21875 C 198.953125 527.554688 199.40625 527.746094 199.882812 527.746094 Z M 199.882812 527.746094 " fill-opacity="1" fill-rule="nonzero"/><path fill="#ffffff" d="M 211.199219 504.910156 C 210.171875 504.910156 209.660156 505.421875 209.660156 507.988281 C 209.660156 510.429688 207.300781 512.390625 205.78125 513.398438 L 205.78125 526.113281 C 207.425781 526.875 210.710938 528.003906 215.816406 528.003906 L 217.457031 528.003906 C 218.421875 528.003906 219.359375 527.660156 220.097656 527.039062 C 220.839844 526.414062 221.335938 525.546875 221.496094 524.59375 L 222.644531 517.921875 C 222.75 517.332031 222.71875 516.730469 222.5625 516.152344 C 222.40625 515.574219 222.128906 515.039062 221.742188 514.582031 C 221.355469 514.125 220.875 513.753906 220.335938 513.503906 C 219.792969 513.25 219.203125 513.121094 218.605469 513.121094 L 213.761719 513.121094 C 214.308594 511.820312 214.570312 510.421875 214.53125 509.015625 C 214.53125 505.933594 212.222656 504.910156 211.199219 504.910156 Z M 211.199219 504.910156 " fill-opacity="1" fill-rule="nonzero"/><path fill="#ffffff" d="M 285.316406 423.742188 C 271.710938 418.941406 260.683594 404.015625 260.683594 390.402344 C 260.683594 376.785156 271.710938 369.644531 285.316406 374.441406 L 285.316406 358.621094 C 263.335938 350.867188 245.519531 362.410156 245.519531 384.402344 C 245.519531 406.390625 263.335938 430.507812 285.316406 438.261719 C 306.367188 445.6875 323.589844 435.410156 325.007812 415.207031 L 309.855469 409.859375 C 308.785156 422.105469 298.210938 428.289062 285.316406 423.742188 Z M 285.316406 423.742188 " fill-opacity="1" fill-rule="nonzero"/><path fill="#1c85e8" d="M 290.371094 355.347656 L 290.371094 371.167969 C 303.976562 375.96875 315.003906 390.898438 315.003906 404.511719 C 315.003906 405.222656 314.96875 405.910156 314.910156 406.585938 L 330.0625 411.933594 C 330.125 411.039062 330.167969 410.136719 330.167969 409.207031 C 330.167969 387.21875 312.351562 363.101562 290.371094 355.347656 Z M 290.371094 355.347656 " fill-opacity="1" fill-rule="nonzero"/><path stroke-linecap="butt" transform="matrix(0.152974, 0, 0, 0.153061, 184.518645, 0.140508)" fill="none" stroke-linejoin="miter" d="M 658.921003 2767.541429 L 658.921003 2862.402725 " stroke="#ffffff" stroke-width="11.005" stroke-opacity="1" stroke-miterlimit="10"/><path stroke-linecap="butt" transform="matrix(0.152974, 0, 0, 0.153061, 184.518645, 0.140508)" fill="none" stroke-linejoin="miter" d="M 497.894833 2549.720294 L 398.766448 2514.75662 " stroke="#ffffff" stroke-width="11.005" stroke-opacity="1" stroke-miterlimit="10"/><path stroke-linecap="round" transform="matrix(0.152974, 0, 0, 0.153061, 184.518645, 0.140508)" fill="none" stroke-linejoin="miter" d="M 1076.143744 2564.471391 L 1260.07516 2599.435065 " stroke="#ffffff" stroke-width="46.988998" stroke-opacity="1" stroke-miterlimit="10"/><path stroke-linecap="round" transform="matrix(0.152974, 0, 0, 0.153061, 184.518645, 0.140508)" fill="none" stroke-linejoin="miter" d="M 1076.143744 2852.679251 L 1260.07516 2887.617404 " stroke="#ffffff" stroke-width="46.988998" stroke-opacity="0.4" stroke-miterlimit="10"/><path stroke-linecap="round" transform="matrix(0.152974, 0, 0, 0.153061, 184.518645, 0.140508)" fill="none" stroke-linejoin="miter" d="M 1076.143744 2711.497468 L 1340.383962 2761.722657 " stroke="#ffffff" stroke-width="46.988998" stroke-opacity="1" stroke-miterlimit="10"/><g clip-path="url(#961396a3e5)"><g clip-path="url(#1c096fc2fb)"><path fill="url(#60c26eceab)" d="M 680.019531 11.175781 L 680.019531 239.425781 L 867.1875 239.425781 L 867.1875 11.175781 Z M 680.019531 11.175781 " fill-rule="nonzero"/></g></g><path fill="#ffffff" d="M 692.890625 114.335938 L 692.890625 190.71875 C 692.890625 191.382812 693.039062 192.039062 693.324219 192.640625 C 693.613281 193.238281 694.03125 193.765625 694.550781 194.179688 C 695.066406 194.597656 695.671875 194.890625 696.320312 195.042969 C 696.96875 195.191406 697.640625 195.195312 698.289062 195.050781 C 712.191406 191.933594 749.804688 182.925781 773.558594 171.710938 C 774.320312 171.351562 774.957031 170.785156 775.410156 170.074219 C 775.851562 169.363281 776.09375 168.539062 776.089844 167.699219 L 776.089844 93.316406 C 776.09375 92.574219 775.910156 91.84375 775.546875 91.1875 C 775.195312 90.535156 774.679688 89.984375 774.050781 89.582031 C 773.425781 89.179688 772.710938 88.941406 771.972656 88.890625 C 771.230469 88.839844 770.488281 88.972656 769.808594 89.285156 C 756.574219 95.382812 724.761719 108.707031 697.097656 109.90625 C 695.960938 109.960938 694.890625 110.453125 694.105469 111.277344 C 693.324219 112.101562 692.886719 113.199219 692.890625 114.335938 Z M 692.890625 114.335938 " fill-opacity="1" fill-rule="nonzero"/><path fill="#1c85e8" d="M 696.328125 178.421875 L 696.328125 186.457031 C 696.328125 187.066406 696.46875 187.664062 696.738281 188.210938 C 697.007812 188.753906 697.398438 189.230469 697.882812 189.601562 C 698.363281 189.96875 698.925781 190.222656 699.523438 190.339844 C 700.121094 190.453125 700.734375 190.429688 701.320312 190.269531 L 742.925781 178.890625 C 743.585938 178.710938 744.183594 178.367188 744.667969 177.886719 C 745.152344 177.40625 745.5 176.8125 745.6875 176.160156 C 745.875 175.503906 745.890625 174.8125 745.726562 174.152344 C 745.570312 173.492188 745.242188 172.882812 744.785156 172.382812 L 722.476562 148.371094 C 722.074219 147.941406 721.589844 147.601562 721.042969 147.386719 C 720.492188 147.167969 719.902344 147.078125 719.316406 147.117188 C 718.730469 147.15625 718.160156 147.328125 717.648438 147.613281 C 717.132812 147.902344 716.691406 148.300781 716.351562 148.78125 L 697.050781 176.140625 C 696.582031 176.808594 696.328125 177.605469 696.328125 178.421875 Z M 696.328125 178.421875 " fill-opacity="1" fill-rule="nonzero"/><path fill="#1c85e8" d="M 738.746094 159.582031 L 751.234375 172.835938 C 751.636719 173.261719 752.15625 173.558594 752.722656 173.6875 C 753.292969 173.820312 753.890625 173.773438 754.4375 173.558594 C 758.125 172.117188 766.410156 168.859375 770.605469 167.054688 C 771.132812 166.828125 771.574219 166.449219 771.894531 165.972656 C 772.207031 165.492188 772.371094 164.929688 772.371094 164.359375 L 772.371094 151.9375 C 772.371094 151.300781 772.164062 150.683594 771.789062 150.179688 L 754.234375 126.648438 C 753.917969 126.226562 753.492188 125.898438 753.007812 125.695312 C 752.523438 125.492188 751.988281 125.425781 751.46875 125.496094 C 750.949219 125.570312 750.457031 125.785156 750.039062 126.113281 C 749.632812 126.441406 749.320312 126.875 749.132812 127.371094 L 738.136719 156.527344 C 737.941406 157.042969 737.894531 157.601562 738.007812 158.140625 C 738.109375 158.679688 738.375 159.179688 738.746094 159.582031 Z M 738.746094 159.582031 " fill-opacity="0.6" fill-rule="nonzero"/><path fill="#febb94" d="M 727.785156 138.882812 C 731.488281 138.882812 734.492188 135.878906 734.492188 132.175781 C 734.492188 128.46875 731.488281 125.46875 727.785156 125.46875 C 724.082031 125.46875 721.082031 128.46875 721.082031 132.175781 C 721.082031 135.878906 724.082031 138.882812 727.785156 138.882812 Z M 727.785156 138.882812 " fill-opacity="1" fill-rule="nonzero"/><g clip-path="url(#f59d4028c4)"><path stroke-linecap="round" transform="matrix(0.152974, 0, 0, 0.153061, 184.518645, 0.140508)" fill="none" stroke-linejoin="miter" d="M 3993.48547 566.13155 C 4105.917793 509.092272 4214.162312 444.090464 4317.299753 371.585503 " stroke="#ffffff" stroke-width="46.988998" stroke-opacity="1" stroke-miterlimit="10"/></g><g clip-path="url(#ee6c14beb6)"><path stroke-linecap="round" transform="matrix(0.152974, 0, 0, 0.153061, 184.518645, 0.140508)" fill="none" stroke-linejoin="miter" d="M 3993.48547 755.420286 C 3993.48547 755.420286 4067.180606 719.486817 4168.300751 658.134502 " stroke="#ffffff" stroke-width="46.988998" stroke-opacity="1" stroke-miterlimit="10"/></g><g clip-path="url(#75f01d9f27)"><path stroke-linecap="round" transform="matrix(0.152974, 0, 0, 0.153061, 184.518645, 0.140508)" fill="none" stroke-linejoin="miter" d="M 3993.48547 940.472548 C 4105.917793 883.43327 4214.162312 818.431462 4317.299753 745.9265 " stroke="#ffffff" stroke-width="46.988998" stroke-opacity="1" stroke-miterlimit="10"/></g><g clip-path="url(#f4fe11c6f7)"><path stroke-linecap="round" transform="matrix(0.152974, 0, 0, 0.153061, 184.518645, 0.140508)" fill="none" stroke-linejoin="miter" d="M 3993.48547 1148.238437 C 4105.917793 1091.199159 4214.162312 1026.197351 4317.299753 953.71791 " stroke="#ffffff" stroke-width="46.988998" stroke-opacity="1" stroke-miterlimit="10"/></g><path fill="#ffffff" d="M 702.449219 217.078125 C 705.832031 217.078125 708.574219 214.335938 708.574219 210.953125 C 708.574219 207.570312 705.832031 204.828125 702.449219 204.828125 C 699.066406 204.828125 696.328125 207.570312 696.328125 210.953125 C 696.328125 214.335938 699.066406 217.078125 702.449219 217.078125 Z M 702.449219 217.078125 " fill-opacity="1" fill-rule="nonzero"/><path fill="#ffffff" d="M 737.949219 207.167969 C 741.328125 207.167969 744.070312 204.425781 744.070312 201.042969 C 744.070312 197.660156 741.328125 194.917969 737.949219 194.917969 C 734.566406 194.917969 731.828125 197.660156 731.828125 201.042969 C 731.828125 204.425781 734.566406 207.167969 737.949219 207.167969 Z M 737.949219 207.167969 " fill-opacity="1" fill-rule="nonzero"/><path fill="#ffffff" d="M 769.96875 196.226562 C 773.351562 196.226562 776.089844 193.480469 776.089844 190.097656 C 776.089844 186.714844 773.351562 183.972656 769.96875 183.972656 C 766.589844 183.972656 763.84375 186.714844 763.84375 190.097656 C 763.84375 193.480469 766.589844 196.226562 769.96875 196.226562 Z M 769.96875 196.226562 " fill-opacity="1" fill-rule="nonzero"/></svg>