<svg xmlns="http://www.w3.org/2000/svg" xmlns:xlink="http://www.w3.org/1999/xlink" width="500" zoomAndPan="magnify" viewBox="0 0 375 374.999991" height="500" preserveAspectRatio="xMidYMid meet" version="1.0"><path fill="#004cff" d="M 138.125 192.667969 C 137.917969 192.46875 137.667969 192.371094 137.378906 192.371094 C 137.089844 192.371094 136.839844 192.46875 136.632812 192.667969 C 135.980469 193.261719 135.246094 193.714844 134.425781 194.03125 C 133.609375 194.347656 132.757812 194.507812 131.878906 194.507812 C 128.738281 194.507812 125.925781 192.445312 125.925781 187.800781 C 125.925781 183.15625 128.566406 181.082031 131.425781 181.082031 C 131.789062 181.082031 132.148438 181.117188 132.503906 181.191406 C 132.859375 181.265625 133.207031 181.371094 133.539062 181.515625 C 133.875 181.65625 134.191406 181.832031 134.488281 182.039062 C 134.789062 182.246094 135.0625 182.480469 135.316406 182.746094 C 135.566406 183.007812 135.789062 183.292969 135.984375 183.601562 C 136.175781 183.910156 136.339844 184.234375 136.464844 184.574219 C 136.59375 184.917969 136.6875 185.265625 136.746094 185.625 C 136.800781 185.984375 136.824219 186.347656 136.808594 186.710938 L 129.476562 186.710938 C 129.320312 186.710938 129.171875 186.742188 129.027344 186.800781 C 128.886719 186.859375 128.757812 186.945312 128.648438 187.054688 C 128.539062 187.164062 128.457031 187.292969 128.398438 187.433594 C 128.335938 187.578125 128.308594 187.726562 128.308594 187.882812 L 128.308594 188.972656 L 138.148438 188.972656 C 138.351562 188.972656 138.542969 188.933594 138.726562 188.859375 C 138.914062 188.78125 139.074219 188.671875 139.214844 188.527344 C 139.355469 188.382812 139.460938 188.21875 139.535156 188.03125 C 139.605469 187.84375 139.640625 187.648438 139.632812 187.449219 C 139.457031 182.007812 136.023438 178.554688 131.460938 178.554688 C 126.589844 178.554688 122.984375 182.523438 122.984375 187.800781 C 122.957031 188.398438 122.992188 188.992188 123.082031 189.582031 C 123.175781 190.171875 123.328125 190.746094 123.539062 191.304688 C 123.746094 191.863281 124.011719 192.394531 124.328125 192.902344 C 124.644531 193.40625 125.007812 193.875 125.421875 194.308594 C 125.832031 194.738281 126.285156 195.125 126.773438 195.464844 C 127.265625 195.804688 127.78125 196.089844 128.332031 196.324219 C 128.878906 196.558594 129.445312 196.738281 130.027344 196.855469 C 130.613281 196.976562 131.203125 197.035156 131.796875 197.035156 C 133.226562 197.050781 134.585938 196.753906 135.882812 196.152344 C 137.175781 195.550781 138.28125 194.695312 139.1875 193.59375 Z M 138.125 192.667969 " fill-opacity="1" fill-rule="nonzero"/><path fill="#004cff" d="M 168.632812 180.230469 C 170.6875 179.207031 172.863281 178.6875 175.160156 178.671875 C 180.027344 178.671875 182.714844 181.199219 182.714844 185.847656 L 182.714844 196.695312 L 181.054688 196.695312 C 180.902344 196.695312 180.75 196.664062 180.609375 196.605469 C 180.464844 196.546875 180.339844 196.460938 180.230469 196.351562 C 180.121094 196.242188 180.035156 196.117188 179.976562 195.972656 C 179.917969 195.828125 179.886719 195.679688 179.886719 195.523438 L 179.886719 194.355469 C 179.121094 195.242188 178.199219 195.921875 177.125 196.394531 C 176.054688 196.867188 174.929688 197.082031 173.757812 197.046875 C 170.558594 197.046875 167.117188 195.265625 167.117188 191.429688 C 167.117188 187.589844 169.976562 185.578125 174.726562 185.578125 L 177.703125 185.578125 L 177.703125 186.675781 C 177.703125 186.832031 177.675781 186.980469 177.617188 187.125 C 177.554688 187.269531 177.472656 187.394531 177.363281 187.503906 C 177.253906 187.613281 177.128906 187.699219 176.984375 187.757812 C 176.839844 187.816406 176.691406 187.847656 176.539062 187.847656 L 174.996094 187.847656 C 171.902344 187.847656 170.070312 189.15625 170.070312 191.359375 C 170.070312 193.558594 172.253906 194.683594 174.308594 194.683594 C 177.519531 194.683594 179.980469 192.726562 179.980469 190.152344 L 179.980469 185.964844 C 179.980469 182.980469 178.207031 181.375 174.9375 181.375 C 173.453125 181.394531 172.019531 181.679688 170.640625 182.230469 C 170.5 182.289062 170.355469 182.316406 170.203125 182.3125 C 170.054688 182.308594 169.910156 182.273438 169.773438 182.207031 C 169.636719 182.140625 169.519531 182.050781 169.421875 181.933594 C 169.324219 181.816406 169.257812 181.6875 169.21875 181.539062 Z M 168.632812 180.230469 " fill-opacity="1" fill-rule="nonzero"/><path fill="#004cff" d="M 100.683594 175.582031 L 98.96875 175.582031 C 98.8125 175.582031 98.664062 175.550781 98.523438 175.492188 C 98.378906 175.433594 98.253906 175.347656 98.144531 175.238281 C 98.035156 175.128906 97.949219 175.003906 97.890625 174.859375 C 97.832031 174.714844 97.800781 174.566406 97.800781 174.410156 L 97.800781 172.703125 L 99.515625 172.703125 C 99.671875 172.703125 99.820312 172.734375 99.964844 172.792969 C 100.105469 172.851562 100.234375 172.9375 100.34375 173.046875 C 100.453125 173.15625 100.535156 173.28125 100.597656 173.425781 C 100.65625 173.570312 100.683594 173.71875 100.683594 173.875 Z M 100.683594 175.582031 " fill-opacity="1" fill-rule="nonzero"/><path fill="#004cff" d="M 262.101562 175.582031 L 260.386719 175.582031 C 260.230469 175.582031 260.082031 175.550781 259.941406 175.492188 C 259.796875 175.433594 259.671875 175.347656 259.5625 175.238281 C 259.453125 175.128906 259.367188 175.003906 259.308594 174.859375 C 259.25 174.714844 259.21875 174.566406 259.21875 174.410156 L 259.21875 172.703125 L 260.933594 172.703125 C 261.089844 172.703125 261.238281 172.734375 261.382812 172.792969 C 261.523438 172.851562 261.652344 172.9375 261.761719 173.046875 C 261.871094 173.15625 261.953125 173.28125 262.015625 173.425781 C 262.074219 173.570312 262.101562 173.71875 262.101562 173.875 Z M 262.101562 175.582031 " fill-opacity="1" fill-rule="nonzero"/><path fill="#004cff" d="M 81.457031 181.773438 C 80.558594 180.71875 79.476562 179.90625 78.21875 179.332031 C 76.957031 178.757812 75.636719 178.480469 74.253906 178.496094 C 73.644531 178.496094 73.042969 178.554688 72.449219 178.675781 C 71.851562 178.792969 71.273438 178.96875 70.714844 179.203125 C 70.152344 179.433594 69.621094 179.71875 69.117188 180.058594 C 68.609375 180.398438 68.144531 180.78125 67.714844 181.210938 C 67.285156 181.640625 66.902344 182.109375 66.566406 182.617188 C 66.226562 183.121094 65.941406 183.65625 65.710938 184.21875 C 65.476562 184.78125 65.300781 185.359375 65.183594 185.957031 C 65.066406 186.554688 65.007812 187.15625 65.007812 187.765625 C 65.007812 188.375 65.066406 188.976562 65.183594 189.574219 C 65.300781 190.171875 65.476562 190.75 65.710938 191.3125 C 65.941406 191.875 66.226562 192.410156 66.566406 192.914062 C 66.902344 193.421875 67.285156 193.890625 67.714844 194.320312 C 68.144531 194.75 68.609375 195.132812 69.117188 195.472656 C 69.621094 195.808594 70.152344 196.097656 70.714844 196.328125 C 71.273438 196.5625 71.851562 196.738281 72.449219 196.855469 C 73.042969 196.976562 73.644531 197.035156 74.253906 197.035156 C 75.675781 197.03125 77.027344 196.722656 78.308594 196.105469 C 79.589844 195.492188 80.679688 194.628906 81.574219 193.523438 L 80.488281 192.492188 C 80.265625 192.300781 80.011719 192.203125 79.714844 192.203125 C 79.421875 192.203125 79.167969 192.300781 78.945312 192.492188 C 78.335938 193.101562 77.636719 193.574219 76.84375 193.910156 C 76.054688 194.25 75.230469 194.425781 74.371094 194.449219 C 73.945312 194.4375 73.527344 194.386719 73.113281 194.292969 C 72.699219 194.199219 72.296875 194.066406 71.910156 193.894531 C 71.523438 193.71875 71.15625 193.511719 70.808594 193.265625 C 70.464844 193.015625 70.144531 192.738281 69.855469 192.429688 C 69.566406 192.121094 69.308594 191.785156 69.082031 191.421875 C 68.859375 191.0625 68.671875 190.683594 68.523438 190.285156 C 68.375 189.886719 68.269531 189.476562 68.199219 189.054688 C 68.132812 188.636719 68.105469 188.214844 68.125 187.789062 C 68.101562 187.367188 68.121094 186.949219 68.183594 186.535156 C 68.246094 186.121094 68.351562 185.714844 68.496094 185.320312 C 68.636719 184.925781 68.820312 184.546875 69.039062 184.1875 C 69.257812 183.832031 69.511719 183.496094 69.796875 183.1875 C 70.082031 182.882812 70.394531 182.605469 70.734375 182.359375 C 71.078125 182.117188 71.4375 181.90625 71.820312 181.734375 C 72.203125 181.5625 72.601562 181.433594 73.011719 181.339844 C 73.417969 181.246094 73.832031 181.195312 74.253906 181.1875 C 75.105469 181.203125 75.921875 181.378906 76.703125 181.71875 C 77.488281 182.058594 78.175781 182.53125 78.769531 183.144531 C 78.878906 183.242188 79 183.316406 79.136719 183.367188 C 79.273438 183.417969 79.414062 183.441406 79.558594 183.4375 C 79.707031 183.429688 79.84375 183.398438 79.976562 183.335938 C 80.109375 183.277344 80.226562 183.191406 80.324219 183.085938 Z M 81.457031 181.773438 " fill-opacity="1" fill-rule="nonzero"/><path fill="#004cff" d="M 112.78125 196.695312 C 113.15625 196.6875 113.5 196.578125 113.8125 196.363281 C 114.121094 196.152344 114.351562 195.871094 114.496094 195.523438 L 121.699219 178.941406 L 120.160156 178.941406 C 119.6875 178.9375 119.253906 179.066406 118.855469 179.324219 C 118.460938 179.585938 118.171875 179.933594 117.988281 180.367188 L 112.875 192.726562 L 107.726562 180.390625 C 107.539062 179.957031 107.25 179.609375 106.855469 179.347656 C 106.460938 179.089844 106.027344 178.960938 105.554688 178.964844 L 103.953125 178.964844 L 111.097656 195.546875 C 111.246094 195.886719 111.46875 196.160156 111.773438 196.367188 C 112.078125 196.574219 112.414062 196.683594 112.78125 196.695312 Z M 112.78125 196.695312 " fill-opacity="1" fill-rule="nonzero"/><path fill="#004cff" d="M 93.585938 193.59375 C 92.738281 194.011719 91.84375 194.242188 90.902344 194.285156 C 90.714844 194.3125 90.527344 194.320312 90.335938 194.304688 C 90.148438 194.289062 89.960938 194.25 89.78125 194.191406 C 89.601562 194.132812 89.429688 194.054688 89.269531 193.953125 C 89.109375 193.855469 88.960938 193.738281 88.824219 193.601562 C 88.691406 193.46875 88.574219 193.320312 88.476562 193.15625 C 88.375 192.996094 88.296875 192.824219 88.238281 192.644531 C 88.179688 192.464844 88.140625 192.277344 88.125 192.089844 C 88.109375 191.898438 88.117188 191.710938 88.144531 191.523438 L 88.144531 181.539062 L 93.644531 181.539062 L 93.644531 180.113281 C 93.644531 179.957031 93.617188 179.808594 93.554688 179.664062 C 93.496094 179.519531 93.414062 179.394531 93.304688 179.285156 C 93.195312 179.175781 93.066406 179.089844 92.925781 179.03125 C 92.78125 178.972656 92.632812 178.941406 92.476562 178.941406 L 88.144531 178.941406 L 88.144531 173.851562 C 88.144531 173.695312 88.117188 173.546875 88.058594 173.402344 C 87.996094 173.257812 87.914062 173.132812 87.804688 173.023438 C 87.695312 172.914062 87.570312 172.828125 87.425781 172.769531 C 87.28125 172.710938 87.132812 172.679688 86.980469 172.679688 L 85.285156 172.679688 L 85.285156 191.992188 C 85.28125 192.316406 85.304688 192.640625 85.363281 192.960938 C 85.421875 193.28125 85.507812 193.59375 85.628906 193.898438 C 85.746094 194.199219 85.894531 194.488281 86.070312 194.765625 C 86.246094 195.039062 86.449219 195.292969 86.675781 195.527344 C 86.898438 195.761719 87.148438 195.972656 87.414062 196.15625 C 87.683594 196.34375 87.964844 196.5 88.265625 196.628906 C 88.5625 196.757812 88.871094 196.855469 89.1875 196.925781 C 89.507812 196.992188 89.828125 197.03125 90.152344 197.035156 C 91.394531 197.074219 92.558594 196.808594 93.65625 196.226562 Z M 93.585938 193.59375 " fill-opacity="1" fill-rule="nonzero"/><path fill="#004cff" d="M 98.96875 196.695312 L 100.683594 196.695312 L 100.683594 180.113281 C 100.683594 179.957031 100.65625 179.808594 100.597656 179.664062 C 100.535156 179.519531 100.453125 179.394531 100.34375 179.285156 C 100.234375 179.175781 100.105469 179.089844 99.964844 179.03125 C 99.820312 178.972656 99.671875 178.941406 99.515625 178.941406 L 97.824219 178.941406 L 97.824219 195.546875 C 97.8125 195.703125 97.835938 195.855469 97.890625 196 C 97.945312 196.144531 98.027344 196.273438 98.136719 196.382812 C 98.246094 196.492188 98.375 196.574219 98.519531 196.628906 C 98.664062 196.683594 98.8125 196.707031 98.96875 196.695312 Z M 98.96875 196.695312 " fill-opacity="1" fill-rule="nonzero"/><path fill="#004cff" d="M 164.734375 176.320312 C 163.515625 175.050781 162.09375 174.074219 160.46875 173.398438 C 158.84375 172.71875 157.152344 172.394531 155.394531 172.421875 C 154.585938 172.410156 153.78125 172.484375 152.988281 172.636719 C 152.191406 172.789062 151.421875 173.019531 150.671875 173.328125 C 149.925781 173.636719 149.214844 174.019531 148.546875 174.472656 C 147.875 174.925781 147.253906 175.441406 146.6875 176.019531 C 146.121094 176.597656 145.621094 177.230469 145.179688 177.910156 C 144.742188 178.59375 144.375 179.3125 144.082031 180.066406 C 143.789062 180.824219 143.574219 181.601562 143.4375 182.402344 C 143.304688 183.199219 143.25 184.003906 143.273438 184.816406 C 143.246094 185.621094 143.300781 186.417969 143.433594 187.210938 C 143.566406 188 143.777344 188.773438 144.066406 189.523438 C 144.355469 190.273438 144.714844 190.984375 145.148438 191.660156 C 145.582031 192.339844 146.078125 192.964844 146.636719 193.539062 C 147.195312 194.117188 147.804688 194.628906 148.46875 195.082031 C 149.128906 195.535156 149.832031 195.917969 150.570312 196.226562 C 151.3125 196.539062 152.074219 196.769531 152.859375 196.925781 C 153.644531 197.082031 154.441406 197.15625 155.242188 197.152344 C 157.074219 197.171875 158.832031 196.808594 160.507812 196.066406 C 162.183594 195.320312 163.632812 194.265625 164.851562 192.890625 L 163.683594 191.722656 C 163.460938 191.527344 163.207031 191.429688 162.914062 191.429688 C 162.621094 191.429688 162.363281 191.527344 162.140625 191.722656 C 161.230469 192.609375 160.183594 193.292969 159.003906 193.769531 C 157.824219 194.25 156.597656 194.484375 155.324219 194.484375 C 150.292969 194.484375 146.402344 190.234375 146.402344 184.839844 C 146.402344 179.445312 150.234375 175.3125 155.324219 175.3125 C 156.546875 175.335938 157.730469 175.570312 158.875 176.015625 C 160.015625 176.460938 161.046875 177.089844 161.96875 177.898438 C 162.203125 178.082031 162.46875 178.160156 162.765625 178.136719 C 163.0625 178.117188 163.3125 177.996094 163.519531 177.78125 Z M 164.734375 176.320312 " fill-opacity="1" fill-rule="nonzero"/><path fill="#004cff" d="M 207.347656 178.554688 C 206.738281 178.542969 206.132812 178.605469 205.542969 178.75 C 204.949219 178.894531 204.382812 179.113281 203.847656 179.40625 C 203.308594 179.699219 202.820312 180.054688 202.375 180.476562 C 201.933594 180.898438 201.550781 181.371094 201.230469 181.890625 C 200.96875 181.375 200.640625 180.902344 200.246094 180.480469 C 199.847656 180.058594 199.402344 179.699219 198.90625 179.402344 C 198.410156 179.109375 197.878906 178.886719 197.320312 178.742188 C 196.761719 178.601562 196.191406 178.535156 195.613281 178.554688 C 194.515625 178.539062 193.484375 178.792969 192.515625 179.3125 C 191.546875 179.832031 190.769531 180.554688 190.171875 181.480469 L 190.171875 180.113281 C 190.171875 179.957031 190.144531 179.808594 190.085938 179.664062 C 190.027344 179.519531 189.941406 179.394531 189.832031 179.285156 C 189.722656 179.175781 189.597656 179.089844 189.453125 179.03125 C 189.308594 178.972656 189.160156 178.941406 189.007812 178.941406 L 187.289062 178.941406 L 187.289062 196.695312 L 189.007812 196.695312 C 189.160156 196.695312 189.308594 196.664062 189.453125 196.605469 C 189.597656 196.546875 189.722656 196.460938 189.832031 196.351562 C 189.941406 196.242188 190.027344 196.117188 190.085938 195.972656 C 190.144531 195.828125 190.171875 195.679688 190.171875 195.523438 L 190.171875 186.59375 C 190.171875 183.492188 192.125 181.257812 194.84375 181.257812 C 197.5625 181.257812 199.175781 183.15625 199.175781 186.300781 L 199.175781 195.546875 C 199.175781 195.703125 199.203125 195.851562 199.265625 195.996094 C 199.324219 196.140625 199.40625 196.265625 199.515625 196.375 C 199.625 196.484375 199.753906 196.570312 199.894531 196.628906 C 200.039062 196.6875 200.1875 196.71875 200.34375 196.71875 L 202.058594 196.71875 L 202.058594 186.476562 C 202.058594 182.863281 204.394531 181.257812 206.730469 181.257812 C 209.484375 181.257812 211.082031 183.097656 211.082031 186.359375 L 211.082031 195.546875 C 211.082031 195.703125 211.113281 195.851562 211.171875 195.996094 C 211.230469 196.140625 211.316406 196.265625 211.425781 196.375 C 211.535156 196.484375 211.660156 196.570312 211.804688 196.628906 C 211.945312 196.6875 212.097656 196.71875 212.25 196.71875 L 213.96875 196.71875 L 213.96875 185.730469 C 213.910156 181.316406 211.386719 178.554688 207.347656 178.554688 Z M 207.347656 178.554688 " fill-opacity="1" fill-rule="nonzero"/><path fill="#004cff" d="M 228.046875 178.554688 C 227.402344 178.550781 226.761719 178.628906 226.136719 178.785156 C 225.507812 178.941406 224.910156 179.171875 224.339844 179.480469 C 223.769531 179.785156 223.246094 180.160156 222.769531 180.597656 C 222.292969 181.035156 221.875 181.523438 221.519531 182.066406 L 221.519531 180.113281 C 221.519531 179.957031 221.492188 179.808594 221.433594 179.664062 C 221.371094 179.519531 221.289062 179.394531 221.179688 179.285156 C 221.070312 179.175781 220.941406 179.089844 220.800781 179.03125 C 220.65625 178.972656 220.507812 178.941406 220.351562 178.941406 L 218.636719 178.941406 L 218.636719 200.988281 C 218.636719 201.144531 218.667969 201.292969 218.726562 201.4375 C 218.785156 201.582031 218.871094 201.707031 218.980469 201.816406 C 219.089844 201.925781 219.214844 202.011719 219.359375 202.070312 C 219.5 202.128906 219.648438 202.160156 219.804688 202.160156 L 221.519531 202.160156 L 221.519531 193.652344 C 222.261719 194.722656 223.210938 195.554688 224.367188 196.152344 C 225.519531 196.753906 226.746094 197.046875 228.046875 197.035156 C 232.167969 197.035156 236.523438 193.769531 236.523438 187.800781 C 236.523438 181.832031 232.109375 178.554688 228.046875 178.554688 Z M 233.546875 187.800781 C 233.546875 191.699219 231.082031 194.402344 227.59375 194.402344 C 227.171875 194.390625 226.757812 194.339844 226.351562 194.246094 C 225.941406 194.15625 225.546875 194.023438 225.164062 193.851562 C 224.78125 193.679688 224.417969 193.46875 224.078125 193.226562 C 223.738281 192.980469 223.425781 192.703125 223.136719 192.398438 C 222.851562 192.089844 222.601562 191.757812 222.382812 191.398438 C 222.164062 191.039062 221.980469 190.664062 221.835938 190.269531 C 221.691406 189.875 221.589844 189.46875 221.527344 189.054688 C 221.464844 188.636719 221.441406 188.21875 221.460938 187.800781 C 221.441406 187.378906 221.460938 186.960938 221.523438 186.546875 C 221.585938 186.128906 221.691406 185.722656 221.832031 185.328125 C 221.976562 184.933594 222.160156 184.554688 222.378906 184.199219 C 222.597656 183.839844 222.847656 183.503906 223.132812 183.195312 C 223.421875 182.890625 223.734375 182.613281 224.074219 182.367188 C 224.414062 182.121094 224.777344 181.914062 225.160156 181.738281 C 225.542969 181.566406 225.9375 181.433594 226.347656 181.34375 C 226.757812 181.25 227.171875 181.199219 227.59375 181.1875 C 231.023438 181.1875 233.546875 184.007812 233.546875 187.800781 Z M 233.546875 187.800781 " fill-opacity="1" fill-rule="nonzero"/><path fill="#004cff" d="M 260.328125 196.695312 L 262.042969 196.695312 L 262.042969 180.113281 C 262.042969 179.957031 262.015625 179.808594 261.957031 179.664062 C 261.898438 179.519531 261.8125 179.394531 261.703125 179.285156 C 261.59375 179.175781 261.46875 179.089844 261.324219 179.03125 C 261.179688 178.972656 261.03125 178.941406 260.878906 178.941406 L 259.183594 178.941406 L 259.183594 195.546875 C 259.1875 195.699219 259.21875 195.84375 259.277344 195.984375 C 259.335938 196.121094 259.417969 196.246094 259.527344 196.351562 C 259.632812 196.460938 259.753906 196.542969 259.894531 196.601562 C 260.03125 196.660156 260.175781 196.691406 260.328125 196.695312 Z M 260.328125 196.695312 " fill-opacity="1" fill-rule="nonzero"/><path fill="#004cff" d="M 266.796875 199.621094 C 268 200.445312 269.296875 201.070312 270.691406 201.5 C 272.085938 201.929688 273.511719 202.140625 274.96875 202.136719 C 280.703125 202.136719 283.957031 198.988281 283.957031 193.476562 L 283.957031 178.964844 L 282.242188 178.964844 C 282.085938 178.964844 281.9375 178.996094 281.796875 179.054688 C 281.652344 179.113281 281.527344 179.199219 281.417969 179.308594 C 281.308594 179.417969 281.222656 179.542969 281.164062 179.6875 C 281.105469 179.832031 281.074219 179.980469 281.074219 180.136719 L 281.074219 181.773438 C 280.859375 181.496094 280.625 181.230469 280.375 180.984375 C 280.125 180.734375 279.859375 180.503906 279.578125 180.289062 C 279.300781 180.070312 279.007812 179.875 278.703125 179.699219 C 278.398438 179.519531 278.085938 179.359375 277.761719 179.222656 C 277.4375 179.085938 277.105469 178.96875 276.765625 178.871094 C 276.425781 178.773438 276.082031 178.699219 275.734375 178.648438 C 275.386719 178.597656 275.035156 178.566406 274.683594 178.558594 C 274.328125 178.550781 273.976562 178.5625 273.628906 178.601562 C 273.277344 178.636719 272.929688 178.695312 272.585938 178.773438 C 272.242188 178.855469 271.90625 178.957031 271.578125 179.082031 C 271.246094 179.203125 270.925781 179.347656 270.613281 179.511719 C 270.300781 179.675781 270 179.855469 269.710938 180.058594 C 269.421875 180.261719 269.148438 180.480469 268.886719 180.71875 C 268.625 180.953125 268.378906 181.207031 268.148438 181.476562 C 267.917969 181.742188 267.707031 182.023438 267.511719 182.320312 C 267.320312 182.613281 267.144531 182.917969 266.988281 183.238281 C 266.832031 183.554688 266.699219 183.878906 266.582031 184.214844 C 266.46875 184.546875 266.375 184.886719 266.304688 185.234375 C 266.234375 185.578125 266.183594 185.929688 266.15625 186.28125 C 266.128906 186.632812 266.121094 186.984375 266.140625 187.339844 C 266.15625 187.691406 266.195312 188.042969 266.257812 188.390625 C 266.320312 188.738281 266.402344 189.078125 266.503906 189.417969 C 266.609375 189.753906 266.734375 190.085938 266.882812 190.40625 C 267.027344 190.726562 267.191406 191.039062 267.378906 191.339844 C 267.5625 191.640625 267.765625 191.925781 267.988281 192.203125 C 268.210938 192.476562 268.449219 192.738281 268.703125 192.980469 C 268.957031 193.226562 269.226562 193.453125 269.507812 193.664062 C 269.789062 193.875 270.085938 194.066406 270.394531 194.238281 C 270.699219 194.414062 271.015625 194.566406 271.34375 194.699219 C 271.671875 194.832031 272.003906 194.941406 272.34375 195.035156 C 272.683594 195.125 273.03125 195.191406 273.378906 195.238281 C 273.726562 195.285156 274.078125 195.3125 274.433594 195.3125 C 275.746094 195.328125 276.992188 195.035156 278.167969 194.4375 C 279.339844 193.839844 280.308594 193.003906 281.074219 191.933594 L 281.074219 193.535156 C 281.074219 197.386719 278.84375 199.5625 274.898438 199.5625 C 272.796875 199.5625 270.851562 199.007812 269.0625 197.902344 C 268.9375 197.8125 268.796875 197.757812 268.648438 197.730469 C 268.496094 197.703125 268.347656 197.707031 268.199219 197.746094 C 268.050781 197.785156 267.917969 197.851562 267.800781 197.949219 C 267.679688 198.042969 267.589844 198.160156 267.519531 198.296875 Z M 281.050781 186.933594 C 281.042969 187.332031 280.996094 187.726562 280.910156 188.117188 C 280.820312 188.507812 280.699219 188.882812 280.535156 189.246094 C 280.375 189.613281 280.175781 189.957031 279.945312 190.28125 C 279.714844 190.605469 279.453125 190.90625 279.164062 191.175781 C 278.875 191.449219 278.558594 191.691406 278.222656 191.902344 C 277.882812 192.109375 277.527344 192.285156 277.152344 192.421875 C 276.78125 192.558594 276.394531 192.660156 276.003906 192.722656 C 275.609375 192.78125 275.214844 192.804688 274.816406 192.785156 C 274.429688 192.796875 274.046875 192.769531 273.664062 192.703125 C 273.285156 192.636719 272.914062 192.53125 272.554688 192.390625 C 272.195312 192.246094 271.855469 192.070312 271.53125 191.855469 C 271.207031 191.644531 270.910156 191.402344 270.636719 191.125 C 270.363281 190.851562 270.117188 190.554688 269.90625 190.230469 C 269.695312 189.90625 269.515625 189.5625 269.375 189.203125 C 269.230469 188.84375 269.128906 188.46875 269.0625 188.089844 C 268.996094 187.707031 268.96875 187.320312 268.980469 186.933594 C 268.96875 186.550781 269 186.167969 269.070312 185.792969 C 269.136719 185.414062 269.246094 185.046875 269.390625 184.691406 C 269.535156 184.335938 269.710938 183.996094 269.925781 183.679688 C 270.140625 183.359375 270.382812 183.066406 270.65625 182.796875 C 270.929688 182.527344 271.226562 182.289062 271.550781 182.082031 C 271.871094 181.875 272.214844 181.703125 272.570312 181.566406 C 272.929688 181.425781 273.296875 181.328125 273.675781 181.265625 C 274.054688 181.207031 274.433594 181.183594 274.816406 181.199219 C 275.210938 181.179688 275.601562 181.195312 275.992188 181.253906 C 276.382812 181.3125 276.761719 181.40625 277.132812 181.539062 C 277.503906 181.671875 277.859375 181.839844 278.195312 182.046875 C 278.53125 182.25 278.847656 182.484375 279.136719 182.753906 C 279.425781 183.019531 279.6875 183.3125 279.921875 183.632812 C 280.152344 183.953125 280.351562 184.292969 280.515625 184.648438 C 280.679688 185.007812 280.808594 185.382812 280.898438 185.765625 C 280.988281 186.148438 281.039062 186.539062 281.050781 186.933594 Z M 281.050781 186.933594 " fill-opacity="1" fill-rule="nonzero"/><path fill="#004cff" d="M 297.304688 178.554688 C 296.726562 178.535156 296.15625 178.589844 295.59375 178.714844 C 295.035156 178.84375 294.496094 179.039062 293.984375 179.308594 C 293.472656 179.574219 293.003906 179.902344 292.578125 180.289062 C 292.152344 180.675781 291.78125 181.113281 291.464844 181.597656 L 291.464844 180.113281 C 291.464844 179.957031 291.4375 179.808594 291.375 179.664062 C 291.316406 179.519531 291.234375 179.394531 291.125 179.285156 C 291.015625 179.175781 290.886719 179.089844 290.746094 179.03125 C 290.601562 178.972656 290.453125 178.941406 290.296875 178.941406 L 288.582031 178.941406 L 288.582031 196.695312 L 290.296875 196.695312 C 290.453125 196.695312 290.601562 196.664062 290.746094 196.605469 C 290.886719 196.546875 291.015625 196.460938 291.125 196.351562 C 291.234375 196.242188 291.316406 196.117188 291.375 195.972656 C 291.4375 195.828125 291.464844 195.679688 291.464844 195.523438 L 291.464844 186.511719 C 291.441406 186.171875 291.457031 185.828125 291.503906 185.488281 C 291.550781 185.148438 291.632812 184.816406 291.75 184.492188 C 291.867188 184.167969 292.019531 183.863281 292.199219 183.570312 C 292.378906 183.277344 292.589844 183.007812 292.828125 182.757812 C 293.0625 182.511719 293.324219 182.289062 293.609375 182.097656 C 293.890625 181.902344 294.191406 181.738281 294.507812 181.609375 C 294.824219 181.476562 295.152344 181.378906 295.488281 181.316406 C 295.828125 181.253906 296.167969 181.226562 296.507812 181.234375 C 299.429688 181.234375 301.179688 183.132812 301.179688 186.335938 L 301.179688 195.523438 C 301.179688 195.679688 301.207031 195.828125 301.269531 195.972656 C 301.328125 196.117188 301.410156 196.242188 301.519531 196.351562 C 301.628906 196.460938 301.757812 196.546875 301.898438 196.605469 C 302.042969 196.664062 302.191406 196.695312 302.347656 196.695312 L 304.0625 196.695312 L 304.0625 185.671875 C 304.121094 181.375 301.484375 178.554688 297.304688 178.554688 Z M 297.304688 178.554688 " fill-opacity="1" fill-rule="nonzero"/><path fill="#004cff" d="M 331.765625 187.390625 L 316.941406 197.269531 C 316.621094 197.488281 316.371094 197.769531 316.191406 198.113281 C 316.011719 198.457031 315.921875 198.824219 315.925781 199.210938 L 315.925781 201.679688 L 333.890625 189.859375 C 334.296875 189.578125 334.617188 189.222656 334.851562 188.785156 C 335.082031 188.351562 335.203125 187.886719 335.210938 187.390625 C 335.214844 186.894531 335.101562 186.429688 334.867188 185.992188 C 334.632812 185.554688 334.308594 185.203125 333.890625 184.933594 L 315.925781 173.21875 L 315.925781 175.558594 C 315.925781 175.949219 316.015625 176.316406 316.195312 176.660156 C 316.378906 177.003906 316.628906 177.285156 316.953125 177.5 Z M 331.765625 187.390625 " fill-opacity="1" fill-rule="nonzero"/><path fill="#004cff" d="M 322.835938 188.210938 C 323.238281 188.46875 323.679688 188.597656 324.15625 188.597656 C 324.632812 188.597656 325.074219 188.46875 325.476562 188.210938 L 326.734375 187.355469 L 317.335938 180.976562 C 317.035156 180.769531 316.722656 180.753906 316.402344 180.921875 C 316.078125 181.09375 315.914062 181.359375 315.914062 181.726562 L 315.914062 183.621094 L 320.78125 186.886719 Z M 322.835938 188.210938 " fill-opacity="1" fill-rule="nonzero"/><path fill="#004cff" d="M 240.644531 180.230469 C 242.699219 179.207031 244.875 178.6875 247.171875 178.671875 C 252.027344 178.671875 254.722656 181.199219 254.722656 185.847656 L 254.722656 196.695312 L 253.066406 196.695312 C 252.910156 196.695312 252.761719 196.664062 252.621094 196.605469 C 252.476562 196.546875 252.351562 196.460938 252.242188 196.351562 C 252.132812 196.242188 252.046875 196.117188 251.988281 195.972656 C 251.929688 195.828125 251.898438 195.679688 251.898438 195.523438 L 251.898438 194.355469 C 251.132812 195.242188 250.210938 195.921875 249.136719 196.394531 C 248.0625 196.867188 246.941406 197.082031 245.769531 197.046875 C 242.558594 197.046875 239.125 195.265625 239.125 191.429688 C 239.125 187.589844 241.988281 185.578125 246.738281 185.578125 L 249.714844 185.578125 L 249.714844 186.675781 C 249.714844 186.832031 249.6875 186.980469 249.628906 187.125 C 249.566406 187.269531 249.484375 187.394531 249.375 187.503906 C 249.265625 187.613281 249.136719 187.699219 248.996094 187.757812 C 248.851562 187.816406 248.703125 187.847656 248.546875 187.847656 L 247.042969 187.847656 C 243.949219 187.847656 242.117188 189.15625 242.117188 191.359375 C 242.117188 193.558594 244.285156 194.683594 246.351562 194.683594 C 249.5625 194.683594 252.015625 192.726562 252.015625 190.152344 L 252.015625 185.964844 C 252.015625 182.980469 250.242188 181.375 246.984375 181.375 C 245.5 181.394531 244.066406 181.679688 242.6875 182.230469 C 242.546875 182.300781 242.394531 182.335938 242.234375 182.335938 C 242.078125 182.339844 241.925781 182.308594 241.78125 182.238281 C 241.636719 182.171875 241.515625 182.078125 241.414062 181.953125 C 241.3125 181.832031 241.242188 181.695312 241.203125 181.539062 Z M 240.644531 180.230469 " fill-opacity="1" fill-rule="nonzero"/><path fill="#004cff" d="M 62.578125 196.695312 L 64.234375 196.695312 L 53.972656 173.910156 C 53.824219 173.511719 53.566406 173.207031 53.207031 172.988281 C 52.84375 172.769531 52.453125 172.6875 52.035156 172.738281 C 51.835938 172.707031 51.632812 172.710938 51.433594 172.753906 C 51.234375 172.792969 51.046875 172.867188 50.875 172.976562 C 50.703125 173.082031 50.550781 173.214844 50.425781 173.375 C 50.300781 173.539062 50.207031 173.714844 50.144531 173.910156 L 39.835938 196.695312 L 41.386719 196.695312 C 41.847656 196.683594 42.277344 196.554688 42.664062 196.308594 C 43.054688 196.058594 43.351562 195.730469 43.558594 195.3125 L 45.730469 190.550781 L 53.902344 190.550781 C 54.058594 190.550781 54.207031 190.519531 54.351562 190.460938 C 54.492188 190.402344 54.621094 190.316406 54.730469 190.207031 C 54.839844 190.097656 54.921875 189.972656 54.980469 189.828125 C 55.042969 189.683594 55.070312 189.535156 55.070312 189.378906 L 55.070312 187.800781 L 46.898438 187.800781 L 52.070312 176.320312 L 60.441406 195.230469 C 60.617188 195.667969 60.898438 196.019531 61.289062 196.289062 C 61.675781 196.554688 62.105469 196.6875 62.578125 196.695312 Z M 62.578125 196.695312 " fill-opacity="1" fill-rule="nonzero"/></svg>