<svg xmlns="http://www.w3.org/2000/svg" xmlns:xlink="http://www.w3.org/1999/xlink" width="500" zoomAndPan="magnify" viewBox="0 0 375 374.999991" height="500" preserveAspectRatio="xMidYMid meet" version="1.0"><defs><clipPath id="417cec5482"><path d="M 0 161 L 62 161 L 62 235.375 L 0 235.375 Z M 0 161 " clip-rule="nonzero"/></clipPath><clipPath id="9af3950753"><path d="M 316 159 L 375 159 L 375 235.375 L 316 235.375 Z M 316 159 " clip-rule="nonzero"/></clipPath><clipPath id="838d08ce98"><path d="M 198 159 L 262 159 L 262 235.375 L 198 235.375 Z M 198 159 " clip-rule="nonzero"/></clipPath><clipPath id="617706a4b2"><path d="M 75 139.375 L 138 139.375 L 138 234 L 75 234 Z M 75 139.375 " clip-rule="nonzero"/></clipPath><clipPath id="b6dacff43b"><path d="M 271 139.375 L 315 139.375 L 315 234 L 271 234 Z M 271 139.375 " clip-rule="nonzero"/></clipPath></defs><g clip-path="url(#417cec5482)"><path fill="#ff8800" d="M 6.960938 177.164062 L 43.761719 177.164062 L 43.761719 187.511719 L 29.960938 188.589844 C 7.589844 190.210938 0.554688 196.058594 0.554688 212.613281 L 0.554688 215.941406 C 0.554688 228.085938 9.035156 235.375 22.113281 235.375 C 32.488281 235.375 38.351562 232.945312 45.65625 225.476562 L 46.828125 225.476562 L 46.828125 233.394531 L 61.53125 233.394531 L 61.53125 161.058594 L 6.960938 161.058594 Z M 43.761719 211.980469 C 39.160156 216.570312 32.398438 219.539062 26.714844 219.539062 C 20.671875 219.539062 18.054688 217.289062 18.234375 212.253906 C 18.414062 205.234375 20.941406 203.613281 32.667969 202.535156 L 43.761719 201.457031 C 43.761719 201.546875 43.761719 211.980469 43.761719 211.980469 Z M 43.761719 211.980469 " fill-opacity="1" fill-rule="nonzero"/></g><g clip-path="url(#9af3950753)"><path fill="#054ada" d="M 352.527344 190.210938 L 341.609375 189.128906 C 335.566406 188.5 334.035156 186.96875 334.035156 182.113281 C 334.035156 176.625 336.199219 175.273438 344.679688 175.273438 C 352.253906 175.273438 354.417969 176.445312 355.503906 181.660156 L 372.550781 181.660156 C 372.097656 164.386719 366.777344 159.976562 345.671875 159.976562 C 322.578125 159.976562 316.804688 164.386719 316.804688 182.113281 C 316.804688 198.304688 321.042969 202.714844 338.273438 204.425781 L 347.292969 205.324219 C 355.320312 206.042969 357.304688 207.574219 357.304688 212.433594 C 357.304688 218.371094 354.871094 219.898438 345.039062 219.898438 C 336.378906 219.898438 334.125 218.550781 333.671875 212.882812 L 316.535156 212.882812 C 316.984375 230.785156 322.488281 235.375 344.316406 235.375 C 368.671875 235.375 374.714844 230.515625 374.714844 210.8125 C 374.445312 196.148438 370.023438 191.828125 352.527344 190.210938 Z M 352.527344 190.210938 " fill-opacity="1" fill-rule="nonzero"/></g><g clip-path="url(#838d08ce98)"><path fill="#054ada" d="M 261.332031 191.558594 C 261.332031 168.164062 253.304688 159.976562 230.121094 159.976562 C 206.9375 159.976562 198.371094 170.59375 198.371094 196.957031 C 198.371094 225.746094 206.308594 235.375 231.835938 235.375 C 250.234375 235.375 257.992188 229.796875 260.609375 213.960938 L 243.109375 213.960938 C 241.125 218.820312 239.050781 219.898438 231.5625 219.898438 C 220.289062 219.898438 217.402344 216.75 216.769531 203.253906 L 260.066406 203.253906 C 260.878906 199.296875 261.332031 194.617188 261.332031 191.558594 Z M 216.949219 188.949219 C 217.132812 178.78125 221.191406 175.003906 230.933594 175.003906 C 240.675781 175.003906 244.011719 178.78125 244.28125 188.949219 Z M 216.949219 188.949219 " fill-opacity="1" fill-rule="nonzero"/></g><g clip-path="url(#617706a4b2)"><path fill="#054ada" d="M 121.605469 161.058594 L 93.191406 161.058594 L 93.191406 139.375 L 75.0625 139.375 L 75.0625 233.394531 L 93.191406 233.394531 L 93.191406 177.253906 L 118.992188 177.253906 L 118.992188 233.394531 L 137.121094 233.394531 L 137.121094 175.8125 L 121.605469 175.8125 Z M 121.605469 161.058594 " fill-opacity="1" fill-rule="nonzero"/></g><g clip-path="url(#b6dacff43b)"><path fill="#054ada" d="M 271.523438 164.207031 L 271.523438 233.394531 L 289.65625 233.394531 L 289.65625 176.535156 L 311.394531 176.535156 L 311.394531 161.058594 L 289.65625 161.058594 L 289.65625 159.078125 C 289.835938 154.851562 290.828125 153.589844 294.34375 153.589844 L 314.097656 153.589844 L 314.097656 139.375 L 292.8125 139.375 C 278.378906 139.375 271.523438 143.785156 271.523438 164.207031 Z M 271.523438 164.207031 " fill-opacity="1" fill-rule="nonzero"/></g><path fill="#054ada" d="M 150.472656 233.394531 L 168.601562 233.394531 L 168.601562 178.0625 L 195.484375 178.0625 L 195.484375 161.058594 L 150.472656 161.058594 Z M 150.472656 233.394531 " fill-opacity="1" fill-rule="nonzero"/></svg>