<svg xmlns="http://www.w3.org/2000/svg" xmlns:xlink="http://www.w3.org/1999/xlink" width="1366" zoomAndPan="magnify" viewBox="0 0 1024.5 576" height="768" preserveAspectRatio="xMidYMid meet" version="1.0"><defs><filter x="0%" y="0%" width="100%" height="100%" id="24812c95f2"><feColorMatrix values="0 0 0 0 1 0 0 0 0 1 0 0 0 0 1 0 0 0 1 0" color-interpolation-filters="sRGB"/></filter><clipPath id="889ce97ad6"><path d="M 653 461 L 829.300781 461 L 829.300781 575.859375 L 653 575.859375 Z M 653 461 " clip-rule="nonzero"/></clipPath><clipPath id="15f555a659"><path d="M 472 374 L 778 374 L 778 575.859375 L 472 575.859375 Z M 472 374 " clip-rule="nonzero"/></clipPath><clipPath id="6543eaf1a4"><path d="M 243 301 L 688 301 L 688 575.859375 L 243 575.859375 Z M 243 301 " clip-rule="nonzero"/></clipPath><clipPath id="1e74f1e64f"><path d="M 581 0.140625 L 615 0.140625 L 615 31 L 581 31 Z M 581 0.140625 " clip-rule="nonzero"/></clipPath><clipPath id="453d563b74"><path d="M 194.363281 374 L 501 374 L 501 575.859375 L 194.363281 575.859375 Z M 194.363281 374 " clip-rule="nonzero"/></clipPath><mask id="255e680238"><g filter="url(#24812c95f2)"><rect x="-102.45" width="1229.4" fill="#000000" y="-57.6" height="691.2" fill-opacity="0.2"/></g></mask><clipPath id="c8a8332f54"><rect x="0" width="48" y="0" height="107"/></clipPath><mask id="83d0036328"><g filter="url(#24812c95f2)"><rect x="-102.45" width="1229.4" fill="#000000" y="-57.6" height="691.2" fill-opacity="0.2"/></g></mask><clipPath id="e0819204d3"><rect x="0" width="14" y="0" height="10"/></clipPath><mask id="c65d234581"><g filter="url(#24812c95f2)"><rect x="-102.45" width="1229.4" fill="#000000" y="-57.6" height="691.2" fill-opacity="0.2"/></g></mask><clipPath id="7d12da3b88"><rect x="0" width="56" y="0" height="18"/></clipPath><mask id="e2d6131e85"><g filter="url(#24812c95f2)"><rect x="-102.45" width="1229.4" fill="#000000" y="-57.6" height="691.2" fill-opacity="0.2"/></g></mask><clipPath id="8e4fbc53ca"><rect x="0" width="10" y="0" height="26"/></clipPath><mask id="2942228892"><g filter="url(#24812c95f2)"><rect x="-102.45" width="1229.4" fill="#000000" y="-57.6" height="691.2" fill-opacity="0.2"/></g></mask><clipPath id="7c7f6df267"><path d="M 3 0.0742188 L 5 0.0742188 L 5 18 L 3 18 Z M 3 0.0742188 " clip-rule="nonzero"/></clipPath><clipPath id="8bd134dff8"><rect x="0" width="6" y="0" height="22"/></clipPath></defs><path fill="#e4e8ff" d="M 282.824219 366.847656 C 283.941406 361.988281 288.285156 358.367188 293.480469 358.367188 C 294.4375 358.367188 295.359375 358.488281 296.242188 358.71875 C 298.808594 353.234375 304.371094 349.433594 310.824219 349.433594 C 312.492188 349.433594 314.101562 349.6875 315.613281 350.164062 C 319.089844 344.410156 325.398438 340.5625 332.605469 340.5625 C 341.183594 340.5625 348.492188 346.007812 351.257812 353.628906 C 353.222656 352.539062 355.472656 351.914062 357.878906 351.914062 C 365.398438 351.914062 371.496094 358.007812 371.496094 365.527344 C 371.496094 365.972656 371.472656 366.414062 371.429688 366.851562 L 282.824219 366.851562 Z M 282.824219 366.847656 " fill-opacity="1" fill-rule="nonzero"/><path fill="#e4e8ff" d="M 714.289062 284.28125 C 715.28125 279.957031 719.148438 276.730469 723.777344 276.730469 C 724.628906 276.730469 725.453125 276.839844 726.234375 277.042969 C 728.515625 272.160156 733.46875 268.78125 739.214844 268.78125 C 740.699219 268.78125 742.132812 269.003906 743.480469 269.425781 C 746.574219 264.304688 752.191406 260.878906 758.613281 260.878906 C 766.25 260.878906 772.757812 265.726562 775.21875 272.511719 C 776.964844 271.539062 778.972656 270.980469 781.113281 270.980469 C 787.808594 270.980469 793.234375 276.410156 793.234375 283.105469 C 793.234375 283.503906 793.214844 283.894531 793.175781 284.28125 Z M 714.289062 284.28125 " fill-opacity="1" fill-rule="nonzero"/><path fill="#e4e8ff" d="M 337.328125 257.730469 C 339.027344 250.339844 345.636719 244.828125 353.539062 244.828125 C 354.988281 244.828125 356.394531 245.015625 357.738281 245.367188 C 361.640625 237.027344 370.105469 231.242188 379.921875 231.242188 C 382.460938 231.242188 384.90625 231.628906 387.210938 232.347656 C 392.496094 223.597656 402.09375 217.746094 413.0625 217.746094 C 426.113281 217.746094 437.230469 226.027344 441.4375 237.621094 C 444.417969 235.960938 447.851562 235.011719 451.507812 235.011719 C 462.945312 235.011719 472.21875 244.285156 472.21875 255.722656 C 472.21875 256.398438 472.1875 257.070312 472.121094 257.730469 Z M 337.328125 257.730469 " fill-opacity="1" fill-rule="nonzero"/><path fill="#e4e8ff" d="M 662.214844 74.34375 C 663.117188 70.4375 666.613281 67.519531 670.796875 67.519531 C 671.566406 67.519531 672.308594 67.617188 673.019531 67.800781 C 675.082031 63.390625 679.5625 60.328125 684.761719 60.328125 C 686.105469 60.328125 687.398438 60.53125 688.617188 60.914062 C 691.414062 56.28125 696.496094 53.183594 702.300781 53.183594 C 709.207031 53.183594 715.089844 57.570312 717.320312 63.707031 C 718.894531 62.828125 720.714844 62.324219 722.648438 62.324219 C 728.703125 62.324219 733.609375 67.230469 733.609375 73.285156 C 733.609375 73.644531 733.59375 74 733.558594 74.351562 L 662.214844 74.351562 Z M 662.214844 74.34375 " fill-opacity="1" fill-rule="nonzero"/><path fill="#c04038" d="M 521.28125 158.765625 C 521.351562 159.667969 521.5 160.410156 521.644531 161.113281 C 520.65625 161.421875 519.699219 162.480469 519.699219 163.570312 L 519.550781 166.144531 L 517.332031 166.144531 L 517.332031 163.570312 C 517.328125 161.273438 519.128906 159.234375 521.28125 158.765625 Z M 521.28125 158.765625 " fill-opacity="1" fill-rule="nonzero"/><path fill="#c04038" d="M 536.722656 159.445312 C 536.722656 159.445312 536.878906 159.214844 537.074219 158.847656 C 539.375 159.199219 541.277344 161.171875 541.277344 163.570312 L 541.277344 166.144531 L 538.921875 166.144531 L 538.910156 163.570312 C 538.910156 162.339844 537.859375 161.332031 536.675781 161.175781 C 536.726562 160.226562 536.722656 159.445312 536.722656 159.445312 Z M 536.722656 159.445312 " fill-opacity="1" fill-rule="nonzero"/><path fill="#f2adab" d="M 611.996094 19.347656 C 610.375 18.003906 610.300781 13.296875 610.300781 13.296875 L 600.644531 11.476562 L 587.152344 20.023438 C 587.152344 20.023438 590.5 25.765625 591.148438 30.621094 C 591.148438 30.621094 590.660156 33.855469 588.695312 36.484375 L 599.308594 46.539062 L 603.976562 43.539062 L 604.207031 37.144531 L 603.996094 35.980469 C 605.789062 36.207031 607.738281 36.179688 608.957031 35.304688 C 611.671875 33.355469 613.109375 28.683594 612.070312 25.460938 C 612.070312 25.460938 610.953125 23.980469 613.347656 23.585938 C 615.738281 23.203125 613.613281 20.691406 611.996094 19.347656 Z M 611.996094 19.347656 " fill-opacity="1" fill-rule="nonzero"/><path fill="#f2adab" d="M 530.746094 146.652344 C 530.917969 149.738281 536.167969 152.59375 537.449219 154.683594 C 538.734375 156.777344 536.863281 159.441406 536.863281 159.441406 C 536.863281 159.441406 536.890625 162.152344 536.480469 163.621094 C 536.070312 165.085938 534.441406 165.238281 532.832031 163.867188 C 531.21875 162.488281 530.519531 164.835938 528.429688 164.4375 C 526.34375 164.035156 525.96875 162.90625 523.332031 163.171875 C 518.722656 163.640625 522.617188 145.882812 522.617188 145.882812 Z M 530.746094 146.652344 " fill-opacity="1" fill-rule="nonzero"/><path fill="#f2adab" d="M 644.179688 34.488281 C 644.121094 31.398438 638.972656 28.363281 637.761719 26.226562 C 636.554688 24.085938 638.519531 21.492188 638.519531 21.492188 C 638.519531 21.492188 638.589844 18.777344 639.050781 17.328125 C 639.515625 15.878906 641.144531 15.78125 642.703125 17.214844 C 644.261719 18.644531 645.050781 16.324219 647.121094 16.800781 C 649.195312 17.273438 649.527344 18.417969 652.167969 18.246094 C 656.796875 17.941406 652.269531 35.546875 652.269531 35.546875 Z M 644.179688 34.488281 " fill-opacity="1" fill-rule="nonzero"/><path fill="#e4e8ff" d="M 588.695312 36.484375 C 588.695312 36.484375 592.496094 39.886719 598.871094 42.9375 C 598.871094 42.9375 602.464844 40.484375 604.210938 37.144531 L 609.257812 39.710938 C 609.257812 39.710938 612.847656 66.765625 612.804688 83.191406 C 612.765625 99.617188 617.0625 131.796875 627.363281 143.566406 C 627.363281 143.566406 618.671875 162.355469 599.699219 162.355469 C 580.722656 162.355469 564.214844 140.929688 564.214844 140.929688 C 564.214844 140.929688 587.476562 131.378906 589.574219 123.109375 C 591.671875 114.835938 585.992188 93.140625 582.691406 84.628906 C 579.390625 76.121094 579.910156 51.5625 584.101562 40.75 Z M 588.695312 36.484375 " fill-opacity="1" fill-rule="nonzero"/><path fill="#e4e8ff" d="M 521.078125 144.753906 L 521.09375 147.996094 L 532.738281 148.578125 L 532.867188 144.84375 Z M 521.078125 144.753906 " fill-opacity="1" fill-rule="nonzero"/><path fill="#e4e8ff" d="M 653.769531 36.730469 L 653.875 33.492188 L 642.253906 32.492188 L 641.992188 36.222656 Z M 653.769531 36.730469 " fill-opacity="1" fill-rule="nonzero"/><path fill="#e4e8ff" d="M 645.390625 267.171875 L 646.597656 278.105469 L 630.222656 280.789062 L 628.914062 267.171875 Z M 645.390625 267.171875 " fill-opacity="1" fill-rule="nonzero"/><path fill="#e4e8ff" d="M 534.976562 255.925781 L 527.277344 261.285156 L 540.933594 272.589844 L 548.78125 264.085938 Z M 534.976562 255.925781 " fill-opacity="1" fill-rule="nonzero"/><g clip-path="url(#889ce97ad6)"><path fill="#e4e8ff" d="M 707.96875 535.496094 L 653.453125 575.910156 L 700.882812 575.910156 L 766.875 526.757812 L 801.949219 500.414062 L 814.921875 517.679688 L 829.164062 461.097656 L 772.417969 461.097656 L 784.859375 477.660156 L 707.929688 535.445312 Z M 707.96875 535.496094 " fill-opacity="1" fill-rule="nonzero"/></g><path fill="#00aa67" d="M 588.695312 36.484375 C 588.695312 36.484375 567.761719 41.886719 565.121094 44.226562 C 562.480469 46.570312 537.941406 76.28125 535.160156 81.480469 C 532.378906 86.679688 527.886719 94.414062 524.75 109.214844 C 522.066406 121.875 519.367188 145.75 519.367188 145.75 L 534.160156 146.53125 L 545.875 99.417969 L 564.816406 80.855469 C 564.816406 80.855469 569.714844 123.050781 562.183594 139.851562 C 562.183594 139.851562 579.214844 149.886719 602.90625 148.773438 C 602.90625 148.773438 599.875 98.417969 594.070312 84.132812 C 588.269531 69.84375 587.855469 52.820312 588.695312 36.484375 Z M 588.695312 36.484375 " fill-opacity="1" fill-rule="nonzero"/><path fill="#00aa67" d="M 604.207031 37.148438 C 604.207031 37.148438 609.164062 68.96875 607.988281 86.484375 C 606.808594 104.003906 606.417969 110.09375 608.914062 123.113281 C 611.40625 136.136719 613.273438 147.859375 613.273438 147.859375 C 613.273438 147.859375 622.886719 146.28125 631.394531 141.597656 C 631.394531 141.597656 629.316406 121.648438 624.390625 109.886719 C 616.222656 90.378906 620.15625 71.828125 620.15625 71.828125 C 620.15625 71.828125 633.511719 87.917969 643.511719 86.046875 C 654.886719 83.914062 654.671875 69.71875 655.378906 54.808594 C 656.042969 40.914062 655.550781 34.984375 655.550781 34.984375 L 640.628906 34.136719 C 640.628906 34.136719 638.929688 51.589844 639.453125 64.839844 L 622.046875 41.398438 C 622.050781 41.398438 617.28125 36.523438 604.207031 37.148438 Z M 604.207031 37.148438 " fill-opacity="1" fill-rule="nonzero"/><path fill="#00aa67" d="M 554.613281 205.5625 L 504.007812 205.5625 C 501.824219 205.5625 500.058594 203.792969 500.058594 201.613281 L 500.058594 171.902344 L 558.5625 171.902344 L 558.5625 201.613281 C 558.5625 203.792969 556.789062 205.5625 554.613281 205.5625 Z M 554.613281 205.5625 " fill-opacity="1" fill-rule="nonzero"/><path fill="#00aa67" d="M 610.078125 19.484375 C 610.042969 20.796875 609.070312 21.835938 607.90625 21.804688 C 606.746094 21.769531 605.832031 20.675781 605.871094 19.359375 C 605.90625 18.046875 606.878906 17.007812 608.042969 17.039062 C 609.203125 17.074219 610.117188 18.167969 610.078125 19.484375 Z M 610.078125 19.484375 " fill-opacity="1" fill-rule="nonzero"/><path fill="#00aa67" d="M 615.242188 16.660156 C 615.203125 17.972656 614.230469 19.015625 613.066406 18.980469 C 611.90625 18.949219 610.992188 17.855469 611.03125 16.542969 C 611.070312 15.226562 612.039062 14.1875 613.203125 14.21875 C 614.367188 14.25 615.277344 15.34375 615.242188 16.660156 Z M 615.242188 16.660156 " fill-opacity="1" fill-rule="nonzero"/><path fill="#00aa67" d="M 666.035156 4.398438 C 665.546875 4.410156 665.078125 4.566406 664.636719 4.847656 L 613.292969 15.066406 C 612.527344 15.203125 611.972656 15.878906 611.988281 16.65625 C 612.007812 17.433594 612.589844 18.085938 613.359375 18.1875 L 664.894531 22.5 C 665.386719 22.824219 665.910156 23 666.449219 22.988281 C 669.054688 22.929688 671.074219 18.71875 670.960938 13.585938 C 670.851562 8.449219 668.644531 4.339844 666.035156 4.398438 Z M 666.035156 4.398438 " fill-opacity="1" fill-rule="nonzero"/><path fill="#00aa67" d="M 660.15625 11.023438 C 659.648438 11.011719 659.15625 11.148438 658.683594 11.410156 L 608.292969 17.734375 C 607.46875 17.835938 606.839844 18.527344 606.816406 19.355469 C 606.789062 20.183594 607.378906 20.910156 608.195312 21.058594 L 657.882812 30.207031 C 658.410156 30.609375 658.980469 30.851562 659.589844 30.867188 C 662.371094 30.945312 664.75 26.566406 664.90625 21.089844 C 665.066406 15.613281 662.9375 11.105469 660.15625 11.023438 Z M 660.15625 11.023438 " fill-opacity="1" fill-rule="nonzero"/><path fill="#00aa67" d="M 668.179688 134.578125 L 690.121094 163.789062 L 554.445312 265.707031 L 554.515625 265.800781 L 356.195312 410.601562 L 443.3125 410.601562 L 658.40625 250.386719 L 720.269531 203.921875 L 743.140625 234.371094 L 768.269531 134.578125 Z M 668.179688 134.578125 " fill-opacity="1" fill-rule="nonzero"/><g clip-path="url(#15f555a659)"><path fill="#00aa67" d="M 580.035156 495.984375 L 472.21875 575.910156 L 549.515625 575.910156 L 675.914062 481.761719 L 733.003906 438.878906 L 754.113281 466.984375 L 777.304688 374.882812 L 684.929688 374.882812 L 705.183594 401.847656 L 579.96875 495.902344 Z M 580.035156 495.984375 " fill-opacity="1" fill-rule="nonzero"/></g><path fill="#ffbd00" d="M 598.871094 42.9375 C 598.871094 42.9375 597.53125 45.609375 595.203125 46.984375 C 595.203125 46.984375 598.417969 49.980469 599.753906 50.136719 C 601.089844 50.292969 602.5625 46.984375 602.5625 46.984375 C 602.5625 46.984375 601.890625 44.328125 598.871094 42.9375 Z M 598.871094 42.9375 " fill-opacity="1" fill-rule="nonzero"/><path fill="#ffbd00" d="M 598.675781 47.355469 C 598.675781 47.355469 595.601562 60.238281 584.332031 67.621094 C 573.0625 75 566.730469 80.890625 566.582031 103.589844 C 566.582031 103.589844 567.511719 118.539062 558.632812 125.917969 L 559.171875 143.527344 C 559.171875 143.527344 570.933594 138.542969 575.472656 130.933594 C 580.011719 123.324219 578.847656 103.578125 578.660156 99.367188 C 578.46875 95.152344 578.210938 82.769531 587.925781 74.148438 C 597.640625 65.523438 600.808594 57.757812 601.425781 47.757812 Z M 598.675781 47.355469 " fill-opacity="1" fill-rule="nonzero"/><path fill="#ffbd00" d="M 529.308594 194.261719 C 530.578125 194.261719 531.605469 193.234375 531.605469 191.964844 L 531.605469 190.039062 C 531.605469 188.769531 530.578125 187.742188 529.308594 187.742188 C 528.042969 187.742188 527.015625 188.769531 527.015625 190.039062 L 527.015625 191.964844 C 527.015625 193.234375 528.042969 194.261719 529.308594 194.261719 Z M 529.308594 194.261719 " fill-opacity="1" fill-rule="nonzero"/><path fill="#ffbd00" d="M 654.835938 20.800781 C 654.960938 16.324219 656.578125 12.585938 658.683594 11.410156 L 608.292969 17.734375 C 607.46875 17.835938 606.839844 18.527344 606.816406 19.355469 C 606.789062 20.183594 607.378906 20.910156 608.195312 21.058594 L 657.882812 30.207031 C 655.992188 28.765625 654.710938 25.089844 654.835938 20.800781 Z M 654.835938 20.800781 " fill-opacity="1" fill-rule="nonzero"/><path fill="#ffbd00" d="M 658.683594 11.410156 C 659.152344 11.148438 659.644531 11.007812 660.15625 11.023438 C 660.671875 11.039062 661.164062 11.207031 661.625 11.503906 C 661.957031 8.363281 663.113281 5.839844 664.640625 4.84375 L 613.292969 15.066406 C 612.527344 15.203125 611.972656 15.878906 611.988281 16.65625 C 611.996094 16.867188 612.046875 17.070312 612.125 17.25 Z M 658.683594 11.410156 " fill-opacity="1" fill-rule="nonzero"/><g clip-path="url(#6543eaf1a4)"><path fill="#ffbd00" d="M 269.449219 575.910156 L 410.441406 575.910156 L 591.664062 439.789062 L 637.40625 500.691406 L 687.667969 301.09375 L 487.484375 301.09375 L 531.371094 359.523438 L 243.296875 575.910156 Z M 269.449219 575.910156 " fill-opacity="1" fill-rule="nonzero"/></g><path fill="#c04038" d="M 604.207031 37.148438 C 604.207031 37.148438 607.160156 56.109375 607.964844 72.816406 C 610.832031 62.007812 615.277344 51.921875 615.277344 51.921875 C 613.703125 49.785156 609.382812 47.410156 609.382812 47.410156 L 613.140625 44.398438 C 611.828125 41.777344 610.203125 39.148438 608.886719 37.160156 C 607.464844 37.082031 605.90625 37.066406 604.207031 37.148438 Z M 604.207031 37.148438 " fill-opacity="1" fill-rule="nonzero"/><path fill="#c04038" d="M 646.320312 197.460938 C 642.570312 185.695312 628.457031 146.601562 627.363281 143.570312 C 626.234375 144.0625 625.121094 144.503906 624.039062 144.902344 C 618.902344 146.785156 614.535156 147.628906 613.507812 147.816406 C 613.503906 147.816406 613.5 147.816406 613.492188 147.820312 C 613.421875 147.832031 613.371094 147.839844 613.339844 147.84375 C 613.335938 147.84375 613.332031 147.84375 613.324219 147.847656 C 613.300781 147.851562 613.28125 147.859375 613.28125 147.859375 L 612.363281 142.308594 C 611.746094 138.65625 610.855469 133.511719 609.804688 127.839844 C 606.980469 128.058594 603.839844 127.925781 601.246094 127.714844 C 602.171875 137.625 602.714844 145.800781 602.863281 148.125 C 602.863281 148.128906 602.90625 148.789062 602.90625 148.789062 C 601.71875 148.84375 600.566406 148.84375 599.414062 148.847656 C 597.539062 148.851562 595.691406 148.808594 593.914062 148.6875 C 593.898438 148.6875 593.886719 148.6875 593.867188 148.6875 C 579.992188 147.746094 569.390625 143.417969 564.757812 141.195312 L 564.222656 140.933594 C 564.222656 140.933594 556.511719 157.136719 565.640625 183.0625 C 574.769531 208.992188 570.394531 209.992188 570.394531 209.992188 L 530.128906 256.371094 L 549.355469 270.085938 C 549.355469 270.085938 593.308594 225.40625 596.503906 214.160156 C 599.933594 202.082031 600.679688 183.84375 600.597656 168.925781 C 609.058594 189.570312 620.855469 209.441406 620.855469 209.441406 C 621.382812 230.890625 625.972656 274.03125 625.972656 274.03125 L 647.738281 272.34375 C 644.890625 258.800781 650.226562 209.703125 646.320312 197.460938 Z M 646.320312 197.460938 " fill-opacity="1" fill-rule="nonzero"/><g clip-path="url(#1e74f1e64f)"><path fill="#c04038" d="M 591.148438 30.621094 C 591.148438 30.621094 590.671875 28.605469 587.449219 25.945312 C 584.222656 23.289062 580.265625 16.582031 582.453125 11.34375 C 582.453125 11.34375 584.261719 7.179688 588.851562 6.25 C 588.851562 6.25 590.867188 0.125 596.097656 0.140625 C 601.324219 0.15625 604.585938 2.6875 606.886719 2.921875 C 609.191406 3.15625 615.058594 4.121094 614.671875 8.6875 C 614.28125 13.253906 608.371094 17.855469 603.242188 14.304688 C 603.242188 14.304688 600.925781 12.878906 601.222656 16.734375 C 601.523438 20.589844 600.953125 21.507812 600.953125 21.507812 C 600.953125 21.507812 599.421875 17.796875 597.121094 17.558594 C 594.816406 17.324219 593.570312 18.828125 593.667969 20.628906 C 593.792969 22.890625 592.566406 28.683594 591.148438 30.621094 Z M 591.148438 30.621094 " fill-opacity="1" fill-rule="nonzero"/></g><path fill="#c04038" d="M 543.230469 301.507812 L 513.652344 276.09375 C 512.140625 275.195312 513.789062 271.210938 514.976562 270.226562 L 526.398438 260.078125 C 530.832031 259.140625 530.683594 265.894531 535.453125 266.28125 C 540.925781 267.984375 542.195312 269.503906 543.210938 270.972656 C 545.03125 273.515625 541.988281 274.394531 540.0625 275.914062 C 536.46875 277.996094 537.664062 279.601562 540.015625 281.3125 C 550.546875 288.957031 554.921875 300.609375 543.230469 301.507812 Z M 543.230469 301.507812 " fill-opacity="1" fill-rule="nonzero"/><path fill="#c04038" d="M 673.105469 301.246094 L 631.816406 301.246094 C 628.214844 301.269531 625.957031 297.476562 626.269531 295.921875 L 627.257812 281.503906 C 628.09375 278.335938 634.476562 281.066406 638.804688 278.148438 C 644.667969 275.75 645.023438 275.09375 646.925781 275.53125 C 650.269531 276.246094 650.210938 278.335938 649.652344 280.796875 C 648.070312 284.808594 653.242188 288.242188 656.472656 288.257812 C 669.652344 288.328125 681.367188 297.621094 673.105469 301.246094 Z M 673.105469 301.246094 " fill-opacity="1" fill-rule="nonzero"/><path fill="#c04038" d="M 589.632812 72.566406 C 590.1875 73.457031 590.710938 74.34375 591.203125 75.230469 C 590.917969 74.09375 590.667969 72.941406 590.433594 71.785156 C 590.175781 72.042969 589.910156 72.304688 589.632812 72.566406 Z M 589.632812 72.566406 " fill-opacity="1" fill-rule="nonzero"/><path fill="#c04038" d="M 577 55.953125 C 577 55.953125 581.316406 60.738281 585.65625 66.695312 C 586.941406 65.753906 588.109375 64.742188 589.167969 63.695312 C 588.160156 54.800781 588.234375 45.539062 588.699219 36.484375 C 588.699219 36.484375 585.195312 37.390625 580.875 38.617188 C 579.726562 40.832031 578.253906 43.679688 577.117188 45.867188 L 583.039062 49.050781 C 583.035156 49.046875 579.589844 51.535156 577 55.953125 Z M 577 55.953125 " fill-opacity="1" fill-rule="nonzero"/><path fill="#c04038" d="M 554.613281 165.21875 L 504.007812 165.21875 C 501.824219 165.21875 500.058594 166.984375 500.058594 169.167969 L 500.058594 172.535156 C 500.058594 174.714844 501.253906 176.71875 503.175781 177.75 L 526.503906 190.296875 C 526.667969 190.386719 526.839844 190.457031 527.011719 190.53125 L 527.011719 190.039062 C 527.011719 188.769531 528.039062 187.742188 529.304688 187.742188 C 530.574219 187.742188 531.601562 188.769531 531.601562 190.039062 L 531.601562 190.53125 C 531.773438 190.457031 531.941406 190.386719 532.109375 190.296875 L 555.4375 177.75 C 557.355469 176.71875 558.550781 174.714844 558.550781 172.535156 L 558.550781 169.167969 C 558.5625 166.988281 556.789062 165.21875 554.613281 165.21875 Z M 554.613281 165.21875 " fill-opacity="1" fill-rule="nonzero"/><path fill="#c04038" d="M 659.941406 29.722656 C 658.253906 29.675781 656.484375 26.019531 656.632812 20.851562 C 656.78125 15.6875 658.757812 12.140625 660.445312 12.1875 C 662.132812 12.234375 663.902344 15.890625 663.753906 21.054688 C 663.605469 26.226562 661.628906 29.773438 659.941406 29.722656 Z M 659.941406 29.722656 " fill-opacity="1" fill-rule="nonzero"/><path fill="#c04038" d="M 666.363281 5.472656 C 664.839844 5.503906 663.226562 8.683594 663.207031 13.25 C 664.261719 14.988281 664.914062 17.605469 664.90625 20.546875 C 665.480469 21.421875 666.121094 21.914062 666.730469 21.902344 C 668.308594 21.867188 669.992188 18.453125 669.882812 13.613281 C 669.773438 8.769531 667.941406 5.4375 666.363281 5.472656 Z M 666.363281 5.472656 " fill-opacity="1" fill-rule="nonzero"/><g clip-path="url(#453d563b74)"><path fill="#c04038" d="M 302.785156 495.984375 L 194.96875 575.910156 L 272.265625 575.910156 L 398.664062 481.761719 L 455.753906 438.878906 L 476.867188 466.984375 L 500.058594 374.882812 L 407.683594 374.882812 L 427.9375 401.847656 L 302.722656 495.902344 Z M 302.785156 495.984375 " fill-opacity="1" fill-rule="nonzero"/></g><g mask="url(#255e680238)"><g transform="matrix(1, 0, 0, 1, 558, 42)"><g clip-path="url(#c8a8332f54)"><path fill="#c04038" d="M 43.664062 3.226562 C 44.355469 4.183594 44.554688 4.988281 44.554688 4.988281 C 44.554688 4.988281 44.027344 6.175781 43.316406 7.09375 C 42.5 16.457031 39.1875 23.914062 29.917969 32.148438 C 20.203125 40.769531 20.460938 53.152344 20.65625 57.367188 C 20.84375 61.582031 22.007812 81.324219 17.464844 88.9375 C 14.886719 93.261719 9.980469 96.734375 6.214844 98.933594 C 5.527344 100.265625 4.695312 103.507812 4.695312 103.507812 C 4.695312 103.507812 16.304688 98.195312 20.628906 90.457031 C 24.953125 82.726562 23.234375 63.023438 22.921875 58.820312 C 22.617188 54.613281 22.011719 42.242188 31.472656 33.347656 C 40.511719 24.855469 43.609375 17.3125 44.164062 7.925781 C 44.847656 6.992188 45.347656 5.792969 45.347656 5.792969 C 45.347656 5.792969 44.972656 4.457031 43.664062 3.226562 Z M 43.664062 3.226562 " fill-opacity="1" fill-rule="nonzero"/></g></g></g><g mask="url(#83d0036328)"><g transform="matrix(1, 0, 0, 1, 592, 29)"><g clip-path="url(#e0819204d3)"><path fill="#c04038" d="M 12 7.007812 L 11.777344 6.972656 C 11.777344 6.972656 7.382812 6.050781 3.851562 3.511719 C 3.851562 3.511719 6.496094 6.398438 12.210938 8.148438 Z M 12 7.007812 " fill-opacity="1" fill-rule="nonzero"/></g></g></g><g mask="url(#c65d234581)"><g transform="matrix(1, 0, 0, 1, 609, 4)"><g clip-path="url(#7d12da3b88)"><path fill="#c04038" d="M 51.757812 7.121094 C 51.863281 7.152344 51.964844 7.1875 52.066406 7.222656 C 52.117188 7.246094 52.167969 7.261719 52.21875 7.28125 C 52.351562 7.347656 52.488281 7.417969 52.621094 7.503906 C 52.75 6.246094 53.015625 5.09375 53.382812 4.097656 C 42.769531 6.082031 11.917969 11.875 5.035156 12.246094 C 4.613281 12.359375 4.191406 12.453125 3.769531 12.574219 C 3.492188 12.65625 3.234375 12.679688 2.996094 12.683594 C 3.003906 12.886719 3.050781 13.078125 3.125 13.253906 L 49.683594 7.414062 C 50.152344 7.152344 50.644531 7.011719 51.15625 7.027344 C 51.3125 7.035156 51.464844 7.054688 51.613281 7.089844 C 51.664062 7.09375 51.710938 7.109375 51.757812 7.121094 Z M 51.757812 7.121094 " fill-opacity="1" fill-rule="nonzero"/></g></g></g><g mask="url(#e2d6131e85)"><g transform="matrix(1, 0, 0, 1, 558, 59)"><g clip-path="url(#8e4fbc53ca)"><path fill="#c04038" d="M 4.703125 23.929688 L 6.8125 21.863281 C 6.8125 21.863281 6.695312 10.515625 7.605469 1.558594 C 7.605469 1.5625 5.105469 14.65625 4.703125 23.929688 Z M 4.703125 23.929688 " fill-opacity="1" fill-rule="nonzero"/></g></g></g><g mask="url(#2942228892)"><g transform="matrix(1, 0, 0, 1, 617, 55)"><g clip-path="url(#8bd134dff8)"><g clip-path="url(#7c7f6df267)"><path fill="#c04038" d="M 3.15625 16.828125 C 3.15625 16.828125 3.507812 17.246094 4.082031 17.886719 C 4.914062 8.339844 4.277344 0.742188 4.277344 0.742188 C 3.941406 9.164062 3.15625 16.828125 3.15625 16.828125 Z M 3.15625 16.828125 " fill-opacity="1" fill-rule="nonzero"/></g></g></g></g></svg>