<svg xmlns="http://www.w3.org/2000/svg" xmlns:xlink="http://www.w3.org/1999/xlink" width="500" zoomAndPan="magnify" viewBox="0 0 375 374.999991" height="500" preserveAspectRatio="xMidYMid meet" version="1.0"><defs><clipPath id="d6705303e5"><path d="M 0 171.015625 L 375 171.015625 L 375 204.015625 L 0 204.015625 Z M 0 171.015625 " clip-rule="nonzero"/></clipPath></defs><g clip-path="url(#d6705303e5)"><path fill="#111111" d="M 0.0117188 171.691406 L 13.5 171.691406 C 21.003906 171.691406 24.925781 175.574219 24.925781 180.34375 C 24.925781 183.636719 23.070312 185.871094 20.5 187.054688 L 20.5 187.140625 C 23.789062 188.320312 25.644531 190.9375 25.644531 194.269531 C 25.644531 199.039062 21.976562 203.214844 14.050781 203.214844 L 0.0117188 203.214844 Z M 13.082031 184.183594 C 15.3125 184.183594 16.328125 183.046875 16.328125 181.777344 C 16.328125 180.507812 15.316406 179.328125 13.082031 179.328125 L 9.117188 179.328125 L 9.117188 184.183594 Z M 13.207031 195.578125 C 15.566406 195.578125 16.707031 194.4375 16.707031 192.960938 C 16.707031 191.484375 15.523438 190.347656 13.25 190.347656 L 9.117188 190.347656 L 9.117188 195.578125 Z M 27.578125 190.386719 L 27.578125 171.691406 L 36.769531 171.691406 L 36.769531 190.300781 C 36.769531 193.804688 38.496094 195.660156 41.445312 195.660156 C 44.398438 195.660156 46.25 193.804688 46.25 190.261719 L 46.25 171.691406 L 55.484375 171.691406 L 55.484375 190.386719 C 55.484375 198.320312 50.175781 204.019531 41.445312 204.019531 C 32.71875 204.019531 27.578125 198.320312 27.578125 190.386719 Z M 78.878906 173.210938 L 78.878906 181.3125 C 76.898438 179.921875 73.527344 178.949219 70.789062 178.949219 C 68.300781 178.949219 67.035156 179.753906 67.035156 180.804688 C 67.035156 181.859375 68.425781 182.410156 70.914062 183.296875 C 75.132812 184.773438 80.863281 186.753906 80.863281 193.464844 C 80.863281 199.457031 76.351562 203.886719 68.425781 203.886719 C 64.335938 203.886719 60.585938 202.703125 58.265625 201.144531 L 58.265625 192.621094 C 60.542969 194.476562 64 195.953125 67.328125 195.953125 C 70.152344 195.953125 71.460938 194.898438 71.460938 193.71875 C 71.460938 192.199219 69.308594 191.523438 66.738281 190.59375 C 63.367188 189.371094 58.015625 187.175781 58.015625 181.058594 C 58.015625 175.527344 62.355469 171.015625 70.113281 171.015625 C 73.527344 171.015625 76.605469 171.898438 78.878906 173.207031 Z M 83.222656 171.691406 L 92.410156 171.691406 L 92.410156 203.214844 L 83.222656 203.214844 Z M 125.082031 203.214844 L 116.3125 203.214844 L 104.972656 186.296875 L 104.929688 186.296875 L 104.929688 203.214844 L 96.207031 203.214844 L 96.207031 171.691406 L 104.976562 171.691406 L 116.316406 188.320312 L 116.355469 188.320312 L 116.355469 171.691406 L 125.082031 171.691406 Z M 128.875 171.691406 L 150.625 171.691406 L 150.625 179.878906 L 138.0625 179.878906 L 138.0625 183.675781 L 149.359375 183.675781 L 149.359375 191.105469 L 138.0625 191.105469 L 138.0625 195.03125 L 150.625 195.03125 L 150.625 203.214844 L 128.875 203.214844 Z M 173.683594 173.210938 L 173.683594 181.3125 C 171.703125 179.921875 168.332031 178.949219 165.59375 178.949219 C 163.105469 178.949219 161.839844 179.753906 161.839844 180.804688 C 161.839844 181.859375 163.230469 182.410156 165.71875 183.296875 C 169.933594 184.773438 175.664062 186.753906 175.664062 193.464844 C 175.664062 199.457031 171.15625 203.886719 163.230469 203.886719 C 159.140625 203.886719 155.390625 202.703125 153.070312 201.144531 L 153.070312 192.621094 C 155.347656 194.476562 158.804688 195.953125 162.132812 195.953125 C 164.957031 195.953125 166.265625 194.898438 166.265625 193.71875 C 166.265625 192.199219 164.113281 191.523438 161.542969 190.59375 C 158.167969 189.371094 152.816406 187.175781 152.816406 181.058594 C 152.816406 175.527344 157.160156 171.015625 164.917969 171.015625 C 168.332031 171.015625 171.40625 171.898438 173.683594 173.207031 Z M 198.007812 173.210938 L 198.007812 181.3125 C 196.027344 179.921875 192.652344 178.949219 189.914062 178.949219 C 187.429688 178.949219 186.164062 179.753906 186.164062 180.804688 C 186.164062 181.859375 187.550781 182.410156 190.042969 183.296875 C 194.257812 184.773438 199.988281 186.753906 199.988281 193.464844 C 199.988281 199.457031 195.476562 203.886719 187.550781 203.886719 C 183.464844 203.886719 179.710938 202.703125 177.394531 201.144531 L 177.394531 192.621094 C 179.671875 194.476562 183.125 195.953125 186.457031 195.953125 C 189.28125 195.953125 190.585938 194.898438 190.585938 193.71875 C 190.585938 192.199219 188.4375 191.523438 185.867188 190.59375 C 182.492188 189.371094 177.140625 187.175781 177.140625 181.058594 C 177.140625 175.527344 181.484375 171.015625 189.238281 171.015625 C 192.652344 171.015625 195.730469 171.898438 198.007812 173.207031 Z M 210.636719 203.277344 L 219.824219 203.277344 L 219.824219 171.757812 L 210.636719 171.757812 L 210.636719 203.28125 Z M 252.488281 171.757812 L 243.765625 171.757812 L 243.765625 188.382812 L 243.722656 188.382812 L 232.382812 171.757812 L 223.617188 171.757812 L 223.617188 203.28125 L 232.339844 203.28125 L 232.339844 186.359375 L 232.382812 186.359375 L 243.722656 203.28125 L 252.488281 203.28125 Z M 267.28125 171.078125 C 259.523438 171.078125 255.183594 175.59375 255.183594 181.121094 C 255.183594 187.242188 260.535156 189.4375 263.90625 190.660156 C 266.476562 191.589844 268.628906 192.261719 268.628906 193.785156 C 268.628906 194.964844 267.320312 196.019531 264.496094 196.019531 C 261.167969 196.019531 257.710938 194.542969 255.433594 192.6875 L 255.433594 201.210938 C 257.753906 202.773438 261.507812 203.953125 265.59375 203.953125 C 273.519531 203.953125 278.03125 199.523438 278.03125 193.53125 C 278.03125 186.820312 272.296875 184.839844 268.082031 183.359375 C 265.597656 182.476562 264.203125 181.96875 264.203125 180.871094 C 264.203125 179.773438 265.46875 179.015625 267.957031 179.015625 C 270.695312 179.015625 274.070312 179.988281 276.050781 181.378906 L 276.050781 173.273438 C 273.773438 171.964844 270.695312 171.078125 267.28125 171.078125 Z M 280.175781 203.277344 L 289.363281 203.277344 L 289.363281 171.757812 L 280.175781 171.757812 L 280.175781 203.28125 Z M 302.347656 194.964844 L 304.117188 194.964844 C 308.882812 194.964844 311.957031 192.261719 311.957031 187.535156 C 311.957031 182.808594 308.882812 180.066406 304.117188 180.066406 L 302.347656 180.066406 Z M 321.234375 187.535156 C 321.234375 197.03125 314.066406 203.277344 303.78125 203.277344 L 293.15625 203.277344 L 293.15625 171.757812 L 303.78125 171.757812 C 314.066406 171.757812 321.234375 178.042969 321.234375 187.539062 Z M 323.722656 203.277344 L 345.476562 203.277344 L 345.476562 195.089844 L 332.914062 195.089844 L 332.914062 191.164062 L 344.210938 191.164062 L 344.210938 183.738281 L 332.914062 183.738281 L 332.914062 179.941406 L 345.476562 179.941406 L 345.476562 171.757812 L 323.722656 171.757812 L 323.722656 203.28125 Z M 359.9375 186.648438 C 362.257812 186.648438 364.070312 185.554688 364.070312 183.359375 C 364.070312 181.164062 362.257812 180.066406 359.898438 180.066406 L 357.957031 180.066406 L 357.957031 186.648438 Z M 374.988281 203.277344 L 364.152344 203.277344 L 358.167969 193.527344 L 357.957031 193.527344 L 357.957031 203.277344 L 348.765625 203.277344 L 348.765625 171.757812 L 359.980469 171.757812 C 367.863281 171.757812 373.34375 175.257812 373.34375 182.730469 C 373.34375 185.683594 372.035156 189.984375 366.808594 192.179688 L 374.984375 203.28125 Z M 374.988281 203.277344 " fill-opacity="1" fill-rule="evenodd"/></g></svg>