<svg xmlns="http://www.w3.org/2000/svg" xmlns:xlink="http://www.w3.org/1999/xlink" width="1366" zoomAndPan="magnify" viewBox="0 0 1024.5 576" height="768" preserveAspectRatio="xMidYMid meet" version="1.0"><defs><clipPath id="c0556118db"><path d="M 328 0.140625 L 695 0.140625 L 695 365 L 328 365 Z M 328 0.140625 " clip-rule="nonzero"/></clipPath><clipPath id="84523ec227"><path d="M 328 0.140625 L 695 0.140625 L 695 61 L 328 61 Z M 328 0.140625 " clip-rule="nonzero"/></clipPath></defs><path fill="#ffffff" d="M 329.484375 1.015625 L 693.78125 1.015625 L 693.78125 363.378906 L 329.484375 363.378906 Z M 329.484375 1.015625 " fill-opacity="1" fill-rule="nonzero"/><g clip-path="url(#c0556118db)"><path stroke-linecap="round" transform="matrix(1.110682, 0, 0, 1.110569, 95.578203, -129.573953)" fill="none" stroke-linejoin="round" d="M 210.596939 117.587986 L 538.590879 117.587986 L 538.590879 443.874119 L 210.596939 443.874119 Z M 210.596939 117.587986 " stroke="#10112b" stroke-width="1.5" stroke-opacity="1" stroke-miterlimit="10"/></g><g clip-path="url(#84523ec227)"><path stroke-linecap="round" transform="matrix(1.110682, 0, 0, 1.110569, 95.578203, -129.573953)" fill="none" stroke-linejoin="round" d="M 538.587362 117.584469 L 538.587362 170.13706 L 494.020139 170.13706 L 494.020139 151.185627 L 450.620555 151.185627 L 433.482291 170.13706 L 210.596939 170.13706 L 210.596939 117.584469 Z M 538.587362 117.584469 " stroke="#10112b" stroke-width="1.5" stroke-opacity="1" stroke-miterlimit="10"/></g><path stroke-linecap="round" transform="matrix(1.110682, 0, 0, 1.110569, 95.578203, -129.573953)" fill-opacity="1" fill="#f78e34" fill-rule="nonzero" stroke-linejoin="round" d="M 237.202924 143.859006 C 237.202924 147.692907 234.100944 150.795202 230.267431 150.795202 C 226.433919 150.795202 223.317871 147.692907 223.317871 143.859006 C 223.317871 140.028621 226.433919 136.926327 230.267431 136.926327 C 234.100944 136.926327 237.202924 140.028621 237.202924 143.859006 Z M 237.202924 143.859006 " stroke="#10112b" stroke-width="1.5" stroke-opacity="1" stroke-miterlimit="10"/><path stroke-linecap="round" transform="matrix(1.110682, 0, 0, 1.110569, 95.578203, -129.573953)" fill-opacity="1" fill="#f15d5e" fill-rule="nonzero" stroke-linejoin="round" d="M 263.105512 143.859006 C 263.105512 147.692907 260.003532 150.795202 256.170019 150.795202 C 252.336507 150.795202 249.220459 147.692907 249.220459 143.859006 C 249.220459 140.028621 252.336507 136.926327 256.170019 136.926327 C 260.003532 136.926327 263.105512 140.028621 263.105512 143.859006 Z M 263.105512 143.859006 " stroke="#10112b" stroke-width="1.5" stroke-opacity="1" stroke-miterlimit="10"/><path stroke-linecap="round" transform="matrix(1.110682, 0, 0, 1.110569, 95.578203, -129.573953)" fill-opacity="1" fill="#888ac3" fill-rule="nonzero" stroke-linejoin="round" d="M 289.011617 143.859006 C 289.011617 147.692907 285.909637 150.795202 282.076125 150.795202 C 278.242612 150.795202 275.123047 147.692907 275.123047 143.859006 C 275.123047 140.028621 278.242612 136.926327 282.076125 136.926327 C 285.909637 136.926327 289.011617 140.028621 289.011617 143.859006 Z M 289.011617 143.859006 " stroke="#10112b" stroke-width="1.5" stroke-opacity="1" stroke-miterlimit="10"/><path stroke-linecap="round" transform="matrix(1.110682, 0, 0, 1.110569, 95.578203, -129.573953)" fill-opacity="1" fill="#f15d5e" fill-rule="nonzero" stroke-linejoin="round" d="M 514.861787 196.277938 L 514.861787 274.478979 C 514.861787 278.622407 511.503067 281.981467 507.36006 281.981467 L 356.667841 281.981467 C 352.524834 281.981467 349.166114 278.622407 349.166114 274.478979 L 349.166114 196.277938 C 349.166114 192.13451 352.524834 188.77545 356.667841 188.77545 L 507.36006 188.77545 C 511.503067 188.77545 514.861787 192.13451 514.861787 196.277938 Z M 514.861787 196.277938 " stroke="#10112b" stroke-width="1.5" stroke-opacity="1" stroke-miterlimit="10"/><path stroke-linecap="round" transform="matrix(0.276422, -1.075625, 1.075734, 0.276394, -28.513461, 667.83189)" fill-opacity="1" fill="#888ac3" fill-rule="nonzero" stroke-linejoin="round" d="M 534.38731 431.039303 C 534.38749 432.114104 534.336475 433.187535 534.234265 434.259596 C 534.132056 435.331657 533.979527 436.405754 533.774929 437.475075 C 533.570331 438.544396 533.317069 439.608066 533.009206 440.67124 C 532.70475 441.73354 532.348224 442.791063 531.940504 443.847216 C 531.535314 444.899088 531.078055 445.946183 530.573009 446.991033 C 530.067086 448.032476 529.508219 449.065737 528.904971 450.095877 C 528.300847 451.122611 527.64806 452.143694 526.945735 453.155718 C 526.242534 454.164336 525.494077 455.166427 524.696081 456.15946 C 523.898085 457.152492 523.053958 458.135592 522.162824 459.105352 C 521.272564 460.078518 520.335298 461.038345 519.354431 461.983956 C 518.370158 462.930443 517.343159 463.866121 516.27256 464.787584 C 515.201962 465.709047 514.087762 466.616295 512.929962 467.509327 C 511.772163 468.40236 510.570763 469.281178 509.329169 470.144905 C 508.090981 471.007757 506.808319 471.852988 505.485462 472.683128 C 504.162605 473.513268 502.802961 474.327442 501.402249 475.12312 C 500.005818 475.921328 498.567443 476.697633 497.095687 477.457098 C 495.620525 478.217437 494.111107 478.957529 492.568309 479.68078 C 491.024635 480.400624 489.447581 481.103627 487.835396 481.782977 C 486.224086 482.465732 484.581928 483.127365 482.90892 483.767875 C 481.235037 484.404978 479.53118 485.024365 477.799881 485.621754 C 476.065175 486.220018 474.305558 486.792002 472.519374 487.345394 C 470.73319 487.898786 468.918689 488.426773 467.081027 488.935293 C 465.24249 489.440407 463.383324 489.921771 461.500122 490.380262 C 459.614388 490.843035 457.710557 491.277777 455.786097 491.68877 C 453.861638 492.099762 451.916549 492.487006 449.953362 492.846219 C 447.991051 493.208838 446.014924 493.545958 444.021574 493.858453 C 442.028225 494.170948 440.016778 494.455412 437.995797 494.716907 C 435.974817 494.978403 433.943427 495.213523 431.898221 495.423143 C 429.856423 495.631888 427.80509 495.817664 425.742473 495.973659 C 423.680732 496.133059 421.611988 496.26521 419.539649 496.369234 C 417.463903 496.474134 415.388843 496.553438 413.306781 496.605492 C 411.224718 496.657546 409.143342 496.684005 407.059246 496.685745 C 404.974275 496.684078 402.894271 496.659347 400.810672 496.60649 C 398.73048 496.552757 396.650974 496.47343 394.579843 496.370163 C 392.50443 496.264365 390.436516 496.131221 388.376978 495.974138 C 386.314033 495.817931 384.261994 495.633502 382.21833 495.425133 C 380.17379 495.213359 378.141908 494.980175 376.120932 494.718771 C 374.099956 494.457366 372.090761 494.171147 370.096755 493.859238 C 368.102749 493.547328 366.123931 493.209729 364.164583 492.84897 C 362.200954 492.48568 360.256794 492.09923 358.332105 491.689622 C 356.40654 491.276607 354.503853 490.839557 352.618104 490.38363 C 350.734886 489.923422 348.874546 489.439178 347.037957 488.934306 C 345.197087 488.426903 343.386782 487.897122 341.60023 487.346711 C 339.812802 486.792895 338.052533 486.217574 336.319423 485.62075 C 334.586312 485.023926 332.883768 484.404723 331.209257 483.767423 C 329.533871 483.126716 327.893333 482.466161 326.28336 481.783227 C 324.669981 481.101168 323.095731 480.401792 321.54864 479.680912 C 320.004955 478.959157 318.496118 478.217554 317.023004 477.459509 C 315.549014 476.698058 314.114154 475.919289 312.715017 475.124078 C 311.31588 474.328868 309.954996 473.512934 308.630711 472.683964 C 307.309833 471.854119 306.028084 471.006957 304.78634 470.145884 C 303.547127 469.280529 302.344512 468.402139 301.188715 467.508087 C 300.030387 466.618317 298.918002 465.709479 297.845622 464.786729 C 296.774116 463.867387 295.746022 462.933258 294.764747 461.983467 C 293.784346 461.037082 292.843951 460.076787 291.95553 459.106767 C 291.062828 458.134217 290.218694 457.152817 289.422254 456.159162 C 288.626689 455.168913 287.87541 454.167284 287.171826 453.1534 C 286.472523 452.142047 285.818382 451.122721 285.212809 450.094545 C 284.607237 449.066369 284.051109 448.032751 283.546955 446.989408 C 283.039396 445.946941 282.58128 444.89903 282.176015 443.844802 C 281.77075 442.790574 281.412397 441.735185 281.10602 440.670071 C 280.800518 439.608364 280.548742 438.543745 280.343003 437.474559 C 280.140671 436.404497 279.985252 435.333274 279.883558 434.25914 C 279.781865 433.185005 279.731366 432.112241 279.731186 431.03744 C 279.731006 429.962639 279.782021 428.889208 279.884231 427.817147 C 279.98644 426.745086 280.139844 425.674395 280.344442 424.605074 C 280.549041 423.535753 280.801427 422.468678 281.10929 421.405503 C 281.413746 420.343203 281.770272 419.28568 282.175461 418.233809 C 282.583182 417.177655 283.040441 416.13056 283.546363 415.089117 C 284.052285 414.047673 284.60687 413.011881 285.214401 411.984272 C 285.817649 410.954132 286.471311 409.936456 287.173637 408.924432 C 287.875962 407.912407 288.624419 406.910316 289.422415 405.917284 C 290.220411 404.924251 291.064538 403.941151 291.955673 402.971391 C 292.846807 402.001631 293.784073 401.041805 294.764065 400.092787 C 295.748338 399.1463 296.775337 398.210622 297.845936 397.289159 C 298.916534 396.367696 300.030734 395.460448 301.188534 394.567416 C 302.346333 393.674383 303.544327 392.79644 304.785921 391.932713 C 306.02839 391.072392 307.310177 390.223755 308.633034 389.393615 C 309.955891 388.563475 311.315535 387.749301 312.712841 386.954499 C 314.113553 386.158821 315.551053 385.37911 317.022809 384.619645 C 318.497971 383.859306 320.007389 383.119214 321.551063 382.39937 C 323.093861 381.676119 324.67179 380.976522 326.2831 380.293766 C 327.89441 379.611011 329.537444 378.952784 331.210451 378.312275 C 332.883459 377.671765 334.587316 377.052378 336.318615 376.454989 C 338.05079 375.861007 339.812938 375.284741 341.599122 374.731349 C 343.386181 374.181364 345.199807 373.64997 347.038344 373.144856 C 348.8726 372.637212 350.735172 372.154972 352.618374 371.696481 C 354.501576 371.23799 356.408814 370.802373 358.333274 370.39138 C 360.257734 369.980387 362.202823 369.593143 364.161727 369.231399 C 366.124039 368.86878 368.103572 368.530785 370.096922 368.21829 C 372.091146 367.909202 374.098311 367.622206 376.119292 367.360711 C 378.140273 367.099216 380.175069 366.86322 382.216868 366.654475 C 384.262073 366.444855 386.314281 366.262485 388.376023 366.103084 C 390.438639 365.94709 392.503976 365.815815 394.578847 365.707509 C 396.651187 365.603485 398.729653 365.523305 400.811715 365.471251 C 402.893778 365.419197 404.975154 365.392738 407.060125 365.394405 C 409.144221 365.392665 411.2251 365.420803 413.307824 365.470253 C 415.388016 365.523986 417.464115 365.604189 419.539528 365.709987 C 421.614942 365.815784 423.68198 365.945522 425.741518 366.102605 C 427.805339 366.262219 429.856502 366.443241 431.901042 366.655016 C 433.944706 366.863385 435.977463 367.099974 437.998439 367.361379 C 440.019415 367.622783 442.02861 367.909002 444.022616 368.220912 C 446.016622 368.532821 447.991158 368.86789 449.954788 369.23118 C 451.917542 369.591063 453.861702 369.977513 455.787266 370.390528 C 457.711956 370.800136 459.614643 371.237186 461.497861 371.697394 C 463.38361 372.153322 465.24395 372.637565 467.081414 373.145843 C 468.918002 373.650715 470.731714 374.179622 472.519142 374.733438 C 474.305694 375.283848 476.065963 375.859169 477.799073 376.455993 C 479.532184 377.052817 481.234728 377.67202 482.910114 378.312727 C 484.581218 378.950903 486.225163 379.610582 487.835136 380.293516 C 489.445109 380.97645 491.023641 381.678357 492.567325 382.400112 C 494.11101 383.121868 495.618971 383.860064 497.092961 384.621516 C 498.566075 385.379561 500.004342 386.157454 501.403479 386.952665 C 502.803492 387.751282 504.1635 388.563809 505.484378 389.393654 C 506.808663 390.222624 508.090412 391.069786 509.329625 391.935141 C 510.571369 392.796214 511.770577 393.675479 512.929781 394.568656 C 514.085577 395.462708 515.200494 396.367264 516.272874 397.290014 C 517.345255 398.212763 518.369942 399.147767 519.353749 400.093276 C 520.335025 401.043067 521.271139 402.000831 522.162966 402.969976 C 523.052262 403.943402 523.896395 404.924802 524.696242 405.917581 C 525.492683 406.911236 526.243961 407.912865 526.943264 408.924218 C 527.645973 409.934696 528.300114 410.954022 528.905687 411.982198 C 529.511259 413.010374 530.063981 414.044868 530.571541 415.087335 C 531.0791 416.129803 531.533809 417.178588 531.942481 418.231941 C 532.347746 419.286169 532.703567 420.34584 533.009069 421.407547 C 533.314571 422.469255 533.570629 423.536404 533.776368 424.605591 C 533.9787 425.675653 534.133244 426.743469 534.234938 427.817603 C 534.336631 428.891738 534.38713 429.964502 534.38731 431.039303 Z M 534.38731 431.039303 " stroke="#10112b" stroke-width="1.5" stroke-opacity="1" stroke-miterlimit="10"/><path stroke-linecap="round" transform="matrix(1.110682, 0, 0, 1.110569, 95.578203, -129.573953)" fill-opacity="1" fill="#ffffff" fill-rule="nonzero" stroke-linejoin="round" d="M 458.42826 419.63964 C 457.978086 423.382091 457.380198 427.180819 456.673285 431.032307 C 454.11292 444.848422 450.205551 458.041968 445.316943 470.088861 C 429.947722 507.97414 404.899761 534.684827 381.47313 534.684827 C 350.555322 534.684827 334.099354 488.277031 344.717129 431.032307 C 355.320836 373.801653 388.985408 327.397374 419.903216 327.397374 C 448.693248 327.397374 464.987435 367.758861 458.42826 419.63964 Z M 458.42826 419.63964 " stroke="#10112b" stroke-width="1.5" stroke-opacity="1" stroke-miterlimit="10"/><path stroke-linecap="round" transform="matrix(1.110682, 0, 0, 1.110569, 95.578203, -129.573953)" fill="none" stroke-linejoin="round" d="M 390.314828 554.902503 C 390.328896 554.916573 390.328896 554.902503 390.328896 554.902503 C 390.328896 554.916573 390.314828 554.916573 390.314828 554.916573 Z M 390.314828 554.902503 " stroke="#10112b" stroke-width="1.5" stroke-opacity="1" stroke-miterlimit="10"/><path stroke-linecap="round" transform="matrix(1.110682, 0, 0, 1.110569, 95.578203, -129.573953)" fill-opacity="1" fill="#ffffff" fill-rule="nonzero" stroke-linejoin="round" d="M 601.474555 512.497441 C 595.147501 522.124403 582.641105 525.585466 572.0585 521.041062 C 568.854527 519.676334 564.708003 518.09353 559.636512 516.61273 C 534.838257 509.36349 488.058851 504.361831 423.532743 536.126937 C 446.382589 514.062658 466.053081 475.231213 474.258205 431.032307 C 481.010815 394.63838 478.615749 361.906006 469.373114 339.155844 C 482.874816 364.055101 519.912176 421.845013 579.081917 436.744469 C 584.849771 438.2112 590.818093 439.252333 597.015019 439.822142 C 603.693772 440.434159 609.591755 444.735867 611.972753 451.017838 C 618.03955 466.930289 612.45458 495.772485 601.474555 512.497441 Z M 601.474555 512.497441 " stroke="#10112b" stroke-width="1.5" stroke-opacity="1" stroke-miterlimit="10"/><path stroke-linecap="round" transform="matrix(1.110682, 0, 0, 1.110569, 95.578203, -129.573953)" fill-opacity="1" fill="#888ac3" fill-rule="nonzero" stroke-linejoin="round" d="M 601.474555 512.497441 C 595.147501 522.124403 582.641105 525.585466 572.0585 521.041062 C 568.854527 519.676334 564.708003 518.09353 559.636512 516.61273 C 560.266052 515.828363 560.863939 515.015857 561.419623 514.161143 C 574.935393 493.581181 582.72903 460.148855 579.081917 436.744469 C 584.849771 438.2112 590.818093 439.252333 597.015019 439.822142 C 603.693772 440.434159 609.591755 444.735867 611.972753 451.017838 C 618.03955 466.930289 612.45458 495.772485 601.474555 512.497441 Z M 601.474555 512.497441 " stroke="#10112b" stroke-width="1.5" stroke-opacity="1" stroke-miterlimit="10"/><path stroke-linecap="round" transform="matrix(1.110682, 0, 0, 1.110569, 95.578203, -129.573953)" fill-opacity="1" fill="#2dbec0" fill-rule="nonzero" stroke-linejoin="round" d="M 619.805076 513.535056 C 614.691382 520.970715 604.949335 523.647412 596.902476 520.130071 C 596.216664 519.831097 595.464029 519.518053 594.665674 519.219079 C 597.313963 517.523721 599.64924 515.258553 601.474555 512.497441 C 611.216601 497.668331 616.713647 473.296676 613.580015 456.870694 C 615.106386 457.099321 616.643308 457.28574 618.211883 457.426434 C 623.353713 457.897757 627.781596 461.21461 629.462715 466.072058 C 633.735851 478.351095 628.71008 500.629932 619.805076 513.535056 Z M 619.805076 513.535056 " stroke="#10112b" stroke-width="1.5" stroke-opacity="1" stroke-miterlimit="10"/><path stroke-linecap="round" transform="matrix(1.110682, 0, 0, 1.110569, 95.578203, -129.573953)" fill-opacity="1" fill="#f78e34" fill-rule="nonzero" stroke-linejoin="round" d="M 458.42826 419.63964 C 457.978086 423.382091 457.380198 427.180819 456.673285 431.032307 C 454.11292 444.848422 450.205551 458.041968 445.316943 470.088861 C 428.206815 449.519451 378.546999 439.934697 378.546999 439.934697 L 378.571618 439.839729 C 382.345342 440.930105 387.177678 435.020972 389.421514 426.568801 C 391.507086 418.75327 390.659493 411.444235 387.599716 409.319761 C 423.810585 421.531969 449.252448 420.592839 458.42826 419.63964 Z M 458.42826 419.63964 " stroke="#10112b" stroke-width="1.5" stroke-opacity="1" stroke-miterlimit="10"/><path stroke-linecap="round" transform="matrix(1.110682, 0, 0, 1.110569, 95.578203, -129.573953)" fill-opacity="1" fill="#f78e34" fill-rule="nonzero" stroke-linejoin="round" d="M 389.417997 426.568801 C 387.146025 435.105388 382.250383 441.035625 378.469626 439.808073 C 374.688868 438.577003 373.464957 430.655952 375.733412 422.119365 C 378.005384 413.582779 382.91861 407.656059 386.699368 408.883611 C 390.480126 410.111163 391.689969 418.032215 389.417997 426.568801 Z M 389.417997 426.568801 " stroke="#10112b" stroke-width="1.5" stroke-opacity="1" stroke-miterlimit="10"/><path stroke-linecap="round" transform="matrix(1.110682, 0, 0, 1.110569, 95.578203, -129.573953)" fill="none" stroke-linejoin="round" d="M 588.781759 455.815491 L 604.565984 459.635324 " stroke="#10112b" stroke-width="1.5" stroke-opacity="1" stroke-miterlimit="10"/><path stroke-linecap="round" transform="matrix(1.110682, 0, 0, 1.110569, 95.578203, -129.573953)" fill="none" stroke-linejoin="round" d="M 589.432401 465.649977 L 605.216626 469.473326 " stroke="#10112b" stroke-width="1.5" stroke-opacity="1" stroke-miterlimit="10"/><path stroke-linecap="round" transform="matrix(1.110682, 0, 0, 1.110569, 95.578203, -129.573953)" fill="none" stroke-linejoin="round" d="M 588.387857 475.139763 L 604.172082 478.963112 " stroke="#10112b" stroke-width="1.5" stroke-opacity="1" stroke-miterlimit="10"/><path stroke-linecap="round" transform="matrix(1.110682, 0, 0, 1.110569, 95.578203, -129.573953)" fill="none" stroke-linejoin="round" d="M 576.23316 522.398756 L 546.345829 593.850019 C 543.905042 599.69584 538.221596 603.329253 532.109077 603.329253 C 530.902752 603.329253 529.678841 603.192077 528.461965 602.893103 C 520.292011 600.898771 515.217002 592.717436 517.070453 584.500927 L 533.491252 511.790455 C 543.887457 512.697929 552.634197 514.56212 559.636512 516.61273 C 564.71152 518.097048 568.858044 519.672816 572.0585 521.044579 C 573.42309 521.628458 574.822849 522.085712 576.23316 522.398756 Z M 576.23316 522.398756 " stroke="#10112b" stroke-width="1.5" stroke-opacity="1" stroke-miterlimit="10"/><path stroke-linecap="round" transform="matrix(1.110682, 0, 0, 1.110569, 95.578203, -129.573953)" fill-opacity="1" fill="#f78e34" fill-rule="nonzero" stroke-linejoin="round" d="M 576.528587 521.69177 L 546.641256 593.143034 C 543.905042 599.69584 538.221596 603.329253 532.109077 603.329253 C 530.902752 603.329253 529.678841 603.192077 528.461965 602.893103 C 527.30136 602.604681 526.200544 602.19667 525.177101 601.686655 C 531.243899 601.187193 536.744462 597.384947 539.1958 591.503953 L 569.164022 519.859235 C 570.201532 520.267247 571.168703 520.664706 572.0585 521.044579 C 573.42309 521.628458 574.822849 522.085712 576.528587 521.69177 Z M 576.528587 521.69177 " stroke="#10112b" stroke-width="1.5" stroke-opacity="1" stroke-miterlimit="10"/><path stroke-linecap="round" transform="matrix(1.110682, 0, 0, 1.110569, 95.578203, -129.573953)" fill-opacity="1" fill="#2dbec0" fill-rule="nonzero" stroke-linejoin="round" d="M 547.02109 550.934943 C 545.688153 556.436064 541.851123 560.206653 538.453717 559.383596 C 535.045759 558.55702 533.364641 553.449841 534.697578 547.94872 C 536.026998 542.461668 539.867544 538.677009 543.275502 539.503585 C 546.672908 540.326642 548.35051 545.447891 547.02109 550.934943 Z M 547.02109 550.934943 " stroke="#10112b" stroke-width="1.5" stroke-opacity="1" stroke-miterlimit="10"/><path stroke-linecap="round" transform="matrix(1.110682, 0, 0, 1.110569, 95.578203, -129.573953)" fill-opacity="1" fill="#ffffff" fill-rule="nonzero" stroke-linejoin="round" d="M 275.942504 204.420582 L 327.592933 276.691386 C 334.02198 285.688745 331.939925 298.189374 322.946997 304.619074 L 285.413742 331.442316 L 285.076112 368.205563 C 285.026874 373.541369 279.790085 377.28382 274.725628 375.602531 L 239.837145 364.012893 L 202.300374 390.839652 C 193.307445 397.269351 180.804567 395.187086 174.37552 386.193245 L 122.725091 313.918923 C 116.296044 304.925082 118.374581 292.420935 127.371027 285.991236 L 248.014133 199.770657 C 257.010579 193.344475 269.513457 195.423224 275.942504 204.420582 Z M 275.942504 204.420582 " stroke="#10112b" stroke-width="1.5" stroke-opacity="1" stroke-miterlimit="10"/><path stroke-linecap="butt" transform="matrix(1.110682, 0, 0, 1.110569, 95.578203, -129.573953)" fill-opacity="1" fill="#97c2e8" fill-rule="nonzero" stroke-linejoin="miter" d="M 248.696428 266.997595 C 266.175839 279.304771 270.371601 303.454834 258.065674 320.932501 C 245.759746 338.410168 221.608616 342.606356 204.129205 330.29918 C 186.649794 317.992004 182.457549 293.845458 194.766994 276.364274 C 207.069404 258.890124 231.217017 254.690419 248.696428 266.997595 Z M 248.696428 266.997595 " stroke="#10112b" stroke-width="1" stroke-opacity="1" stroke-miterlimit="10"/><path stroke-linecap="round" transform="matrix(1.110682, 0, 0, 1.110569, 95.578203, -129.573953)" fill-opacity="1" fill="#ffffff" fill-rule="nonzero" stroke-linejoin="round" d="M 239.685915 291.657672 L 233.256868 312.276325 C 232.405758 315.005781 228.800849 315.593177 227.126764 313.27525 L 211.958012 292.297828 C 210.283928 289.979901 211.97208 286.743947 214.831388 286.79319 L 236.429188 287.151958 C 238.74688 287.190649 240.375244 289.445265 239.685915 291.657672 Z M 239.685915 291.657672 " stroke="#10112b" stroke-width="1.5" stroke-opacity="1" stroke-miterlimit="10"/><path stroke-linecap="round" transform="matrix(1.110682, 0, 0, 1.110569, 95.578203, -129.573953)" fill-opacity="1" fill="#ffffff" fill-rule="nonzero" stroke-linejoin="round" d="M 270.754953 415.760013 L 317.084185 519.581365 C 319.662134 525.356839 317.070117 532.127721 311.295229 534.702414 L 183.910064 591.549679 C 178.135176 594.124372 171.364981 591.535609 168.790549 585.760135 L 122.4578 481.938783 C 119.883367 476.163309 122.475385 469.392427 128.250273 466.817734 L 255.631921 409.97047 C 261.406809 407.395776 268.177003 409.988056 270.754953 415.760013 Z M 270.754953 415.760013 " stroke="#10112b" stroke-width="1.5" stroke-opacity="1" stroke-miterlimit="10"/><path stroke-linecap="round" transform="matrix(1.110682, 0, 0, 1.110569, 95.578203, -129.573953)" fill-opacity="1" fill="#2dbec0" fill-rule="nonzero" stroke-linejoin="round" d="M 283.103084 514.421426 L 187.645101 557.02346 C 184.244177 558.539434 180.526725 555.662249 181.142197 551.990145 L 188.735366 506.665689 C 189.287532 503.373458 193.015535 501.709756 195.836157 503.496565 L 217.412854 517.186056 L 224.285041 476.198482 C 224.837208 472.906251 228.565211 471.242549 231.382315 473.029358 L 283.700971 506.222505 C 286.845155 508.216837 286.504008 512.905452 283.103084 514.421426 Z M 283.103084 514.421426 " stroke="#10112b" stroke-width="1.5" stroke-opacity="1" stroke-miterlimit="10"/><path stroke-linecap="round" transform="matrix(1.110682, 0, 0, 1.110569, 95.578203, -129.573953)" fill-opacity="1" fill="#f78e34" fill-rule="nonzero" stroke-linejoin="round" d="M 209.60515 470.180312 C 212.04242 475.642742 209.591082 482.04782 204.129205 484.485337 C 198.670846 486.919337 192.266418 484.467751 189.829148 479.00532 C 187.391878 473.54289 189.846733 467.144847 195.305092 464.710847 C 200.766968 462.273329 207.16788 464.721399 209.60515 470.180312 Z M 209.60515 470.180312 " stroke="#10112b" stroke-width="1.5" stroke-opacity="1" stroke-miterlimit="10"/><path stroke-linecap="round" transform="matrix(1.110682, 0, 0, 1.110569, 95.578203, -129.573953)" fill="none" stroke-linejoin="round" d="M 217.412854 517.182539 L 216.670771 524.090597 " stroke="#10112b" stroke-width="1.5" stroke-opacity="1" stroke-miterlimit="10"/><path stroke-linecap="round" transform="matrix(1.110682, 0, 0, 1.110569, 95.578203, -129.573953)" fill="none" stroke-linejoin="round" d="M 185.239484 572.964049 L 237.463181 549.661665 " stroke="#10112b" stroke-width="1.5" stroke-opacity="1" stroke-miterlimit="10"/><path stroke-linecap="round" transform="matrix(1.110682, 0, 0, 1.110569, 95.578203, -129.573953)" fill="none" stroke-linejoin="round" d="M 188.070656 579.305815 L 212.017801 568.620133 " stroke="#10112b" stroke-width="1.5" stroke-opacity="1" stroke-miterlimit="10"/><path fill="#ffffff" d="M 541.121094 103.921875 L 541.179688 103.921875 C 542.296875 103.921875 543.03125 104.585938 543.375 105.90625 L 547.382812 118.789062 L 547.59375 118.789062 C 551.703125 109.609375 553.851562 104.875 554.046875 104.578125 C 554.40625 104.140625 554.898438 103.921875 555.527344 103.921875 L 555.585938 103.921875 C 556.535156 103.921875 557.011719 104.480469 557.011719 105.597656 L 557.011719 105.734375 C 556.5625 107.414062 555.222656 110.671875 552.988281 115.507812 C 550.753906 120.339844 549.421875 123.046875 548.992188 123.625 C 548.558594 124.203125 548.03125 124.492188 547.402344 124.492188 C 546.773438 124.492188 546.273438 124.234375 545.910156 123.71875 C 545.542969 123.207031 544.429688 120.4375 542.566406 115.410156 C 540.707031 110.382812 539.710938 107.089844 539.582031 105.523438 L 539.582031 105.464844 C 539.632812 104.4375 540.148438 103.921875 541.121094 103.921875 Z M 541.121094 103.921875 " fill-opacity="1" fill-rule="nonzero"/><path fill="#ffffff" d="M 564.734375 96.855469 C 566.007812 96.855469 566.875 97.53125 567.335938 98.878906 L 567.394531 99.398438 C 567.394531 100.515625 566.730469 101.3125 565.410156 101.785156 L 564.949219 101.84375 L 564.464844 101.84375 C 563.375 101.84375 562.597656 101.203125 562.136719 99.917969 L 562.078125 99.457031 L 562.078125 99.1875 C 562.078125 98.121094 562.769531 97.363281 564.15625 96.914062 Z M 564.621094 103.882812 C 565.453125 103.882812 566.03125 104.378906 566.351562 105.367188 L 566.179688 122.910156 C 566.179688 123.847656 565.582031 124.40625 564.390625 124.585938 C 563.234375 124.382812 562.65625 123.804688 562.65625 122.855469 C 562.707031 110.785156 562.839844 104.75 563.058594 104.75 C 563.445312 104.171875 563.964844 103.882812 564.621094 103.882812 Z M 564.621094 103.882812 " fill-opacity="1" fill-rule="nonzero"/><path fill="#ffffff" d="M 573.441406 103.652344 L 573.710938 103.652344 C 574.417969 103.652344 574.945312 104.148438 575.289062 105.136719 L 575.945312 108.082031 C 576.945312 106.441406 578.222656 105.257812 579.777344 104.539062 C 580.882812 104.011719 581.992188 103.75 583.109375 103.75 C 583.53125 103.75 583.964844 103.789062 584.398438 103.867188 C 585.335938 103.867188 585.964844 104.339844 586.285156 105.289062 L 586.34375 105.714844 C 586.34375 106.136719 586.132812 106.5625 585.710938 106.984375 C 585.347656 107.359375 584.644531 107.542969 583.589844 107.542969 C 580.046875 107.890625 577.644531 109.496094 576.386719 112.359375 L 576.234375 123.21875 C 575.9375 124.167969 575.316406 124.644531 574.367188 124.644531 C 573.53125 124.644531 572.953125 124.203125 572.632812 123.316406 L 572.574219 123.007812 L 572.632812 117.402344 C 572.632812 113.476562 572.324219 109.46875 571.707031 105.386719 C 571.914062 104.230469 572.488281 103.652344 573.441406 103.652344 Z M 573.441406 103.652344 " fill-opacity="1" fill-rule="nonzero"/><path fill="#ffffff" d="M 606.257812 107.949219 C 606.554688 115.511719 607.121094 120.371094 607.953125 122.527344 L 607.953125 122.71875 C 607.953125 123.617188 607.492188 124.214844 606.566406 124.511719 L 606.164062 124.566406 C 605.03125 124.566406 604.300781 123.558594 603.96875 121.542969 C 603.929688 121.542969 603.871094 121.28125 603.792969 120.753906 C 602.84375 121.972656 601.925781 122.777344 601.039062 123.160156 C 599.679688 123.882812 598.292969 124.242188 596.878906 124.242188 L 596.339844 124.242188 C 593.144531 124.242188 591 122.710938 589.90625 119.65625 C 589.585938 118.617188 589.425781 117.570312 589.425781 116.519531 C 589.425781 112.101562 590.722656 108.527344 593.316406 105.792969 C 594.820312 104.546875 596.496094 103.921875 598.34375 103.921875 C 599.78125 103.921875 601.429688 104.191406 603.285156 104.730469 C 605.140625 105.269531 606.128906 106.34375 606.257812 107.949219 Z M 593.007812 116.574219 C 593.007812 118.039062 593.398438 119.175781 594.183594 119.984375 C 594.761719 120.433594 595.480469 120.660156 596.339844 120.660156 L 596.820312 120.660156 C 599.015625 120.660156 601.097656 119.386719 603.0625 116.84375 C 602.882812 112.957031 602.792969 110.203125 602.792969 108.582031 L 602.675781 108.582031 C 601.109375 107.863281 599.679688 107.503906 598.382812 107.503906 C 595.789062 107.503906 594.035156 109.628906 593.125 113.878906 Z M 593.007812 116.574219 " fill-opacity="1" fill-rule="nonzero"/><path fill="#ffffff" d="M 612.882812 96.199219 C 613.308594 96.199219 613.757812 96.433594 614.234375 96.894531 C 614.527344 97.136719 614.675781 98.492188 614.675781 100.957031 C 614.777344 105.117188 614.832031 109.488281 614.832031 114.070312 L 614.773438 123.125 C 614.773438 123.917969 614.316406 124.476562 613.40625 124.796875 L 612.941406 124.855469 C 612.144531 124.855469 611.582031 124.425781 611.246094 123.566406 L 611.191406 123.429688 L 611.246094 113.570312 C 611.246094 109.347656 611.175781 104.101562 611.035156 97.835938 C 611.035156 97.15625 611.460938 96.648438 612.304688 96.316406 Z M 612.882812 96.199219 " fill-opacity="1" fill-rule="nonzero"/><path fill="#ffffff" d="M 524.289062 137.636719 L 524.367188 137.675781 C 525.921875 138.046875 526.769531 138.496094 526.910156 139.023438 C 527.023438 139.382812 527.082031 139.683594 527.082031 139.925781 C 527.082031 140.03125 527.070312 140.132812 527.042969 140.234375 C 526.851562 141.171875 526.265625 141.6875 525.292969 141.777344 L 525.078125 141.777344 L 523.269531 141.277344 C 522.792969 141.171875 522.3125 141.121094 521.824219 141.121094 C 520.308594 141.121094 518.828125 141.636719 517.375 142.664062 C 516.257812 143.636719 515.527344 144.921875 515.179688 146.515625 C 514.988281 147.386719 514.890625 148.203125 514.890625 148.960938 C 514.890625 150.667969 515.390625 152.066406 516.394531 153.15625 C 516.894531 153.503906 517.335938 153.722656 517.722656 153.8125 L 518.183594 153.929688 C 518.609375 154.019531 519.042969 154.0625 519.492188 154.0625 C 521.214844 154.0625 522.96875 153.710938 524.753906 153.003906 C 525.035156 152.914062 525.3125 152.867188 525.578125 152.867188 L 526.042969 152.925781 C 526.605469 153.300781 526.890625 153.773438 526.890625 154.351562 C 526.890625 154.621094 526.832031 154.902344 526.714844 155.199219 C 526.332031 156.175781 525.3125 156.839844 523.664062 157.191406 C 522.011719 157.546875 520.636719 157.722656 519.53125 157.722656 C 518.75 157.722656 518.003906 157.632812 517.296875 157.453125 L 516.71875 157.296875 C 513.894531 156.605469 512.078125 154.570312 511.269531 151.195312 C 511.140625 150.640625 511.078125 150.019531 511.078125 149.324219 C 511.078125 148.261719 511.222656 147.015625 511.519531 145.589844 C 512.339844 142.097656 514.492188 139.566406 517.972656 138 C 519.4375 137.617188 520.796875 137.425781 522.054688 137.425781 C 522.851562 137.425781 523.597656 137.496094 524.289062 137.636719 Z M 524.289062 137.636719 " fill-opacity="1" fill-rule="nonzero"/><path fill="#ffffff" d="M 540.582031 137.308594 C 543.742188 137.308594 546.195312 138.925781 547.941406 142.160156 C 548.761719 143.90625 549.171875 145.621094 549.171875 147.304688 L 549.171875 148.382812 C 549.171875 152.414062 547.214844 155.398438 543.300781 157.335938 C 541.914062 157.914062 540.558594 158.203125 539.234375 158.203125 C 535.820312 158.203125 533.148438 156.484375 531.222656 153.042969 C 530.515625 151.359375 530.164062 149.71875 530.164062 148.113281 L 530.164062 147.574219 C 530.164062 144.363281 531.359375 141.710938 533.746094 139.621094 C 535.777344 138.078125 538.054688 137.308594 540.582031 137.308594 Z M 533.746094 147.628906 L 533.746094 148.113281 C 533.746094 150.976562 534.953125 153.035156 537.367188 154.292969 C 538.113281 154.511719 538.753906 154.621094 539.292969 154.621094 C 541.566406 154.621094 543.421875 153.550781 544.859375 151.40625 C 545.347656 150.441406 545.589844 149.324219 545.589844 148.054688 L 545.589844 147.574219 C 545.589844 144.824219 544.601562 142.769531 542.625 141.410156 C 541.933594 141.101562 541.359375 140.949219 540.910156 140.949219 L 540.429688 140.949219 C 537.4375 140.949219 535.371094 142.265625 534.226562 144.894531 C 533.90625 145.832031 533.746094 146.746094 533.746094 147.628906 Z M 533.746094 147.628906 " fill-opacity="1" fill-rule="nonzero"/><path fill="#ffffff" d="M 554.007812 137.367188 C 555.125 137.367188 555.773438 137.828125 555.953125 138.753906 L 555.972656 140.699219 C 556.769531 138.59375 558.746094 137.539062 561.90625 137.539062 L 562 137.539062 C 567.238281 137.539062 570.039062 140.820312 570.398438 147.378906 C 570.398438 153.582031 570.300781 156.90625 570.109375 157.355469 C 569.710938 157.921875 569.210938 158.203125 568.605469 158.203125 L 568.566406 158.203125 C 567.398438 158.035156 566.816406 157.476562 566.816406 156.527344 L 566.816406 147.6875 C 566.816406 143.402344 565.121094 141.210938 561.730469 141.121094 C 559.085938 141.121094 557.171875 142.289062 555.992188 144.625 L 555.992188 156.46875 C 555.863281 157.472656 555.253906 157.996094 554.160156 158.050781 C 553.339844 158.050781 552.773438 157.566406 552.46875 156.605469 C 552.402344 156.269531 552.332031 150.566406 552.253906 139.484375 C 552.359375 138.074219 552.941406 137.367188 554.007812 137.367188 Z M 554.007812 137.367188 " fill-opacity="1" fill-rule="nonzero"/><path fill="#ffffff" d="M 579.738281 129.585938 C 580.84375 129.585938 581.441406 130.042969 581.53125 130.953125 L 581.664062 137.230469 C 583.949219 137.230469 585.09375 137.308594 585.09375 137.460938 C 585.710938 137.847656 586.019531 138.347656 586.019531 138.964844 L 586.019531 139.023438 C 586.019531 140.035156 585.402344 140.632812 584.167969 140.8125 L 581.722656 140.8125 L 581.800781 156.277344 C 581.800781 156.945312 581.386719 157.457031 580.566406 157.816406 C 580.4375 157.882812 580.253906 157.914062 580.007812 157.914062 C 579.1875 157.914062 578.609375 157.472656 578.277344 156.585938 L 578.21875 156.179688 L 578.140625 140.988281 L 575.269531 141.140625 C 574.410156 141.140625 573.8125 140.628906 573.480469 139.601562 L 573.480469 139.464844 C 573.480469 138.632812 573.859375 138.035156 574.617188 137.675781 C 574.617188 137.558594 575.796875 137.46875 578.160156 137.40625 L 578.003906 131.050781 C 578.003906 130.175781 578.582031 129.6875 579.738281 129.585938 Z M 579.738281 129.585938 " fill-opacity="1" fill-rule="nonzero"/><path fill="#ffffff" d="M 598.960938 137.636719 C 602.566406 137.636719 604.917969 139.214844 606.007812 142.375 C 606.328125 143.324219 606.492188 144.320312 606.492188 145.359375 L 606.492188 146.800781 C 606.492188 147.855469 605.777344 148.457031 604.351562 148.613281 C 601.464844 149.050781 598.753906 149.269531 596.226562 149.269531 L 592.738281 149.210938 L 592.738281 149.75 C 592.738281 150.941406 593.066406 151.949219 593.722656 152.773438 C 594.761719 153.875 595.976562 154.429688 597.359375 154.429688 C 599.234375 154.429688 600.65625 154.199219 601.625 153.734375 C 602.597656 153.273438 603.523438 152.984375 604.410156 152.867188 C 605.386719 152.933594 605.875 153.550781 605.875 154.71875 C 605.605469 155.820312 604.667969 156.648438 603.0625 157.191406 C 601.457031 157.738281 599.539062 158.011719 597.304688 158.011719 C 594.632812 158.011719 592.429688 156.894531 590.695312 154.660156 C 589.632812 153.015625 589.097656 150.746094 589.097656 147.84375 C 589.484375 141.421875 592.769531 138.019531 598.960938 137.636719 Z M 593.105469 145.820312 L 596.226562 145.878906 C 598.421875 145.878906 600.628906 145.710938 602.851562 145.378906 L 602.851562 145.242188 C 602.851562 142.46875 601.617188 141.0625 599.152344 141.023438 C 595.867188 141.152344 593.847656 142.675781 593.105469 145.589844 Z M 593.105469 145.820312 " fill-opacity="1" fill-rule="nonzero"/><path fill="#ffffff" d="M 611.324219 137.367188 C 612.441406 137.367188 613.089844 137.828125 613.269531 138.753906 L 613.289062 140.699219 C 614.085938 138.59375 616.0625 137.539062 619.222656 137.539062 L 619.316406 137.539062 C 624.554688 137.539062 627.355469 140.820312 627.714844 147.378906 C 627.714844 153.582031 627.621094 156.90625 627.425781 157.355469 C 627.027344 157.921875 626.527344 158.203125 625.925781 158.203125 L 625.886719 158.203125 C 624.71875 158.035156 624.132812 157.476562 624.132812 156.527344 L 624.132812 147.6875 C 624.132812 143.402344 622.4375 141.210938 619.046875 141.121094 C 616.402344 141.121094 614.488281 142.289062 613.308594 144.625 L 613.308594 156.46875 C 613.179688 157.472656 612.570312 157.996094 611.480469 158.050781 C 610.65625 158.050781 610.09375 157.566406 609.785156 156.605469 C 609.71875 156.269531 609.648438 150.566406 609.574219 139.484375 C 609.675781 138.074219 610.257812 137.367188 611.324219 137.367188 Z M 611.324219 137.367188 " fill-opacity="1" fill-rule="nonzero"/><path fill="#ffffff" d="M 637.054688 129.585938 C 638.160156 129.585938 638.757812 130.042969 638.847656 130.953125 L 638.980469 137.230469 C 641.269531 137.230469 642.410156 137.308594 642.410156 137.460938 C 643.027344 137.847656 643.335938 138.347656 643.335938 138.964844 L 643.335938 139.023438 C 643.335938 140.035156 642.71875 140.632812 641.488281 140.8125 L 639.039062 140.8125 L 639.117188 156.277344 C 639.117188 156.945312 638.707031 157.457031 637.882812 157.816406 C 637.757812 157.882812 637.570312 157.914062 637.324219 157.914062 C 636.503906 157.914062 635.925781 157.472656 635.59375 156.585938 L 635.535156 156.179688 L 635.457031 140.988281 L 632.589844 141.140625 C 631.726562 141.140625 631.128906 140.628906 630.796875 139.601562 L 630.796875 139.464844 C 630.796875 138.632812 631.175781 138.035156 631.933594 137.675781 C 631.933594 137.558594 633.113281 137.46875 635.476562 137.40625 L 635.324219 131.050781 C 635.324219 130.175781 635.902344 129.6875 637.054688 129.585938 Z M 637.054688 129.585938 " fill-opacity="1" fill-rule="nonzero"/><path stroke-linecap="round" transform="matrix(1.110682, 0, 0, 1.110569, 95.578203, -129.573953)" fill="none" stroke-linejoin="round" d="M 577.552029 163.415421 C 582.862675 157.379664 592.938835 157.492219 599.550765 162.064762 C 606.159178 166.640823 609.757053 174.519667 611.459273 182.377406 C 612.574157 187.530311 612.999712 192.961085 611.589402 198.043643 C 610.179091 203.122683 606.711345 207.821851 601.801635 209.749354 C 596.895442 211.676856 590.603557 210.248816 587.726664 205.827518 C 584.072518 200.210325 587.480475 191.867192 593.603545 189.148288 C 599.726614 186.425866 607.224824 188.564409 612.204874 193.041984 C 617.18844 197.523076 620.016095 203.938706 621.785138 210.400062 C 626.174335 226.42155 624.848432 243.382168 623.487359 259.938292 " stroke="#f78e34" stroke-width="3" stroke-opacity="1" stroke-miterlimit="10"/><path stroke-linecap="round" transform="matrix(1.110682, 0, 0, 1.110569, 95.578203, -129.573953)" fill="none" stroke-linejoin="round" d="M 299.559053 393.403794 L 358.507224 417.715654 " stroke="#10112b" stroke-width="1.5" stroke-opacity="1" stroke-miterlimit="10"/><path stroke-linecap="round" transform="matrix(1.110682, 0, 0, 1.110569, 95.578203, -129.573953)" fill="none" stroke-linejoin="round" d="M 280.704501 385.285771 L 285.751373 387.368037 " stroke="#10112b" stroke-width="1.5" stroke-opacity="1" stroke-miterlimit="10"/><path stroke-linecap="round" transform="matrix(1.110682, 0, 0, 1.110569, 95.578203, -129.573953)" fill="none" stroke-linejoin="round" d="M 350.34782 383.242196 L 365.787381 403.843262 " stroke="#10112b" stroke-width="1.5" stroke-opacity="1" stroke-miterlimit="10"/><path stroke-linecap="round" transform="matrix(1.110682, 0, 0, 1.110569, 95.578203, -129.573953)" fill="none" stroke-linejoin="round" d="M 341.956296 371.684213 L 344.073521 374.403118 " stroke="#10112b" stroke-width="1.5" stroke-opacity="1" stroke-miterlimit="10"/><path stroke-linecap="round" transform="matrix(1.110682, 0, 0, 1.110569, 95.578203, -129.573953)" fill="none" stroke-linejoin="round" d="M 314.330386 432.987949 L 352.194237 429.737926 " stroke="#10112b" stroke-width="1.5" stroke-opacity="1" stroke-miterlimit="10"/><path stroke-linecap="round" transform="matrix(1.110682, 0, 0, 1.110569, 95.578203, -129.573953)" fill="none" stroke-linejoin="round" d="M 299.006886 434.423024 L 302.713787 434.102946 " stroke="#10112b" stroke-width="1.5" stroke-opacity="1" stroke-miterlimit="10"/><path stroke-linecap="round" transform="matrix(1.110682, 0, 0, 1.110569, 95.578203, -129.573953)" fill="none" stroke-linejoin="round" d="M 324.315104 581.458427 C 323.636326 589.843768 322.968099 598.341664 324.466334 606.617967 C 325.968086 614.897788 329.91766 623.068571 336.807432 627.901397 C 344.611619 633.377897 355.405244 633.726114 364.064059 629.737449 C 372.72639 625.752302 379.253913 617.855871 382.665388 608.953482 C 385.078039 602.660959 385.988938 595.415236 383.207003 589.277476 C 380.421552 583.143234 373.130844 578.806352 366.754551 580.976552 C 359.516598 583.442208 356.77335 592.794817 358.707692 600.191785 C 362.611544 615.13345 380.196465 623.047467 395.541066 621.327487 C 410.885668 619.607507 424.376819 610.750843 437.104785 602.01025 " stroke="#f15d5e" stroke-width="3" stroke-opacity="1" stroke-miterlimit="10"/></svg>