<svg xmlns="http://www.w3.org/2000/svg" xmlns:xlink="http://www.w3.org/1999/xlink" width="1366" zoomAndPan="magnify" viewBox="0 0 1024.5 576" height="768" preserveAspectRatio="xMidYMid meet" version="1.0"><defs><clipPath id="2f956f6f61"><path d="M 678 0.140625 L 799 0.140625 L 799 122 L 678 122 Z M 678 0.140625 " clip-rule="nonzero"/></clipPath><clipPath id="47288aefb1"><path d="M 677 0.140625 L 799.46875 0.140625 L 799.46875 123 L 677 123 Z M 677 0.140625 " clip-rule="nonzero"/></clipPath><clipPath id="de90f4d79d"><path d="M 227 0.140625 L 567 0.140625 L 567 370 L 227 370 Z M 227 0.140625 " clip-rule="nonzero"/></clipPath><clipPath id="e382d5068a"><path d="M 224.5 495 L 341 495 L 341 575.859375 L 224.5 575.859375 Z M 224.5 495 " clip-rule="nonzero"/></clipPath><clipPath id="cbef2202a0"><path d="M 224.5 438 L 341 438 L 341 555 L 224.5 555 Z M 224.5 438 " clip-rule="nonzero"/></clipPath><clipPath id="6cfb1208d0"><path d="M 354 459 L 433 459 L 433 575.859375 L 354 575.859375 Z M 354 459 " clip-rule="nonzero"/></clipPath></defs><g clip-path="url(#2f956f6f61)"><path fill="#ffffff" d="M 798.769531 61.085938 C 798.769531 94.355469 771.816406 121.324219 738.570312 121.324219 C 705.320312 121.324219 678.371094 94.355469 678.371094 61.085938 C 678.371094 27.820312 705.320312 0.851562 738.570312 0.851562 C 771.816406 0.851562 798.769531 27.820312 798.769531 61.085938 " fill-opacity="1" fill-rule="nonzero"/></g><g clip-path="url(#47288aefb1)"><path fill="#000000" d="M 738.566406 1.546875 C 705.757812 1.546875 679.0625 28.257812 679.0625 61.089844 C 679.0625 93.921875 705.757812 120.632812 738.566406 120.632812 C 771.382812 120.632812 798.078125 93.921875 798.078125 61.089844 C 798.078125 28.257812 771.382812 1.546875 738.566406 1.546875 Z M 738.566406 122.019531 C 704.992188 122.019531 677.675781 94.683594 677.675781 61.089844 C 677.675781 27.492188 704.992188 0.15625 738.566406 0.15625 C 772.148438 0.15625 799.464844 27.492188 799.464844 61.089844 C 799.464844 94.683594 772.148438 122.019531 738.566406 122.019531 " fill-opacity="1" fill-rule="nonzero"/></g><path fill="#fda4ff" d="M 738.570312 65.152344 C 721.3125 65.152344 705.535156 71.476562 693.417969 81.933594 C 701.300781 98.996094 718.550781 110.835938 738.570312 110.835938 C 758.589844 110.835938 775.839844 98.996094 783.71875 81.933594 C 771.605469 71.476562 755.824219 65.152344 738.570312 65.152344 " fill-opacity="1" fill-rule="nonzero"/><path fill="#fda4ff" d="M 755.457031 39.683594 C 755.457031 49.011719 747.894531 56.578125 738.570312 56.578125 C 729.246094 56.578125 721.6875 49.011719 721.6875 39.683594 C 721.6875 30.351562 729.246094 22.785156 738.570312 22.785156 C 747.894531 22.785156 755.457031 30.351562 755.457031 39.683594 " fill-opacity="1" fill-rule="nonzero"/><path fill="#ffffff" d="M 667.890625 108.4375 C 667.890625 133.390625 647.675781 153.617188 622.742188 153.617188 C 597.804688 153.617188 577.589844 133.390625 577.589844 108.4375 C 577.589844 83.484375 597.804688 63.257812 622.742188 63.257812 C 647.675781 63.257812 667.890625 83.484375 667.890625 108.4375 " fill-opacity="1" fill-rule="nonzero"/><path fill="#000000" d="M 622.738281 63.957031 C 598.222656 63.957031 578.28125 83.914062 578.28125 108.4375 C 578.28125 132.96875 598.222656 152.925781 622.738281 152.925781 C 647.25 152.925781 667.195312 132.96875 667.195312 108.4375 C 667.195312 83.914062 647.25 63.957031 622.738281 63.957031 Z M 622.738281 154.3125 C 597.460938 154.3125 576.894531 133.734375 576.894531 108.4375 C 576.894531 83.144531 597.460938 62.566406 622.738281 62.566406 C 648.019531 62.566406 668.585938 83.144531 668.585938 108.4375 C 668.585938 133.734375 648.019531 154.3125 622.738281 154.3125 " fill-opacity="1" fill-rule="nonzero"/><path fill="#fda4ff" d="M 622.738281 111.488281 C 609.796875 111.488281 597.960938 116.234375 588.875 124.074219 C 594.785156 136.871094 607.726562 145.75 622.738281 145.75 C 637.75 145.75 650.691406 136.871094 656.601562 124.074219 C 647.515625 116.234375 635.679688 111.488281 622.738281 111.488281 " fill-opacity="1" fill-rule="nonzero"/><path fill="#fda4ff" d="M 635.40625 92.386719 C 635.40625 99.382812 629.738281 105.058594 622.742188 105.058594 C 615.746094 105.058594 610.074219 99.382812 610.074219 92.386719 C 610.074219 85.386719 615.746094 79.714844 622.742188 79.714844 C 629.738281 79.714844 635.40625 85.386719 635.40625 92.386719 " fill-opacity="1" fill-rule="nonzero"/><path fill="#ffffff" d="M 589.035156 191.976562 C 589.035156 210.691406 573.871094 225.859375 555.171875 225.859375 C 536.46875 225.859375 521.308594 210.691406 521.308594 191.976562 C 521.308594 173.261719 536.46875 158.089844 555.171875 158.089844 C 573.871094 158.089844 589.035156 173.261719 589.035156 191.976562 " fill-opacity="1" fill-rule="nonzero"/><path fill="#000000" d="M 555.167969 158.785156 C 536.882812 158.785156 521.996094 173.675781 521.996094 191.976562 C 521.996094 210.28125 536.882812 225.167969 555.167969 225.167969 C 573.457031 225.167969 588.339844 210.28125 588.339844 191.976562 C 588.339844 173.675781 573.457031 158.785156 555.167969 158.785156 Z M 555.167969 226.558594 C 536.113281 226.558594 520.609375 211.042969 520.609375 191.976562 C 520.609375 172.910156 536.113281 157.398438 555.167969 157.398438 C 574.226562 157.398438 589.726562 172.910156 589.726562 191.976562 C 589.726562 211.042969 574.226562 226.558594 555.167969 226.558594 " fill-opacity="1" fill-rule="nonzero"/><path fill="#fda4ff" d="M 555.167969 194.265625 C 545.460938 194.265625 536.585938 197.820312 529.769531 203.703125 C 534.203125 213.300781 543.90625 219.960938 555.167969 219.960938 C 566.429688 219.960938 576.136719 213.300781 580.566406 203.703125 C 573.75 197.820312 564.875 194.265625 555.167969 194.265625 " fill-opacity="1" fill-rule="nonzero"/><path fill="#fda4ff" d="M 564.664062 179.933594 C 564.664062 185.1875 560.417969 189.441406 555.167969 189.441406 C 549.921875 189.441406 545.667969 185.1875 545.667969 179.933594 C 545.667969 174.6875 549.921875 170.429688 555.167969 170.429688 C 560.417969 170.429688 564.664062 174.6875 564.664062 179.933594 " fill-opacity="1" fill-rule="nonzero"/><g clip-path="url(#de90f4d79d)"><path fill="#4ada85" d="M 566.433594 0.539062 L 490.367188 36.933594 L 511.03125 51.183594 L 381.5 212.167969 L 332.5 173.425781 L 227.085938 369.164062 L 347.320312 248.242188 L 400.78125 290.527344 L 540.496094 71.5 L 559.875 84.863281 L 566.433594 0.539062 " fill-opacity="1" fill-rule="nonzero"/></g><path fill="#ffffff" d="M 340 496.28125 L 340 517.621094 C 340 549.292969 314.300781 574.972656 282.597656 574.972656 C 250.898438 574.972656 225.199219 549.292969 225.199219 517.621094 L 225.199219 496.28125 L 340 496.28125 " fill-opacity="1" fill-rule="nonzero"/><g clip-path="url(#e382d5068a)"><path fill="#000000" d="M 282.597656 575.667969 C 250.566406 575.667969 224.503906 549.625 224.503906 517.621094 L 224.503906 496.28125 C 224.503906 495.898438 224.816406 495.589844 225.199219 495.589844 C 225.585938 495.589844 225.894531 495.898438 225.894531 496.28125 L 225.894531 517.621094 C 225.894531 548.859375 251.332031 574.277344 282.597656 574.277344 C 313.867188 574.277344 339.300781 548.859375 339.300781 517.621094 L 339.300781 496.28125 C 339.300781 495.898438 339.613281 495.589844 339.996094 495.589844 C 340.382812 495.589844 340.691406 495.898438 340.691406 496.28125 L 340.691406 517.621094 C 340.691406 549.625 314.632812 575.667969 282.597656 575.667969 " fill-opacity="1" fill-rule="nonzero"/></g><path fill="#fed101" d="M 340 496.28125 C 340 527.957031 314.300781 553.632812 282.597656 553.632812 C 250.898438 553.632812 225.199219 527.957031 225.199219 496.28125 C 225.199219 464.609375 250.898438 438.929688 282.597656 438.929688 C 314.300781 438.929688 340 464.609375 340 496.28125 " fill-opacity="1" fill-rule="nonzero"/><g clip-path="url(#cbef2202a0)"><path fill="#000000" d="M 282.597656 439.625 C 251.332031 439.625 225.894531 465.039062 225.894531 496.28125 C 225.894531 527.523438 251.332031 552.941406 282.597656 552.941406 C 313.867188 552.941406 339.300781 527.523438 339.300781 496.28125 C 339.300781 465.039062 313.867188 439.625 282.597656 439.625 Z M 282.597656 554.328125 C 250.566406 554.328125 224.503906 528.289062 224.503906 496.28125 C 224.503906 464.277344 250.566406 438.238281 282.597656 438.238281 C 314.632812 438.238281 340.691406 464.277344 340.691406 496.28125 C 340.691406 528.289062 314.632812 554.328125 282.597656 554.328125 " fill-opacity="1" fill-rule="nonzero"/></g><path fill="#000000" d="M 241.3125 502.703125 C 240.972656 502.703125 240.671875 502.449219 240.625 502.101562 C 240.363281 500.183594 240.226562 498.230469 240.226562 496.28125 C 240.226562 481.46875 248.140625 467.535156 260.878906 459.921875 C 261.210938 459.726562 261.636719 459.835938 261.832031 460.164062 C 262.027344 460.492188 261.921875 460.917969 261.59375 461.113281 C 249.273438 468.480469 241.617188 481.953125 241.617188 496.28125 C 241.617188 498.164062 241.746094 500.058594 242 501.910156 C 242.054688 502.292969 241.789062 502.640625 241.40625 502.691406 C 241.375 502.699219 241.34375 502.703125 241.3125 502.703125 " fill-opacity="1" fill-rule="nonzero"/><path fill="#000000" d="M 259.808594 531.847656 C 259.679688 531.847656 259.546875 531.8125 259.429688 531.734375 C 251.800781 526.746094 245.886719 519.300781 242.777344 510.773438 C 242.644531 510.414062 242.832031 510.015625 243.191406 509.882812 C 243.550781 509.753906 243.949219 509.9375 244.082031 510.296875 C 247.085938 518.546875 252.808594 525.746094 260.191406 530.570312 C 260.507812 530.78125 260.601562 531.210938 260.390625 531.53125 C 260.257812 531.734375 260.035156 531.847656 259.808594 531.847656 " fill-opacity="1" fill-rule="nonzero"/><path fill="#000000" d="M 282.597656 538.617188 C 276.582031 538.617188 270.769531 537.386719 265.320312 534.949219 C 264.972656 534.792969 264.8125 534.382812 264.96875 534.03125 C 265.125 533.683594 265.539062 533.523438 265.886719 533.683594 C 271.15625 536.035156 276.78125 537.230469 282.597656 537.230469 C 297.757812 537.230469 311.621094 528.921875 318.769531 515.550781 C 318.949219 515.210938 319.371094 515.082031 319.710938 515.265625 C 320.046875 515.445312 320.175781 515.867188 319.996094 516.203125 C 312.601562 530.03125 298.273438 538.617188 282.597656 538.617188 " fill-opacity="1" fill-rule="nonzero"/><path fill="#000000" d="M 323 507.242188 C 322.945312 507.242188 322.886719 507.230469 322.828125 507.21875 C 322.457031 507.125 322.230469 506.746094 322.328125 506.375 C 323.160156 503.09375 323.582031 499.699219 323.582031 496.28125 C 323.582031 485.34375 319.316406 475.0625 311.578125 467.328125 C 311.308594 467.058594 311.308594 466.617188 311.578125 466.347656 C 311.847656 466.074219 312.289062 466.074219 312.558594 466.347656 C 320.5625 474.34375 324.96875 484.976562 324.96875 496.28125 C 324.96875 499.8125 324.535156 503.324219 323.671875 506.714844 C 323.59375 507.03125 323.308594 507.242188 323 507.242188 " fill-opacity="1" fill-rule="nonzero"/><path fill="#000000" d="M 305.898438 462.445312 C 305.765625 462.445312 305.632812 462.40625 305.511719 462.328125 C 298.734375 457.75 290.8125 455.335938 282.597656 455.335938 C 278.992188 455.335938 275.417969 455.800781 271.96875 456.722656 C 271.601562 456.824219 271.21875 456.605469 271.121094 456.234375 C 271.023438 455.863281 271.242188 455.484375 271.613281 455.382812 C 275.175781 454.429688 278.875 453.945312 282.597656 453.945312 C 291.089844 453.945312 299.28125 456.445312 306.289062 461.175781 C 306.605469 461.390625 306.691406 461.824219 306.476562 462.140625 C 306.339844 462.339844 306.121094 462.445312 305.898438 462.445312 " fill-opacity="1" fill-rule="nonzero"/><path fill="#000000" d="M 270.488281 574.382812 C 270.105469 574.382812 269.792969 574.070312 269.792969 573.6875 L 269.792969 557.257812 C 269.792969 556.871094 270.105469 556.5625 270.488281 556.5625 C 270.871094 556.5625 271.179688 556.871094 271.179688 557.257812 L 271.179688 573.6875 C 271.179688 574.070312 270.871094 574.382812 270.488281 574.382812 " fill-opacity="1" fill-rule="nonzero"/><path fill="#000000" d="M 260.875 571.179688 C 260.492188 571.179688 260.183594 570.871094 260.183594 570.488281 L 260.183594 554.058594 C 260.183594 553.675781 260.492188 553.363281 260.875 553.363281 C 261.261719 553.363281 261.570312 553.675781 261.570312 554.058594 L 261.570312 570.488281 C 261.570312 570.871094 261.261719 571.179688 260.875 571.179688 " fill-opacity="1" fill-rule="nonzero"/><path fill="#000000" d="M 252.335938 566.914062 C 251.949219 566.914062 251.640625 566.601562 251.640625 566.21875 L 251.640625 557.257812 C 251.640625 556.871094 251.949219 556.5625 252.335938 556.5625 C 252.71875 556.5625 253.027344 556.871094 253.027344 557.257812 L 253.027344 566.21875 C 253.027344 566.601562 252.71875 566.914062 252.335938 566.914062 " fill-opacity="1" fill-rule="nonzero"/><path fill="#ffffff" d="M 347.414062 461.902344 L 347.414062 483.238281 C 347.414062 514.914062 321.714844 540.589844 290.015625 540.589844 C 258.316406 540.589844 232.617188 514.914062 232.617188 483.238281 L 232.617188 461.902344 L 347.414062 461.902344 " fill-opacity="1" fill-rule="nonzero"/><path fill="#000000" d="M 290.015625 541.285156 C 257.984375 541.285156 231.925781 515.246094 231.925781 483.238281 L 231.925781 461.902344 C 231.925781 461.515625 232.234375 461.207031 232.617188 461.207031 C 233 461.207031 233.3125 461.515625 233.3125 461.902344 L 233.3125 483.238281 C 233.3125 514.480469 258.75 539.894531 290.015625 539.894531 C 321.28125 539.894531 346.722656 514.480469 346.722656 483.238281 L 346.722656 461.902344 C 346.722656 461.515625 347.03125 461.207031 347.414062 461.207031 C 347.796875 461.207031 348.109375 461.515625 348.109375 461.902344 L 348.109375 483.238281 C 348.109375 515.246094 322.046875 541.285156 290.015625 541.285156 " fill-opacity="1" fill-rule="nonzero"/><path fill="#fed101" d="M 347.414062 461.902344 C 347.414062 493.574219 321.714844 519.253906 290.015625 519.253906 C 258.316406 519.253906 232.617188 493.574219 232.617188 461.902344 C 232.617188 430.226562 258.316406 404.550781 290.015625 404.550781 C 321.714844 404.550781 347.414062 430.226562 347.414062 461.902344 " fill-opacity="1" fill-rule="nonzero"/><path fill="#000000" d="M 290.015625 405.246094 C 258.75 405.246094 233.3125 430.660156 233.3125 461.902344 C 233.3125 493.140625 258.75 518.554688 290.015625 518.554688 C 321.28125 518.554688 346.722656 493.140625 346.722656 461.902344 C 346.722656 430.660156 321.28125 405.246094 290.015625 405.246094 Z M 290.015625 519.949219 C 257.984375 519.949219 231.925781 493.90625 231.925781 461.902344 C 231.925781 429.894531 257.984375 403.855469 290.015625 403.855469 C 322.046875 403.855469 348.109375 429.894531 348.109375 461.902344 C 348.109375 493.90625 322.046875 519.949219 290.015625 519.949219 " fill-opacity="1" fill-rule="nonzero"/><path fill="#000000" d="M 248.730469 468.316406 C 248.386719 468.316406 248.089844 468.066406 248.042969 467.722656 C 247.777344 465.808594 247.644531 463.847656 247.644531 461.902344 C 247.644531 447.085938 255.558594 433.15625 268.296875 425.542969 C 268.628906 425.347656 269.054688 425.453125 269.25 425.785156 C 269.445312 426.109375 269.339844 426.539062 269.011719 426.734375 C 256.6875 434.097656 249.035156 447.570312 249.035156 461.902344 C 249.035156 463.785156 249.164062 465.679688 249.417969 467.53125 C 249.472656 467.910156 249.207031 468.261719 248.824219 468.3125 C 248.792969 468.316406 248.761719 468.316406 248.730469 468.316406 " fill-opacity="1" fill-rule="nonzero"/><path fill="#000000" d="M 267.226562 497.46875 C 267.09375 497.46875 266.964844 497.429688 266.847656 497.355469 C 259.214844 492.363281 253.300781 484.921875 250.195312 476.394531 C 250.0625 476.03125 250.246094 475.636719 250.609375 475.503906 C 250.96875 475.371094 251.367188 475.558594 251.5 475.917969 C 254.503906 484.167969 260.226562 491.363281 267.605469 496.191406 C 267.925781 496.402344 268.015625 496.832031 267.808594 497.152344 C 267.675781 497.355469 267.453125 497.46875 267.226562 497.46875 " fill-opacity="1" fill-rule="nonzero"/><path fill="#000000" d="M 290.015625 504.238281 C 284 504.238281 278.1875 503.003906 272.738281 500.570312 C 272.386719 500.410156 272.230469 500.003906 272.386719 499.652344 C 272.542969 499.300781 272.953125 499.140625 273.304688 499.300781 C 278.574219 501.65625 284.195312 502.851562 290.015625 502.851562 C 305.175781 502.851562 319.035156 494.542969 326.1875 481.167969 C 326.367188 480.828125 326.789062 480.703125 327.125 480.882812 C 327.464844 481.066406 327.59375 481.484375 327.410156 481.824219 C 320.019531 495.648438 305.691406 504.238281 290.015625 504.238281 " fill-opacity="1" fill-rule="nonzero"/><path fill="#000000" d="M 330.417969 472.859375 C 330.359375 472.859375 330.304688 472.855469 330.246094 472.839844 C 329.875 472.746094 329.648438 472.367188 329.742188 471.996094 C 330.574219 468.714844 331 465.316406 331 461.902344 C 331 450.964844 326.734375 440.683594 318.996094 432.949219 C 318.722656 432.675781 318.722656 432.234375 318.996094 431.964844 C 319.265625 431.695312 319.707031 431.695312 319.976562 431.964844 C 327.980469 439.960938 332.386719 450.59375 332.386719 461.902344 C 332.386719 465.433594 331.949219 468.945312 331.089844 472.335938 C 331.007812 472.648438 330.726562 472.859375 330.417969 472.859375 " fill-opacity="1" fill-rule="nonzero"/><path fill="#000000" d="M 313.316406 428.0625 C 313.183594 428.0625 313.046875 428.027344 312.929688 427.949219 C 306.152344 423.371094 298.230469 420.953125 290.015625 420.953125 C 286.414062 420.953125 282.835938 421.421875 279.386719 422.34375 C 279.015625 422.441406 278.636719 422.222656 278.539062 421.855469 C 278.4375 421.484375 278.660156 421.101562 279.03125 421 C 282.59375 420.050781 286.292969 419.5625 290.015625 419.5625 C 298.507812 419.5625 306.699219 422.066406 313.707031 426.796875 C 314.023438 427.011719 314.109375 427.441406 313.894531 427.757812 C 313.761719 427.957031 313.539062 428.0625 313.316406 428.0625 " fill-opacity="1" fill-rule="nonzero"/><path fill="#000000" d="M 325.589844 528.421875 C 325.207031 528.421875 324.894531 528.109375 324.894531 527.726562 L 324.894531 511.488281 C 324.894531 511.105469 325.207031 510.796875 325.589844 510.796875 C 325.972656 510.796875 326.285156 511.105469 326.285156 511.488281 L 326.285156 527.726562 C 326.285156 528.109375 325.972656 528.421875 325.589844 528.421875 " fill-opacity="1" fill-rule="nonzero"/><path fill="#000000" d="M 317.046875 533.753906 C 316.664062 533.753906 316.351562 533.445312 316.351562 533.0625 L 316.351562 522.160156 C 316.351562 521.773438 316.664062 521.464844 317.046875 521.464844 C 317.429688 521.464844 317.742188 521.773438 317.742188 522.160156 L 317.742188 533.0625 C 317.742188 533.445312 317.429688 533.753906 317.046875 533.753906 " fill-opacity="1" fill-rule="nonzero"/><path fill="#000000" d="M 307.4375 538.023438 C 307.054688 538.023438 306.742188 537.710938 306.742188 537.328125 L 306.742188 526.425781 C 306.742188 526.042969 307.054688 525.734375 307.4375 525.734375 C 307.820312 525.734375 308.132812 526.042969 308.132812 526.425781 L 308.132812 537.328125 C 308.132812 537.710938 307.820312 538.023438 307.4375 538.023438 " fill-opacity="1" fill-rule="nonzero"/><path fill="#000000" d="M 279.164062 459.910156 C 278.910156 459.910156 278.660156 459.769531 278.542969 459.523438 C 277.679688 457.765625 277.246094 455.878906 277.246094 453.914062 C 277.246094 446.875 282.972656 441.15625 290.015625 441.15625 C 294.953125 441.15625 299.496094 444.042969 301.589844 448.511719 C 301.753906 448.859375 301.601562 449.273438 301.253906 449.433594 C 300.910156 449.597656 300.492188 449.449219 300.332031 449.101562 C 298.464844 445.117188 294.417969 442.542969 290.015625 442.542969 C 283.742188 442.542969 278.632812 447.644531 278.632812 453.914062 C 278.632812 455.667969 279.023438 457.347656 279.789062 458.910156 C 279.957031 459.253906 279.816406 459.671875 279.46875 459.835938 C 279.371094 459.886719 279.269531 459.910156 279.164062 459.910156 " fill-opacity="1" fill-rule="nonzero"/><path fill="#000000" d="M 290.015625 483.417969 C 286.289062 483.417969 282.757812 481.796875 280.328125 478.972656 C 280.078125 478.679688 280.109375 478.242188 280.402344 477.992188 C 280.691406 477.738281 281.128906 477.777344 281.378906 478.066406 C 283.546875 480.585938 286.695312 482.027344 290.015625 482.027344 C 296.292969 482.027344 301.398438 476.929688 301.398438 470.65625 C 301.398438 468.804688 300.945312 466.96875 300.082031 465.34375 C 299.902344 465.007812 300.03125 464.582031 300.371094 464.40625 C 300.710938 464.226562 301.128906 464.355469 301.308594 464.695312 C 302.277344 466.519531 302.785156 468.578125 302.785156 470.65625 C 302.785156 477.691406 297.058594 483.417969 290.015625 483.417969 " fill-opacity="1" fill-rule="nonzero"/><path fill="#000000" d="M 289.449219 492.078125 C 289.074219 492.078125 288.765625 491.78125 288.753906 491.402344 L 288.539062 482.742188 C 288.527344 482.359375 288.832031 482.039062 289.214844 482.027344 C 289.605469 482.042969 289.917969 482.324219 289.925781 482.707031 L 290.144531 491.367188 C 290.152344 491.753906 289.851562 492.070312 289.46875 492.078125 C 289.460938 492.078125 289.457031 492.078125 289.449219 492.078125 " fill-opacity="1" fill-rule="nonzero"/><path fill="#000000" d="M 290.015625 442.542969 C 289.648438 442.542969 289.34375 442.253906 289.324219 441.882812 L 288.757812 431.5625 C 288.734375 431.179688 289.027344 430.855469 289.410156 430.832031 C 289.789062 430.796875 290.121094 431.101562 290.144531 431.488281 L 290.710938 441.808594 C 290.730469 442.191406 290.4375 442.519531 290.054688 442.542969 C 290.039062 442.542969 290.027344 442.542969 290.015625 442.542969 " fill-opacity="1" fill-rule="nonzero"/><path fill="#000000" d="M 296.261719 463.472656 C 296.21875 463.472656 296.171875 463.46875 296.125 463.457031 L 283.023438 460.820312 C 282.648438 460.746094 282.40625 460.378906 282.480469 460.003906 C 282.554688 459.625 282.925781 459.378906 283.300781 459.460938 L 296.398438 462.097656 C 296.777344 462.175781 297.019531 462.539062 296.945312 462.914062 C 296.878906 463.246094 296.585938 463.472656 296.261719 463.472656 " fill-opacity="1" fill-rule="nonzero"/><path fill="#fda4ff" d="M 464.632812 421.574219 L 446.773438 421.574219 L 446.773438 498.734375 L 464.632812 498.734375 L 464.632812 421.574219 " fill-opacity="1" fill-rule="nonzero"/><path fill="#020202" d="M 560.558594 485.070312 L 527.003906 476.953125 L 518.113281 513.707031 L 551.664062 521.828125 L 560.558594 485.070312 " fill-opacity="1" fill-rule="nonzero"/><path fill="#ffffff" d="M 559.636719 505.980469 L 560.160156 506.730469 C 566.136719 515.296875 565.460938 522.339844 568.148438 534.203125 L 523.910156 547.289062 L 459.117188 544.148438 L 448.453125 536.976562 L 452.75 528.023438 L 489.28125 518.375 L 514.847656 504.300781 L 520.390625 497.023438 L 527.21875 497.4375 L 532.621094 503.140625 L 532.214844 509.816406 C 538.457031 514.085938 539.519531 516.007812 542.738281 516.203125 C 542.808594 516.1875 548.160156 517.054688 550.1875 512.011719 L 552.28125 506.816406 C 553.53125 503.714844 557.722656 503.242188 559.636719 505.980469 " fill-opacity="1" fill-rule="nonzero"/><path fill="#000000" d="M 459.34375 543.464844 L 523.824219 546.59375 L 567.332031 533.71875 C 566.636719 530.558594 566.164062 527.699219 565.75 525.160156 C 564.640625 518.425781 563.765625 513.109375 559.589844 507.125 L 559.066406 506.375 C 558.316406 505.304688 557.09375 504.746094 555.789062 504.898438 C 554.484375 505.046875 553.414062 505.859375 552.925781 507.078125 L 550.835938 512.269531 C 548.890625 517.101562 544.148438 517.035156 542.742188 516.902344 L 542.695312 516.898438 C 540.3125 516.75 538.960938 515.710938 536.5 513.816406 C 535.3125 512.902344 533.839844 511.769531 531.820312 510.386719 L 531.5 510.164062 L 531.910156 503.398438 L 526.902344 498.117188 L 520.71875 497.738281 L 515.3125 504.839844 L 489.457031 519.042969 L 453.238281 528.613281 L 449.339844 536.734375 Z M 523.992188 547.988281 L 523.875 547.984375 L 458.890625 544.835938 L 447.566406 537.214844 L 452.265625 527.433594 L 489.019531 517.722656 L 514.386719 503.761719 L 520.0625 496.308594 L 527.535156 496.761719 L 533.335938 502.878906 L 532.933594 509.464844 C 534.816406 510.769531 536.214844 511.839844 537.347656 512.714844 C 539.726562 514.550781 540.816406 515.386719 542.761719 515.511719 C 542.800781 515.511719 542.835938 515.515625 542.875 515.519531 C 544.367188 515.660156 548.007812 515.582031 549.546875 511.753906 L 551.636719 506.558594 C 552.320312 504.859375 553.8125 503.722656 555.632812 503.519531 C 557.445312 503.308594 559.15625 504.082031 560.207031 505.582031 L 560.726562 506.332031 C 565.085938 512.574219 565.980469 518.027344 567.117188 524.933594 C 567.5625 527.621094 568.0625 530.671875 568.828125 534.050781 L 568.96875 534.6875 L 523.992188 547.988281 " fill-opacity="1" fill-rule="nonzero"/><path fill="#020202" d="M 448.453125 536.976562 L 452.390625 537.980469 C 463.042969 540.703125 473.960938 542.207031 484.953125 542.472656 L 489.347656 542.574219 C 511.3125 543.101562 533.269531 541.1875 554.8125 536.875 L 568.148438 534.203125 L 574.308594 540.519531 L 576.136719 555.554688 L 558.226562 562.074219 C 558.226562 562.074219 545.667969 561.367188 529.734375 560.453125 L 526.117188 556.367188 L 520.144531 556 L 516.011719 559.65625 C 491.109375 558.207031 464.390625 556.59375 464.160156 556.335938 C 463.734375 555.851562 450.121094 548.09375 450.121094 548.09375 L 448.0625 543.433594 L 448.453125 536.976562 " fill-opacity="1" fill-rule="nonzero"/><path fill="#000000" d="M 515.539062 513.574219 C 515.390625 513.574219 515.238281 513.527344 515.113281 513.425781 L 508.273438 508.054688 C 507.96875 507.820312 507.921875 507.382812 508.15625 507.082031 C 508.390625 506.78125 508.828125 506.726562 509.132812 506.964844 L 515.972656 512.335938 C 516.269531 512.570312 516.324219 513.007812 516.085938 513.308594 C 515.949219 513.484375 515.742188 513.574219 515.539062 513.574219 " fill-opacity="1" fill-rule="nonzero"/><path fill="#000000" d="M 509.121094 517.339844 C 508.96875 517.339844 508.816406 517.292969 508.6875 517.191406 L 501.851562 511.820312 C 501.550781 511.585938 501.5 511.148438 501.738281 510.847656 C 501.972656 510.542969 502.410156 510.492188 502.710938 510.730469 L 509.546875 516.101562 C 509.847656 516.335938 509.902344 516.773438 509.664062 517.074219 C 509.527344 517.246094 509.324219 517.339844 509.121094 517.339844 " fill-opacity="1" fill-rule="nonzero"/><path fill="#000000" d="M 502.695312 521.105469 C 502.546875 521.105469 502.398438 521.058594 502.269531 520.957031 L 495.433594 515.585938 C 495.132812 515.351562 495.078125 514.914062 495.3125 514.613281 C 495.550781 514.308594 495.984375 514.257812 496.289062 514.496094 L 503.125 519.867188 C 503.429688 520.101562 503.480469 520.539062 503.242188 520.839844 C 503.109375 521.015625 502.902344 521.105469 502.695312 521.105469 " fill-opacity="1" fill-rule="nonzero"/><path fill="#955b50" d="M 517.140625 516.886719 L 487.886719 473.828125 L 419.347656 504.59375 L 436.511719 534.867188 L 517.140625 516.886719 " fill-opacity="1" fill-rule="nonzero"/><path fill="#000000" d="M 421.316406 504.609375 L 437.921875 534.128906 L 516.175781 516.914062 L 487.777344 474.652344 Z M 437.566406 535.609375 C 437.320312 535.609375 437.085938 535.480469 436.960938 535.253906 L 419.734375 504.628906 C 419.640625 504.457031 419.617188 504.253906 419.679688 504.070312 C 419.742188 503.886719 419.875 503.734375 420.054688 503.652344 L 487.742188 473.148438 C 488.050781 473.007812 488.414062 473.109375 488.605469 473.390625 L 517.898438 516.988281 C 518.027344 517.179688 518.054688 517.417969 517.964844 517.632812 C 517.878906 517.847656 517.695312 518.003906 517.472656 518.054688 L 437.714844 535.59375 C 437.664062 535.605469 437.613281 535.609375 437.566406 535.609375 " fill-opacity="1" fill-rule="nonzero"/><path fill="#ffffff" d="M 450.746094 534.558594 L 450.414062 535.40625 C 446.621094 545.140625 440.390625 548.5 432.027344 557.328125 L 396.546875 527.84375 L 363.117188 472.25 L 363.148438 459.398438 L 372.976562 457.992188 L 401.3125 482.976562 L 427.230469 496.402344 L 436.359375 496.957031 L 439.808594 502.867188 L 438.078125 510.527344 L 432.308594 513.902344 C 432.226562 521.464844 431.222656 523.417969 432.847656 526.199219 C 432.902344 526.25 435.15625 531.179688 440.480469 530.0625 L 445.957031 528.910156 C 449.230469 528.222656 451.957031 531.441406 450.746094 534.558594 " fill-opacity="1" fill-rule="nonzero"/><path fill="#000000" d="M 432.367188 526.703125 Z M 432.371094 526.703125 Z M 432.371094 526.703125 C 432.371094 526.703125 432.375 526.703125 432.375 526.703125 C 432.375 526.703125 432.371094 526.703125 432.371094 526.703125 Z M 450.746094 534.558594 L 450.75 534.558594 Z M 397.082031 527.382812 L 431.972656 556.382812 C 434.214844 554.046875 436.328125 552.0625 438.207031 550.304688 C 443.183594 545.640625 447.117188 541.957031 449.765625 535.15625 L 450.101562 534.304688 C 450.574219 533.082031 450.351562 531.757812 449.503906 530.757812 C 448.65625 529.757812 447.386719 529.324219 446.101562 529.589844 L 440.625 530.742188 C 435.527344 531.8125 432.945312 527.835938 432.273438 526.59375 C 432.269531 526.585938 432.285156 526.617188 432.347656 526.683594 C 432.3125 526.640625 432.277344 526.597656 432.25 526.550781 C 431.046875 524.492188 431.160156 522.785156 431.367188 519.6875 C 431.464844 518.195312 431.585938 516.339844 431.613281 513.890625 C 431.613281 513.648438 431.746094 513.421875 431.957031 513.300781 L 437.46875 510.078125 L 439.074219 502.980469 L 435.949219 497.628906 L 427.1875 497.09375 C 427.089844 497.085938 426.996094 497.0625 426.910156 497.015625 L 400.992188 483.59375 C 400.941406 483.570312 400.894531 483.539062 400.851562 483.5 L 372.757812 458.722656 L 363.839844 460 L 363.8125 472.058594 Z M 432.027344 558.023438 C 431.871094 558.023438 431.714844 557.972656 431.582031 557.863281 L 396.101562 528.378906 C 396.042969 528.328125 395.988281 528.269531 395.949219 528.203125 L 362.523438 472.609375 C 362.457031 472.5 362.421875 472.378906 362.421875 472.246094 L 362.453125 459.398438 C 362.453125 459.050781 362.707031 458.757812 363.050781 458.710938 L 372.878906 457.300781 C 373.082031 457.273438 373.285156 457.332031 373.4375 457.46875 L 401.707031 482.402344 L 427.417969 495.714844 L 436.398438 496.265625 C 436.632812 496.28125 436.839844 496.40625 436.957031 496.609375 L 440.410156 502.511719 C 440.5 502.667969 440.527344 502.847656 440.488281 503.015625 L 438.757812 510.675781 C 438.714844 510.867188 438.597656 511.027344 438.433594 511.125 L 432.996094 514.300781 C 432.960938 516.59375 432.84375 518.347656 432.75 519.777344 C 432.550781 522.773438 432.460938 524.148438 433.441406 525.832031 C 433.460938 525.867188 433.476562 525.898438 433.496094 525.933594 C 434.207031 527.253906 436.292969 530.230469 440.339844 529.382812 L 445.816406 528.230469 C 447.605469 527.851562 449.378906 528.464844 450.5625 529.855469 C 451.746094 531.253906 452.054688 533.105469 451.390625 534.808594 L 451.0625 535.660156 C 448.296875 542.75 444.265625 546.53125 439.15625 551.316406 C 437.167969 553.179688 434.910156 555.292969 432.53125 557.808594 C 432.394531 557.953125 432.210938 558.023438 432.027344 558.023438 " fill-opacity="1" fill-rule="nonzero"/><g clip-path="url(#6cfb1208d0)"><path fill="#020202" d="M 363.148438 459.398438 L 364.5 463.226562 C 368.164062 473.59375 372.988281 483.507812 378.882812 492.785156 L 381.238281 496.496094 C 393.019531 515.042969 406.820312 532.226562 422.390625 547.730469 L 432.027344 557.328125 L 430.207031 565.964844 L 418.726562 575.84375 L 403.347656 564.585938 C 403.347656 564.585938 396.949219 553.757812 388.847656 540.003906 L 390.230469 534.726562 L 387.214844 529.5625 L 381.875 528.160156 C 369.230469 506.65625 355.710938 483.554688 355.796875 483.21875 C 355.960938 482.59375 354.835938 466.964844 354.835938 466.964844 L 357.558594 462.660156 L 363.148438 459.398438 " fill-opacity="1" fill-rule="nonzero"/></g><path fill="#000000" d="M 420.484375 502.441406 C 420.464844 502.441406 420.449219 502.441406 420.433594 502.441406 C 420.046875 502.414062 419.761719 502.078125 419.792969 501.695312 L 420.453125 493.023438 C 420.480469 492.644531 420.816406 492.355469 421.195312 492.386719 C 421.578125 492.414062 421.867188 492.75 421.835938 493.132812 L 421.175781 501.800781 C 421.148438 502.164062 420.84375 502.441406 420.484375 502.441406 " fill-opacity="1" fill-rule="nonzero"/><path fill="#000000" d="M 413.785156 499.203125 C 413.765625 499.203125 413.75 499.203125 413.730469 499.199219 C 413.347656 499.167969 413.0625 498.835938 413.089844 498.453125 L 413.75 489.785156 C 413.78125 489.402344 414.109375 489.117188 414.496094 489.144531 C 414.878906 489.175781 415.164062 489.507812 415.136719 489.890625 L 414.476562 498.558594 C 414.449219 498.921875 414.144531 499.203125 413.785156 499.203125 " fill-opacity="1" fill-rule="nonzero"/><path fill="#000000" d="M 407.082031 495.957031 C 407.066406 495.957031 407.046875 495.957031 407.03125 495.957031 C 406.648438 495.925781 406.359375 495.59375 406.390625 495.210938 L 407.050781 486.542969 C 407.078125 486.160156 407.421875 485.867188 407.796875 485.902344 C 408.175781 485.933594 408.464844 486.265625 408.433594 486.648438 L 407.777344 495.316406 C 407.746094 495.679688 407.441406 495.957031 407.082031 495.957031 " fill-opacity="1" fill-rule="nonzero"/><path fill="#fed101" d="M 503.097656 508.054688 L 516.113281 381.539062 C 519.363281 349.921875 556.636719 334.800781 580.996094 355.21875 L 606.664062 376.734375 L 747.480469 490.6875 L 729.566406 512.824219 C 709.371094 537.785156 672.757812 541.648438 647.800781 521.449219 L 585.964844 471.410156 L 564.570312 514.378906 L 503.097656 508.054688 " fill-opacity="1" fill-rule="nonzero"/><path fill="#fed101" d="M 483.054688 472.9375 L 555.085938 441.765625 C 576.460938 432.511719 598.730469 430.597656 621.105469 437.679688 L 791.878906 490.589844 L 784.625 511.246094 C 773.144531 540.683594 737.378906 556.164062 704.71875 545.820312 L 592.203125 504.402344 L 517.132812 533.121094 L 483.054688 472.9375 " fill-opacity="1" fill-rule="nonzero"/><path fill="#000000" d="M 592.199219 503.703125 C 592.285156 503.703125 592.367188 503.722656 592.445312 503.75 L 704.957031 545.171875 C 737.191406 555.375 772.652344 540.046875 783.976562 510.992188 L 790.046875 492.714844 L 623.199219 439.039062 C 600.828125 431.953125 576.738281 433.148438 555.367188 442.398438 L 484.039062 473.265625 L 517.445312 532.257812 L 591.953125 503.75 C 592.035156 503.722656 592.117188 503.703125 592.199219 503.703125 Z M 725.421875 549.710938 C 718.476562 549.710938 711.421875 548.675781 704.507812 546.484375 L 592.207031 505.144531 L 517.378906 533.769531 C 517.058594 533.890625 516.699219 533.761719 516.527344 533.460938 L 482.453125 473.277344 C 482.355469 473.105469 482.335938 472.902344 482.398438 472.714844 C 482.460938 472.527344 482.597656 472.375 482.777344 472.296875 L 554.8125 441.125 C 576.492188 431.746094 600.933594 430.53125 623.617188 437.714844 L 791.136719 491.605469 C 791.316406 491.664062 791.464844 491.789062 791.542969 491.953125 C 791.628906 492.121094 791.640625 492.3125 791.585938 492.488281 L 785.28125 511.460938 C 776.121094 534.976562 751.570312 549.710938 725.421875 549.710938 " fill-opacity="1" fill-rule="nonzero"/><path fill="#000000" d="M 791.664062 487.820312 L 784.648438 511.984375 L 689.949219 460.152344 L 698.289062 453.933594 L 791.664062 487.820312 " fill-opacity="1" fill-rule="nonzero"/><path fill="#000000" d="M 659.335938 450.445312 C 659.265625 450.445312 659.191406 450.433594 659.125 450.414062 L 623.203125 439.039062 C 600.828125 431.960938 576.734375 433.152344 555.363281 442.398438 C 555.011719 442.550781 554.601562 442.390625 554.453125 442.039062 C 554.296875 441.6875 554.460938 441.28125 554.8125 441.125 C 576.492188 431.746094 600.929688 430.535156 623.621094 437.714844 L 659.542969 449.089844 C 659.910156 449.203125 660.113281 449.59375 659.996094 449.960938 C 659.902344 450.253906 659.628906 450.445312 659.335938 450.445312 " fill-opacity="1" fill-rule="nonzero"/><path fill="#000000" d="M 754.933594 279.269531 C 756.210938 308.046875 733.214844 332.441406 703.570312 333.757812 C 673.925781 335.070312 648.859375 312.804688 647.585938 284.027344 C 646.304688 255.246094 669.304688 230.847656 698.949219 229.539062 C 728.589844 228.226562 753.660156 250.484375 754.933594 279.269531 " fill-opacity="1" fill-rule="nonzero"/><path fill="#955b50" d="M 712.746094 354.171875 L 731.28125 346.148438 L 712.730469 303.28125 L 694.191406 311.304688 L 712.746094 354.171875 " fill-opacity="1" fill-rule="nonzero"/><path fill="#955b50" d="M 712.480469 303.492188 C 716.695312 313.234375 712.902344 324.253906 704.003906 328.101562 C 695.109375 331.953125 684.488281 327.175781 680.269531 317.433594 C 676.054688 307.6875 679.847656 296.671875 688.742188 292.824219 C 697.636719 288.976562 708.265625 293.753906 712.480469 303.492188 " fill-opacity="1" fill-rule="nonzero"/><path fill="#ffffff" d="M 704.359375 318.832031 C 703.652344 320.402344 702.46875 321.777344 700.847656 322.683594 C 697.238281 324.699219 692.769531 323.722656 690.296875 320.566406 L 704.359375 318.832031 " fill-opacity="1" fill-rule="nonzero"/><path fill="#000000" d="M 697.367188 330.242188 C 694.917969 330.242188 692.4375 329.703125 690.054688 328.632812 C 685.496094 326.585938 681.847656 322.824219 679.777344 318.042969 C 675.496094 308.148438 679.386719 296.90625 688.449219 292.988281 C 696.925781 289.320312 706.949219 293.207031 711.777344 302.023438 C 711.960938 302.359375 711.835938 302.785156 711.503906 302.964844 C 711.164062 303.152344 710.742188 303.027344 710.558594 302.691406 C 706.082031 294.503906 696.808594 290.878906 689.003906 294.261719 C 680.640625 297.882812 677.074219 308.296875 681.050781 317.492188 C 682.984375 321.953125 686.382812 325.460938 690.621094 327.367188 C 694.839844 329.261719 699.386719 329.34375 703.425781 327.59375 C 704.960938 326.933594 706.359375 326.027344 707.597656 324.910156 C 707.882812 324.652344 708.320312 324.671875 708.582031 324.957031 C 708.839844 325.238281 708.816406 325.679688 708.53125 325.9375 C 707.183594 327.160156 705.648438 328.148438 703.976562 328.871094 C 701.867188 329.785156 699.632812 330.242188 697.367188 330.242188 " fill-opacity="1" fill-rule="nonzero"/><path fill="#000000" d="M 692.824219 304.160156 L 680.746094 318.359375 C 680.519531 317.921875 680.292969 317.488281 680.09375 317.027344 C 675.902344 307.332031 679.675781 296.371094 688.53125 292.539062 C 697.378906 288.710938 708.6875 293.601562 712.886719 303.300781 C 713.171875 303.957031 713.410156 304.621094 713.621094 305.289062 L 692.824219 304.160156 " fill-opacity="1" fill-rule="nonzero"/><path fill="#955b50" d="M 577.796875 343.207031 L 565.28125 333.050781 C 565.28125 333.050781 570.066406 325.144531 563.363281 317.558594 C 561.808594 315.800781 558.292969 312.464844 555.292969 309.683594 C 551.886719 306.519531 548.910156 302.921875 546.441406 298.976562 L 543.613281 294.457031 C 542.191406 292.1875 539.234375 291.441406 536.902344 292.769531 L 536.40625 293.050781 C 534.046875 294.394531 533.195312 297.378906 534.480469 299.765625 L 542.785156 315.167969 L 534.425781 316.644531 C 530.140625 317.402344 525.730469 316.949219 521.6875 315.335938 L 505.230469 309.15625 C 502.496094 308.128906 499.425781 309.273438 498.035156 311.84375 L 497.796875 312.28125 L 489.304688 308.09375 C 486.765625 306.945312 483.769531 307.992188 482.5 310.476562 C 481.257812 312.914062 482.109375 315.902344 484.460938 317.3125 L 542.222656 352.046875 L 559.726562 365.34375 L 577.796875 343.207031 " fill-opacity="1" fill-rule="nonzero"/><path fill="#fda4ff" d="M 572.484375 263.296875 L 455.710938 445.214844 L 338.921875 263.265625 Z M 572.484375 263.296875 " fill-opacity="1" fill-rule="nonzero"/><path fill="#ff7dce" d="M 572.621094 262.683594 C 572.621094 253.351562 520.273438 245.789062 455.703125 245.789062 C 391.128906 245.789062 338.785156 253.351562 338.785156 262.683594 C 338.785156 272.011719 391.128906 279.574219 455.703125 279.574219 C 520.273438 279.574219 572.621094 272.011719 572.621094 262.683594 " fill-opacity="1" fill-rule="nonzero"/><path fill="#000000" d="M 560.46875 270.1875 C 541.335938 275.753906 501.609375 279.574219 455.703125 279.574219 C 409.792969 279.574219 370.066406 275.753906 350.933594 270.1875 C 370.066406 264.613281 409.792969 260.796875 455.703125 260.796875 C 501.609375 260.796875 541.335938 264.613281 560.46875 270.1875 " fill-opacity="1" fill-rule="nonzero"/><path fill="#000000" d="M 560.46875 270.1875 C 541.335938 275.753906 501.609375 279.574219 455.703125 279.574219 C 409.792969 279.574219 370.066406 275.753906 350.933594 270.1875 C 370.066406 264.613281 409.792969 260.796875 455.703125 260.796875 C 501.609375 260.796875 541.335938 264.613281 560.46875 270.1875 " fill-opacity="1" fill-rule="nonzero"/><path fill="#000000" d="M 487.144531 308.320312 C 485.503906 308.320312 483.917969 309.222656 483.121094 310.792969 C 482.042969 312.898438 482.789062 315.5 484.816406 316.71875 L 542.582031 351.449219 C 542.605469 351.464844 542.625 351.476562 542.644531 351.492188 L 559.609375 364.382812 L 576.816406 343.304688 L 564.84375 333.589844 C 564.578125 333.371094 564.511719 332.988281 564.6875 332.691406 C 564.875 332.386719 569.113281 325.113281 562.84375 318.019531 C 561.265625 316.234375 557.609375 312.777344 554.824219 310.191406 C 551.371094 306.992188 548.355469 303.347656 545.855469 299.34375 L 543.023438 294.828125 C 541.792969 292.863281 539.257812 292.226562 537.246094 293.371094 L 536.746094 293.65625 C 534.734375 294.800781 533.992188 297.398438 535.089844 299.4375 L 543.398438 314.839844 C 543.503906 315.035156 543.507812 315.273438 543.410156 315.46875 C 543.3125 315.671875 543.128906 315.8125 542.90625 315.851562 L 534.546875 317.328125 C 530.128906 318.105469 525.597656 317.640625 521.433594 315.980469 L 504.988281 309.808594 C 502.589844 308.902344 499.863281 309.921875 498.644531 312.175781 L 498.40625 312.613281 C 498.230469 312.941406 497.824219 313.070312 497.492188 312.90625 L 488.996094 308.71875 C 488.398438 308.445312 487.769531 308.320312 487.144531 308.320312 Z M 559.726562 366.039062 C 559.574219 366.039062 559.429688 365.992188 559.304688 365.894531 L 541.835938 352.621094 L 484.101562 317.910156 C 481.453125 316.316406 480.476562 312.914062 481.882812 310.160156 C 483.320312 307.339844 486.710938 306.15625 489.589844 307.464844 L 497.503906 311.367188 C 499.089844 308.609375 502.484375 307.382812 505.476562 308.503906 L 521.933594 314.683594 C 525.871094 316.257812 530.144531 316.695312 534.304688 315.960938 L 541.71875 314.652344 L 533.871094 300.09375 C 532.414062 297.398438 533.398438 293.964844 536.0625 292.449219 L 536.5625 292.164062 C 539.21875 290.648438 542.574219 291.496094 544.199219 294.089844 L 547.03125 298.605469 C 549.46875 302.503906 552.40625 306.054688 555.765625 309.175781 C 558.578125 311.78125 562.269531 315.273438 563.882812 317.097656 C 569.824219 323.820312 567.113281 330.890625 566.160156 332.867188 L 578.234375 342.664062 C 578.378906 342.78125 578.46875 342.949219 578.488281 343.132812 C 578.503906 343.316406 578.449219 343.5 578.335938 343.644531 L 560.261719 365.78125 C 560.125 365.949219 559.925781 366.039062 559.726562 366.039062 " fill-opacity="1" fill-rule="nonzero"/><path fill="#955b50" d="M 534.832031 333.238281 L 530.648438 330.367188 C 527.988281 328.539062 525.914062 325.980469 524.679688 323 L 517.921875 306.671875 C 516.953125 304.324219 514.277344 303.191406 511.917969 304.128906 C 509.667969 305.019531 508.476562 307.488281 509.183594 309.804688 L 514.941406 328.730469 C 515.40625 330.265625 516.175781 331.683594 517.199219 332.914062 L 524.035156 340.28125 L 534.832031 333.238281 " fill-opacity="1" fill-rule="nonzero"/><path fill="#955b50" d="M 524.015625 325.257812 L 519.410156 323.117188 C 516.484375 321.753906 514.019531 319.574219 512.308594 316.839844 L 502.949219 301.851562 C 501.601562 299.695312 498.773438 299.019531 496.597656 300.335938 C 494.53125 301.585938 493.765625 304.21875 494.839844 306.382812 L 503.652344 324.105469 C 504.367188 325.535156 507.511719 330.085938 508.726562 331.128906 L 523.472656 339.976562 L 524.015625 325.257812 " fill-opacity="1" fill-rule="nonzero"/><path fill="#000000" d="M 506.570312 328.542969 C 506.410156 328.542969 506.25 328.488281 506.117188 328.378906 C 504.828125 327.269531 503.789062 325.933594 503.03125 324.414062 L 494.222656 306.695312 C 492.992188 304.222656 493.878906 301.167969 496.242188 299.742188 C 498.726562 298.238281 501.996094 299.019531 503.535156 301.484375 L 510.679688 313.023438 C 510.878906 313.351562 510.78125 313.78125 510.453125 313.980469 C 510.128906 314.183594 509.699219 314.082031 509.5 313.757812 L 502.355469 302.214844 C 501.222656 300.398438 498.796875 299.820312 496.957031 300.929688 C 495.210938 301.988281 494.554688 304.246094 495.464844 306.078125 L 504.273438 323.792969 C 504.949219 325.148438 505.875 326.339844 507.023438 327.324219 C 507.3125 327.574219 507.347656 328.011719 507.097656 328.304688 C 506.960938 328.460938 506.765625 328.542969 506.570312 328.542969 " fill-opacity="1" fill-rule="nonzero"/><path fill="#000000" d="M 520.1875 336.316406 C 520.027344 336.316406 519.867188 336.265625 519.734375 336.148438 C 516.03125 332.929688 514.039062 330.085938 513.078125 326.628906 L 508.511719 309.988281 C 507.714844 307.367188 509.09375 304.5 511.660156 303.484375 C 514.359375 302.410156 517.457031 303.722656 518.566406 306.40625 L 525.324219 322.734375 C 526.507812 325.597656 528.484375 328.039062 531.042969 329.796875 L 539.992188 335 C 540.328125 335.195312 540.4375 335.617188 540.246094 335.949219 C 540.054688 336.28125 539.628906 336.390625 539.296875 336.199219 L 530.300781 330.96875 C 527.476562 329.03125 525.324219 326.378906 524.039062 323.265625 L 517.28125 306.9375 C 516.460938 304.949219 514.167969 303.980469 512.171875 304.773438 C 510.273438 305.527344 509.25 307.644531 509.847656 309.601562 L 514.417969 326.257812 C 515.308594 329.472656 517.117188 332.035156 520.644531 335.097656 C 520.933594 335.351562 520.964844 335.792969 520.714844 336.078125 C 520.574219 336.238281 520.382812 336.316406 520.1875 336.316406 " fill-opacity="1" fill-rule="nonzero"/><path fill="#000000" d="M 546.648438 322.824219 C 546.40625 322.824219 546.167969 322.695312 546.039062 322.464844 L 542.085938 315.316406 C 541.902344 314.980469 542.023438 314.558594 542.355469 314.371094 C 542.695312 314.183594 543.113281 314.308594 543.300781 314.640625 L 547.257812 321.792969 C 547.441406 322.128906 547.320312 322.550781 546.984375 322.738281 C 546.878906 322.796875 546.761719 322.824219 546.648438 322.824219 " fill-opacity="1" fill-rule="nonzero"/><path fill="#8c7bff" d="M 686.824219 342.859375 L 617.984375 368.726562 L 575.570312 335.707031 L 552.089844 366.832031 L 598.492188 402.949219 C 606.679688 409.316406 617.507812 410.964844 627.171875 407.304688 L 698.898438 380.148438 L 686.824219 342.859375 " fill-opacity="1" fill-rule="nonzero"/><path fill="#8c7bff" d="M 677.597656 356.886719 C 677.84375 361.136719 675.28125 366.90625 670.234375 370.558594 C 665.484375 373.996094 662.730469 379.929688 663.582031 386.203125 C 664.207031 390.824219 666.671875 394.722656 670.113281 397.261719 C 673.109375 399.46875 674.980469 402.914062 674.9375 406.675781 L 674.566406 438.851562 C 674.558594 439.753906 675.296875 440.480469 676.1875 440.441406 L 795.773438 501.378906 L 777.226562 366.269531 C 770.554688 349.601562 747.730469 339.542969 730.035156 340.339844 L 690.726562 342.109375 C 683.058594 342.453125 677.15625 349.101562 677.597656 356.886719 " fill-opacity="1" fill-rule="nonzero"/><path fill="#000000" d="M 674.636719 441.203125 C 674.632812 441.203125 674.632812 441.203125 674.632812 441.203125 C 674.246094 441.203125 673.941406 440.886719 673.945312 440.503906 L 674.335938 406.019531 C 674.371094 402.855469 672.863281 399.925781 670.296875 398.171875 C 666.304688 395.453125 663.640625 391.121094 662.980469 386.292969 C 662.121094 379.957031 664.78125 373.710938 669.914062 369.992188 C 674.132812 366.941406 676.730469 362.378906 677.03125 357.476562 C 677.054688 357.097656 677.371094 356.808594 677.769531 356.832031 C 678.152344 356.851562 678.441406 357.183594 678.417969 357.566406 C 678.085938 362.878906 675.285156 367.820312 670.730469 371.117188 C 666.007812 374.535156 663.570312 380.28125 664.359375 386.105469 C 664.960938 390.542969 667.410156 394.527344 671.078125 397.027344 C 674.03125 399.042969 675.769531 402.40625 675.722656 406.035156 L 675.332031 440.519531 C 675.328125 440.898438 675.015625 441.203125 674.636719 441.203125 " fill-opacity="1" fill-rule="nonzero"/><path fill="#000000" d="M 708.359375 394.824219 C 708.253906 394.824219 708.144531 394.796875 708.042969 394.742188 C 702.9375 392.09375 699.53125 387.0625 698.929688 381.292969 C 697.957031 371.980469 704.359375 363.726562 713.511719 362.492188 C 713.898438 362.441406 714.238281 362.710938 714.289062 363.089844 C 714.339844 363.46875 714.074219 363.816406 713.699219 363.871094 C 705.296875 365 699.414062 372.59375 700.308594 381.148438 C 700.867188 386.453125 703.992188 391.074219 708.679688 393.511719 C 709.019531 393.6875 709.152344 394.109375 708.976562 394.449219 C 708.855469 394.683594 708.613281 394.824219 708.359375 394.824219 " fill-opacity="1" fill-rule="nonzero"/><path fill="#955b50" d="M 692.078125 428.246094 C 691.121094 427.683594 686.460938 422.597656 678.136719 422.648438 L 674.832031 422.667969 C 671.140625 422.6875 670.390625 424.105469 666.71875 424.121094 L 651.527344 424.214844 C 649.308594 424.226562 647.519531 426.066406 647.535156 428.320312 L 647.535156 428.628906 C 647.546875 430.882812 649.359375 432.699219 651.574219 432.6875 L 692.101562 432.445312 L 692.078125 428.246094 " fill-opacity="1" fill-rule="nonzero"/><path fill="#955b50" d="M 685.722656 431.738281 L 670.800781 443.6875 C 667.007812 446.726562 662.316406 448.378906 657.480469 448.378906 C 648.125 448.390625 643.878906 448.085938 637.410156 449.710938 L 636.492188 449.941406 C 634.027344 450.558594 631.644531 448.671875 631.628906 446.09375 L 631.625 445.753906 C 631.613281 443.910156 632.851562 442.300781 634.613281 441.859375 C 638.4375 440.898438 642.019531 439.886719 647.742188 439.855469 L 652.960938 439.824219 C 657.769531 439.796875 662.425781 438.132812 666.199219 435.101562 L 670.265625 431.832031 L 685.722656 431.738281 " fill-opacity="1" fill-rule="nonzero"/><path fill="#955b50" d="M 682.253906 456.492188 L 655.820312 456.824219 C 653.011719 456.859375 650.226562 456.277344 647.65625 455.128906 L 645.921875 454.355469 C 642.855469 452.984375 641.46875 449.355469 642.816406 446.246094 C 643.316406 445.085938 644.648438 444.5625 645.792969 445.070312 L 648.421875 446.25 C 651.597656 447.667969 655.027344 448.382812 658.496094 448.347656 L 682.203125 448.109375 L 682.253906 456.492188 " fill-opacity="1" fill-rule="nonzero"/><path fill="#955b50" d="M 688.378906 461.628906 C 684.964844 463.707031 681.070312 464.839844 677.089844 464.90625 L 668.589844 465.058594 C 665.785156 465.09375 663 464.519531 660.425781 463.371094 L 658.6875 462.59375 C 655.628906 461.226562 654.238281 457.59375 655.582031 454.488281 C 656.085938 453.328125 657.417969 452.800781 658.5625 453.308594 L 666.011719 456.636719 L 697.074219 456.136719 L 688.378906 461.628906 " fill-opacity="1" fill-rule="nonzero"/><path fill="#955b50" d="M 673.03125 428.390625 L 658.339844 447.011719 L 655.246094 456.703125 L 713.929688 456.324219 L 713.765625 428.148438 L 673.03125 428.390625 " fill-opacity="1" fill-rule="nonzero"/><path fill="#020202" d="M 702.242188 428.171875 L 713.765625 428.148438 L 713.929688 456.324219 L 705.625 456.378906 L 702.242188 428.171875 " fill-opacity="1" fill-rule="nonzero"/><path fill="#000000" d="M 635.542969 450.75 C 634.546875 450.75 633.5625 450.417969 632.75 449.785156 C 631.601562 448.898438 630.941406 447.554688 630.929688 446.097656 L 630.929688 445.757812 C 630.921875 443.585938 632.367188 441.707031 634.445312 441.183594 L 635.222656 440.988281 C 638.714844 440.105469 642.324219 439.191406 647.738281 439.160156 L 652.960938 439.128906 C 657.585938 439.101562 662.128906 437.480469 665.761719 434.5625 L 668.867188 432.066406 C 669.167969 431.824219 669.605469 431.875 669.839844 432.167969 C 670.082031 432.46875 670.035156 432.90625 669.738281 433.148438 L 666.632812 435.644531 C 662.757812 438.757812 657.90625 440.488281 652.964844 440.515625 L 647.746094 440.546875 C 642.5 440.578125 639.132812 441.429688 635.566406 442.335938 L 634.777344 442.53125 C 633.324219 442.898438 632.316406 444.222656 632.320312 445.75 L 632.324219 446.089844 C 632.328125 447.121094 632.792969 448.066406 633.597656 448.6875 C 634.378906 449.296875 635.371094 449.503906 636.324219 449.265625 L 637.234375 449.039062 C 642.832031 447.632812 646.894531 447.648438 653.632812 447.679688 C 655.699219 447.6875 658.035156 447.695312 660.757812 447.667969 C 661.296875 447.664062 665.074219 447.640625 668.015625 447.625 C 670.4375 447.625 672.878906 447.882812 675.242188 448.433594 L 675.960938 448.601562 C 676.328125 448.683594 676.5625 449.058594 676.476562 449.433594 C 676.386719 449.808594 676.011719 450.039062 675.644531 449.953125 L 674.929688 449.785156 C 672.667969 449.257812 670.335938 448.992188 668.023438 449.011719 C 665.082031 449.027344 661.308594 449.050781 660.769531 449.054688 C 658.039062 449.085938 655.699219 449.074219 653.628906 449.066406 C 646.777344 449.039062 643 449.023438 637.578125 450.382812 L 636.660156 450.613281 C 636.292969 450.707031 635.914062 450.75 635.542969 450.75 " fill-opacity="1" fill-rule="nonzero"/><path fill="#000000" d="M 675.847656 458.230469 C 675.796875 458.230469 675.746094 458.222656 675.699219 458.214844 L 674.828125 458.023438 C 672.59375 457.53125 670.316406 457.300781 668.019531 457.332031 L 655.828125 457.515625 C 652.929688 457.546875 650.050781 456.964844 647.371094 455.765625 L 645.636719 454.988281 C 643.214844 453.90625 641.632812 451.480469 641.605469 448.800781 C 641.601562 448.414062 641.910156 448.101562 642.292969 448.097656 C 642.648438 448.085938 642.988281 448.398438 642.992188 448.785156 C 643.019531 450.921875 644.277344 452.859375 646.199219 453.722656 L 647.9375 454.5 C 650.433594 455.613281 653.082031 456.167969 655.808594 456.128906 L 667.996094 455.945312 C 670.390625 455.914062 672.785156 456.152344 675.121094 456.667969 L 675.996094 456.859375 C 676.367188 456.941406 676.605469 457.308594 676.523438 457.683594 C 676.453125 458.007812 676.164062 458.230469 675.847656 458.230469 " fill-opacity="1" fill-rule="nonzero"/><path fill="#000000" d="M 668.347656 465.753906 C 665.507812 465.753906 662.75 465.167969 660.144531 464.003906 L 658.410156 463.226562 C 655.882812 462.097656 654.304688 459.558594 654.378906 456.761719 C 654.394531 456.375 654.71875 456.082031 655.097656 456.082031 C 655.480469 456.097656 655.78125 456.417969 655.769531 456.796875 C 655.703125 459.035156 656.964844 461.0625 658.976562 461.957031 L 660.710938 462.734375 C 663.207031 463.851562 665.867188 464.40625 668.582031 464.367188 L 677.082031 464.214844 C 680.933594 464.148438 684.714844 463.050781 688.023438 461.035156 L 696.667969 455.730469 L 713.230469 455.632812 L 713.078125 428.84375 L 691.894531 428.941406 L 691.726562 428.84375 C 691.535156 428.730469 691.292969 428.535156 690.9375 428.242188 C 689.152344 426.769531 684.988281 423.34375 678.257812 423.34375 C 678.222656 423.34375 678.183594 423.34375 678.144531 423.34375 L 674.835938 423.359375 C 673.097656 423.371094 672.070312 423.703125 670.980469 424.058594 C 669.84375 424.425781 668.667969 424.808594 666.722656 424.816406 L 651.535156 424.910156 C 649.703125 424.917969 648.21875 426.449219 648.226562 428.316406 L 648.230469 428.628906 C 648.238281 429.53125 648.585938 430.378906 649.222656 431.019531 C 649.847656 431.648438 650.675781 431.988281 651.554688 431.988281 C 651.5625 431.988281 651.566406 431.988281 651.578125 431.988281 L 674.664062 431.855469 L 674.667969 431.855469 C 675.046875 431.855469 675.359375 432.164062 675.363281 432.542969 C 675.363281 432.925781 675.054688 433.238281 674.671875 433.242188 L 651.578125 433.382812 C 650.296875 433.390625 649.132812 432.898438 648.238281 431.996094 C 647.34375 431.101562 646.851562 429.90625 646.84375 428.632812 L 646.84375 428.320312 C 646.824219 425.691406 648.925781 423.535156 651.527344 423.523438 L 666.714844 423.429688 C 668.445312 423.421875 669.46875 423.085938 670.550781 422.734375 C 671.695312 422.367188 672.875 421.984375 674.828125 421.972656 L 678.132812 421.953125 C 678.175781 421.953125 678.214844 421.953125 678.257812 421.953125 C 685.484375 421.953125 690.085938 425.738281 691.820312 427.171875 C 692 427.316406 692.171875 427.457031 692.296875 427.550781 L 714.457031 427.449219 L 714.628906 457.015625 L 697.066406 457.121094 L 688.746094 462.222656 C 685.230469 464.359375 681.203125 465.53125 677.105469 465.605469 L 668.605469 465.753906 C 668.515625 465.753906 668.433594 465.753906 668.347656 465.753906 " fill-opacity="1" fill-rule="nonzero"/><path fill="#8c7bff" d="M 798.15625 432.058594 L 796.363281 385.019531 C 795.375 358.789062 773.550781 338.394531 747.738281 339.574219 L 726.945312 340.527344 L 758.386719 378.863281 L 760.121094 420.585938 L 705.496094 423.097656 L 707.210938 461.507812 L 773.753906 458.429688 C 787.570312 457.789062 798.378906 446.105469 798.15625 432.058594 " fill-opacity="1" fill-rule="nonzero"/><path fill="#000000" d="M 706.546875 462.234375 L 704.769531 422.4375 L 759.398438 419.921875 L 757.695312 378.890625 C 757.675781 378.503906 757.976562 378.183594 758.359375 378.164062 C 758.742188 378.152344 759.0625 378.449219 759.082031 378.832031 L 760.847656 421.246094 L 706.21875 423.761719 L 707.875 460.785156 L 773.722656 457.738281 C 787.253906 457.109375 797.683594 445.835938 797.464844 432.074219 L 795.671875 385.042969 C 795.191406 372.402344 789.851562 360.765625 780.621094 352.277344 C 771.597656 343.972656 759.921875 339.703125 747.769531 340.269531 L 729.046875 341.128906 C 728.660156 341.15625 728.34375 340.847656 728.320312 340.464844 C 728.308594 340.078125 728.601562 339.753906 728.984375 339.738281 L 747.707031 338.882812 C 760.242188 338.308594 772.261719 342.699219 781.5625 351.253906 C 791.0625 359.996094 796.570312 371.976562 797.058594 384.988281 L 798.851562 432.035156 C 799.082031 446.570312 788.074219 458.460938 773.789062 459.125 L 706.546875 462.234375 " fill-opacity="1" fill-rule="nonzero"/><path fill="#000000" d="M 759.8125 421.292969 C 759.445312 421.292969 759.140625 421 759.121094 420.628906 C 759.105469 420.242188 759.402344 419.921875 759.785156 419.902344 L 770.890625 419.390625 C 771.257812 419.375 771.59375 419.667969 771.609375 420.050781 C 771.628906 420.4375 771.332031 420.757812 770.949219 420.78125 L 759.851562 421.289062 C 759.839844 421.292969 759.828125 421.292969 759.8125 421.292969 " fill-opacity="1" fill-rule="nonzero"/><path fill="#fda4ff" d="M 422.433594 81.398438 C 421.425781 81.398438 420.410156 81.457031 419.382812 81.570312 C 412.121094 82.378906 405.605469 85.972656 401.039062 91.679688 C 396.476562 97.390625 394.410156 104.535156 395.21875 111.800781 C 396.027344 119.066406 399.617188 125.578125 405.328125 130.140625 C 411.039062 134.707031 418.183594 136.773438 425.445312 135.964844 C 440.441406 134.292969 451.28125 120.730469 449.609375 105.734375 C 448.054688 91.765625 436.175781 81.398438 422.433594 81.398438 Z M 425.523438 136.65625 L 425.53125 136.65625 Z M 422.359375 137.527344 C 415.863281 137.527344 409.609375 135.34375 404.460938 131.226562 C 398.460938 126.433594 394.691406 119.585938 393.839844 111.953125 C 392.988281 104.320312 395.160156 96.808594 399.957031 90.8125 C 404.75 84.816406 411.597656 81.039062 419.230469 80.191406 C 434.988281 78.433594 449.234375 89.824219 450.992188 105.582031 C 452.746094 121.339844 441.355469 135.589844 425.601562 137.347656 C 424.515625 137.46875 423.433594 137.527344 422.359375 137.527344 Z M 418.484375 167.660156 L 418.707031 169.667969 L 439.441406 167.355469 L 437.980469 154.261719 C 437.976562 154.234375 437.976562 154.210938 437.976562 154.183594 C 437.976562 153.894531 438.160156 153.628906 438.441406 153.527344 C 443.222656 151.824219 447.683594 149.363281 451.695312 146.21875 C 451.953125 146.019531 452.308594 146.019531 452.558594 146.222656 L 462.855469 154.453125 L 475.882812 138.15625 L 465.585938 129.921875 C 465.417969 129.792969 465.328125 129.589844 465.328125 129.382812 C 465.328125 129.28125 465.347656 129.179688 465.394531 129.085938 C 467.578125 124.476562 468.996094 119.585938 469.605469 114.542969 C 469.644531 114.222656 469.898438 113.96875 470.21875 113.933594 L 483.3125 112.472656 L 481.003906 91.738281 L 478.835938 91.980469 L 467.90625 93.199219 C 467.585938 93.234375 467.285156 93.042969 467.175781 92.746094 C 465.46875 87.957031 463.003906 83.496094 459.863281 79.484375 C 459.664062 79.230469 459.667969 78.875 459.871094 78.621094 L 468.097656 68.324219 L 451.800781 55.300781 L 443.570312 65.59375 C 443.371094 65.847656 443.023438 65.925781 442.730469 65.789062 C 438.128906 63.605469 433.234375 62.1875 428.1875 61.574219 C 427.867188 61.535156 427.617188 61.28125 427.582031 60.960938 L 426.121094 47.867188 L 405.386719 50.179688 L 406.847656 63.273438 C 406.882812 63.59375 406.695312 63.894531 406.390625 64.003906 C 401.605469 65.714844 397.144531 68.171875 393.132812 71.320312 C 392.878906 71.519531 392.523438 71.511719 392.269531 71.3125 L 381.976562 63.082031 L 368.949219 79.382812 L 379.242188 87.613281 C 379.496094 87.808594 379.574219 88.15625 379.4375 88.449219 C 377.253906 93.054688 375.835938 97.949219 375.222656 102.996094 C 375.1875 103.300781 374.949219 103.546875 374.640625 103.59375 L 361.167969 105.675781 L 363.816406 125.796875 L 376.921875 124.332031 C 377.242188 124.304688 377.542969 124.488281 377.652344 124.792969 C 379.363281 129.574219 381.824219 134.039062 384.964844 138.050781 C 385.164062 138.304688 385.164062 138.664062 384.960938 138.910156 L 376.734375 149.210938 L 393.027344 162.238281 L 401.257812 151.941406 C 401.460938 151.691406 401.804688 151.609375 402.097656 151.75 C 406.707031 153.929688 411.597656 155.347656 416.640625 155.960938 C 416.960938 156 417.210938 156.25 417.25 156.574219 L 418.484375 167.65625 C 418.484375 167.65625 418.484375 167.660156 418.484375 167.660156 Z M 418.09375 171.128906 C 417.9375 171.128906 417.785156 171.074219 417.660156 170.976562 C 417.515625 170.859375 417.425781 170.691406 417.402344 170.511719 L 415.929688 157.269531 C 411.109375 156.628906 406.429688 155.273438 402.003906 153.238281 L 393.679688 163.648438 C 393.4375 163.941406 393.003906 163.996094 392.703125 163.757812 L 375.324219 149.859375 C 375.179688 149.742188 375.085938 149.574219 375.066406 149.390625 C 375.046875 149.214844 375.101562 149.027344 375.214844 148.886719 L 383.535156 138.472656 C 380.574219 134.601562 378.21875 130.335938 376.535156 125.773438 L 363.292969 127.25 C 362.914062 127.292969 362.578125 127.027344 362.527344 126.65625 L 359.703125 105.183594 C 359.652344 104.808594 359.910156 104.464844 360.285156 104.40625 L 373.910156 102.304688 C 374.550781 97.476562 375.90625 92.789062 377.949219 88.355469 L 367.539062 80.03125 C 367.394531 79.914062 367.304688 79.746094 367.285156 79.566406 C 367.261719 79.382812 367.316406 79.199219 367.429688 79.054688 L 381.324219 61.675781 C 381.5625 61.371094 382 61.324219 382.300781 61.566406 L 392.710938 69.886719 C 396.582031 66.925781 400.847656 64.570312 405.40625 62.882812 L 403.929688 49.640625 C 403.910156 49.457031 403.964844 49.273438 404.078125 49.132812 C 404.195312 48.988281 404.359375 48.898438 404.542969 48.875 L 426.660156 46.410156 C 426.84375 46.390625 427.027344 46.445312 427.167969 46.558594 C 427.3125 46.675781 427.40625 46.839844 427.425781 47.023438 L 428.902344 60.265625 C 433.722656 60.910156 438.398438 62.265625 442.828125 64.300781 L 451.148438 53.890625 C 451.390625 53.589844 451.828125 53.539062 452.128906 53.78125 L 469.507812 67.671875 C 469.652344 67.789062 469.742188 67.957031 469.761719 68.140625 C 469.785156 68.324219 469.730469 68.507812 469.613281 68.652344 L 461.292969 79.0625 C 464.257812 82.933594 466.609375 87.199219 468.296875 91.757812 L 478.683594 90.601562 L 481.535156 90.28125 C 481.722656 90.261719 481.90625 90.3125 482.046875 90.429688 C 482.191406 90.542969 482.28125 90.714844 482.304688 90.894531 L 484.769531 113.011719 C 484.773438 113.035156 484.773438 113.0625 484.773438 113.089844 C 484.773438 113.246094 484.71875 113.398438 484.621094 113.523438 C 484.503906 113.667969 484.339844 113.757812 484.15625 113.78125 L 470.914062 115.253906 C 470.273438 120.074219 468.917969 124.753906 466.882812 129.183594 L 477.289062 137.503906 C 477.433594 137.617188 477.527344 137.785156 477.546875 137.96875 C 477.550781 137.996094 477.550781 138.019531 477.550781 138.046875 C 477.550781 138.203125 477.496094 138.355469 477.398438 138.480469 L 463.503906 155.863281 C 463.265625 156.160156 462.828125 156.207031 462.53125 155.972656 L 452.117188 147.648438 C 448.246094 150.609375 443.980469 152.964844 439.421875 154.652344 L 440.898438 167.890625 C 440.902344 167.914062 440.902344 167.941406 440.902344 167.972656 C 440.902344 168.125 440.851562 168.277344 440.753906 168.402344 C 440.636719 168.546875 440.46875 168.636719 440.289062 168.660156 L 418.171875 171.125 C 418.144531 171.125 418.121094 171.128906 418.09375 171.128906 " fill-opacity="1" fill-rule="nonzero"/><path fill="#ffffff" d="M 418.09375 171.125 C 417.9375 171.125 417.785156 171.074219 417.660156 170.972656 C 417.519531 170.859375 417.425781 170.691406 417.40625 170.511719 L 417.105469 167.808594 C 417.101562 167.78125 417.097656 167.757812 417.097656 167.734375 C 417.097656 167.382812 417.363281 167.082031 417.714844 167.039062 C 418.097656 167 418.441406 167.273438 418.484375 167.65625 L 418.707031 169.664062 L 439.441406 167.355469 L 437.984375 154.257812 C 437.980469 154.234375 437.980469 154.210938 437.980469 154.183594 C 437.980469 153.894531 438.164062 153.628906 438.441406 153.527344 C 443.222656 151.820312 447.683594 149.363281 451.695312 146.214844 C 451.953125 146.019531 452.308594 146.019531 452.558594 146.21875 L 462.855469 154.449219 L 475.882812 138.15625 L 465.585938 129.921875 C 465.417969 129.789062 465.328125 129.589844 465.328125 129.382812 C 465.328125 129.28125 465.351562 129.179688 465.394531 129.085938 C 467.578125 124.476562 468.996094 119.582031 469.605469 114.539062 C 469.648438 114.21875 469.898438 113.96875 470.21875 113.933594 L 483.316406 112.476562 L 481.003906 91.738281 L 478.839844 91.980469 C 478.453125 92.019531 478.113281 91.746094 478.074219 91.363281 C 478.070312 91.339844 478.066406 91.3125 478.066406 91.289062 C 478.066406 90.941406 478.332031 90.640625 478.683594 90.597656 L 481.539062 90.28125 C 481.722656 90.261719 481.90625 90.3125 482.046875 90.429688 C 482.191406 90.542969 482.28125 90.710938 482.304688 90.890625 L 484.773438 113.007812 C 484.773438 113.039062 484.773438 113.0625 484.773438 113.089844 C 484.773438 113.242188 484.722656 113.394531 484.625 113.519531 C 484.507812 113.664062 484.34375 113.753906 484.15625 113.777344 L 470.914062 115.253906 C 470.277344 120.070312 468.917969 124.75 466.882812 129.179688 L 477.292969 137.503906 C 477.433594 137.617188 477.527344 137.785156 477.546875 137.964844 C 477.550781 137.996094 477.550781 138.019531 477.550781 138.046875 C 477.550781 138.203125 477.496094 138.355469 477.402344 138.476562 L 463.507812 155.859375 C 463.265625 156.160156 462.828125 156.207031 462.53125 155.96875 L 452.117188 147.648438 C 448.246094 150.609375 443.980469 152.960938 439.421875 154.648438 L 440.898438 167.890625 C 440.902344 167.917969 440.90625 167.941406 440.90625 167.96875 C 440.90625 168.125 440.851562 168.277344 440.753906 168.398438 C 440.636719 168.542969 440.472656 168.636719 440.289062 168.65625 L 418.171875 171.121094 C 418.144531 171.125 418.121094 171.125 418.09375 171.125 " fill-opacity="1" fill-rule="nonzero"/><path fill="#000000" d="M 269.050781 199.066406 C 258.796875 200.207031 249.5625 192.824219 248.417969 182.570312 C 247.273438 172.316406 254.660156 163.082031 264.910156 161.9375 C 275.164062 160.792969 284.402344 168.179688 285.542969 178.433594 C 286.6875 188.683594 279.304688 197.925781 269.050781 199.066406 Z M 308.03125 183.378906 L 306.386719 168.65625 L 297.214844 169.679688 C 296.042969 166.402344 294.359375 163.386719 292.273438 160.722656 L 298.042969 153.507812 L 286.472656 144.257812 L 280.703125 151.472656 C 277.644531 150.023438 274.335938 149.046875 270.878906 148.628906 L 269.859375 139.449219 L 255.136719 141.09375 L 256.160156 150.265625 C 252.882812 151.441406 249.867188 153.121094 247.203125 155.210938 L 239.988281 149.4375 L 230.742188 161.011719 L 237.953125 166.777344 C 236.503906 169.835938 235.527344 173.144531 235.109375 176.601562 L 225.691406 178.054688 L 227.574219 192.347656 L 236.75 191.328125 C 237.921875 194.605469 239.601562 197.617188 241.6875 200.28125 L 235.921875 207.496094 L 247.492188 216.742188 L 253.257812 209.53125 C 256.316406 210.980469 259.628906 211.957031 263.082031 212.375 L 264.105469 221.550781 L 278.828125 219.910156 L 277.804688 210.734375 C 281.082031 209.5625 284.097656 207.882812 286.761719 205.792969 L 293.972656 211.5625 L 303.222656 199.992188 L 296.007812 194.222656 C 297.457031 191.167969 298.433594 187.855469 298.851562 184.398438 L 308.03125 183.378906 " fill-opacity="1" fill-rule="nonzero"/></svg>