<svg xmlns="http://www.w3.org/2000/svg" xmlns:xlink="http://www.w3.org/1999/xlink" width="500" zoomAndPan="magnify" viewBox="0 0 375 374.999991" height="500" preserveAspectRatio="xMidYMid meet" version="1.0"><path fill="#111111" d="M 124.167969 226.652344 L 114.011719 202.671875 L 105.3125 202.671875 L 105.3125 226.652344 L 82.136719 226.652344 L 82.136719 148.023438 L 122.96875 148.023438 C 140.886719 148.023438 150.46875 160.300781 150.46875 174.980469 C 150.46875 188.566406 142.8125 195.722656 136.71875 198.804688 L 150.625 226.652344 Z M 126.980469 176.496094 C 126.980469 171.167969 123.28125 168.765625 119.375 168.765625 L 105.3125 168.765625 L 105.3125 184.332031 L 119.375 184.332031 C 123.28125 184.386719 126.980469 181.984375 126.980469 176.496094 Z M 126.980469 176.496094 " fill-opacity="1" fill-rule="nonzero"/><path fill="#111111" d="M 210.675781 226.652344 L 210.675781 148.023438 L 268.957031 148.023438 L 268.957031 168.765625 L 233.957031 168.765625 L 233.957031 179.316406 L 268.175781 179.316406 L 268.175781 200.058594 L 233.957031 200.058594 L 233.957031 226.652344 Z M 210.675781 226.652344 " fill-opacity="1" fill-rule="nonzero"/><path fill="#111111" d="M 0 226.652344 L 0 148.023438 L 34.375 148.023438 C 58.644531 148.023438 76.613281 162.128906 76.613281 187.3125 C 76.613281 212.386719 58.59375 226.652344 34.480469 226.652344 Z M 53.019531 187.3125 C 53.019531 176.652344 47.03125 168.765625 34.53125 168.765625 L 23.332031 168.765625 L 23.332031 205.910156 L 34.375 205.910156 C 46.09375 205.910156 53.019531 197.238281 53.019531 187.3125 Z M 53.019531 187.3125 " fill-opacity="1" fill-rule="nonzero"/><path fill="#111111" d="M 295.417969 226.652344 L 295.417969 168.765625 L 274.792969 168.765625 L 274.792969 148.023438 L 339.167969 148.023438 L 339.167969 168.765625 L 318.699219 168.765625 L 318.699219 226.652344 Z M 295.417969 226.652344 " fill-opacity="1" fill-rule="nonzero"/><path fill="#111111" d="M 205.574219 148.078125 C 205.886719 148.078125 206.199219 148.128906 206.457031 148.179688 C 207.605469 148.441406 208.125 149.488281 207.550781 150.425781 C 207.394531 150.636719 207.292969 150.742188 207.136719 150.949219 L 187.550781 173.308594 C 187.550781 173.308594 187.1875 173.675781 187.03125 173.9375 C 186.300781 174.929688 187.03125 176.183594 188.386719 176.234375 C 188.644531 176.234375 189.0625 176.234375 189.0625 176.234375 L 195.78125 176.234375 C 195.78125 176.234375 196.199219 176.234375 196.457031 176.234375 C 197.761719 176.394531 198.4375 177.59375 197.761719 178.535156 C 197.605469 178.796875 197.1875 179.214844 197.1875 179.214844 L 182.707031 195.566406 C 182.5 195.773438 182.394531 195.933594 182.1875 196.191406 C 181.5625 197.1875 182.292969 198.335938 183.59375 198.4375 C 183.957031 198.4375 188.4375 198.4375 188.800781 198.4375 C 189.53125 198.386719 190.15625 198.753906 190.519531 199.378906 C 190.78125 199.953125 190.625 200.632812 190.105469 201.050781 C 189.949219 201.207031 189.6875 201.363281 189.6875 201.363281 L 156.25 226.546875 C 156.25 226.546875 155.886719 226.914062 155.625 227.070312 C 155.3125 227.277344 154.894531 227.277344 154.53125 227.070312 C 154.269531 226.914062 154.113281 226.546875 154.21875 226.285156 C 154.324219 226.023438 154.480469 225.660156 154.480469 225.660156 L 163.699219 206.589844 L 163.957031 206.015625 C 164.582031 204.761719 163.957031 203.714844 162.605469 203.558594 C 162.394531 203.558594 162.082031 203.558594 162.082031 203.558594 L 155.730469 203.558594 C 155.46875 203.558594 155.207031 203.558594 154.949219 203.507812 C 153.800781 203.296875 153.230469 202.359375 153.644531 201.417969 C 153.75 201.207031 153.957031 200.789062 153.957031 200.789062 L 165.417969 181.566406 C 165.417969 181.566406 165.574219 181.304688 165.625 181.25 C 166.25 180.101562 165.46875 179.003906 164.0625 179.003906 C 163.4375 179.003906 162.292969 179.003906 162.292969 179.003906 C 162.292969 179.003906 159.21875 179.003906 157.1875 179.003906 L 156.5625 179.003906 C 155.574219 179.003906 154.894531 178.480469 154.792969 177.75 C 154.738281 177.386719 154.84375 176.96875 155.050781 176.601562 L 158.542969 170.4375 L 169.949219 150.21875 L 170.207031 149.75 C 170.78125 148.703125 171.769531 148.179688 173.125 148.179688 Z M 205.574219 148.078125 " fill-opacity="1" fill-rule="nonzero"/><path fill="#111111" d="M 360.988281 165.421875 L 360.988281 151.003906 L 366.667969 165.371094 L 367.292969 165.371094 L 372.96875 151.003906 L 372.96875 165.371094 L 375.105469 165.371094 L 375.105469 148.023438 L 371.875 148.023438 L 367.03125 160.667969 L 362.1875 148.023438 L 358.855469 148.023438 L 358.855469 165.421875 Z M 351.457031 165.421875 L 351.457031 150.0625 L 356.144531 150.0625 L 356.144531 148.023438 L 344.6875 148.023438 L 344.6875 150.0625 L 349.375 150.0625 L 349.375 165.371094 L 351.457031 165.371094 Z M 351.457031 165.421875 " fill-opacity="1" fill-rule="nonzero"/></svg>