<svg xmlns="http://www.w3.org/2000/svg" xmlns:xlink="http://www.w3.org/1999/xlink" width="500" zoomAndPan="magnify" viewBox="0 0 375 374.999991" height="500" preserveAspectRatio="xMidYMid meet" version="1.0"><defs><clipPath id="fecd2dce8c"><path d="M 37.5 157 L 337.5 157 L 337.5 229 L 37.5 229 Z M 37.5 157 " clip-rule="nonzero"/></clipPath><clipPath id="5cf71465da"><path d="M 230 143.632812 L 311 143.632812 L 311 228 L 230 228 Z M 230 143.632812 " clip-rule="nonzero"/></clipPath></defs><g clip-path="url(#fecd2dce8c)"><path fill="#33475b" d="M 70.003906 157.710938 L 70.003906 181.703125 L 47.96875 181.703125 L 47.96875 157.710938 L 37.515625 157.710938 L 37.515625 214.976562 L 47.972656 214.976562 L 47.972656 191.765625 L 70 191.765625 L 70 214.976562 L 80.460938 214.976562 L 80.460938 157.710938 Z M 113.929688 196.46875 C 113.929688 197.039062 113.875 197.601562 113.761719 198.15625 C 113.652344 198.714844 113.488281 199.257812 113.269531 199.78125 C 113.050781 200.304688 112.785156 200.804688 112.46875 201.277344 C 112.15625 201.75 111.796875 202.1875 111.394531 202.589844 C 110.992188 202.992188 110.554688 203.347656 110.082031 203.664062 C 109.609375 203.980469 109.113281 204.246094 108.585938 204.464844 C 108.0625 204.683594 107.519531 204.847656 106.964844 204.957031 C 106.40625 205.066406 105.84375 205.125 105.277344 205.125 C 104.707031 205.125 104.144531 205.066406 103.589844 204.957031 C 103.03125 204.847656 102.488281 204.683594 101.964844 204.464844 C 101.441406 204.246094 100.941406 203.980469 100.46875 203.664062 C 99.996094 203.347656 99.558594 202.992188 99.15625 202.589844 C 98.757812 202.1875 98.398438 201.75 98.082031 201.277344 C 97.765625 200.804688 97.5 200.304688 97.28125 199.78125 C 97.066406 199.257812 96.902344 198.714844 96.789062 198.15625 C 96.679688 197.601562 96.625 197.039062 96.625 196.46875 L 96.625 171.9375 L 86.703125 171.9375 L 86.703125 196.46875 C 86.703125 197.078125 86.734375 197.683594 86.792969 198.289062 C 86.855469 198.894531 86.941406 199.492188 87.0625 200.089844 C 87.179688 200.683594 87.328125 201.273438 87.503906 201.855469 C 87.679688 202.4375 87.882812 203.007812 88.117188 203.570312 C 88.351562 204.132812 88.609375 204.679688 88.894531 205.21875 C 89.183594 205.753906 89.492188 206.273438 89.832031 206.777344 C 90.167969 207.285156 90.53125 207.773438 90.917969 208.242188 C 91.300781 208.710938 91.710938 209.160156 92.140625 209.589844 C 92.570312 210.019531 93.019531 210.429688 93.488281 210.8125 C 93.957031 211.199219 94.445312 211.5625 94.949219 211.898438 C 95.457031 212.238281 95.976562 212.546875 96.511719 212.835938 C 97.046875 213.121094 97.597656 213.382812 98.15625 213.613281 C 98.71875 213.847656 99.289062 214.050781 99.871094 214.226562 C 100.453125 214.402344 101.042969 214.550781 101.636719 214.671875 C 102.234375 214.789062 102.835938 214.878906 103.4375 214.9375 C 104.042969 214.996094 104.648438 215.027344 105.257812 215.027344 C 105.867188 215.027344 106.472656 214.996094 107.078125 214.9375 C 107.679688 214.878906 108.28125 214.789062 108.878906 214.671875 C 109.472656 214.550781 110.0625 214.402344 110.644531 214.226562 C 111.226562 214.050781 111.796875 213.847656 112.359375 213.613281 C 112.917969 213.382812 113.46875 213.121094 114.003906 212.835938 C 114.539062 212.546875 115.058594 212.238281 115.566406 211.898438 C 116.070312 211.5625 116.558594 211.199219 117.027344 210.8125 C 117.496094 210.429688 117.945312 210.019531 118.375 209.589844 C 118.804688 209.160156 119.214844 208.710938 119.597656 208.242188 C 119.984375 207.773438 120.347656 207.285156 120.683594 206.777344 C 121.019531 206.273438 121.332031 205.753906 121.621094 205.21875 C 121.90625 204.679688 122.164062 204.132812 122.398438 203.570312 C 122.628906 203.007812 122.835938 202.4375 123.011719 201.855469 C 123.1875 201.273438 123.335938 200.683594 123.453125 200.089844 C 123.574219 199.492188 123.660156 198.894531 123.722656 198.289062 C 123.78125 197.683594 123.808594 197.078125 123.808594 196.46875 L 123.808594 171.9375 L 113.929688 171.9375 Z M 187.421875 174.464844 C 187.421875 169.4375 190.75 167.84375 194.390625 167.84375 C 197.328125 167.84375 201.207031 170.078125 203.742188 172.789062 L 210.238281 165.128906 C 206.996094 160.742188 200.417969 157.710938 195.03125 157.710938 C 184.269531 157.710938 176.488281 164.015625 176.488281 174.464844 C 176.488281 193.855469 200.179688 187.703125 200.179688 198.554688 C 200.179688 201.902344 196.933594 204.855469 193.214844 204.855469 C 187.347656 204.855469 185.445312 201.988281 182.75 198.953125 L 175.539062 206.453125 C 180.152344 212.113281 185.839844 214.988281 192.652344 214.988281 C 202.878906 214.988281 211.101562 208.609375 211.101562 198.632812 C 211.101562 177.109375 187.40625 183.800781 187.40625 174.464844 M 333.996094 205.828125 C 328.132812 205.828125 326.46875 203.292969 326.46875 199.410156 L 326.46875 182.214844 L 335.578125 182.214844 L 335.578125 173.5 L 326.46875 173.5 L 326.46875 162.003906 L 316.410156 166.519531 L 316.410156 201.546875 C 316.410156 210.507812 322.589844 215.019531 331.0625 215.019531 C 332.394531 215.042969 333.722656 214.9375 335.03125 214.703125 L 337.484375 205.667969 C 336.378906 205.746094 335.105469 205.820312 333.996094 205.820312 M 151.683594 172.222656 C 146.773438 172.222656 143.34375 173.652344 140.027344 176.902344 L 140.027344 158.054688 L 130.09375 158.054688 L 130.09375 192.992188 C 130.09375 206.070312 139.542969 215.03125 150.167969 215.03125 C 161.953125 215.03125 172.316406 205.910156 172.316406 193.632812 C 172.316406 181.507812 162.777344 172.234375 151.683594 172.234375 M 151.621094 205.03125 C 150.882812 205.03125 150.148438 204.960938 149.421875 204.816406 C 148.699219 204.671875 147.992188 204.457031 147.308594 204.171875 C 146.625 203.890625 145.976562 203.542969 145.359375 203.132812 C 144.746094 202.71875 144.175781 202.253906 143.652344 201.730469 C 143.128906 201.207031 142.660156 200.636719 142.25 200.019531 C 141.839844 199.40625 141.492188 198.753906 141.207031 198.070312 C 140.925781 197.386719 140.710938 196.683594 140.566406 195.957031 C 140.421875 195.230469 140.351562 194.496094 140.351562 193.753906 C 140.351562 193.015625 140.421875 192.28125 140.566406 191.554688 C 140.710938 190.828125 140.925781 190.125 141.207031 189.441406 C 141.492188 188.757812 141.839844 188.105469 142.25 187.492188 C 142.660156 186.875 143.128906 186.304688 143.652344 185.78125 C 144.175781 185.257812 144.746094 184.792969 145.359375 184.378906 C 145.976562 183.96875 146.625 183.621094 147.308594 183.339844 C 147.992188 183.054688 148.699219 182.839844 149.421875 182.695312 C 150.148438 182.550781 150.882812 182.480469 151.621094 182.480469 C 152.363281 182.480469 153.097656 182.550781 153.820312 182.695312 C 154.546875 182.839844 155.253906 183.054688 155.9375 183.339844 C 156.621094 183.621094 157.269531 183.96875 157.886719 184.378906 C 158.5 184.792969 159.070312 185.257812 159.59375 185.78125 C 160.117188 186.304688 160.585938 186.875 160.996094 187.492188 C 161.40625 188.105469 161.753906 188.757812 162.039062 189.441406 C 162.320312 190.125 162.535156 190.828125 162.679688 191.554688 C 162.824219 192.28125 162.894531 193.015625 162.894531 193.753906 C 162.894531 194.496094 162.824219 195.230469 162.679688 195.957031 C 162.535156 196.683594 162.320312 197.386719 162.039062 198.070312 C 161.753906 198.753906 161.40625 199.40625 160.996094 200.019531 C 160.585938 200.636719 160.117188 201.207031 159.59375 201.730469 C 159.070312 202.253906 158.5 202.71875 157.886719 203.132812 C 157.269531 203.542969 156.621094 203.890625 155.9375 204.171875 C 155.253906 204.457031 154.546875 204.671875 153.820312 204.816406 C 153.097656 204.960938 152.363281 205.03125 151.621094 205.03125 M 259.558594 193.113281 C 259.558594 180.808594 249.21875 171.710938 237.410156 171.710938 C 226.789062 171.710938 217.335938 180.671875 217.335938 193.75 L 217.335938 228.710938 L 227.269531 228.710938 L 227.269531 209.835938 C 230.578125 213.082031 234.015625 214.515625 238.921875 214.515625 C 250.015625 214.515625 259.558594 205.242188 259.558594 193.113281 M 250.152344 192.988281 C 250.152344 193.726562 250.082031 194.460938 249.9375 195.1875 C 249.792969 195.914062 249.578125 196.617188 249.296875 197.300781 C 249.011719 197.984375 248.664062 198.636719 248.253906 199.25 C 247.84375 199.867188 247.375 200.4375 246.851562 200.960938 C 246.328125 201.484375 245.757812 201.953125 245.144531 202.363281 C 244.527344 202.773438 243.878906 203.121094 243.195312 203.40625 C 242.511719 203.6875 241.804688 203.902344 241.082031 204.046875 C 240.355469 204.191406 239.621094 204.261719 238.882812 204.261719 C 238.140625 204.261719 237.40625 204.191406 236.679688 204.046875 C 235.957031 203.902344 235.25 203.6875 234.566406 203.40625 C 233.882812 203.121094 233.234375 202.773438 232.617188 202.363281 C 232.003906 201.953125 231.433594 201.484375 230.910156 200.960938 C 230.386719 200.4375 229.917969 199.867188 229.507812 199.25 C 229.097656 198.636719 228.75 197.984375 228.464844 197.300781 C 228.183594 196.617188 227.96875 195.914062 227.824219 195.1875 C 227.679688 194.460938 227.609375 193.726562 227.609375 192.988281 C 227.609375 192.246094 227.679688 191.511719 227.824219 190.789062 C 227.96875 190.0625 228.183594 189.355469 228.464844 188.671875 C 228.75 187.988281 229.097656 187.339844 229.507812 186.722656 C 229.917969 186.105469 230.386719 185.539062 230.910156 185.015625 C 231.433594 184.492188 232.003906 184.023438 232.617188 183.613281 C 233.234375 183.199219 233.882812 182.851562 234.566406 182.570312 C 235.25 182.285156 235.957031 182.074219 236.679688 181.929688 C 237.40625 181.785156 238.140625 181.710938 238.882812 181.710938 C 239.621094 181.710938 240.355469 181.785156 241.082031 181.929688 C 241.804688 182.074219 242.511719 182.285156 243.195312 182.570312 C 243.878906 182.851562 244.527344 183.199219 245.144531 183.613281 C 245.757812 184.023438 246.328125 184.492188 246.851562 185.015625 C 247.375 185.539062 247.84375 186.105469 248.253906 186.722656 C 248.664062 187.339844 249.011719 187.988281 249.296875 188.671875 C 249.578125 189.355469 249.792969 190.0625 249.9375 190.789062 C 250.082031 191.511719 250.152344 192.246094 250.152344 192.988281 " fill-opacity="1" fill-rule="nonzero"/></g><g clip-path="url(#5cf71465da)"><path fill="#ff7a59" d="M 291.65625 171.230469 L 291.65625 161.246094 C 292.316406 160.9375 292.917969 160.542969 293.46875 160.066406 C 294.015625 159.585938 294.484375 159.039062 294.878906 158.425781 C 295.269531 157.8125 295.570312 157.15625 295.773438 156.457031 C 295.980469 155.757812 296.085938 155.046875 296.089844 154.316406 L 296.089844 154.089844 C 296.089844 149.84375 292.648438 146.402344 288.402344 146.402344 L 288.171875 146.402344 C 287.667969 146.402344 287.167969 146.449219 286.671875 146.546875 C 286.179688 146.648438 285.699219 146.792969 285.230469 146.984375 C 284.765625 147.179688 284.324219 147.414062 283.902344 147.695312 C 283.484375 147.976562 283.09375 148.296875 282.738281 148.652344 C 282.382812 149.007812 282.0625 149.398438 281.78125 149.816406 C 281.503906 150.238281 281.265625 150.679688 281.074219 151.144531 C 280.878906 151.613281 280.734375 152.09375 280.636719 152.589844 C 280.535156 153.082031 280.488281 153.582031 280.488281 154.089844 L 280.488281 154.316406 C 280.492188 155.046875 280.59375 155.757812 280.800781 156.457031 C 281.007812 157.15625 281.304688 157.8125 281.699219 158.425781 C 282.089844 159.039062 282.5625 159.585938 283.109375 160.066406 C 283.65625 160.542969 284.257812 160.9375 284.917969 161.246094 L 284.917969 171.230469 C 281.0625 171.820312 277.609375 173.339844 274.570312 175.789062 L 247.195312 154.460938 C 247.390625 153.757812 247.492188 153.03125 247.503906 152.304688 C 247.507812 151.738281 247.453125 151.171875 247.34375 150.613281 C 247.230469 150.058594 247.070312 149.515625 246.851562 148.988281 C 246.636719 148.460938 246.371094 147.964844 246.054688 147.488281 C 245.738281 147.015625 245.382812 146.578125 244.980469 146.175781 C 244.578125 145.773438 244.140625 145.410156 243.667969 145.09375 C 243.199219 144.777344 242.699219 144.511719 242.171875 144.292969 C 241.648438 144.074219 241.105469 143.90625 240.550781 143.796875 C 239.992188 143.683594 239.429688 143.628906 238.859375 143.625 C 238.292969 143.625 237.730469 143.679688 237.171875 143.789062 C 236.613281 143.898438 236.070312 144.0625 235.546875 144.28125 C 235.019531 144.496094 234.519531 144.761719 234.046875 145.078125 C 233.574219 145.394531 233.136719 145.75 232.730469 146.152344 C 232.328125 146.554688 231.96875 146.992188 231.652344 147.464844 C 231.335938 147.9375 231.070312 148.4375 230.851562 148.960938 C 230.632812 149.484375 230.46875 150.027344 230.355469 150.585938 C 230.242188 151.144531 230.1875 151.707031 230.1875 152.273438 C 230.183594 152.84375 230.238281 153.40625 230.351562 153.964844 C 230.460938 154.523438 230.625 155.066406 230.839844 155.589844 C 231.058594 156.117188 231.324219 156.617188 231.636719 157.089844 C 231.953125 157.5625 232.3125 158 232.714844 158.40625 C 233.113281 158.808594 233.550781 159.167969 234.023438 159.484375 C 234.496094 159.800781 234.996094 160.066406 235.519531 160.285156 C 236.046875 160.503906 236.585938 160.667969 237.144531 160.78125 C 237.703125 160.894531 238.265625 160.949219 238.835938 160.949219 C 240.359375 160.941406 241.78125 160.554688 243.097656 159.789062 L 270.054688 180.769531 C 269.453125 181.679688 268.921875 182.628906 268.460938 183.617188 C 268 184.609375 267.617188 185.625 267.3125 186.671875 C 267.003906 187.71875 266.777344 188.78125 266.628906 189.863281 C 266.480469 190.945312 266.414062 192.03125 266.429688 193.121094 C 266.441406 194.210938 266.539062 195.296875 266.714844 196.371094 C 266.894531 197.449219 267.148438 198.503906 267.484375 199.542969 C 267.820312 200.582031 268.230469 201.589844 268.71875 202.566406 C 269.203125 203.539062 269.761719 204.476562 270.386719 205.367188 L 262.1875 213.570312 C 261.523438 213.359375 260.839844 213.246094 260.140625 213.238281 C 259.671875 213.238281 259.210938 213.285156 258.753906 213.375 C 258.296875 213.464844 257.851562 213.601562 257.421875 213.78125 C 256.988281 213.960938 256.578125 214.179688 256.191406 214.4375 C 255.804688 214.699219 255.445312 214.992188 255.113281 215.324219 C 254.785156 215.652344 254.492188 216.011719 254.230469 216.402344 C 253.972656 216.789062 253.753906 217.199219 253.574219 217.632812 C 253.394531 218.0625 253.261719 218.507812 253.171875 218.964844 C 253.078125 219.421875 253.035156 219.886719 253.035156 220.351562 C 253.035156 220.820312 253.082031 221.28125 253.171875 221.738281 C 253.261719 222.199219 253.398438 222.644531 253.578125 223.074219 C 253.753906 223.503906 253.972656 223.914062 254.234375 224.304688 C 254.492188 224.691406 254.789062 225.050781 255.117188 225.382812 C 255.449219 225.710938 255.804688 226.007812 256.195312 226.265625 C 256.582031 226.523438 256.992188 226.742188 257.421875 226.921875 C 257.855469 227.101562 258.300781 227.234375 258.757812 227.328125 C 259.214844 227.417969 259.675781 227.464844 260.144531 227.464844 C 260.609375 227.464844 261.074219 227.417969 261.53125 227.328125 C 261.988281 227.238281 262.433594 227.101562 262.863281 226.925781 C 263.296875 226.746094 263.707031 226.527344 264.09375 226.265625 C 264.484375 226.007812 264.839844 225.714844 265.171875 225.382812 C 265.503906 225.054688 265.796875 224.695312 266.058594 224.304688 C 266.316406 223.917969 266.535156 223.507812 266.714844 223.078125 C 266.894531 222.644531 267.027344 222.203125 267.121094 221.742188 C 267.210938 221.285156 267.257812 220.824219 267.257812 220.355469 C 267.25 219.65625 267.136719 218.972656 266.921875 218.308594 L 275.035156 210.191406 C 275.691406 210.699219 276.378906 211.167969 277.089844 211.597656 C 277.804688 212.027344 278.539062 212.414062 279.296875 212.757812 C 280.050781 213.105469 280.824219 213.40625 281.617188 213.664062 C 282.40625 213.917969 283.210938 214.132812 284.027344 214.296875 C 284.839844 214.460938 285.664062 214.582031 286.492188 214.652344 C 287.320312 214.722656 288.148438 214.75 288.980469 214.726562 C 289.8125 214.703125 290.640625 214.632812 291.464844 214.515625 C 292.285156 214.398438 293.101562 214.234375 293.90625 214.023438 C 294.710938 213.8125 295.5 213.558594 296.277344 213.257812 C 297.050781 212.957031 297.808594 212.613281 298.542969 212.226562 C 299.28125 211.839844 299.992188 211.410156 300.679688 210.941406 C 301.367188 210.472656 302.027344 209.96875 302.65625 209.425781 C 303.285156 208.882812 303.882812 208.304688 304.445312 207.695312 C 305.011719 207.082031 305.539062 206.441406 306.027344 205.769531 C 306.519531 205.097656 306.972656 204.398438 307.382812 203.675781 C 307.792969 202.953125 308.164062 202.210938 308.488281 201.445312 C 308.816406 200.679688 309.097656 199.898438 309.335938 199.101562 C 309.574219 198.304688 309.761719 197.496094 309.910156 196.675781 C 310.054688 195.855469 310.152344 195.03125 310.203125 194.203125 C 310.253906 193.371094 310.257812 192.539062 310.214844 191.710938 C 310.171875 190.878906 310.078125 190.054688 309.941406 189.234375 C 309.804688 188.414062 309.621094 187.601562 309.390625 186.804688 C 309.160156 186.003906 308.886719 185.21875 308.566406 184.453125 C 308.246094 183.683594 307.882812 182.9375 307.480469 182.210938 C 307.074219 181.484375 306.628906 180.78125 306.144531 180.105469 C 305.660156 179.429688 305.136719 178.785156 304.578125 178.167969 C 304.019531 177.550781 303.429688 176.96875 302.804688 176.417969 C 302.179688 175.871094 301.523438 175.359375 300.839844 174.886719 C 300.15625 174.410156 299.449219 173.976562 298.714844 173.582031 C 297.984375 173.191406 297.230469 172.839844 296.457031 172.53125 C 295.683594 172.222656 294.898438 171.960938 294.09375 171.746094 C 293.292969 171.527344 292.480469 171.355469 291.65625 171.230469 M 288.296875 204.066406 C 287.546875 204.085938 286.800781 204.03125 286.0625 203.90625 C 285.324219 203.777344 284.605469 203.574219 283.90625 203.300781 C 283.207031 203.03125 282.542969 202.691406 281.914062 202.285156 C 281.285156 201.878906 280.699219 201.414062 280.164062 200.890625 C 279.625 200.367188 279.144531 199.796875 278.722656 199.179688 C 278.296875 198.558594 277.941406 197.902344 277.648438 197.214844 C 277.359375 196.523438 277.136719 195.808594 276.988281 195.074219 C 276.839844 194.339844 276.765625 193.597656 276.765625 192.847656 C 276.765625 192.097656 276.839844 191.355469 276.988281 190.621094 C 277.136719 189.882812 277.359375 189.171875 277.648438 188.480469 C 277.941406 187.789062 278.296875 187.136719 278.722656 186.515625 C 279.144531 185.898438 279.625 185.324219 280.164062 184.800781 C 280.699219 184.28125 281.285156 183.816406 281.914062 183.410156 C 282.542969 183.003906 283.207031 182.664062 283.90625 182.390625 C 284.605469 182.117188 285.324219 181.917969 286.0625 181.789062 C 286.800781 181.660156 287.546875 181.605469 288.296875 181.628906 C 289.015625 181.652344 289.726562 181.746094 290.425781 181.910156 C 291.128906 182.070312 291.808594 182.296875 292.464844 182.589844 C 293.125 182.882812 293.746094 183.238281 294.335938 183.648438 C 294.925781 184.0625 295.472656 184.527344 295.972656 185.046875 C 296.472656 185.5625 296.917969 186.125 297.3125 186.730469 C 297.703125 187.332031 298.035156 187.96875 298.304688 188.636719 C 298.574219 189.304688 298.777344 189.992188 298.914062 190.699219 C 299.054688 191.40625 299.121094 192.117188 299.121094 192.839844 C 299.125 193.558594 299.054688 194.273438 298.917969 194.980469 C 298.78125 195.6875 298.578125 196.375 298.308594 197.042969 C 298.039062 197.710938 297.707031 198.347656 297.316406 198.949219 C 296.925781 199.554688 296.480469 200.117188 295.980469 200.632812 C 295.480469 201.152344 294.9375 201.617188 294.347656 202.03125 C 293.757812 202.445312 293.132812 202.800781 292.476562 203.09375 C 291.820312 203.386719 291.140625 203.613281 290.4375 203.777344 C 289.734375 203.941406 289.027344 204.035156 288.304688 204.0625 " fill-opacity="1" fill-rule="nonzero"/></g></svg>