<svg xmlns="http://www.w3.org/2000/svg" xmlns:xlink="http://www.w3.org/1999/xlink" width="1366" zoomAndPan="magnify" viewBox="0 0 1024.5 576" height="768" preserveAspectRatio="xMidYMid meet" version="1.0"><defs><filter x="0%" y="0%" width="100%" height="100%" id="c38e1abbcb"><feColorMatrix values="0 0 0 0 1 0 0 0 0 1 0 0 0 0 1 0 0 0 1 0" color-interpolation-filters="sRGB"/></filter><clipPath id="995d0a7043"><path d="M 473 154 L 916.882812 154 L 916.882812 575.859375 L 473 575.859375 Z M 473 154 " clip-rule="nonzero"/></clipPath><clipPath id="6cb1dfc2e6"><path d="M 206 423 L 499 423 L 499 575.859375 L 206 575.859375 Z M 206 423 " clip-rule="nonzero"/></clipPath><mask id="b2004e1dee"><g filter="url(#c38e1abbcb)"><rect x="-102.45" width="1229.4" fill="#000000" y="-57.6" height="691.2" fill-opacity="0.4"/></g></mask><clipPath id="de4f0af89a"><path d="M 1 1 L 34.488281 1 L 34.488281 34.566406 L 1 34.566406 Z M 1 1 " clip-rule="nonzero"/></clipPath><clipPath id="c094eb2a5e"><rect x="0" width="35" y="0" height="35"/></clipPath></defs><path fill="#ffffff" d="M 522.769531 156.335938 L 867.734375 156.335938 C 894.054688 156.335938 915.378906 177.703125 915.378906 203.976562 L 915.378906 574.191406 L 475.082031 574.191406 L 475.082031 203.976562 C 475.082031 177.660156 496.449219 156.335938 522.726562 156.335938 Z M 522.769531 156.335938 " fill-opacity="1" fill-rule="nonzero"/><g clip-path="url(#995d0a7043)"><path fill="#271700" d="M 915.425781 575.53125 L 475.128906 575.53125 C 474.367188 575.53125 473.789062 574.949219 473.789062 574.191406 L 473.789062 203.976562 C 473.789062 176.945312 495.78125 154.996094 522.769531 154.996094 L 867.734375 154.996094 C 894.769531 154.996094 916.71875 176.988281 916.71875 203.976562 L 916.71875 574.191406 C 916.71875 574.949219 916.136719 575.53125 915.378906 575.53125 Z M 476.421875 572.855469 L 914.042969 572.855469 L 914.042969 203.976562 C 914.042969 178.417969 893.253906 157.671875 867.734375 157.671875 L 522.769531 157.671875 C 497.210938 157.671875 476.464844 178.460938 476.464844 203.976562 L 476.464844 572.855469 Z M 476.421875 572.855469 " fill-opacity="1" fill-rule="nonzero"/></g><path fill="#d03e2f" d="M 536.109375 546.980469 L 879.871094 546.980469 L 879.871094 555.234375 L 536.109375 555.234375 Z M 536.109375 546.980469 " fill-opacity="1" fill-rule="nonzero"/><path fill="#3bab5a" d="M 879.871094 527.21875 L 879.871094 450.980469 C 879.871094 450.980469 847.886719 466.328125 824.554688 467.488281 C 801.222656 468.691406 777.132812 439.5625 748.808594 439.785156 C 705.714844 440.140625 694.117188 498.578125 652.628906 494.339844 C 611.140625 490.105469 543.113281 462.578125 527.097656 527.21875 Z M 879.871094 527.21875 " fill-opacity="1" fill-rule="nonzero"/><path fill="#3bab5a" d="M 713.296875 339.859375 C 713.296875 341.273438 713.261719 342.6875 713.195312 344.101562 C 713.125 345.515625 713.019531 346.929688 712.882812 348.335938 C 712.742188 349.746094 712.570312 351.148438 712.363281 352.550781 C 712.152344 353.949219 711.910156 355.34375 711.636719 356.734375 C 711.359375 358.121094 711.050781 359.503906 710.707031 360.875 C 710.363281 362.25 709.984375 363.613281 709.574219 364.96875 C 709.164062 366.324219 708.71875 367.667969 708.242188 369 C 707.765625 370.332031 707.253906 371.652344 706.714844 372.960938 C 706.171875 374.269531 705.597656 375.5625 704.992188 376.839844 C 704.386719 378.121094 703.75 379.386719 703.085938 380.632812 C 702.417969 381.882812 701.71875 383.113281 700.992188 384.328125 C 700.265625 385.542969 699.507812 386.738281 698.71875 387.914062 C 697.933594 389.089844 697.117188 390.25 696.277344 391.386719 C 695.433594 392.523438 694.5625 393.636719 693.664062 394.730469 C 692.765625 395.828125 691.839844 396.898438 690.890625 397.945312 C 689.941406 398.996094 688.964844 400.019531 687.964844 401.023438 C 686.960938 402.023438 685.9375 403 684.886719 403.949219 C 683.839844 404.898438 682.769531 405.824219 681.671875 406.722656 C 680.578125 407.621094 679.464844 408.492188 678.328125 409.335938 C 677.191406 410.175781 676.03125 410.992188 674.855469 411.777344 C 673.679688 412.566406 672.484375 413.324219 671.269531 414.050781 C 670.054688 414.777344 668.824219 415.476562 667.574219 416.144531 C 666.328125 416.808594 665.0625 417.445312 663.78125 418.050781 C 662.503906 418.65625 661.210938 419.230469 659.902344 419.773438 C 658.59375 420.3125 657.273438 420.824219 655.941406 421.300781 C 654.605469 421.777344 653.261719 422.222656 651.910156 422.632812 C 650.554688 423.042969 649.191406 423.421875 647.816406 423.765625 C 646.445312 424.109375 645.0625 424.417969 643.675781 424.695312 C 642.285156 424.96875 640.890625 425.210938 639.492188 425.421875 C 638.089844 425.628906 636.6875 425.800781 635.277344 425.941406 C 633.871094 426.078125 632.457031 426.183594 631.042969 426.253906 C 629.628906 426.320312 628.214844 426.355469 626.800781 426.355469 C 625.382812 426.355469 623.96875 426.320312 622.554688 426.253906 C 621.140625 426.183594 619.730469 426.078125 618.320312 425.941406 C 616.914062 425.800781 615.507812 425.628906 614.109375 425.421875 C 612.707031 425.210938 611.3125 424.96875 609.925781 424.695312 C 608.535156 424.417969 607.15625 424.109375 605.78125 423.765625 C 604.410156 423.421875 603.046875 423.042969 601.691406 422.632812 C 600.335938 422.222656 598.992188 421.777344 597.660156 421.300781 C 596.328125 420.824219 595.007812 420.3125 593.699219 419.773438 C 592.390625 419.230469 591.097656 418.65625 589.816406 418.050781 C 588.539062 417.445312 587.273438 416.808594 586.023438 416.144531 C 584.777344 415.476562 583.546875 414.777344 582.332031 414.050781 C 581.117188 413.324219 579.921875 412.566406 578.742188 411.777344 C 577.566406 410.992188 576.410156 410.175781 575.273438 409.335938 C 574.136719 408.492188 573.019531 407.621094 571.925781 406.722656 C 570.832031 405.824219 569.761719 404.898438 568.710938 403.949219 C 567.664062 403 566.636719 402.023438 565.636719 401.023438 C 564.636719 400.019531 563.660156 398.996094 562.710938 397.945312 C 561.757812 396.898438 560.835938 395.828125 559.9375 394.730469 C 559.039062 393.636719 558.167969 392.523438 557.324219 391.386719 C 556.480469 390.25 555.664062 389.089844 554.878906 387.914062 C 554.09375 386.738281 553.335938 385.542969 552.609375 384.328125 C 551.878906 383.113281 551.183594 381.882812 550.515625 380.632812 C 549.847656 379.386719 549.210938 378.121094 548.605469 376.839844 C 548 375.5625 547.429688 374.269531 546.886719 372.960938 C 546.34375 371.652344 545.835938 370.332031 545.359375 369 C 544.882812 367.667969 544.4375 366.324219 544.027344 364.96875 C 543.617188 363.613281 543.238281 362.25 542.894531 360.875 C 542.550781 359.503906 542.238281 358.121094 541.964844 356.734375 C 541.6875 355.34375 541.445312 353.949219 541.238281 352.550781 C 541.03125 351.148438 540.855469 349.746094 540.71875 348.335938 C 540.578125 346.929688 540.476562 345.515625 540.40625 344.101562 C 540.335938 342.6875 540.300781 341.273438 540.300781 339.859375 C 540.300781 338.441406 540.335938 337.027344 540.40625 335.613281 C 540.476562 334.199219 540.578125 332.789062 540.71875 331.378906 C 540.855469 329.972656 541.03125 328.566406 541.238281 327.167969 C 541.445312 325.765625 541.6875 324.371094 541.964844 322.984375 C 542.238281 321.59375 542.550781 320.214844 542.894531 318.839844 C 543.238281 317.46875 543.617188 316.105469 544.027344 314.75 C 544.4375 313.394531 544.882812 312.050781 545.359375 310.71875 C 545.835938 309.386719 546.34375 308.066406 546.886719 306.757812 C 547.429688 305.449219 548 304.15625 548.605469 302.875 C 549.210938 301.597656 549.847656 300.332031 550.515625 299.082031 C 551.183594 297.835938 551.878906 296.605469 552.609375 295.390625 C 553.335938 294.175781 554.09375 292.980469 554.878906 291.804688 C 555.664062 290.625 556.480469 289.46875 557.324219 288.332031 C 558.167969 287.195312 559.039062 286.078125 559.9375 284.984375 C 560.835938 283.890625 561.757812 282.820312 562.710938 281.769531 C 563.660156 280.722656 564.636719 279.695312 565.636719 278.695312 C 566.636719 277.695312 567.664062 276.71875 568.710938 275.769531 C 569.761719 274.816406 570.832031 273.894531 571.925781 272.996094 C 573.019531 272.097656 574.136719 271.226562 575.273438 270.382812 C 576.410156 269.539062 577.566406 268.726562 578.742188 267.9375 C 579.921875 267.152344 581.117188 266.394531 582.332031 265.667969 C 583.546875 264.9375 584.777344 264.242188 586.023438 263.574219 C 587.273438 262.90625 588.539062 262.269531 589.816406 261.664062 C 591.097656 261.058594 592.390625 260.488281 593.699219 259.945312 C 595.007812 259.402344 596.328125 258.894531 597.660156 258.417969 C 598.992188 257.941406 600.335938 257.496094 601.691406 257.085938 C 603.046875 256.675781 604.410156 256.296875 605.78125 255.953125 C 607.15625 255.609375 608.535156 255.300781 609.925781 255.023438 C 611.3125 254.746094 612.707031 254.503906 614.109375 254.296875 C 615.507812 254.089844 616.914062 253.914062 618.320312 253.777344 C 619.730469 253.636719 621.140625 253.535156 622.554688 253.464844 C 623.96875 253.394531 625.382812 253.359375 626.800781 253.359375 C 628.214844 253.359375 629.628906 253.394531 631.042969 253.464844 C 632.457031 253.535156 633.871094 253.636719 635.277344 253.777344 C 636.6875 253.914062 638.089844 254.089844 639.492188 254.296875 C 640.890625 254.503906 642.285156 254.746094 643.675781 255.023438 C 645.0625 255.300781 646.445312 255.609375 647.816406 255.953125 C 649.191406 256.296875 650.554688 256.675781 651.910156 257.085938 C 653.261719 257.496094 654.605469 257.941406 655.941406 258.417969 C 657.273438 258.894531 658.59375 259.402344 659.902344 259.945312 C 661.210938 260.488281 662.503906 261.058594 663.78125 261.664062 C 665.0625 262.269531 666.328125 262.90625 667.574219 263.574219 C 668.824219 264.242188 670.054688 264.9375 671.269531 265.667969 C 672.484375 266.394531 673.679688 267.152344 674.855469 267.9375 C 676.03125 268.726562 677.191406 269.539062 678.328125 270.382812 C 679.464844 271.226562 680.578125 272.097656 681.671875 272.996094 C 682.769531 273.894531 683.839844 274.816406 684.886719 275.769531 C 685.9375 276.71875 686.960938 277.695312 687.964844 278.695312 C 688.964844 279.695312 689.941406 280.722656 690.890625 281.769531 C 691.839844 282.820312 692.765625 283.890625 693.664062 284.984375 C 694.5625 286.078125 695.433594 287.195312 696.277344 288.332031 C 697.117188 289.46875 697.933594 290.625 698.71875 291.804688 C 699.507812 292.980469 700.265625 294.175781 700.992188 295.390625 C 701.71875 296.605469 702.417969 297.835938 703.085938 299.082031 C 703.75 300.332031 704.386719 301.597656 704.992188 302.875 C 705.597656 304.15625 706.171875 305.449219 706.714844 306.757812 C 707.253906 308.066406 707.765625 309.386719 708.242188 310.71875 C 708.71875 312.050781 709.164062 313.394531 709.574219 314.75 C 709.984375 316.105469 710.363281 317.46875 710.707031 318.839844 C 711.050781 320.214844 711.359375 321.59375 711.636719 322.984375 C 711.910156 324.371094 712.152344 325.765625 712.363281 327.167969 C 712.570312 328.566406 712.742188 329.972656 712.882812 331.378906 C 713.019531 332.789062 713.125 334.199219 713.195312 335.613281 C 713.261719 337.027344 713.296875 338.441406 713.296875 339.859375 Z M 713.296875 339.859375 " fill-opacity="1" fill-rule="nonzero"/><path fill="#d03e2f" d="M 727.484375 336.335938 C 727.484375 349.09375 724.984375 361.269531 720.480469 372.421875 L 627.960938 339.277344 L 627.960938 240.46875 C 629.164062 240.46875 630.367188 240.378906 631.617188 240.378906 C 684.570312 240.378906 727.527344 283.339844 727.527344 336.289062 Z M 727.484375 336.335938 " fill-opacity="1" fill-rule="nonzero"/><path fill="#ffffff" d="M 726.414062 384.601562 L 618.589844 346.015625 L 618.589844 248.453125 L 628.40625 248.453125 L 628.40625 339.101562 L 729.714844 375.367188 Z M 726.414062 384.601562 " fill-opacity="1" fill-rule="nonzero"/><path fill="#3bab5a" d="M 538.070312 184.261719 C 538.070312 184.742188 538.023438 185.214844 537.929688 185.6875 C 537.835938 186.160156 537.699219 186.617188 537.515625 187.058594 C 537.332031 187.503906 537.105469 187.925781 536.839844 188.324219 C 536.570312 188.722656 536.269531 189.09375 535.929688 189.433594 C 535.589844 189.773438 535.21875 190.078125 534.820312 190.34375 C 534.421875 190.609375 534 190.835938 533.554688 191.019531 C 533.109375 191.203125 532.652344 191.34375 532.183594 191.4375 C 531.710938 191.53125 531.234375 191.578125 530.753906 191.578125 C 530.273438 191.578125 529.800781 191.53125 529.328125 191.4375 C 528.855469 191.34375 528.398438 191.203125 527.957031 191.019531 C 527.511719 190.835938 527.089844 190.609375 526.691406 190.34375 C 526.292969 190.078125 525.921875 189.773438 525.582031 189.433594 C 525.242188 189.09375 524.9375 188.722656 524.671875 188.324219 C 524.40625 187.925781 524.179688 187.503906 523.996094 187.058594 C 523.8125 186.617188 523.671875 186.160156 523.578125 185.6875 C 523.488281 185.214844 523.441406 184.742188 523.441406 184.261719 C 523.441406 183.78125 523.488281 183.304688 523.578125 182.832031 C 523.671875 182.363281 523.8125 181.90625 523.996094 181.460938 C 524.179688 181.015625 524.40625 180.59375 524.671875 180.195312 C 524.9375 179.796875 525.242188 179.425781 525.582031 179.085938 C 525.921875 178.746094 526.292969 178.445312 526.691406 178.175781 C 527.089844 177.910156 527.511719 177.683594 527.957031 177.5 C 528.398438 177.316406 528.855469 177.179688 529.328125 177.085938 C 529.800781 176.992188 530.273438 176.945312 530.753906 176.945312 C 531.234375 176.945312 531.710938 176.992188 532.183594 177.085938 C 532.652344 177.179688 533.109375 177.316406 533.554688 177.5 C 534 177.683594 534.421875 177.910156 534.820312 178.175781 C 535.21875 178.445312 535.589844 178.746094 535.929688 179.085938 C 536.269531 179.425781 536.570312 179.796875 536.839844 180.195312 C 537.105469 180.59375 537.332031 181.015625 537.515625 181.460938 C 537.699219 181.90625 537.835938 182.363281 537.929688 182.832031 C 538.023438 183.304688 538.070312 183.78125 538.070312 184.261719 Z M 538.070312 184.261719 " fill-opacity="1" fill-rule="nonzero"/><path fill="#3bab5a" d="M 571.351562 184.261719 C 571.351562 184.742188 571.304688 185.214844 571.210938 185.6875 C 571.117188 186.160156 570.976562 186.617188 570.792969 187.058594 C 570.609375 187.503906 570.382812 187.925781 570.117188 188.324219 C 569.851562 188.722656 569.546875 189.09375 569.207031 189.433594 C 568.867188 189.773438 568.5 190.078125 568.097656 190.34375 C 567.699219 190.609375 567.277344 190.835938 566.832031 191.019531 C 566.390625 191.203125 565.933594 191.34375 565.460938 191.4375 C 564.992188 191.53125 564.515625 191.578125 564.035156 191.578125 C 563.554688 191.578125 563.078125 191.53125 562.605469 191.4375 C 562.136719 191.34375 561.679688 191.203125 561.234375 191.019531 C 560.789062 190.835938 560.367188 190.609375 559.96875 190.34375 C 559.570312 190.078125 559.199219 189.773438 558.859375 189.433594 C 558.519531 189.09375 558.21875 188.722656 557.949219 188.324219 C 557.683594 187.925781 557.457031 187.503906 557.273438 187.058594 C 557.089844 186.617188 556.953125 186.160156 556.859375 185.6875 C 556.765625 185.214844 556.71875 184.742188 556.71875 184.261719 C 556.71875 183.78125 556.765625 183.304688 556.859375 182.832031 C 556.953125 182.363281 557.089844 181.90625 557.273438 181.460938 C 557.457031 181.015625 557.683594 180.59375 557.949219 180.195312 C 558.21875 179.796875 558.519531 179.425781 558.859375 179.085938 C 559.199219 178.746094 559.570312 178.445312 559.96875 178.175781 C 560.367188 177.910156 560.789062 177.683594 561.234375 177.5 C 561.679688 177.316406 562.136719 177.179688 562.605469 177.085938 C 563.078125 176.992188 563.554688 176.945312 564.035156 176.945312 C 564.515625 176.945312 564.992188 176.992188 565.460938 177.085938 C 565.933594 177.179688 566.390625 177.316406 566.832031 177.5 C 567.277344 177.683594 567.699219 177.910156 568.097656 178.175781 C 568.5 178.445312 568.867188 178.746094 569.207031 179.085938 C 569.546875 179.425781 569.851562 179.796875 570.117188 180.195312 C 570.382812 180.59375 570.609375 181.015625 570.792969 181.460938 C 570.976562 181.90625 571.117188 182.363281 571.210938 182.832031 C 571.304688 183.304688 571.351562 183.78125 571.351562 184.261719 Z M 571.351562 184.261719 " fill-opacity="1" fill-rule="nonzero"/><path fill="#3bab5a" d="M 604.671875 184.261719 C 604.671875 184.742188 604.625 185.214844 604.53125 185.6875 C 604.4375 186.160156 604.300781 186.617188 604.117188 187.058594 C 603.933594 187.503906 603.707031 187.925781 603.441406 188.324219 C 603.171875 188.722656 602.871094 189.09375 602.53125 189.433594 C 602.191406 189.773438 601.820312 190.078125 601.421875 190.34375 C 601.023438 190.609375 600.601562 190.835938 600.15625 191.019531 C 599.714844 191.203125 599.257812 191.34375 598.785156 191.4375 C 598.3125 191.53125 597.839844 191.578125 597.359375 191.578125 C 596.878906 191.578125 596.402344 191.53125 595.929688 191.4375 C 595.460938 191.34375 595 191.203125 594.558594 191.019531 C 594.113281 190.835938 593.691406 190.609375 593.292969 190.34375 C 592.894531 190.078125 592.523438 189.773438 592.183594 189.433594 C 591.84375 189.09375 591.542969 188.722656 591.273438 188.324219 C 591.007812 187.925781 590.78125 187.503906 590.597656 187.058594 C 590.414062 186.617188 590.277344 186.160156 590.183594 185.6875 C 590.089844 185.214844 590.042969 184.742188 590.042969 184.261719 C 590.042969 183.78125 590.089844 183.304688 590.183594 182.832031 C 590.277344 182.363281 590.414062 181.90625 590.597656 181.460938 C 590.78125 181.015625 591.007812 180.59375 591.273438 180.195312 C 591.542969 179.796875 591.84375 179.425781 592.183594 179.085938 C 592.523438 178.746094 592.894531 178.445312 593.292969 178.175781 C 593.691406 177.910156 594.113281 177.683594 594.558594 177.5 C 595 177.316406 595.460938 177.179688 595.929688 177.085938 C 596.402344 176.992188 596.878906 176.945312 597.359375 176.945312 C 597.839844 176.945312 598.3125 176.992188 598.785156 177.085938 C 599.257812 177.179688 599.714844 177.316406 600.15625 177.5 C 600.601562 177.683594 601.023438 177.910156 601.421875 178.175781 C 601.820312 178.445312 602.191406 178.746094 602.53125 179.085938 C 602.871094 179.425781 603.171875 179.796875 603.441406 180.195312 C 603.707031 180.59375 603.933594 181.015625 604.117188 181.460938 C 604.300781 181.90625 604.4375 182.363281 604.53125 182.832031 C 604.625 183.304688 604.671875 183.78125 604.671875 184.261719 Z M 604.671875 184.261719 " fill-opacity="1" fill-rule="nonzero"/><path fill="#271700" d="M 888.347656 528.558594 L 543.738281 528.558594 C 542.980469 528.558594 542.398438 527.976562 542.398438 527.21875 C 542.398438 526.460938 542.980469 525.878906 543.738281 525.878906 L 888.347656 525.878906 C 889.105469 525.878906 889.683594 526.460938 889.683594 527.21875 C 889.683594 527.976562 889.105469 528.558594 888.347656 528.558594 Z M 888.347656 528.558594 " fill-opacity="1" fill-rule="nonzero"/><path fill="#271700" d="M 899.8125 214.683594 L 490.25 214.683594 C 489.492188 214.683594 488.910156 214.105469 488.910156 213.347656 C 488.910156 212.585938 489.492188 212.007812 490.25 212.007812 L 899.8125 212.007812 C 900.570312 212.007812 901.148438 212.585938 901.148438 213.347656 C 901.148438 214.105469 900.570312 214.683594 899.8125 214.683594 Z M 899.8125 214.683594 " fill-opacity="1" fill-rule="nonzero"/><path fill="#d03e2f" d="M 755.410156 278.296875 L 888.347656 278.296875 L 888.347656 289.003906 L 755.410156 289.003906 Z M 755.410156 278.296875 " fill-opacity="1" fill-rule="nonzero"/><path fill="#3bab5a" d="M 755.410156 305.0625 L 866.042969 305.0625 L 866.042969 315.769531 L 755.410156 315.769531 Z M 755.410156 305.0625 " fill-opacity="1" fill-rule="nonzero"/><path fill="#d03e2f" d="M 755.410156 331.828125 L 888.347656 331.828125 L 888.347656 342.535156 L 755.410156 342.535156 Z M 755.410156 331.828125 " fill-opacity="1" fill-rule="nonzero"/><path fill="#3bab5a" d="M 755.410156 358.59375 L 866.042969 358.59375 L 866.042969 369.300781 L 755.410156 369.300781 Z M 755.410156 358.59375 " fill-opacity="1" fill-rule="nonzero"/><path fill="#d03e2f" d="M 755.410156 385.359375 L 821.878906 385.359375 L 821.878906 396.066406 L 755.410156 396.066406 Z M 755.410156 385.359375 " fill-opacity="1" fill-rule="nonzero"/><g clip-path="url(#6cb1dfc2e6)"><path fill="#d03e2f" d="M 206.710938 426.578125 L 206.710938 575.621094 L 498.457031 575.621094 L 498.457031 423.324219 Z M 206.710938 426.578125 " fill-opacity="1" fill-rule="nonzero"/></g><path fill="#ff8782" d="M 272.957031 269.0625 C 272.957031 269.0625 290.042969 328.304688 361.683594 340.082031 C 433.328125 351.859375 421.640625 294.179688 421.640625 294.179688 L 417.984375 272.5 L 391.527344 262.058594 L 389.074219 261.078125 C 388.851562 259.160156 388.628906 257.109375 388.449219 254.921875 C 387.738281 246.980469 387.378906 237.703125 387.871094 227.84375 C 388.316406 218.742188 380.867188 210.578125 370.5625 203.753906 C 367.707031 201.882812 364.675781 200.097656 361.507812 198.402344 C 357.3125 196.171875 352.851562 194.117188 348.480469 192.246094 C 330.859375 184.796875 313.910156 180.558594 313.910156 180.558594 C 313.910156 180.558594 314.890625 195.101562 313.910156 213.570312 C 313.597656 220.660156 312.925781 228.246094 311.855469 235.875 C 311.054688 241.496094 310.027344 247.070312 308.6875 252.378906 C 308.152344 254.609375 307.527344 256.796875 306.859375 258.890625 Z M 272.957031 269.0625 " fill-opacity="1" fill-rule="nonzero"/><path fill="#ff8782" d="M 382.917969 70.148438 C 373.015625 68.320312 362.933594 67.472656 352.898438 67.292969 C 335.453125 67.027344 316.539062 75.144531 302.757812 86.742188 C 299.367188 89.597656 296.421875 93.035156 294.234375 96.914062 C 289.640625 105.078125 286.917969 114.222656 285.9375 123.503906 C 285.449219 128.277344 285.359375 133.09375 285.714844 137.867188 C 286.070312 142.460938 287.632812 147.144531 287.8125 151.652344 C 282.769531 149.777344 278.578125 147.589844 272.824219 148.4375 C 264.078125 149.777344 250.519531 161.332031 262.875 183.546875 C 275.320312 205.851562 293.386719 197.109375 293.386719 197.109375 C 292.316406 197.597656 304.183594 218.253906 305.433594 220.171875 C 310.472656 227.621094 316.628906 235.160156 324.035156 240.289062 C 339.691406 251.175781 356.867188 256.394531 375.601562 252.46875 C 391.171875 249.167969 405.492188 236.230469 413.03125 222.578125 C 422.933594 204.558594 429 183.414062 430.785156 163.027344 C 432.480469 143.53125 429.136719 121.941406 422.21875 103.472656 C 415.839844 86.296875 400.363281 73.316406 382.917969 70.105469 Z M 382.917969 70.148438 " fill-opacity="1" fill-rule="nonzero"/><path fill="#271700" d="M 375.335938 230.921875 C 369.402344 232.929688 363.648438 229.628906 363.648438 229.628906 C 360.480469 229.851562 363.46875 237.300781 370.695312 237.347656 C 377.921875 237.347656 381.269531 228.914062 375.335938 230.921875 Z M 375.335938 230.921875 " fill-opacity="1" fill-rule="nonzero"/><path fill="#271700" d="M 390.679688 174.445312 C 386.21875 179.085938 379.261719 178.328125 379.261719 178.328125 C 376.449219 179.933594 382.917969 186.042969 389.566406 182.878906 C 396.214844 179.710938 395.097656 169.808594 390.636719 174.445312 Z M 390.679688 174.445312 " fill-opacity="1" fill-rule="nonzero"/><path fill="#271700" d="M 407.5 141.882812 C 402.949219 141.523438 398.933594 145.539062 398.488281 150.890625 C 398.042969 156.246094 401.386719 160.886719 405.9375 161.242188 C 410.488281 161.597656 414.503906 157.582031 414.949219 152.230469 C 415.394531 146.878906 412.050781 142.238281 407.5 141.882812 Z M 407.5 141.882812 " fill-opacity="1" fill-rule="nonzero"/><path fill="#271700" d="M 409.640625 120.871094 C 400.09375 120.601562 395.140625 130.417969 403.441406 129.96875 C 411.960938 129.523438 418.875 132.199219 418.875 132.199219 C 423.066406 132.023438 419.1875 121.136719 409.640625 120.871094 Z M 409.640625 120.871094 " fill-opacity="1" fill-rule="nonzero"/><path fill="#271700" d="M 340.496094 140.988281 C 335.230469 141.347656 331.304688 146.65625 331.753906 152.8125 C 332.152344 159.011719 336.75 163.695312 342.011719 163.339844 C 347.277344 162.980469 351.203125 157.671875 350.753906 151.515625 C 350.355469 145.316406 345.757812 140.632812 340.496094 140.988281 Z M 340.496094 140.988281 " fill-opacity="1" fill-rule="nonzero"/><path fill="#271700" d="M 336.167969 116.542969 C 325.148438 116.675781 320.511719 129.167969 325.371094 129.433594 C 325.371094 129.433594 333.359375 126.492188 343.214844 127.117188 C 352.808594 127.738281 347.230469 116.363281 336.214844 116.5 Z M 336.167969 116.542969 " fill-opacity="1" fill-rule="nonzero"/><path fill="#271700" d="M 375.828125 210.402344 C 370.027344 210.402344 365.210938 208.972656 361.550781 207.324219 C 353.789062 203.800781 349.507812 198.535156 349.328125 198.3125 C 348.882812 197.777344 348.972656 196.972656 349.507812 196.527344 C 350.042969 196.082031 350.84375 196.171875 351.292969 196.707031 C 351.335938 196.796875 355.441406 201.792969 362.710938 205.046875 C 372.390625 209.421875 382.832031 208.796875 393.757812 203.175781 C 394.382812 202.863281 395.140625 203.085938 395.453125 203.710938 C 395.765625 204.335938 395.542969 205.09375 394.917969 205.40625 C 387.78125 209.0625 381.402344 210.355469 375.828125 210.355469 Z M 375.828125 210.402344 " fill-opacity="1" fill-rule="nonzero"/><path fill="#ffffff" d="M 306.859375 258.890625 L 365.523438 288.914062 L 389.074219 261.121094 L 404.199219 266.117188 L 392.289062 435.769531 L 362.265625 435.769531 L 291.023438 347.351562 L 294.28125 262.683594 Z M 306.859375 258.890625 " fill-opacity="1" fill-rule="nonzero"/><path fill="#d03e2f" d="M 380.421875 523.605469 C 380.421875 523.605469 375.558594 482.339844 392.734375 448.035156 L 476.109375 457.984375 L 481.238281 305.644531 L 550.207031 454.328125 C 567.425781 486.445312 544.183594 523.515625 507.738281 523.5625 L 380.421875 523.648438 Z M 380.421875 523.605469 " fill-opacity="1" fill-rule="nonzero"/><path fill="#d03e2f" d="M 197.609375 515.753906 C 197.609375 517.671875 498.414062 522 498.414062 522 C 498.414062 522 497.074219 332.675781 479.140625 301.226562 C 461.164062 269.777344 391.484375 262.105469 391.484375 262.105469 C 391.484375 262.105469 393.492188 332.808594 371.632812 423.769531 C 371.632812 423.769531 299.589844 300.648438 298.695312 261.121094 C 265.550781 264.199219 224.242188 269.777344 202.785156 294.667969 C 180.257812 320.855469 197.609375 514.015625 197.609375 515.710938 Z M 197.609375 515.753906 " fill-opacity="1" fill-rule="nonzero"/><path fill="#271700" d="M 208.226562 531.234375 C 207.515625 531.234375 206.890625 530.652344 206.890625 529.941406 C 206.890625 528.957031 204.613281 433.316406 203.992188 392.808594 C 203.320312 348.648438 204.527344 325.582031 204.527344 325.359375 C 204.527344 324.601562 205.195312 324.066406 205.953125 324.113281 C 206.710938 324.113281 207.246094 324.78125 207.203125 325.539062 C 207.203125 325.761719 205.996094 348.78125 206.667969 392.808594 C 207.246094 433.269531 209.523438 528.957031 209.566406 529.941406 C 209.566406 530.699219 208.988281 531.277344 208.273438 531.324219 Z M 208.226562 531.234375 " fill-opacity="1" fill-rule="nonzero"/><path fill="#271700" d="M 464.289062 498.222656 C 464.289062 498.222656 464.199219 498.222656 464.152344 498.222656 C 463.441406 498.179688 462.859375 497.507812 462.949219 496.75 C 470.800781 408.601562 469.460938 336.871094 469.417969 336.15625 C 469.417969 335.398438 469.996094 334.816406 470.710938 334.773438 C 471.425781 334.773438 472.050781 335.351562 472.050781 336.066406 C 472.050781 336.78125 473.433594 408.691406 465.535156 496.972656 C 465.492188 497.6875 464.910156 498.179688 464.199219 498.179688 Z M 464.289062 498.222656 " fill-opacity="1" fill-rule="nonzero"/><path fill="#271700" d="M 371.675781 423.1875 C 371.230469 423.1875 370.785156 422.964844 370.519531 422.566406 C 370.339844 422.296875 354.414062 395.976562 337.597656 363.457031 C 322.027344 333.390625 302.53125 291.726562 297.847656 263.886719 C 297.714844 263.175781 298.207031 262.460938 298.964844 262.328125 C 299.679688 262.191406 300.390625 262.683594 300.527344 263.441406 C 308.554688 311.308594 361.148438 401.507812 371.1875 418.417969 C 392.375 333.613281 390.28125 265.582031 390.28125 264.914062 C 390.28125 264.15625 390.816406 263.578125 391.574219 263.53125 C 392.289062 263.53125 392.910156 264.066406 392.957031 264.824219 C 392.957031 265.539062 395.140625 335.621094 373.015625 422.207031 C 372.882812 422.742188 372.4375 423.101562 371.902344 423.1875 C 371.855469 423.1875 371.765625 423.1875 371.722656 423.1875 Z M 371.675781 423.1875 " fill-opacity="1" fill-rule="nonzero"/><path fill="#271700" d="M 290.355469 179.753906 C 289.863281 179.753906 289.371094 179.441406 289.195312 178.953125 C 289.195312 178.863281 284.734375 168.335938 277.597656 165.882812 C 274.875 164.945312 272.109375 165.300781 269.210938 166.996094 C 268.585938 167.351562 267.828125 167.128906 267.46875 166.550781 C 267.113281 165.925781 267.335938 165.167969 267.914062 164.8125 C 271.441406 162.757812 274.964844 162.355469 278.398438 163.515625 C 286.652344 166.328125 291.335938 177.523438 291.558594 178.015625 C 291.828125 178.683594 291.558594 179.398438 290.890625 179.664062 C 290.710938 179.710938 290.578125 179.753906 290.398438 179.753906 Z M 290.355469 179.753906 " fill-opacity="1" fill-rule="nonzero"/><path fill="#271700" d="M 279.46875 183.324219 C 278.933594 183.324219 278.398438 182.964844 278.265625 182.386719 C 275.5 172.660156 283.082031 167.578125 283.128906 167.53125 C 283.707031 167.128906 284.511719 167.308594 284.867188 167.890625 C 285.269531 168.46875 285.089844 169.273438 284.511719 169.628906 C 284.242188 169.808594 278.445312 173.777344 280.675781 181.671875 C 280.851562 182.34375 280.496094 183.054688 279.78125 183.234375 C 279.648438 183.234375 279.558594 183.277344 279.425781 183.277344 Z M 279.46875 183.324219 " fill-opacity="1" fill-rule="nonzero"/><path fill="#271700" d="M 363.914062 254.03125 C 354.144531 254.03125 341.03125 251.933594 326.980469 243.769531 C 326.355469 243.414062 326.175781 242.65625 326.53125 242.03125 C 326.890625 241.40625 327.648438 241.226562 328.273438 241.582031 C 359.054688 259.515625 385.640625 247.605469 385.90625 247.472656 C 386.53125 247.160156 387.292969 247.472656 387.601562 248.097656 C 387.914062 248.722656 387.601562 249.480469 386.980469 249.792969 C 386.710938 249.925781 379.886719 253.003906 369.046875 253.851562 C 367.484375 253.984375 365.746094 254.03125 363.960938 254.03125 Z M 363.914062 254.03125 " fill-opacity="1" fill-rule="nonzero"/><path fill="#271700" d="M 371.675781 531.769531 C 370.917969 531.769531 370.339844 531.1875 370.339844 530.429688 L 370.339844 422.832031 C 370.339844 422.074219 370.917969 421.496094 371.675781 421.496094 C 372.4375 421.496094 373.015625 422.074219 373.015625 422.832031 L 373.015625 530.429688 C 373.015625 531.1875 372.4375 531.769531 371.675781 531.769531 Z M 371.675781 531.769531 " fill-opacity="1" fill-rule="nonzero"/><path fill="#271700" d="M 393.984375 432.871094 C 393.984375 433.210938 393.949219 433.546875 393.882812 433.878906 C 393.816406 434.210938 393.71875 434.535156 393.589844 434.851562 C 393.457031 435.164062 393.300781 435.460938 393.109375 435.746094 C 392.921875 436.027344 392.707031 436.289062 392.46875 436.527344 C 392.226562 436.769531 391.964844 436.984375 391.683594 437.171875 C 391.398438 437.359375 391.101562 437.519531 390.789062 437.648438 C 390.472656 437.78125 390.152344 437.878906 389.816406 437.945312 C 389.484375 438.011719 389.148438 438.042969 388.808594 438.042969 C 388.46875 438.042969 388.132812 438.011719 387.796875 437.945312 C 387.464844 437.878906 387.140625 437.78125 386.828125 437.648438 C 386.511719 437.519531 386.214844 437.359375 385.933594 437.171875 C 385.648438 436.984375 385.390625 436.769531 385.148438 436.527344 C 384.910156 436.289062 384.695312 436.027344 384.503906 435.746094 C 384.316406 435.460938 384.15625 435.164062 384.027344 434.851562 C 383.898438 434.535156 383.796875 434.210938 383.734375 433.878906 C 383.667969 433.546875 383.632812 433.210938 383.632812 432.871094 C 383.632812 432.53125 383.667969 432.191406 383.734375 431.859375 C 383.796875 431.527344 383.898438 431.203125 384.027344 430.890625 C 384.15625 430.574219 384.316406 430.277344 384.503906 429.996094 C 384.695312 429.710938 384.910156 429.449219 385.148438 429.210938 C 385.390625 428.96875 385.648438 428.753906 385.933594 428.566406 C 386.214844 428.378906 386.511719 428.21875 386.828125 428.089844 C 387.140625 427.957031 387.464844 427.859375 387.796875 427.792969 C 388.132812 427.726562 388.46875 427.695312 388.808594 427.695312 C 389.148438 427.695312 389.484375 427.726562 389.816406 427.792969 C 390.152344 427.859375 390.472656 427.957031 390.789062 428.089844 C 391.101562 428.21875 391.398438 428.378906 391.683594 428.566406 C 391.964844 428.753906 392.226562 428.96875 392.46875 429.210938 C 392.707031 429.449219 392.921875 429.710938 393.109375 429.996094 C 393.300781 430.277344 393.457031 430.574219 393.589844 430.890625 C 393.71875 431.203125 393.816406 431.527344 393.882812 431.859375 C 393.949219 432.191406 393.984375 432.53125 393.984375 432.871094 Z M 393.984375 432.871094 " fill-opacity="1" fill-rule="nonzero"/><path fill="#271700" d="M 393.984375 462.890625 C 393.984375 463.230469 393.949219 463.566406 393.882812 463.902344 C 393.816406 464.234375 393.71875 464.558594 393.589844 464.871094 C 393.457031 465.1875 393.300781 465.484375 393.109375 465.765625 C 392.921875 466.050781 392.707031 466.3125 392.46875 466.550781 C 392.226562 466.792969 391.964844 467.003906 391.683594 467.195312 C 391.398438 467.382812 391.101562 467.542969 390.789062 467.671875 C 390.472656 467.800781 390.152344 467.902344 389.816406 467.96875 C 389.484375 468.035156 389.148438 468.066406 388.808594 468.066406 C 388.46875 468.066406 388.132812 468.035156 387.796875 467.96875 C 387.464844 467.902344 387.140625 467.800781 386.828125 467.671875 C 386.511719 467.542969 386.214844 467.382812 385.933594 467.195312 C 385.648438 467.003906 385.390625 466.792969 385.148438 466.550781 C 384.910156 466.3125 384.695312 466.050781 384.503906 465.765625 C 384.316406 465.484375 384.15625 465.1875 384.027344 464.871094 C 383.898438 464.558594 383.796875 464.234375 383.734375 463.902344 C 383.667969 463.566406 383.632812 463.230469 383.632812 462.890625 C 383.632812 462.550781 383.667969 462.214844 383.734375 461.882812 C 383.796875 461.550781 383.898438 461.226562 384.027344 460.910156 C 384.15625 460.597656 384.316406 460.300781 384.503906 460.015625 C 384.695312 459.734375 384.910156 459.472656 385.148438 459.234375 C 385.390625 458.992188 385.648438 458.777344 385.933594 458.589844 C 386.214844 458.402344 386.511719 458.242188 386.828125 458.109375 C 387.140625 457.980469 387.464844 457.882812 387.796875 457.816406 C 388.132812 457.75 388.46875 457.71875 388.808594 457.71875 C 389.148438 457.71875 389.484375 457.75 389.816406 457.816406 C 390.152344 457.882812 390.472656 457.980469 390.789062 458.109375 C 391.101562 458.242188 391.398438 458.402344 391.683594 458.589844 C 391.964844 458.777344 392.226562 458.992188 392.46875 459.234375 C 392.707031 459.472656 392.921875 459.734375 393.109375 460.015625 C 393.300781 460.300781 393.457031 460.597656 393.589844 460.910156 C 393.71875 461.226562 393.816406 461.550781 393.882812 461.882812 C 393.949219 462.214844 393.984375 462.550781 393.984375 462.890625 Z M 393.984375 462.890625 " fill-opacity="1" fill-rule="nonzero"/><path fill="#271700" d="M 338.667969 323.710938 C 338.488281 323.710938 338.355469 323.710938 338.175781 323.621094 L 315.601562 314.921875 C 314.933594 314.652344 314.578125 313.894531 314.84375 313.183594 C 315.113281 312.46875 315.871094 312.15625 316.585938 312.421875 L 338.265625 320.765625 L 364.496094 288.066406 C 364.761719 287.710938 365.210938 287.53125 365.65625 287.578125 C 366.101562 287.578125 366.503906 287.886719 366.726562 288.246094 L 382.785156 317.597656 L 388.40625 315.726562 C 389.121094 315.5 389.878906 315.859375 390.101562 316.574219 C 390.324219 317.285156 389.96875 318.042969 389.253906 318.269531 L 382.605469 320.5 C 381.984375 320.722656 381.3125 320.453125 381 319.875 L 365.34375 291.277344 L 339.738281 323.175781 C 339.46875 323.488281 339.113281 323.664062 338.710938 323.664062 Z M 338.667969 323.710938 " fill-opacity="1" fill-rule="nonzero"/><path fill="#271700" d="M 346.652344 312.421875 L 356.601562 331.070312 L 348.972656 382.417969 L 371.632812 421.851562 C 371.632812 421.851562 379.039062 379.785156 382.429688 367.160156 L 372.4375 328.394531 L 377.96875 311.664062 L 365.523438 288.914062 Z M 346.652344 312.421875 " fill-opacity="1" fill-rule="nonzero"/><path fill="#271700" d="M 371.675781 428.988281 C 371.367188 428.988281 371.007812 428.855469 370.785156 428.632812 C 352.539062 411.992188 325.820312 383.398438 299.277344 352.035156 C 292.40625 343.917969 258.234375 303.144531 257.921875 296.410156 C 257.921875 295.652344 258.191406 295.203125 258.414062 294.9375 C 261.535156 291.546875 275.277344 285.570312 281.386719 283.027344 L 266.488281 275.621094 C 265.820312 275.308594 265.550781 274.503906 265.863281 273.835938 C 266.175781 273.167969 266.980469 272.898438 267.648438 273.210938 L 285.222656 281.910156 C 285.714844 282.132812 285.984375 282.625 285.984375 283.160156 C 285.984375 283.695312 285.625 284.140625 285.136719 284.363281 C 279.378906 286.683594 264.078125 293.285156 260.644531 296.5 C 261.3125 300.023438 275.453125 319.695312 301.195312 350.117188 C 327.023438 380.675781 353.03125 408.648438 371.230469 425.375 C 392.777344 376.484375 424.316406 303.769531 424.941406 299.351562 C 425.566406 295.113281 417.714844 291.234375 414.636719 290.074219 C 414.234375 289.941406 413.921875 289.582031 413.832031 289.183594 C 413.699219 288.78125 413.832031 288.335938 414.101562 287.976562 L 423.46875 276.378906 C 423.914062 275.800781 424.761719 275.710938 425.34375 276.199219 C 425.921875 276.648438 426.011719 277.496094 425.523438 278.074219 L 417.269531 288.289062 C 420.835938 289.894531 428.421875 293.957031 427.574219 299.753906 C 426.679688 306.089844 375.113281 423.1875 372.925781 428.1875 C 372.75 428.585938 372.390625 428.855469 371.988281 428.945312 C 371.902344 428.945312 371.8125 428.945312 371.722656 428.945312 Z M 371.675781 428.988281 " fill-opacity="1" fill-rule="nonzero"/><path fill="#271700" d="M 241.0625 382.59375 L 299.945312 382.59375 L 299.945312 396.421875 L 241.0625 396.421875 Z M 241.0625 382.59375 " fill-opacity="1" fill-rule="nonzero"/><path fill="#3bab5a" d="M 510.101562 559.25 L 368.777344 559.25 C 363.335938 559.25 359.054688 554.652344 359.410156 549.257812 L 380.0625 367.652344 C 380.375 362.699219 384.480469 358.863281 389.433594 358.863281 L 530.753906 358.863281 C 536.199219 358.863281 540.480469 363.457031 540.125 368.855469 L 519.46875 550.460938 C 519.15625 555.414062 515.054688 559.25 510.101562 559.25 Z M 510.101562 559.25 " fill-opacity="1" fill-rule="nonzero"/><path fill="#ff8782" d="M 305.121094 462.625 C 305.121094 462.625 358.695312 450.089844 368.644531 453.480469 C 378.59375 456.871094 450.324219 485.597656 447.289062 492.734375 C 444.214844 499.875 441.445312 504.15625 419.988281 498.667969 C 398.488281 493.183594 385.863281 485.953125 385.863281 485.953125 C 385.863281 485.953125 435.558594 510.980469 432.390625 521.820312 C 429.222656 532.660156 402.101562 518.253906 377.699219 507.859375 C 377.699219 507.859375 413.164062 525.566406 408.167969 533.554688 C 401.074219 544.882812 359.542969 521.019531 359.542969 521.019531 C 359.542969 521.019531 326.890625 521.242188 299.988281 511.203125 L 235.664062 525.167969 L 224.332031 472.839844 L 305.164062 462.714844 Z M 305.121094 462.625 " fill-opacity="1" fill-rule="nonzero"/><path fill="#d03e2f" d="M 294.28125 529.136719 C 294.28125 529.136719 299.140625 487.875 281.96875 453.570312 L 198.59375 463.515625 L 199.441406 299.886719 L 124.496094 459.8125 C 107.277344 491.933594 128.867188 543.8125 165.3125 543.859375 Z M 294.28125 529.136719 " fill-opacity="1" fill-rule="nonzero"/><path fill="#271700" d="M 208.761719 540.46875 C 208.09375 540.46875 207.515625 539.976562 207.425781 539.261719 C 207.335938 538.550781 207.871094 537.878906 208.585938 537.792969 L 293.121094 527.933594 C 295.351562 484.839844 283.527344 459.589844 281.164062 455.039062 L 179.320312 466.191406 C 178.609375 466.28125 177.9375 465.746094 177.847656 464.988281 C 177.761719 464.273438 178.296875 463.605469 179.054688 463.515625 L 281.789062 452.230469 C 282.324219 452.1875 282.816406 452.410156 283.082031 452.898438 C 283.261719 453.167969 287.054688 459.722656 290.53125 472.484375 C 293.746094 484.171875 297.222656 503.53125 295.753906 529.183594 C 295.753906 529.851562 295.21875 530.339844 294.59375 530.429688 L 208.941406 540.421875 C 208.898438 540.421875 208.851562 540.421875 208.761719 540.421875 Z M 208.761719 540.46875 " fill-opacity="1" fill-rule="nonzero"/><path fill="#ff8782" d="M 524.421875 521.152344 C 523.886719 521.285156 523.351562 521.375 522.769531 521.507812 C 508.898438 524.363281 489.671875 526.773438 486.992188 518.789062 C 484.050781 510 521.476562 501.210938 522.636719 500.945312 C 496.496094 505.316406 466.785156 512.988281 466.207031 501.703125 C 465.714844 492.109375 504.925781 481.492188 516.570312 478.550781 C 511.214844 479.753906 499.527344 481.894531 483.648438 482.117188 C 461.476562 482.429688 459.78125 477.613281 458.488281 469.941406 C 457.460938 463.875 505.640625 455.574219 530.667969 451.960938 C 535.261719 451.292969 539.054688 450.800781 541.640625 450.492188 C 542.800781 451.738281 543.871094 453.300781 544.585938 455.128906 C 547.75 463.203125 543.914062 510.757812 524.421875 521.152344 Z M 524.421875 521.152344 " fill-opacity="1" fill-rule="nonzero"/><path fill="#271700" d="M 287.8125 151.652344 C 287.8125 151.652344 290.445312 165.121094 294.949219 163.339844 C 299.410156 161.554688 305.253906 97.226562 305.253906 97.226562 C 305.253906 97.226562 318.949219 111.324219 329.34375 110.921875 C 339.738281 110.519531 335.542969 97.226562 335.542969 97.226562 C 335.542969 97.226562 361.863281 117.167969 386.488281 114.667969 C 411.15625 112.171875 409.597656 97.226562 409.597656 97.226562 C 409.597656 97.226562 414.28125 117.121094 426.414062 116.542969 L 431.054688 145.496094 C 431.054688 145.496094 436.050781 129.613281 435.203125 111.367188 C 435.203125 111.367188 462.191406 85.226562 431.277344 46.59375 C 394.25 0.378906 314.175781 13.808594 290.398438 46.59375 C 290.398438 46.59375 272.421875 38.699219 260.375 61.941406 C 248.332031 85.183594 262.382812 154.503906 262.382812 154.503906 C 262.382812 154.503906 268.585938 145.40625 287.8125 151.695312 Z M 287.8125 151.652344 " fill-opacity="1" fill-rule="nonzero"/><path fill="#ff8782" d="M 524.421875 521.152344 C 523.886719 521.464844 523.304688 521.730469 522.726562 521.953125 L 522.726562 521.507812 C 522.769531 521.507812 530.667969 451.960938 530.667969 451.960938 L 531.46875 444.734375 C 531.46875 444.734375 537.445312 445.984375 541.640625 450.492188 C 542.800781 451.738281 543.871094 453.300781 544.585938 455.128906 C 547.75 463.203125 543.914062 510.757812 524.421875 521.152344 Z M 524.421875 521.152344 " fill-opacity="1" fill-rule="nonzero"/><g mask="url(#b2004e1dee)"><g transform="matrix(1, 0, 0, 1, 440, 406)"><g clip-path="url(#c094eb2a5e)"><g clip-path="url(#de4f0af89a)"><path fill="#d03e2f" d="M 34.101562 17.679688 C 34.101562 18.21875 34.074219 18.761719 34.023438 19.296875 C 33.96875 19.835938 33.890625 20.371094 33.785156 20.898438 C 33.679688 21.429688 33.546875 21.953125 33.390625 22.472656 C 33.234375 22.988281 33.050781 23.496094 32.84375 23.996094 C 32.636719 24.496094 32.40625 24.984375 32.152344 25.460938 C 31.898438 25.9375 31.621094 26.402344 31.320312 26.851562 C 31.019531 27.300781 30.699219 27.734375 30.355469 28.152344 C 30.011719 28.570312 29.648438 28.96875 29.265625 29.351562 C 28.882812 29.734375 28.484375 30.097656 28.066406 30.4375 C 27.648438 30.78125 27.214844 31.101562 26.765625 31.402344 C 26.316406 31.703125 25.851562 31.980469 25.375 32.238281 C 24.898438 32.492188 24.410156 32.722656 23.914062 32.929688 C 23.414062 33.136719 22.90625 33.316406 22.386719 33.476562 C 21.871094 33.632812 21.347656 33.761719 20.816406 33.867188 C 20.285156 33.972656 19.75 34.054688 19.214844 34.105469 C 18.675781 34.160156 18.136719 34.1875 17.597656 34.1875 C 17.054688 34.1875 16.515625 34.160156 15.976562 34.105469 C 15.441406 34.054688 14.90625 33.972656 14.375 33.867188 C 13.84375 33.761719 13.320312 33.632812 12.804688 33.476562 C 12.289062 33.316406 11.777344 33.136719 11.28125 32.929688 C 10.78125 32.722656 10.292969 32.492188 9.816406 32.238281 C 9.339844 31.980469 8.875 31.703125 8.425781 31.402344 C 7.976562 31.101562 7.542969 30.78125 7.125 30.4375 C 6.707031 30.097656 6.308594 29.734375 5.925781 29.351562 C 5.542969 28.96875 5.179688 28.570312 4.835938 28.152344 C 4.492188 27.734375 4.171875 27.300781 3.871094 26.851562 C 3.570312 26.402344 3.292969 25.9375 3.039062 25.460938 C 2.785156 24.984375 2.554688 24.496094 2.347656 23.996094 C 2.140625 23.496094 1.957031 22.988281 1.800781 22.472656 C 1.644531 21.953125 1.511719 21.429688 1.40625 20.898438 C 1.300781 20.371094 1.222656 19.835938 1.167969 19.296875 C 1.117188 18.761719 1.089844 18.21875 1.089844 17.679688 C 1.089844 17.140625 1.117188 16.601562 1.167969 16.0625 C 1.222656 15.523438 1.300781 14.988281 1.40625 14.460938 C 1.511719 13.929688 1.644531 13.40625 1.800781 12.890625 C 1.957031 12.371094 2.140625 11.863281 2.347656 11.363281 C 2.554688 10.863281 2.785156 10.375 3.039062 9.898438 C 3.292969 9.421875 3.570312 8.960938 3.871094 8.511719 C 4.171875 8.058594 4.492188 7.625 4.835938 7.207031 C 5.179688 6.792969 5.542969 6.390625 5.925781 6.007812 C 6.308594 5.625 6.707031 5.265625 7.125 4.921875 C 7.542969 4.578125 7.976562 4.257812 8.425781 3.957031 C 8.875 3.65625 9.339844 3.378906 9.816406 3.125 C 10.292969 2.867188 10.78125 2.636719 11.28125 2.429688 C 11.777344 2.222656 12.289062 2.042969 12.804688 1.886719 C 13.320312 1.726562 13.84375 1.597656 14.375 1.492188 C 14.90625 1.386719 15.441406 1.308594 15.976562 1.253906 C 16.515625 1.199219 17.054688 1.175781 17.597656 1.175781 C 18.136719 1.175781 18.675781 1.199219 19.214844 1.253906 C 19.75 1.308594 20.285156 1.386719 20.816406 1.492188 C 21.347656 1.597656 21.871094 1.726562 22.386719 1.886719 C 22.90625 2.042969 23.414062 2.222656 23.914062 2.429688 C 24.410156 2.636719 24.898438 2.867188 25.375 3.125 C 25.851562 3.378906 26.316406 3.65625 26.765625 3.957031 C 27.214844 4.257812 27.648438 4.578125 28.066406 4.921875 C 28.484375 5.265625 28.882812 5.625 29.265625 6.007812 C 29.648438 6.390625 30.011719 6.792969 30.355469 7.207031 C 30.699219 7.625 31.019531 8.058594 31.320312 8.511719 C 31.621094 8.960938 31.898438 9.421875 32.152344 9.898438 C 32.40625 10.375 32.636719 10.863281 32.84375 11.363281 C 33.050781 11.863281 33.234375 12.371094 33.390625 12.890625 C 33.546875 13.40625 33.679688 13.929688 33.785156 14.460938 C 33.890625 14.988281 33.96875 15.523438 34.023438 16.0625 C 34.074219 16.601562 34.101562 17.140625 34.101562 17.679688 Z M 34.101562 17.679688 " fill-opacity="1" fill-rule="nonzero"/></g></g></g></g><path fill="#3bab5a" d="M 569.832031 10.90625 L 624.882812 10.90625 C 625.417969 10.90625 625.957031 10.933594 626.492188 10.988281 C 627.027344 11.039062 627.558594 11.117188 628.085938 11.222656 C 628.613281 11.328125 629.132812 11.457031 629.648438 11.613281 C 630.160156 11.769531 630.667969 11.953125 631.164062 12.15625 C 631.660156 12.363281 632.144531 12.59375 632.621094 12.847656 C 633.09375 13.097656 633.554688 13.375 634.003906 13.675781 C 634.449219 13.972656 634.878906 14.292969 635.296875 14.632812 C 635.710938 14.976562 636.109375 15.335938 636.488281 15.714844 C 636.871094 16.097656 637.230469 16.492188 637.570312 16.910156 C 637.914062 17.324219 638.234375 17.757812 638.53125 18.203125 C 638.828125 18.652344 639.105469 19.109375 639.359375 19.585938 C 639.613281 20.058594 639.84375 20.546875 640.046875 21.042969 C 640.253906 21.539062 640.433594 22.042969 640.589844 22.558594 C 640.746094 23.074219 640.878906 23.59375 640.984375 24.121094 C 641.085938 24.648438 641.167969 25.179688 641.21875 25.714844 C 641.273438 26.25 641.296875 26.785156 641.296875 27.324219 L 641.296875 82.371094 C 641.296875 82.910156 641.273438 83.445312 641.21875 83.980469 C 641.167969 84.515625 641.085938 85.046875 640.984375 85.574219 C 640.878906 86.101562 640.746094 86.621094 640.589844 87.136719 C 640.433594 87.652344 640.253906 88.15625 640.046875 88.65625 C 639.84375 89.152344 639.613281 89.636719 639.359375 90.109375 C 639.105469 90.585938 638.828125 91.046875 638.53125 91.492188 C 638.234375 91.941406 637.914062 92.371094 637.570312 92.785156 C 637.230469 93.203125 636.871094 93.601562 636.488281 93.980469 C 636.109375 94.359375 635.710938 94.722656 635.296875 95.0625 C 634.878906 95.402344 634.449219 95.722656 634.003906 96.023438 C 633.554688 96.320312 633.09375 96.597656 632.621094 96.851562 C 632.144531 97.101562 631.660156 97.332031 631.164062 97.539062 C 630.667969 97.746094 630.160156 97.925781 629.648438 98.082031 C 629.132812 98.238281 628.613281 98.367188 628.085938 98.472656 C 627.558594 98.578125 627.027344 98.65625 626.492188 98.710938 C 625.957031 98.761719 625.417969 98.789062 624.882812 98.789062 L 569.832031 98.789062 C 569.296875 98.789062 568.757812 98.761719 568.222656 98.710938 C 567.6875 98.65625 567.15625 98.578125 566.628906 98.472656 C 566.101562 98.367188 565.582031 98.238281 565.066406 98.082031 C 564.554688 97.925781 564.046875 97.746094 563.550781 97.539062 C 563.054688 97.332031 562.570312 97.101562 562.09375 96.851562 C 561.621094 96.597656 561.160156 96.320312 560.714844 96.023438 C 560.265625 95.722656 559.835938 95.402344 559.417969 95.0625 C 559.003906 94.722656 558.605469 94.359375 558.226562 93.980469 C 557.84375 93.601562 557.484375 93.203125 557.144531 92.785156 C 556.800781 92.371094 556.480469 91.941406 556.183594 91.492188 C 555.886719 91.046875 555.609375 90.585938 555.355469 90.109375 C 555.101562 89.636719 554.871094 89.152344 554.667969 88.65625 C 554.460938 88.15625 554.28125 87.652344 554.125 87.136719 C 553.96875 86.621094 553.835938 86.101562 553.734375 85.574219 C 553.628906 85.046875 553.550781 84.515625 553.496094 83.980469 C 553.445312 83.445312 553.417969 82.910156 553.417969 82.371094 L 553.417969 27.324219 C 553.417969 26.785156 553.445312 26.25 553.496094 25.714844 C 553.550781 25.179688 553.628906 24.648438 553.734375 24.121094 C 553.835938 23.59375 553.96875 23.074219 554.125 22.558594 C 554.28125 22.042969 554.460938 21.539062 554.667969 21.042969 C 554.871094 20.546875 555.101562 20.058594 555.355469 19.585938 C 555.609375 19.109375 555.886719 18.652344 556.183594 18.203125 C 556.480469 17.757812 556.800781 17.324219 557.144531 16.910156 C 557.484375 16.492188 557.84375 16.097656 558.226562 15.714844 C 558.605469 15.335938 559.003906 14.976562 559.417969 14.632812 C 559.835938 14.292969 560.265625 13.972656 560.714844 13.675781 C 561.160156 13.375 561.621094 13.097656 562.09375 12.847656 C 562.570312 12.59375 563.054688 12.363281 563.550781 12.15625 C 564.046875 11.953125 564.554688 11.769531 565.066406 11.613281 C 565.582031 11.457031 566.101562 11.328125 566.628906 11.222656 C 567.15625 11.117188 567.6875 11.039062 568.222656 10.988281 C 568.757812 10.933594 569.296875 10.90625 569.832031 10.90625 Z M 569.832031 10.90625 " fill-opacity="1" fill-rule="nonzero"/><path fill="#ffffff" d="M 596.332031 70.105469 C 596.152344 70.105469 596.019531 70.105469 595.839844 70.105469 C 594.679688 69.96875 593.65625 69.300781 593.074219 68.277344 L 585 54.804688 L 569.65625 68.230469 C 568.09375 69.613281 565.683594 69.433594 564.300781 67.875 C 562.917969 66.3125 563.097656 63.902344 564.660156 62.519531 L 583.394531 46.105469 C 584.242188 45.347656 585.359375 45.035156 586.472656 45.210938 C 587.589844 45.390625 588.570312 46.058594 589.148438 46.996094 L 597.046875 60.203125 L 616.941406 40.617188 C 618.414062 39.144531 620.824219 39.191406 622.292969 40.664062 C 623.765625 42.132812 623.722656 44.542969 622.25 46.015625 L 598.917969 68.945312 C 598.207031 69.660156 597.269531 70.015625 596.285156 70.015625 Z M 596.332031 70.105469 " fill-opacity="1" fill-rule="nonzero"/><path fill="#ffffff" d="M 614.578125 47.578125 L 608.242188 40.796875 L 617.34375 38.699219 L 626.398438 36.648438 L 623.632812 45.523438 L 620.910156 54.402344 Z M 614.578125 47.578125 " fill-opacity="1" fill-rule="nonzero"/><path fill="#ffffff" d="M 620.910156 55.605469 C 620.597656 55.605469 620.285156 55.472656 620.0625 55.25 L 607.394531 41.597656 C 607.128906 41.285156 606.992188 40.839844 607.128906 40.4375 C 607.261719 40.039062 607.574219 39.726562 607.976562 39.636719 L 626.085938 35.488281 C 626.488281 35.398438 626.933594 35.488281 627.203125 35.84375 C 627.46875 36.15625 627.601562 36.601562 627.46875 37.003906 L 621.980469 54.757812 C 621.847656 55.160156 621.535156 55.472656 621.132812 55.5625 C 621.046875 55.5625 620.957031 55.5625 620.867188 55.5625 Z M 610.515625 41.464844 L 620.375 52.082031 L 624.660156 38.207031 L 610.515625 41.421875 Z M 610.515625 41.464844 " fill-opacity="1" fill-rule="nonzero"/><path fill="#3bab5a" d="M 705.222656 62.34375 L 793.195312 62.34375 C 793.953125 62.34375 794.707031 62.378906 795.464844 62.453125 C 796.21875 62.527344 796.964844 62.640625 797.710938 62.789062 C 798.453125 62.933594 799.1875 63.121094 799.914062 63.339844 C 800.640625 63.558594 801.351562 63.816406 802.054688 64.105469 C 802.753906 64.394531 803.4375 64.71875 804.109375 65.078125 C 804.777344 65.433594 805.425781 65.824219 806.054688 66.246094 C 806.6875 66.664062 807.296875 67.117188 807.882812 67.597656 C 808.46875 68.078125 809.027344 68.585938 809.566406 69.125 C 810.101562 69.660156 810.609375 70.222656 811.089844 70.808594 C 811.570312 71.394531 812.023438 72 812.445312 72.632812 C 812.867188 73.261719 813.253906 73.914062 813.613281 74.582031 C 813.96875 75.25 814.292969 75.933594 814.582031 76.632812 C 814.875 77.335938 815.128906 78.046875 815.347656 78.773438 C 815.570312 79.5 815.753906 80.234375 815.902344 80.976562 C 816.050781 81.722656 816.160156 82.472656 816.234375 83.226562 C 816.308594 83.980469 816.347656 84.738281 816.347656 85.496094 L 816.347656 153.121094 C 816.347656 153.882812 816.308594 154.636719 816.234375 155.390625 C 816.160156 156.148438 816.050781 156.894531 815.902344 157.640625 C 815.753906 158.382812 815.570312 159.117188 815.347656 159.84375 C 815.128906 160.570312 814.875 161.28125 814.582031 161.984375 C 814.292969 162.683594 813.96875 163.367188 813.613281 164.035156 C 813.253906 164.707031 812.867188 165.355469 812.445312 165.984375 C 812.023438 166.617188 811.570312 167.222656 811.089844 167.8125 C 810.609375 168.398438 810.101562 168.957031 809.566406 169.492188 C 809.027344 170.03125 808.46875 170.539062 807.882812 171.019531 C 807.296875 171.5 806.6875 171.953125 806.054688 172.375 C 805.425781 172.792969 804.777344 173.183594 804.109375 173.542969 C 803.4375 173.898438 802.753906 174.222656 802.054688 174.511719 C 801.351562 174.804688 800.640625 175.058594 799.914062 175.277344 C 799.1875 175.5 798.453125 175.683594 797.710938 175.832031 C 796.964844 175.976562 796.21875 176.089844 795.464844 176.164062 C 794.707031 176.238281 793.953125 176.273438 793.195312 176.273438 L 705.222656 176.273438 C 704.464844 176.273438 703.707031 176.238281 702.953125 176.164062 C 702.199219 176.089844 701.449219 175.976562 700.707031 175.832031 C 699.964844 175.683594 699.226562 175.5 698.503906 175.277344 C 697.777344 175.058594 697.0625 174.804688 696.363281 174.511719 C 695.664062 174.222656 694.976562 173.898438 694.308594 173.542969 C 693.640625 173.183594 692.992188 172.792969 692.359375 172.375 C 691.730469 171.953125 691.121094 171.5 690.535156 171.019531 C 689.949219 170.539062 689.386719 170.03125 688.851562 169.492188 C 688.316406 168.957031 687.808594 168.398438 687.328125 167.8125 C 686.84375 167.222656 686.394531 166.617188 685.972656 165.984375 C 685.550781 165.355469 685.164062 164.707031 684.804688 164.035156 C 684.449219 163.367188 684.125 162.683594 683.832031 161.984375 C 683.542969 161.28125 683.289062 160.570312 683.066406 159.84375 C 682.847656 159.117188 682.664062 158.382812 682.515625 157.640625 C 682.367188 156.894531 682.257812 156.148438 682.183594 155.390625 C 682.109375 154.636719 682.070312 153.882812 682.070312 153.121094 L 682.070312 85.496094 C 682.070312 84.738281 682.109375 83.980469 682.183594 83.226562 C 682.257812 82.472656 682.367188 81.722656 682.515625 80.976562 C 682.664062 80.234375 682.847656 79.5 683.066406 78.773438 C 683.289062 78.046875 683.542969 77.335938 683.832031 76.632812 C 684.125 75.933594 684.449219 75.25 684.804688 74.582031 C 685.164062 73.914062 685.550781 73.261719 685.972656 72.632812 C 686.394531 72 686.84375 71.394531 687.328125 70.808594 C 687.808594 70.222656 688.316406 69.660156 688.851562 69.125 C 689.386719 68.585938 689.949219 68.078125 690.535156 67.597656 C 691.121094 67.117188 691.730469 66.664062 692.359375 66.246094 C 692.992188 65.824219 693.640625 65.433594 694.308594 65.078125 C 694.976562 64.71875 695.664062 64.394531 696.363281 64.105469 C 697.0625 63.816406 697.777344 63.558594 698.503906 63.339844 C 699.226562 63.121094 699.964844 62.933594 700.707031 62.789062 C 701.449219 62.640625 702.199219 62.527344 702.953125 62.453125 C 703.707031 62.378906 704.464844 62.34375 705.222656 62.34375 Z M 705.222656 62.34375 " fill-opacity="1" fill-rule="nonzero"/><path fill="#ffffff" d="M 712.984375 114 L 725.164062 114 C 725.589844 114 726 114.082031 726.394531 114.246094 C 726.785156 114.40625 727.132812 114.640625 727.433594 114.941406 C 727.734375 115.242188 727.96875 115.589844 728.132812 115.984375 C 728.292969 116.375 728.375 116.785156 728.375 117.210938 L 728.375 144.199219 C 728.375 144.625 728.292969 145.035156 728.132812 145.429688 C 727.96875 145.824219 727.734375 146.171875 727.433594 146.472656 C 727.132812 146.773438 726.785156 147.003906 726.394531 147.167969 C 726 147.332031 725.589844 147.414062 725.164062 147.414062 L 712.984375 147.414062 C 712.558594 147.414062 712.148438 147.332031 711.757812 147.167969 C 711.363281 147.003906 711.015625 146.773438 710.714844 146.472656 C 710.414062 146.171875 710.179688 145.824219 710.019531 145.429688 C 709.855469 145.035156 709.773438 144.625 709.773438 144.199219 L 709.773438 117.210938 C 709.773438 116.785156 709.855469 116.375 710.019531 115.984375 C 710.179688 115.589844 710.414062 115.242188 710.714844 114.941406 C 711.015625 114.640625 711.363281 114.40625 711.757812 114.246094 C 712.148438 114.082031 712.558594 114 712.984375 114 Z M 712.984375 114 " fill-opacity="1" fill-rule="nonzero"/><path fill="#ffffff" d="M 743.5 95.488281 L 755.675781 95.488281 C 756.101562 95.488281 756.511719 95.570312 756.90625 95.730469 C 757.300781 95.894531 757.648438 96.125 757.949219 96.429688 C 758.25 96.730469 758.480469 97.078125 758.644531 97.46875 C 758.808594 97.863281 758.890625 98.273438 758.890625 98.699219 L 758.890625 144.15625 C 758.890625 144.582031 758.808594 144.992188 758.644531 145.386719 C 758.480469 145.777344 758.25 146.125 757.949219 146.425781 C 757.648438 146.730469 757.300781 146.960938 756.90625 147.125 C 756.511719 147.285156 756.101562 147.367188 755.675781 147.367188 L 743.5 147.367188 C 743.074219 147.367188 742.664062 147.285156 742.269531 147.125 C 741.875 146.960938 741.527344 146.730469 741.226562 146.425781 C 740.925781 146.125 740.695312 145.777344 740.53125 145.386719 C 740.367188 144.992188 740.285156 144.582031 740.285156 144.15625 L 740.285156 98.699219 C 740.285156 98.273438 740.367188 97.863281 740.53125 97.46875 C 740.695312 97.078125 740.925781 96.730469 741.226562 96.429688 C 741.527344 96.125 741.875 95.894531 742.269531 95.730469 C 742.664062 95.570312 743.074219 95.488281 743.5 95.488281 Z M 743.5 95.488281 " fill-opacity="1" fill-rule="nonzero"/><path fill="#ffffff" d="M 773.253906 108.425781 L 785.429688 108.425781 C 785.859375 108.425781 786.265625 108.503906 786.660156 108.667969 C 787.054688 108.832031 787.402344 109.0625 787.703125 109.363281 C 788.003906 109.667969 788.234375 110.011719 788.398438 110.40625 C 788.5625 110.800781 788.644531 111.210938 788.644531 111.636719 L 788.644531 144.15625 C 788.644531 144.582031 788.5625 144.992188 788.398438 145.386719 C 788.234375 145.777344 788.003906 146.125 787.703125 146.425781 C 787.402344 146.730469 787.054688 146.960938 786.660156 147.125 C 786.265625 147.285156 785.859375 147.367188 785.429688 147.367188 L 773.253906 147.367188 C 772.828125 147.367188 772.417969 147.285156 772.023438 147.125 C 771.628906 146.960938 771.28125 146.730469 770.980469 146.425781 C 770.679688 146.125 770.449219 145.777344 770.285156 145.386719 C 770.121094 144.992188 770.042969 144.582031 770.042969 144.15625 L 770.042969 111.636719 C 770.042969 111.210938 770.121094 110.800781 770.285156 110.40625 C 770.449219 110.011719 770.679688 109.667969 770.980469 109.363281 C 771.28125 109.0625 771.628906 108.832031 772.023438 108.667969 C 772.417969 108.503906 772.828125 108.425781 773.253906 108.425781 Z M 773.253906 108.425781 " fill-opacity="1" fill-rule="nonzero"/><path fill="#ffffff" d="M 861.355469 114.046875 L 878.753906 114.046875 C 879.171875 114.046875 879.582031 114.085938 879.992188 114.167969 C 880.398438 114.246094 880.792969 114.367188 881.179688 114.527344 C 881.5625 114.683594 881.929688 114.878906 882.273438 115.109375 C 882.621094 115.339844 882.941406 115.601562 883.234375 115.894531 C 883.527344 116.1875 883.789062 116.503906 884.023438 116.851562 C 884.253906 117.195312 884.449219 117.558594 884.605469 117.941406 C 884.765625 118.324219 884.886719 118.71875 884.96875 119.125 C 885.046875 119.53125 885.089844 119.941406 885.089844 120.355469 C 885.089844 120.773438 885.046875 121.183594 884.96875 121.589844 C 884.886719 121.996094 884.765625 122.390625 884.605469 122.773438 C 884.449219 123.15625 884.253906 123.519531 884.023438 123.863281 C 883.789062 124.207031 883.527344 124.527344 883.234375 124.820312 C 882.941406 125.113281 882.621094 125.375 882.273438 125.605469 C 881.929688 125.835938 881.5625 126.03125 881.179688 126.1875 C 880.792969 126.347656 880.398438 126.46875 879.992188 126.546875 C 879.582031 126.628906 879.171875 126.667969 878.753906 126.667969 L 861.355469 126.667969 C 860.941406 126.667969 860.527344 126.628906 860.121094 126.546875 C 859.714844 126.46875 859.316406 126.347656 858.933594 126.1875 C 858.546875 126.03125 858.183594 125.835938 857.835938 125.605469 C 857.492188 125.375 857.171875 125.113281 856.878906 124.820312 C 856.582031 124.527344 856.320312 124.207031 856.089844 123.863281 C 855.859375 123.519531 855.664062 123.15625 855.503906 122.773438 C 855.34375 122.390625 855.226562 121.996094 855.144531 121.589844 C 855.0625 121.183594 855.023438 120.773438 855.023438 120.355469 C 855.023438 119.941406 855.0625 119.53125 855.144531 119.125 C 855.226562 118.71875 855.34375 118.324219 855.503906 117.941406 C 855.664062 117.558594 855.859375 117.195312 856.089844 116.851562 C 856.320312 116.503906 856.582031 116.1875 856.878906 115.894531 C 857.171875 115.601562 857.492188 115.339844 857.835938 115.109375 C 858.183594 114.878906 858.546875 114.683594 858.933594 114.527344 C 859.316406 114.367188 859.714844 114.246094 860.121094 114.167969 C 860.527344 114.085938 860.941406 114.046875 861.355469 114.046875 Z M 861.355469 114.046875 " fill-opacity="1" fill-rule="nonzero"/><path fill="#ffffff" d="M 853.328125 90.222656 L 870.726562 90.222656 C 871.140625 90.222656 871.554688 90.265625 871.960938 90.34375 C 872.367188 90.425781 872.765625 90.546875 873.148438 90.703125 C 873.535156 90.863281 873.898438 91.058594 874.246094 91.289062 C 874.589844 91.515625 874.910156 91.777344 875.203125 92.070312 C 875.5 92.367188 875.761719 92.683594 875.992188 93.027344 C 876.222656 93.375 876.417969 93.738281 876.578125 94.121094 C 876.738281 94.503906 876.855469 94.898438 876.9375 95.304688 C 877.019531 95.710938 877.058594 96.121094 877.058594 96.535156 C 877.058594 96.949219 877.019531 97.359375 876.9375 97.765625 C 876.855469 98.171875 876.738281 98.570312 876.578125 98.953125 C 876.417969 99.335938 876.222656 99.699219 875.992188 100.042969 C 875.761719 100.386719 875.5 100.707031 875.203125 101 C 874.910156 101.292969 874.589844 101.554688 874.246094 101.785156 C 873.898438 102.015625 873.535156 102.207031 873.148438 102.367188 C 872.765625 102.527344 872.367188 102.644531 871.960938 102.726562 C 871.554688 102.808594 871.140625 102.847656 870.726562 102.847656 L 853.328125 102.847656 C 852.910156 102.847656 852.5 102.808594 852.089844 102.726562 C 851.683594 102.644531 851.289062 102.527344 850.902344 102.367188 C 850.519531 102.207031 850.152344 102.015625 849.808594 101.785156 C 849.460938 101.554688 849.140625 101.292969 848.847656 101 C 848.554688 100.707031 848.292969 100.386719 848.058594 100.042969 C 847.828125 99.699219 847.632812 99.335938 847.476562 98.953125 C 847.316406 98.566406 847.195312 98.171875 847.113281 97.765625 C 847.035156 97.359375 846.992188 96.949219 846.992188 96.535156 C 846.992188 96.121094 847.035156 95.710938 847.113281 95.304688 C 847.195312 94.898438 847.316406 94.503906 847.476562 94.121094 C 847.632812 93.738281 847.828125 93.375 848.058594 93.027344 C 848.292969 92.683594 848.554688 92.367188 848.847656 92.070312 C 849.140625 91.777344 849.460938 91.515625 849.808594 91.289062 C 850.152344 91.058594 850.519531 90.863281 850.902344 90.703125 C 851.289062 90.546875 851.683594 90.425781 852.089844 90.34375 C 852.5 90.265625 852.910156 90.222656 853.328125 90.222656 Z M 853.328125 90.222656 " fill-opacity="1" fill-rule="nonzero"/><path fill="#271700" d="M 878.800781 128.007812 L 861.355469 128.007812 C 857.121094 128.007812 853.683594 124.574219 853.683594 120.335938 C 853.683594 116.097656 857.121094 112.660156 861.355469 112.660156 L 878.800781 112.660156 C 883.039062 112.660156 886.472656 116.097656 886.472656 120.335938 C 886.472656 124.574219 883.039062 128.007812 878.800781 128.007812 Z M 861.355469 115.382812 C 858.589844 115.382812 856.359375 117.613281 856.359375 120.378906 C 856.359375 123.144531 858.589844 125.375 861.355469 125.375 L 878.800781 125.375 C 881.566406 125.375 883.796875 123.144531 883.796875 120.378906 C 883.796875 117.613281 881.566406 115.382812 878.800781 115.382812 Z M 861.355469 115.382812 " fill-opacity="1" fill-rule="nonzero"/><path fill="#271700" d="M 870.769531 104.1875 L 853.328125 104.1875 C 849.089844 104.1875 845.65625 100.75 845.65625 96.511719 C 845.65625 92.277344 849.089844 88.839844 853.328125 88.839844 L 870.769531 88.839844 C 875.007812 88.839844 878.441406 92.277344 878.441406 96.511719 C 878.441406 100.75 875.007812 104.1875 870.769531 104.1875 Z M 853.328125 91.5625 C 850.5625 91.5625 848.332031 93.792969 848.332031 96.558594 C 848.332031 99.324219 850.5625 101.554688 853.328125 101.554688 L 870.769531 101.554688 C 873.535156 101.554688 875.765625 99.324219 875.765625 96.558594 C 875.765625 93.792969 873.535156 91.5625 870.769531 91.5625 Z M 853.328125 91.5625 " fill-opacity="1" fill-rule="nonzero"/></svg>