<svg xmlns="http://www.w3.org/2000/svg" xmlns:xlink="http://www.w3.org/1999/xlink" width="500" zoomAndPan="magnify" viewBox="0 0 375 374.999991" height="500" preserveAspectRatio="xMidYMid meet" version="1.0"><defs><clipPath id="01c5006b56"><path d="M 203 141.875 L 370 141.875 L 370 195 L 203 195 Z M 203 141.875 " clip-rule="nonzero"/></clipPath><clipPath id="997093fd41"><path d="M 191 216 L 203 216 L 203 233.375 L 191 233.375 Z M 191 216 " clip-rule="nonzero"/></clipPath><clipPath id="54237c3f84"><path d="M 229 216 L 243 216 L 243 233.375 L 229 233.375 Z M 229 216 " clip-rule="nonzero"/></clipPath></defs><path fill="#343131" d="M 89.6875 164.019531 L 89.050781 167.128906 L 88.867188 167.128906 C 88.046875 165.300781 85.855469 162.917969 80.929688 162.917969 C 72.992188 162.917969 64.871094 169.140625 63.136719 178.839844 C 61.585938 187.351562 65.691406 194.761719 75.089844 194.761719 C 78.558594 194.761719 82.480469 193.390625 84.578125 190.554688 L 84.761719 190.554688 L 84.304688 193.753906 L 93.0625 193.753906 L 98.539062 164.109375 Z M 86.859375 178.933594 C 86.3125 181.859375 83.574219 186.617188 78.007812 186.617188 C 72.535156 186.617188 71.53125 181.859375 71.988281 179.117188 C 72.625 175.730469 75.636719 171.429688 80.746094 171.429688 C 85.949219 171.339844 87.5 175.273438 86.859375 178.933594 Z M 86.859375 178.933594 " fill-opacity="1" fill-rule="nonzero"/><path fill="#343131" d="M 103.464844 164.019531 L 111.769531 164.019531 L 111.222656 167.128906 L 111.402344 167.128906 C 112.40625 165.664062 114.507812 162.917969 119.617188 162.917969 L 117.972656 171.976562 C 113.777344 172.070312 110.765625 172.894531 109.945312 177.46875 L 106.933594 193.753906 L 97.992188 193.753906 Z M 103.464844 164.019531 " fill-opacity="1" fill-rule="nonzero"/><path fill="#343131" d="M 125.457031 152.398438 L 134.304688 152.398438 L 130.199219 174.816406 L 130.382812 174.816406 L 140.691406 164.019531 L 151.09375 164.019531 L 137.5 177.101562 L 145.253906 193.753906 L 135.128906 193.753906 L 129.378906 179.390625 L 129.195312 179.390625 L 126.640625 193.753906 L 117.699219 193.753906 Z M 125.457031 152.398438 " fill-opacity="1" fill-rule="nonzero"/><path fill="#343131" d="M 165.238281 163.011719 C 156.203125 163.011719 148.265625 170.699219 146.714844 179.023438 C 145.074219 187.808594 151.003906 194.761719 159.488281 194.761719 C 162.5 194.761719 165.691406 193.847656 168.339844 192.109375 C 171.167969 190.371094 173.722656 187.898438 175.820312 184.515625 L 166.789062 184.515625 C 165.328125 186.070312 163.59375 187.257812 160.855469 187.257812 C 157.390625 187.257812 154.835938 185.246094 155.019531 181.675781 L 177.191406 181.675781 C 177.464844 180.945312 177.554688 180.488281 177.828125 179.296875 C 179.5625 170.238281 174.359375 163.011719 165.238281 163.011719 Z M 156.296875 175.636719 C 157.023438 173.808594 159.398438 170.515625 163.960938 170.515625 C 168.523438 170.515625 169.707031 173.808594 169.707031 175.636719 Z M 156.296875 175.636719 " fill-opacity="1" fill-rule="nonzero"/><path fill="#343131" d="M 51.457031 152.398438 L 35.765625 175.914062 L 35.582031 175.914062 L 35.582031 152.398438 L 28.007812 152.398438 L 0.363281 193.753906 L 11.128906 193.753906 L 26.640625 170.148438 L 26.824219 170.148438 L 26.824219 193.753906 L 34.488281 193.753906 L 49.996094 170.148438 L 50.179688 170.148438 L 50.179688 193.753906 L 59.03125 193.753906 L 59.03125 152.398438 Z M 51.457031 152.398438 " fill-opacity="1" fill-rule="nonzero"/><path fill="#343131" d="M 200.363281 164.019531 L 194.800781 164.019531 L 196.441406 155.234375 L 188.6875 155.234375 L 188.046875 158.621094 C 187.316406 162.460938 184.945312 163.652344 181.660156 164.019531 L 181.570312 164.019531 L 180.292969 170.699219 L 184.671875 170.699219 L 180.472656 193.664062 L 189.324219 193.664062 L 193.523438 170.699219 L 199.179688 170.699219 Z M 200.363281 164.019531 " fill-opacity="1" fill-rule="nonzero"/><g clip-path="url(#01c5006b56)"><path fill="#00ac4e" d="M 337.59375 182.5 C 334.671875 189.179688 327.738281 194.761719 319.800781 194.761719 C 310.769531 194.761719 305.203125 187.714844 306.84375 178.839844 C 308.488281 170.148438 316.515625 163.011719 325.457031 163.011719 C 333.304688 163.011719 338.6875 168.226562 338.78125 175.546875 L 329.746094 175.546875 C 329.199219 173.535156 327.832031 171.339844 324.089844 171.339844 C 319.890625 171.15625 316.425781 174.632812 315.695312 178.839844 C 314.875 183.140625 317.0625 186.433594 321.351562 186.433594 C 325 186.433594 327.191406 184.332031 328.46875 182.410156 L 337.59375 182.410156 Z M 264.050781 141.875 L 246.808594 152.398438 L 251.644531 152.398438 L 236.039062 176.003906 L 235.859375 176.003906 L 235.859375 152.398438 L 228.195312 152.398438 L 212.589844 176.003906 L 212.410156 176.003906 L 212.410156 152.398438 L 203.558594 152.398438 L 203.558594 193.753906 L 211.222656 193.753906 L 226.917969 170.238281 L 227.097656 170.238281 L 227.097656 193.847656 L 234.761719 193.847656 L 262.410156 152.488281 L 266.789062 152.488281 Z M 280.933594 193.753906 L 272.171875 193.753906 L 272.71875 190.554688 L 272.539062 190.554688 C 270.53125 193.480469 266.515625 194.761719 263.046875 194.761719 C 253.652344 194.761719 249.542969 187.351562 251.097656 178.839844 C 252.921875 169.140625 260.949219 162.917969 268.886719 162.917969 C 273.722656 162.917969 276.003906 165.300781 276.824219 167.128906 L 277.007812 167.128906 L 277.648438 164.019531 L 286.40625 164.019531 Z M 266.058594 186.527344 C 271.535156 186.527344 274.363281 181.769531 274.910156 178.839844 C 275.546875 175.273438 273.90625 171.339844 268.886719 171.339844 C 263.871094 171.339844 260.765625 175.546875 260.128906 179.023438 C 259.488281 181.769531 260.585938 186.527344 266.058594 186.527344 Z M 308.667969 164.019531 L 303.105469 164.019531 L 304.746094 155.234375 L 296.898438 155.234375 L 296.261719 158.621094 C 295.53125 162.460938 293.160156 163.652344 289.875 164.019531 L 289.78125 164.019531 L 288.503906 170.699219 L 292.882812 170.699219 L 288.6875 193.753906 L 297.539062 193.753906 L 301.734375 170.789062 L 307.390625 170.789062 Z M 345.894531 152.398438 L 354.746094 152.398438 L 352.101562 167.128906 L 352.285156 167.128906 C 354.199219 164.382812 356.753906 162.917969 360.585938 162.917969 C 363.414062 162.917969 366.609375 163.925781 368.066406 166.214844 C 369.984375 169.140625 369.800781 171.703125 368.796875 177.101562 L 365.789062 193.664062 L 356.9375 193.664062 L 359.855469 177.558594 C 360.128906 176.097656 361.042969 171.339844 356.207031 171.339844 C 351.460938 171.339844 350.367188 175.820312 350.183594 177.285156 L 347.171875 193.753906 L 338.324219 193.753906 Z M 345.894531 152.398438 " fill-opacity="1" fill-rule="nonzero"/></g><path fill="#00ac4e" d="M 371.992188 188.355469 C 373.453125 188.355469 374.636719 189.636719 374.636719 191.101562 C 374.636719 192.566406 373.453125 193.847656 371.992188 193.847656 C 370.53125 193.847656 369.34375 192.65625 369.34375 191.101562 C 369.253906 189.636719 370.441406 188.355469 371.992188 188.355469 Z M 371.902344 188.8125 C 370.625 188.8125 369.710938 189.820312 369.710938 191.011719 C 369.710938 192.199219 370.714844 193.207031 371.902344 193.207031 C 373.179688 193.207031 374.089844 192.199219 374.089844 191.011719 C 374.179688 189.820312 373.179688 188.8125 371.902344 188.8125 Z M 372.082031 189.636719 C 372.539062 189.636719 373.179688 189.820312 373.179688 190.460938 C 373.179688 190.734375 373.085938 191.011719 372.722656 191.195312 C 372.996094 191.285156 373.179688 191.46875 373.179688 191.925781 C 373.269531 192.472656 373.269531 192.566406 373.269531 192.65625 L 372.628906 192.65625 C 372.539062 192.566406 372.539062 192.199219 372.539062 191.925781 C 372.539062 191.652344 372.449219 191.46875 371.902344 191.46875 L 371.445312 191.46875 L 371.445312 192.75 L 370.804688 192.75 L 370.804688 189.730469 L 372.082031 189.730469 Z M 371.445312 190.003906 L 371.445312 190.917969 L 371.902344 190.917969 C 372.082031 190.917969 372.539062 190.917969 372.539062 190.460938 C 372.539062 190.003906 372.175781 190.003906 371.902344 190.003906 Z M 371.445312 190.003906 " fill-opacity="1" fill-rule="nonzero"/><path fill="#343131" d="M 11.585938 229.074219 L 10.582031 229.074219 C 10.398438 229.074219 10.214844 229.074219 10.035156 228.984375 C 9.941406 228.890625 9.851562 228.800781 9.761719 228.527344 L 9.488281 227.335938 C 9.210938 227.609375 8.847656 227.886719 8.574219 228.160156 C 8.300781 228.433594 7.933594 228.617188 7.570312 228.800781 C 7.207031 228.984375 6.839844 229.074219 6.476562 229.164062 C 6.109375 229.257812 5.65625 229.257812 5.199219 229.257812 C 4.742188 229.257812 4.195312 229.164062 3.828125 229.074219 C 3.375 228.890625 3.007812 228.707031 2.734375 228.433594 C 2.460938 228.160156 2.1875 227.792969 2.003906 227.425781 C 1.820312 226.96875 1.730469 226.511719 1.730469 225.871094 C 1.730469 225.324219 1.914062 224.867188 2.1875 224.40625 C 2.460938 223.949219 2.917969 223.492188 3.554688 223.125 C 4.195312 222.761719 5.015625 222.488281 6.019531 222.210938 C 7.023438 221.9375 8.210938 221.847656 9.667969 221.847656 L 9.667969 220.839844 C 9.667969 219.832031 9.488281 219.101562 9.03125 218.550781 C 8.574219 218.003906 8.027344 217.820312 7.113281 217.820312 C 6.566406 217.820312 6.109375 217.910156 5.746094 218.003906 C 5.378906 218.09375 5.015625 218.277344 4.742188 218.460938 C 4.195312 218.734375 4.011719 218.828125 3.738281 219.007812 C 3.554688 219.101562 3.375 219.191406 3.191406 219.191406 C 3.007812 219.191406 2.917969 219.191406 2.824219 219.101562 C 2.734375 219.007812 2.644531 218.917969 2.550781 218.828125 L 2.1875 218.09375 C 2.917969 217.453125 3.648438 216.90625 4.46875 216.539062 C 5.289062 216.171875 6.203125 215.988281 7.207031 215.988281 C 7.933594 215.988281 8.574219 216.082031 9.121094 216.355469 C 9.667969 216.628906 10.125 216.90625 10.488281 217.363281 C 10.855469 217.820312 11.128906 218.277344 11.3125 218.917969 C 11.492188 219.558594 11.585938 220.199219 11.585938 220.839844 Z M 5.746094 227.703125 C 6.109375 227.703125 6.476562 227.703125 6.839844 227.609375 C 7.207031 227.519531 7.480469 227.425781 7.753906 227.246094 C 8.027344 227.0625 8.300781 226.878906 8.574219 226.695312 C 8.847656 226.511719 9.121094 226.238281 9.394531 225.964844 L 9.394531 223.308594 C 8.390625 223.308594 7.480469 223.402344 6.75 223.585938 C 6.019531 223.675781 5.472656 223.859375 5.015625 224.132812 C 4.46875 224.226562 4.195312 224.5 4.011719 224.773438 C 3.828125 225.046875 3.738281 225.414062 3.738281 225.6875 C 3.738281 226.054688 3.828125 226.328125 3.921875 226.605469 C 4.011719 226.878906 4.195312 227.0625 4.375 227.246094 C 4.558594 227.425781 4.742188 227.519531 5.015625 227.609375 C 5.199219 227.609375 5.472656 227.703125 5.746094 227.703125 Z M 5.746094 227.703125 " fill-opacity="1" fill-rule="nonzero"/><path fill="#343131" d="M 35.765625 220.015625 C 35.765625 221.386719 35.582031 222.578125 35.125 223.675781 C 34.667969 224.773438 34.121094 225.78125 33.300781 226.511719 C 32.480469 227.335938 31.566406 227.886719 30.472656 228.34375 C 29.378906 228.800781 28.191406 228.984375 26.824219 228.984375 L 20.070312 228.984375 L 20.070312 210.957031 L 26.824219 210.957031 C 28.191406 210.957031 29.378906 211.140625 30.472656 211.597656 C 31.566406 212.054688 32.480469 212.605469 33.300781 213.429688 C 34.121094 214.25 34.667969 215.167969 35.125 216.265625 C 35.582031 217.453125 35.765625 218.644531 35.765625 220.015625 Z M 33.300781 220.015625 C 33.300781 218.917969 33.117188 217.910156 32.84375 216.996094 C 32.570312 216.082031 32.113281 215.347656 31.566406 214.800781 C 31.019531 214.160156 30.382812 213.703125 29.558594 213.429688 C 28.738281 213.152344 27.917969 212.96875 26.914062 212.96875 L 22.625 212.96875 L 22.625 227.0625 L 26.914062 227.0625 C 27.917969 227.0625 28.738281 226.878906 29.558594 226.605469 C 30.382812 226.328125 31.019531 225.871094 31.566406 225.230469 C 32.113281 224.589844 32.570312 223.859375 32.84375 223.035156 C 33.117188 222.121094 33.300781 221.113281 33.300781 220.015625 Z M 33.300781 220.015625 " fill-opacity="1" fill-rule="nonzero"/><path fill="#343131" d="M 43.886719 216.082031 C 44.796875 216.082031 45.617188 216.265625 46.441406 216.539062 C 47.167969 216.8125 47.808594 217.269531 48.355469 217.820312 C 48.902344 218.367188 49.269531 219.101562 49.542969 219.925781 C 49.816406 220.746094 49.996094 221.664062 49.996094 222.667969 C 49.996094 223.675781 49.816406 224.589844 49.542969 225.414062 C 49.269531 226.238281 48.902344 226.878906 48.355469 227.519531 C 47.808594 228.066406 47.167969 228.527344 46.441406 228.800781 C 45.710938 229.074219 44.886719 229.257812 43.886719 229.257812 C 42.972656 229.257812 42.152344 229.074219 41.328125 228.800781 C 40.601562 228.527344 39.960938 228.066406 39.414062 227.519531 C 38.867188 226.96875 38.5 226.238281 38.226562 225.414062 C 37.953125 224.589844 37.773438 223.675781 37.773438 222.667969 C 37.773438 221.664062 37.953125 220.746094 38.226562 219.925781 C 38.5 219.101562 38.957031 218.460938 39.414062 217.820312 C 39.960938 217.269531 40.601562 216.8125 41.328125 216.539062 C 42.152344 216.265625 42.972656 216.082031 43.886719 216.082031 Z M 43.886719 227.519531 C 45.164062 227.519531 46.074219 227.0625 46.714844 226.238281 C 47.351562 225.414062 47.625 224.226562 47.625 222.667969 C 47.625 221.113281 47.351562 219.925781 46.714844 219.101562 C 46.074219 218.277344 45.164062 217.820312 43.886719 217.820312 C 43.246094 217.820312 42.699219 217.910156 42.242188 218.1875 C 41.785156 218.367188 41.421875 218.734375 41.054688 219.101562 C 40.78125 219.558594 40.507812 220.015625 40.328125 220.65625 C 40.144531 221.296875 40.144531 221.9375 40.144531 222.667969 C 40.144531 223.402344 40.234375 224.132812 40.328125 224.683594 C 40.507812 225.324219 40.691406 225.78125 41.054688 226.238281 C 41.328125 226.605469 41.785156 226.96875 42.242188 227.152344 C 42.699219 227.335938 43.246094 227.519531 43.886719 227.519531 Z M 43.886719 227.519531 " fill-opacity="1" fill-rule="nonzero"/><path fill="#343131" d="M 51.09375 216.265625 L 52.828125 216.265625 C 53.007812 216.265625 53.191406 216.355469 53.28125 216.449219 C 53.375 216.539062 53.464844 216.628906 53.554688 216.8125 L 56.019531 225.046875 C 56.109375 225.324219 56.109375 225.6875 56.203125 225.964844 C 56.292969 226.238281 56.292969 226.511719 56.386719 226.785156 C 56.476562 226.511719 56.566406 226.238281 56.566406 225.964844 C 56.660156 225.6875 56.75 225.414062 56.839844 225.046875 L 59.488281 216.8125 C 59.488281 216.722656 59.578125 216.539062 59.667969 216.539062 C 59.761719 216.449219 59.945312 216.449219 60.035156 216.449219 L 61.039062 216.449219 C 61.222656 216.449219 61.3125 216.449219 61.496094 216.539062 C 61.585938 216.628906 61.675781 216.722656 61.675781 216.8125 L 64.324219 225.046875 C 64.414062 225.324219 64.503906 225.597656 64.597656 225.964844 C 64.6875 226.238281 64.777344 226.511719 64.777344 226.785156 C 64.777344 226.511719 64.871094 226.238281 64.960938 225.871094 C 65.054688 225.597656 65.144531 225.324219 65.144531 225.046875 L 67.609375 216.8125 C 67.609375 216.722656 67.699219 216.539062 67.882812 216.449219 C 67.972656 216.355469 68.15625 216.265625 68.335938 216.265625 L 69.980469 216.265625 L 65.875 229.074219 L 64.140625 229.074219 C 63.957031 229.074219 63.777344 228.890625 63.683594 228.617188 L 60.855469 219.925781 C 60.765625 219.742188 60.765625 219.558594 60.671875 219.375 C 60.671875 219.191406 60.582031 219.007812 60.582031 218.828125 C 60.582031 219.007812 60.492188 219.191406 60.492188 219.375 C 60.492188 219.558594 60.398438 219.742188 60.308594 219.925781 L 57.480469 228.617188 C 57.386719 228.890625 57.207031 229.074219 56.933594 229.074219 L 55.289062 229.074219 Z M 51.09375 216.265625 " fill-opacity="1" fill-rule="nonzero"/><path fill="#343131" d="M 83.941406 222.851562 C 83.941406 223.859375 83.847656 224.773438 83.574219 225.597656 C 83.300781 226.421875 82.9375 227.0625 82.480469 227.609375 C 82.023438 228.160156 81.386719 228.617188 80.746094 228.890625 C 80.015625 229.164062 79.195312 229.347656 78.28125 229.347656 C 77.460938 229.347656 76.640625 229.257812 75.726562 228.984375 C 75.726562 228.707031 75.726562 228.527344 75.820312 228.25 C 75.820312 227.976562 75.910156 227.792969 75.910156 227.519531 C 75.910156 227.335938 76.003906 227.246094 76.09375 227.152344 C 76.183594 227.0625 76.277344 226.96875 76.457031 226.96875 C 76.640625 226.96875 76.824219 226.96875 77.097656 227.0625 C 77.371094 227.152344 77.644531 227.152344 78.101562 227.152344 C 78.648438 227.152344 79.105469 227.0625 79.558594 226.878906 C 80.015625 226.695312 80.382812 226.421875 80.65625 226.054688 C 80.929688 225.6875 81.203125 225.230469 81.292969 224.683594 C 81.476562 224.132812 81.566406 223.492188 81.566406 222.761719 L 81.566406 210.867188 L 84.03125 210.867188 L 84.03125 222.851562 Z M 83.941406 222.851562 " fill-opacity="1" fill-rule="nonzero"/><path fill="#343131" d="M 93.15625 216.082031 C 94.066406 216.082031 94.890625 216.265625 95.710938 216.539062 C 96.441406 216.8125 97.078125 217.269531 97.625 217.820312 C 98.175781 218.367188 98.539062 219.101562 98.8125 219.925781 C 99.085938 220.746094 99.269531 221.664062 99.269531 222.667969 C 99.269531 223.675781 99.085938 224.589844 98.8125 225.414062 C 98.539062 226.238281 98.175781 226.878906 97.625 227.519531 C 97.078125 228.066406 96.441406 228.527344 95.710938 228.800781 C 94.980469 229.074219 94.160156 229.257812 93.15625 229.257812 C 92.242188 229.257812 91.421875 229.074219 90.601562 228.800781 C 89.871094 228.527344 89.230469 228.066406 88.683594 227.519531 C 88.136719 226.96875 87.773438 226.238281 87.5 225.414062 C 87.226562 224.589844 87.042969 223.675781 87.042969 222.667969 C 87.042969 221.664062 87.226562 220.746094 87.5 219.925781 C 87.773438 219.101562 88.226562 218.460938 88.683594 217.820312 C 89.230469 217.269531 89.871094 216.8125 90.601562 216.539062 C 91.421875 216.265625 92.242188 216.082031 93.15625 216.082031 Z M 93.15625 227.519531 C 94.433594 227.519531 95.34375 227.0625 95.984375 226.238281 C 96.621094 225.414062 96.898438 224.226562 96.898438 222.667969 C 96.898438 221.113281 96.621094 219.925781 95.984375 219.101562 C 95.34375 218.277344 94.433594 217.820312 93.15625 217.820312 C 92.515625 217.820312 91.96875 217.910156 91.511719 218.1875 C 91.058594 218.367188 90.691406 218.734375 90.328125 219.101562 C 90.054688 219.558594 89.78125 220.015625 89.597656 220.65625 C 89.414062 221.296875 89.414062 221.9375 89.414062 222.667969 C 89.414062 223.402344 89.507812 224.132812 89.597656 224.683594 C 89.78125 225.324219 89.960938 225.78125 90.328125 226.238281 C 90.601562 226.605469 91.058594 226.96875 91.511719 227.152344 C 91.96875 227.335938 92.515625 227.519531 93.15625 227.519531 Z M 93.15625 227.519531 " fill-opacity="1" fill-rule="nonzero"/><path fill="#343131" d="M 102.007812 229.074219 L 102.007812 216.265625 L 103.375 216.265625 C 103.648438 216.265625 103.921875 216.449219 104.011719 216.722656 L 104.195312 218.09375 C 104.742188 217.453125 105.382812 216.996094 106.019531 216.628906 C 106.75 216.265625 107.480469 216.082031 108.394531 216.082031 C 109.121094 216.082031 109.671875 216.171875 110.21875 216.449219 C 110.765625 216.628906 111.222656 216.996094 111.585938 217.453125 C 111.953125 217.910156 112.226562 218.367188 112.40625 219.007812 C 112.589844 219.648438 112.679688 220.289062 112.679688 221.023438 L 112.679688 229.164062 L 110.398438 229.164062 L 110.398438 221.023438 C 110.398438 220.015625 110.21875 219.285156 109.761719 218.734375 C 109.304688 218.1875 108.667969 217.910156 107.753906 217.910156 C 107.117188 217.910156 106.476562 218.09375 105.929688 218.367188 C 105.382812 218.644531 104.835938 219.101562 104.378906 219.648438 L 104.378906 229.074219 Z M 102.007812 229.074219 " fill-opacity="1" fill-rule="nonzero"/><path fill="#343131" d="M 120.984375 216.082031 C 121.714844 216.082031 122.445312 216.171875 123.082031 216.449219 C 123.722656 216.722656 124.269531 217.089844 124.726562 217.546875 C 125.179688 218.003906 125.546875 218.644531 125.820312 219.375 C 126.09375 220.105469 126.183594 220.929688 126.183594 221.753906 C 126.183594 222.121094 126.183594 222.304688 126.09375 222.488281 C 126.003906 222.578125 125.910156 222.667969 125.636719 222.667969 L 117.152344 222.667969 C 117.152344 223.492188 117.242188 224.132812 117.515625 224.773438 C 117.699219 225.414062 117.972656 225.871094 118.339844 226.238281 C 118.703125 226.605469 119.066406 226.96875 119.617188 227.152344 C 120.070312 227.335938 120.621094 227.425781 121.257812 227.425781 C 121.804688 227.425781 122.261719 227.335938 122.71875 227.246094 C 123.175781 227.152344 123.449219 226.96875 123.8125 226.785156 C 124.085938 226.605469 124.359375 226.511719 124.542969 226.328125 C 124.726562 226.238281 124.90625 226.144531 125.089844 226.144531 C 125.273438 226.144531 125.457031 226.238281 125.546875 226.328125 L 126.183594 227.152344 C 125.910156 227.519531 125.546875 227.792969 125.179688 228.066406 C 124.816406 228.34375 124.359375 228.527344 123.902344 228.707031 C 123.449219 228.890625 122.992188 228.984375 122.535156 229.074219 C 122.078125 229.164062 121.625 229.164062 121.167969 229.164062 C 120.253906 229.164062 119.433594 228.984375 118.703125 228.707031 C 117.972656 228.433594 117.335938 227.976562 116.789062 227.425781 C 116.238281 226.878906 115.875 226.144531 115.511719 225.324219 C 115.234375 224.5 115.054688 223.492188 115.054688 222.394531 C 115.054688 221.480469 115.144531 220.65625 115.417969 219.925781 C 115.691406 219.191406 116.058594 218.460938 116.605469 217.910156 C 117.152344 217.363281 117.699219 216.90625 118.519531 216.539062 C 119.25 216.265625 120.070312 216.082031 120.984375 216.082031 Z M 121.074219 217.726562 C 119.980469 217.726562 119.160156 218.003906 118.519531 218.644531 C 117.882812 219.285156 117.515625 220.105469 117.335938 221.207031 L 124.269531 221.207031 C 124.269531 220.65625 124.179688 220.199219 124.085938 219.742188 C 123.902344 219.285156 123.722656 218.917969 123.449219 218.644531 C 123.175781 218.367188 122.808594 218.09375 122.445312 217.910156 C 121.988281 217.820312 121.53125 217.726562 121.074219 217.726562 Z M 121.074219 217.726562 " fill-opacity="1" fill-rule="nonzero"/><path fill="#343131" d="M 136.40625 218.367188 C 136.3125 218.550781 136.128906 218.644531 135.949219 218.644531 C 135.855469 218.644531 135.675781 218.550781 135.492188 218.460938 C 135.308594 218.367188 135.128906 218.277344 134.945312 218.1875 C 134.761719 218.09375 134.488281 218.003906 134.125 217.910156 C 133.847656 217.820312 133.394531 217.726562 133.027344 217.726562 C 132.664062 217.726562 132.296875 217.820312 132.023438 217.910156 C 131.75 218.003906 131.476562 218.09375 131.203125 218.277344 C 131.019531 218.460938 130.839844 218.644531 130.746094 218.828125 C 130.65625 219.007812 130.566406 219.285156 130.566406 219.558594 C 130.566406 219.925781 130.65625 220.199219 130.839844 220.382812 C 131.019531 220.566406 131.292969 220.746094 131.570312 220.929688 C 131.84375 221.113281 132.207031 221.207031 132.664062 221.386719 C 133.027344 221.480469 133.484375 221.664062 133.847656 221.753906 C 134.304688 221.847656 134.671875 222.027344 135.035156 222.210938 C 135.402344 222.394531 135.765625 222.578125 136.128906 222.851562 C 136.40625 223.125 136.679688 223.402344 136.859375 223.765625 C 137.042969 224.132812 137.132812 224.589844 137.132812 225.046875 C 137.132812 225.597656 137.042969 226.144531 136.859375 226.695312 C 136.679688 227.152344 136.3125 227.609375 135.949219 227.976562 C 135.582031 228.34375 135.035156 228.617188 134.398438 228.800781 C 133.757812 228.984375 133.121094 229.074219 132.296875 229.074219 C 131.386719 229.074219 130.566406 228.890625 129.925781 228.617188 C 129.195312 228.34375 128.558594 227.976562 128.101562 227.519531 L 128.648438 226.695312 C 128.738281 226.605469 128.832031 226.511719 128.921875 226.421875 C 129.015625 226.328125 129.105469 226.328125 129.289062 226.328125 C 129.46875 226.328125 129.5625 226.421875 129.742188 226.511719 C 129.925781 226.605469 130.109375 226.785156 130.382812 226.878906 C 130.65625 227.0625 130.929688 227.152344 131.292969 227.246094 C 131.660156 227.335938 132.023438 227.425781 132.570312 227.425781 C 133.027344 227.425781 133.394531 227.335938 133.757812 227.246094 C 134.125 227.152344 134.398438 226.96875 134.578125 226.785156 C 134.761719 226.605469 134.945312 226.328125 135.035156 226.144531 C 135.128906 225.871094 135.21875 225.597656 135.21875 225.324219 C 135.21875 224.957031 135.128906 224.683594 134.945312 224.40625 C 134.761719 224.132812 134.488281 223.949219 134.214844 223.859375 C 133.941406 223.675781 133.574219 223.585938 133.121094 223.402344 C 132.753906 223.308594 132.296875 223.125 131.933594 223.035156 C 131.476562 222.945312 131.113281 222.761719 130.746094 222.578125 C 130.382812 222.394531 130.015625 222.210938 129.652344 221.9375 C 129.378906 221.664062 129.105469 221.386719 128.921875 221.023438 C 128.738281 220.65625 128.648438 220.199219 128.648438 219.648438 C 128.648438 219.191406 128.738281 218.734375 128.921875 218.277344 C 129.105469 217.820312 129.378906 217.453125 129.835938 217.089844 C 130.199219 216.722656 130.65625 216.449219 131.292969 216.265625 C 131.84375 216.082031 132.480469 215.988281 133.210938 215.988281 C 134.03125 215.988281 134.761719 216.082031 135.492188 216.355469 C 136.128906 216.628906 136.769531 216.996094 137.226562 217.453125 Z M 136.40625 218.367188 " fill-opacity="1" fill-rule="nonzero"/><path fill="#343131" d="M 153.558594 218.550781 C 153.464844 218.644531 153.464844 218.734375 153.375 218.734375 C 153.285156 218.828125 153.191406 218.828125 153.101562 218.828125 C 153.011719 218.828125 152.828125 218.734375 152.644531 218.644531 C 152.464844 218.550781 152.28125 218.460938 152.097656 218.277344 C 151.914062 218.1875 151.550781 218.003906 151.277344 217.910156 C 151.003906 217.820312 150.546875 217.726562 150.089844 217.726562 C 149.453125 217.726562 148.90625 217.820312 148.449219 218.09375 C 147.992188 218.277344 147.535156 218.644531 147.261719 219.007812 C 146.988281 219.46875 146.714844 219.925781 146.53125 220.566406 C 146.351562 221.207031 146.257812 221.847656 146.257812 222.578125 C 146.257812 223.308594 146.351562 224.042969 146.53125 224.683594 C 146.714844 225.324219 146.988281 225.78125 147.261719 226.238281 C 147.535156 226.605469 147.992188 226.96875 148.449219 227.152344 C 148.90625 227.335938 149.453125 227.425781 150 227.425781 C 150.546875 227.425781 151.003906 227.335938 151.367188 227.246094 C 151.734375 227.152344 152.007812 226.96875 152.28125 226.785156 C 152.554688 226.605469 152.738281 226.511719 152.828125 226.328125 C 153.011719 226.238281 153.101562 226.144531 153.285156 226.144531 C 153.464844 226.144531 153.648438 226.238281 153.742188 226.328125 L 154.378906 227.152344 C 153.832031 227.792969 153.101562 228.34375 152.28125 228.617188 C 151.460938 228.890625 150.546875 229.074219 149.632812 229.074219 C 148.8125 229.074219 148.082031 228.890625 147.445312 228.617188 C 146.804688 228.34375 146.167969 227.886719 145.710938 227.335938 C 145.164062 226.785156 144.796875 226.054688 144.523438 225.230469 C 144.25 224.40625 144.070312 223.492188 144.070312 222.488281 C 144.070312 221.570312 144.160156 220.65625 144.433594 219.832031 C 144.707031 219.007812 145.074219 218.367188 145.621094 217.726562 C 146.167969 217.179688 146.714844 216.722656 147.535156 216.355469 C 148.265625 215.988281 149.179688 215.898438 150.089844 215.898438 C 151.003906 215.898438 151.734375 216.082031 152.464844 216.355469 C 153.191406 216.628906 153.742188 217.089844 154.289062 217.546875 Z M 153.558594 218.550781 " fill-opacity="1" fill-rule="nonzero"/><path fill="#343131" d="M 161.769531 216.082031 C 162.683594 216.082031 163.503906 216.265625 164.324219 216.539062 C 165.054688 216.8125 165.691406 217.269531 166.242188 217.820312 C 166.789062 218.367188 167.152344 219.101562 167.425781 219.925781 C 167.699219 220.746094 167.882812 221.664062 167.882812 222.667969 C 167.882812 223.675781 167.699219 224.589844 167.425781 225.414062 C 167.152344 226.238281 166.789062 226.878906 166.242188 227.519531 C 165.691406 228.066406 165.054688 228.527344 164.324219 228.800781 C 163.59375 229.074219 162.773438 229.257812 161.769531 229.257812 C 160.855469 229.257812 160.035156 229.074219 159.214844 228.800781 C 158.484375 228.527344 157.847656 228.066406 157.296875 227.519531 C 156.75 226.96875 156.386719 226.238281 156.113281 225.414062 C 155.839844 224.589844 155.65625 223.675781 155.65625 222.667969 C 155.65625 221.664062 155.839844 220.746094 156.113281 219.925781 C 156.386719 219.101562 156.84375 218.460938 157.296875 217.820312 C 157.847656 217.269531 158.484375 216.8125 159.214844 216.539062 C 160.035156 216.265625 160.855469 216.082031 161.769531 216.082031 Z M 161.769531 227.519531 C 163.046875 227.519531 163.960938 227.0625 164.597656 226.238281 C 165.238281 225.414062 165.511719 224.226562 165.511719 222.667969 C 165.511719 221.113281 165.238281 219.925781 164.597656 219.101562 C 163.960938 218.277344 163.046875 217.820312 161.769531 217.820312 C 161.132812 217.820312 160.582031 217.910156 160.128906 218.1875 C 159.671875 218.367188 159.304688 218.734375 158.941406 219.101562 C 158.667969 219.558594 158.394531 220.015625 158.210938 220.65625 C 158.027344 221.296875 158.027344 221.9375 158.027344 222.667969 C 158.027344 223.402344 158.121094 224.132812 158.210938 224.683594 C 158.394531 225.324219 158.578125 225.78125 158.941406 226.238281 C 159.214844 226.605469 159.671875 226.96875 160.128906 227.152344 C 160.582031 227.335938 161.132812 227.519531 161.769531 227.519531 Z M 161.769531 227.519531 " fill-opacity="1" fill-rule="nonzero"/><path fill="#343131" d="M 170.621094 229.074219 L 170.621094 216.265625 L 171.988281 216.265625 C 172.261719 216.265625 172.535156 216.449219 172.628906 216.722656 L 172.808594 218.003906 C 173.265625 217.453125 173.8125 216.90625 174.359375 216.539062 C 174.910156 216.171875 175.636719 215.988281 176.367188 215.988281 C 177.191406 215.988281 177.917969 216.265625 178.46875 216.722656 C 179.015625 217.179688 179.378906 217.820312 179.652344 218.644531 C 179.835938 218.1875 180.019531 217.820312 180.382812 217.453125 C 180.65625 217.089844 181.023438 216.8125 181.386719 216.628906 C 181.75 216.449219 182.117188 216.265625 182.574219 216.171875 C 182.9375 216.082031 183.394531 215.988281 183.851562 215.988281 C 184.488281 215.988281 185.128906 216.082031 185.675781 216.355469 C 186.222656 216.539062 186.679688 216.90625 187.042969 217.269531 C 187.410156 217.726562 187.683594 218.1875 187.863281 218.828125 C 188.046875 219.46875 188.140625 220.105469 188.140625 220.839844 L 188.140625 228.984375 L 185.582031 228.984375 L 185.582031 220.839844 C 185.582031 219.832031 185.402344 219.101562 184.945312 218.550781 C 184.488281 218.003906 183.851562 217.726562 183.027344 217.726562 C 182.664062 217.726562 182.300781 217.820312 181.933594 217.910156 C 181.570312 218.003906 181.296875 218.1875 181.023438 218.460938 C 180.75 218.734375 180.566406 219.007812 180.382812 219.375 C 180.199219 219.742188 180.199219 220.199219 180.199219 220.65625 L 180.199219 228.800781 L 177.917969 228.800781 L 177.917969 220.65625 C 177.917969 219.648438 177.738281 218.828125 177.28125 218.367188 C 176.824219 217.910156 176.277344 217.636719 175.457031 217.636719 C 174.910156 217.636719 174.359375 217.820312 173.90625 218.09375 C 173.449219 218.367188 172.992188 218.828125 172.628906 219.285156 L 172.628906 228.800781 L 170.621094 228.800781 Z M 170.621094 229.074219 " fill-opacity="1" fill-rule="nonzero"/><g clip-path="url(#997093fd41)"><path fill="#343131" d="M 191.242188 233.375 L 191.242188 216.265625 L 192.609375 216.265625 C 192.882812 216.265625 193.15625 216.449219 193.25 216.722656 L 193.429688 218.277344 C 193.976562 217.636719 194.617188 217.089844 195.253906 216.722656 C 195.984375 216.355469 196.808594 216.082031 197.71875 216.082031 C 198.449219 216.082031 199.085938 216.265625 199.726562 216.539062 C 200.363281 216.8125 200.820312 217.269531 201.277344 217.820312 C 201.734375 218.367188 202.007812 219.007812 202.28125 219.832031 C 202.464844 220.65625 202.644531 221.570312 202.644531 222.667969 C 202.644531 223.585938 202.554688 224.5 202.28125 225.324219 C 202.007812 226.144531 201.640625 226.785156 201.1875 227.425781 C 200.730469 227.976562 200.183594 228.527344 199.453125 228.800781 C 198.8125 229.164062 197.992188 229.347656 197.171875 229.347656 C 196.351562 229.347656 195.710938 229.257812 195.164062 228.984375 C 194.617188 228.707031 194.160156 228.34375 193.703125 227.886719 L 193.703125 233.558594 L 191.242188 233.558594 Z M 196.898438 217.910156 C 196.167969 217.910156 195.527344 218.09375 194.980469 218.460938 C 194.433594 218.828125 193.976562 219.285156 193.429688 219.925781 L 193.429688 226.144531 C 193.796875 226.695312 194.25 227.0625 194.800781 227.335938 C 195.253906 227.519531 195.804688 227.703125 196.441406 227.703125 C 197.628906 227.703125 198.539062 227.246094 199.179688 226.421875 C 199.816406 225.597656 200.089844 224.316406 200.089844 222.761719 C 200.089844 221.9375 200 221.207031 199.910156 220.65625 C 199.726562 220.015625 199.542969 219.558594 199.269531 219.191406 C 198.996094 218.828125 198.632812 218.550781 198.265625 218.367188 C 197.902344 217.910156 197.445312 217.910156 196.898438 217.910156 Z M 196.898438 217.910156 " fill-opacity="1" fill-rule="nonzero"/></g><path fill="#343131" d="M 214.507812 229.074219 L 213.503906 229.074219 C 213.320312 229.074219 213.140625 229.074219 212.957031 228.984375 C 212.867188 228.890625 212.773438 228.800781 212.683594 228.527344 L 212.410156 227.335938 C 212.042969 227.609375 211.769531 227.886719 211.40625 228.160156 C 211.132812 228.433594 210.765625 228.617188 210.402344 228.800781 C 210.035156 228.984375 209.671875 229.074219 209.308594 229.164062 C 208.941406 229.257812 208.484375 229.257812 208.03125 229.257812 C 207.574219 229.257812 207.027344 229.164062 206.660156 229.074219 C 206.203125 228.890625 205.839844 228.707031 205.566406 228.433594 C 205.292969 228.160156 205.019531 227.792969 204.835938 227.425781 C 204.652344 226.96875 204.5625 226.511719 204.5625 225.871094 C 204.5625 225.324219 204.746094 224.867188 205.019531 224.40625 C 205.292969 223.949219 205.75 223.492188 206.386719 223.125 C 207.027344 222.761719 207.847656 222.488281 208.851562 222.210938 C 209.855469 221.9375 211.039062 221.847656 212.5 221.847656 L 212.5 220.839844 C 212.5 219.832031 212.316406 219.101562 211.863281 218.550781 C 211.40625 218.003906 210.859375 217.820312 209.945312 217.820312 C 209.398438 217.820312 208.941406 217.910156 208.578125 218.003906 C 208.210938 218.09375 207.847656 218.277344 207.574219 218.460938 C 207.300781 218.644531 207.027344 218.828125 206.84375 218.917969 C 206.660156 219.007812 206.476562 219.101562 206.296875 219.101562 C 206.113281 219.101562 206.023438 219.101562 205.929688 219.007812 C 205.839844 218.917969 205.75 218.828125 205.65625 218.734375 L 205.292969 218.003906 C 206.023438 217.363281 206.753906 216.8125 207.574219 216.449219 C 208.394531 216.082031 209.308594 215.898438 210.308594 215.898438 C 211.039062 215.898438 211.679688 215.988281 212.226562 216.265625 C 212.773438 216.539062 213.230469 216.8125 213.59375 217.269531 C 213.960938 217.726562 214.234375 218.1875 214.417969 218.828125 C 214.597656 219.46875 214.691406 220.105469 214.691406 220.746094 L 214.691406 229.074219 Z M 208.667969 227.703125 C 209.03125 227.703125 209.398438 227.703125 209.761719 227.609375 C 210.128906 227.519531 210.402344 227.425781 210.675781 227.246094 C 210.949219 227.0625 211.222656 226.878906 211.496094 226.695312 C 211.769531 226.511719 212.042969 226.238281 212.316406 225.964844 L 212.316406 223.308594 C 211.3125 223.308594 210.402344 223.402344 209.671875 223.585938 C 208.941406 223.675781 208.394531 223.859375 207.9375 224.132812 C 207.480469 224.316406 207.117188 224.589844 206.933594 224.867188 C 206.753906 225.140625 206.660156 225.507812 206.660156 225.78125 C 206.660156 226.144531 206.753906 226.421875 206.84375 226.695312 C 206.933594 226.96875 207.117188 227.152344 207.300781 227.335938 C 207.480469 227.519531 207.664062 227.609375 207.9375 227.703125 C 208.121094 227.609375 208.394531 227.703125 208.667969 227.703125 Z M 208.667969 227.703125 " fill-opacity="1" fill-rule="nonzero"/><path fill="#343131" d="M 217.882812 229.074219 L 217.882812 216.265625 L 219.253906 216.265625 C 219.527344 216.265625 219.800781 216.449219 219.890625 216.722656 L 220.074219 218.09375 C 220.621094 217.453125 221.257812 216.996094 221.898438 216.628906 C 222.628906 216.265625 223.359375 216.082031 224.269531 216.082031 C 225 216.082031 225.546875 216.171875 226.09375 216.449219 C 226.644531 216.628906 227.097656 216.996094 227.464844 217.453125 C 227.828125 217.910156 228.101562 218.367188 228.285156 219.007812 C 228.46875 219.648438 228.558594 220.289062 228.558594 221.023438 L 228.558594 229.164062 L 226.277344 229.164062 L 226.277344 221.023438 C 226.277344 220.015625 226.09375 219.285156 225.640625 218.734375 C 225.183594 218.1875 224.542969 217.910156 223.632812 217.910156 C 222.992188 217.910156 222.355469 218.09375 221.808594 218.367188 C 221.257812 218.644531 220.710938 219.101562 220.257812 219.648438 L 220.257812 229.074219 Z M 217.882812 229.074219 " fill-opacity="1" fill-rule="nonzero"/><g clip-path="url(#54237c3f84)"><path fill="#343131" d="M 235.21875 232.824219 C 235.128906 233.007812 235.039062 233.101562 234.945312 233.191406 C 234.855469 233.285156 234.671875 233.375 234.398438 233.375 L 232.757812 233.375 L 235.039062 228.34375 L 229.746094 216.355469 L 231.660156 216.355469 C 231.84375 216.355469 232.027344 216.449219 232.117188 216.539062 C 232.207031 216.628906 232.300781 216.722656 232.390625 216.8125 L 235.765625 224.867188 C 235.859375 225.046875 235.949219 225.230469 235.949219 225.414062 C 236.039062 225.597656 236.039062 225.78125 236.132812 225.964844 C 236.222656 225.78125 236.222656 225.597656 236.316406 225.414062 C 236.40625 225.230469 236.40625 225.046875 236.496094 224.867188 L 239.78125 216.8125 C 239.875 216.722656 239.875 216.539062 240.054688 216.449219 C 240.148438 216.355469 240.328125 216.265625 240.421875 216.265625 L 242.246094 216.265625 Z M 235.21875 232.824219 " fill-opacity="1" fill-rule="nonzero"/></g></svg>