<svg xmlns="http://www.w3.org/2000/svg" xmlns:xlink="http://www.w3.org/1999/xlink" width="500" zoomAndPan="magnify" viewBox="0 0 375 374.999991" height="500" preserveAspectRatio="xMidYMid meet" version="1.0"><defs><clipPath id="0153b33568"><path d="M 11 166.875 L 374 166.875 L 374 207.375 L 11 207.375 Z M 11 166.875 " clip-rule="nonzero"/></clipPath></defs><g clip-path="url(#0153b33568)"><path fill="#f16334" d="M 47.386719 207.375 L 45.597656 207.375 L 17.855469 180.207031 L 17.855469 207.375 L 11.195312 207.375 L 11.195312 166.875 L 12.984375 166.875 L 40.726562 193.640625 L 40.726562 166.875 L 47.386719 166.875 Z M 87.953125 190.132812 L 67.769531 190.132812 L 67.769531 201.359375 L 91.632812 201.359375 L 91.632812 207.273438 L 61.109375 207.273438 L 61.109375 166.875 L 91.53125 166.875 L 91.53125 172.789062 L 67.671875 172.789062 L 67.671875 184.417969 L 87.855469 184.417969 L 87.855469 190.132812 Z M 112.613281 207.375 L 105.949219 207.375 L 105.949219 166.875 L 112.613281 166.875 Z M 128.519531 207.375 L 128.519531 166.875 L 135.183594 166.875 L 135.183594 201.460938 L 157.453125 201.460938 L 157.453125 207.375 Z M 170.179688 166.875 L 187.679688 166.875 C 197.722656 166.875 203.886719 171.789062 203.886719 180.609375 C 203.886719 189.933594 197.226562 194.945312 187.28125 194.945312 L 176.84375 194.945312 L 176.84375 207.476562 L 170.179688 207.476562 Z M 187.382812 172.789062 L 176.84375 172.789062 L 176.84375 189.03125 L 187.382812 189.03125 C 193.347656 189.03125 197.125 186.625 197.125 180.910156 C 197.027344 175.496094 193.25 172.789062 187.382812 172.789062 Z M 228.746094 166.875 L 230.039062 166.875 L 250.421875 207.375 L 242.863281 207.375 L 239.878906 201.261719 L 219 201.261719 L 216.019531 207.375 L 208.5625 207.375 Z M 229.640625 179.207031 L 229.242188 179.207031 L 221.984375 195.042969 L 221.585938 195.746094 L 237.195312 195.746094 L 236.796875 195.042969 Z M 253.402344 166.875 L 287.109375 166.875 L 287.109375 172.789062 L 273.585938 172.789062 L 273.585938 207.375 L 266.925781 207.375 L 266.925781 172.789062 L 253.402344 172.789062 Z M 326.78125 190.132812 L 306.597656 190.132812 L 306.597656 201.359375 L 330.460938 201.359375 L 330.460938 207.273438 L 300.035156 207.273438 L 300.035156 166.875 L 330.460938 166.875 L 330.460938 172.789062 L 306.597656 172.789062 L 306.597656 184.417969 L 326.78125 184.417969 Z M 344.777344 207.375 L 344.777344 166.875 L 351.441406 166.875 L 351.441406 201.460938 L 373.710938 201.460938 L 373.710938 207.375 Z M 344.777344 207.375 " fill-opacity="1" fill-rule="nonzero"/></g></svg>