<svg xmlns="http://www.w3.org/2000/svg" xmlns:xlink="http://www.w3.org/1999/xlink" width="500" zoomAndPan="magnify" viewBox="0 0 375 374.999991" height="500" preserveAspectRatio="xMidYMid meet" version="1.0"><defs><clipPath id="da38a46524"><path d="M 15 164.746094 L 361 164.746094 L 361 209.746094 L 15 209.746094 Z M 15 164.746094 " clip-rule="nonzero"/></clipPath></defs><g clip-path="url(#da38a46524)"><path fill="#000000" d="M 41.417969 169.359375 C 41.417969 165.65625 37.835938 164.746094 35.019531 164.746094 L 35.019531 165.277344 C 36.695312 165.277344 37.988281 165.804688 37.988281 167.167969 C 37.988281 167.921875 37.457031 169.058594 35.703125 169.058594 C 34.410156 169.058594 31.589844 168.300781 29.535156 167.546875 C 27.09375 166.636719 24.886719 165.882812 22.980469 165.882812 C 19.25 165.882812 16.582031 168.679688 16.582031 171.855469 C 16.582031 174.65625 18.640625 175.5625 19.402344 175.941406 L 19.554688 175.5625 C 19.171875 175.183594 18.640625 174.804688 18.640625 173.671875 C 18.640625 172.914062 19.402344 171.628906 21.230469 171.628906 C 22.90625 171.628906 25.191406 172.386719 28.160156 173.292969 C 30.753906 174.050781 33.570312 174.578125 35.09375 174.804688 L 35.09375 180.554688 L 32.277344 182.972656 L 32.277344 183.125 L 35.09375 185.546875 L 35.09375 193.5625 C 33.570312 194.46875 31.894531 194.695312 30.449219 194.695312 C 27.628906 194.695312 25.191406 193.941406 23.132812 191.746094 L 30.828125 188.042969 L 30.828125 175.183594 L 21.609375 179.269531 C 22.371094 176.847656 24.429688 175.183594 26.484375 174.050781 L 26.257812 173.519531 C 20.621094 175.03125 15.589844 180.25 15.589844 186.527344 C 15.589844 193.941406 21.761719 199.535156 28.695312 199.535156 C 36.160156 199.535156 41.039062 193.5625 41.039062 187.4375 L 40.734375 187.4375 C 39.589844 189.855469 37.914062 192.050781 35.855469 193.183594 L 35.855469 185.546875 L 38.828125 183.125 L 38.828125 182.972656 L 35.855469 180.554688 L 35.855469 174.804688 C 38.675781 174.804688 41.417969 172.914062 41.417969 169.359375 Z M 25.113281 189.855469 L 22.828125 190.992188 C 21.535156 189.328125 20.773438 187.058594 20.773438 183.957031 C 20.773438 182.671875 20.773438 181.160156 21.152344 180.023438 L 25.113281 178.359375 Z M 45 194.167969 L 42.5625 196.058594 L 42.941406 196.4375 L 44.085938 195.527344 L 48.199219 199.234375 L 53.835938 195.527344 L 53.683594 195.152344 L 52.160156 196.058594 L 50.257812 194.167969 L 50.257812 181.460938 L 51.78125 180.328125 L 54.980469 182.898438 L 54.980469 194.242188 C 54.980469 201.277344 53.457031 202.410156 50.332031 203.546875 L 50.332031 204.074219 C 55.589844 204.226562 60.464844 202.5625 60.464844 193.488281 L 60.464844 181.308594 L 62.140625 180.023438 L 61.761719 179.644531 L 60.238281 180.78125 L 55.511719 176.847656 L 50.257812 180.78125 L 50.257812 165.503906 L 49.875 165.503906 L 43.324219 169.964844 L 43.324219 170.34375 C 44.085938 170.722656 45.226562 171.101562 45.226562 173.140625 C 45.226562 173.140625 45 194.167969 45 194.167969 Z M 79.28125 192.125 L 74.636719 195.679688 L 69.988281 191.972656 L 69.988281 189.703125 L 78.824219 183.730469 L 78.824219 183.578125 L 74.253906 176.847656 L 64.503906 182.066406 L 64.503906 194.320312 L 62.597656 195.832031 L 62.980469 196.210938 L 64.65625 194.921875 L 71.054688 199.535156 L 79.511719 192.804688 C 79.511719 192.804688 79.28125 192.125 79.28125 192.125 Z M 69.910156 188.949219 L 69.910156 179.796875 L 70.292969 179.644531 L 74.40625 186.152344 C 74.40625 186.152344 69.910156 188.949219 69.910156 188.949219 Z M 115.089844 167.695312 C 115.089844 167.167969 114.9375 166.5625 114.710938 166.03125 L 114.328125 166.03125 C 113.796875 167.546875 113.035156 168.300781 111.128906 168.300781 C 109.453125 168.300781 108.308594 167.394531 107.546875 166.636719 L 102.140625 172.765625 L 102.519531 173.140625 L 104.425781 171.476562 C 105.566406 172.386719 106.480469 173.140625 109.070312 173.367188 L 109.070312 188.796875 L 98.023438 169.964844 C 97.109375 168.453125 95.738281 166.410156 93.148438 166.410156 C 90.175781 166.410156 87.511719 168.980469 87.890625 173.140625 L 88.425781 173.140625 C 88.578125 172.007812 89.1875 170.722656 90.480469 170.722656 C 91.394531 170.722656 92.386719 171.628906 92.921875 172.613281 L 92.921875 178.738281 C 89.566406 178.738281 87.28125 180.25 87.28125 183.050781 C 87.28125 184.5625 88.042969 186.753906 90.253906 187.359375 L 90.253906 186.980469 C 89.871094 186.605469 89.71875 186.226562 89.71875 185.695312 C 89.71875 184.789062 90.480469 184.03125 91.777344 184.03125 L 92.691406 184.03125 L 92.691406 191.824219 C 88.730469 191.824219 85.605469 194.089844 85.605469 197.796875 C 85.605469 201.351562 88.578125 203.015625 92.007812 202.789062 L 92.007812 202.410156 C 89.949219 202.257812 89.035156 201.277344 89.035156 199.992188 C 89.035156 198.328125 90.175781 197.570312 91.625 197.570312 C 93.148438 197.570312 94.445312 198.476562 95.359375 199.613281 L 100.765625 193.636719 L 100.386719 193.257812 L 99.089844 194.773438 C 97.035156 192.882812 95.890625 192.351562 93.453125 191.972656 L 93.453125 173.292969 L 108.539062 199.308594 L 109.679688 199.308594 L 109.679688 173.292969 C 112.421875 173.140625 115.089844 170.875 115.089844 167.695312 Z M 128.726562 192.125 L 124.082031 195.679688 L 119.433594 191.972656 L 119.433594 189.703125 L 128.269531 183.730469 L 128.269531 183.578125 L 123.777344 176.847656 L 114.023438 182.066406 L 114.023438 194.320312 L 112.117188 195.832031 L 112.5 196.210938 L 114.175781 194.921875 L 120.574219 199.535156 L 129.03125 192.804688 C 128.957031 192.804688 128.726562 192.125 128.726562 192.125 Z M 119.355469 188.949219 L 119.355469 179.796875 L 119.738281 179.644531 L 123.851562 186.152344 C 123.929688 186.152344 119.355469 188.949219 119.355469 188.949219 Z M 159.277344 178.890625 L 157.984375 179.796875 L 154.402344 176.847656 L 150.289062 180.554688 L 151.964844 182.21875 L 151.964844 196.132812 L 147.46875 193.335938 L 147.46875 181.839844 L 148.992188 180.933594 L 144.652344 176.847656 L 140.535156 180.554688 L 142.210938 182.21875 L 142.210938 195.605469 L 141.679688 195.980469 L 137.71875 193.183594 L 137.71875 182.066406 C 137.71875 179.496094 136.421875 178.738281 134.898438 177.753906 C 133.605469 176.847656 132.839844 176.242188 132.839844 174.957031 C 132.839844 173.824219 133.984375 173.292969 134.519531 172.914062 L 134.519531 172.535156 C 132.992188 172.535156 129.109375 174.050781 129.109375 177.527344 C 129.109375 179.417969 130.023438 180.101562 131.011719 181.082031 C 131.925781 181.992188 132.917969 182.746094 132.917969 184.410156 L 132.917969 195.226562 L 130.859375 196.738281 L 131.242188 197.117188 L 133.144531 195.605469 L 137.488281 199.308594 L 142.136719 196.132812 L 147.394531 199.308594 L 157.296875 193.5625 L 157.296875 181.082031 L 159.734375 179.191406 Z M 194.171875 168.679688 L 192.265625 170.34375 L 188.152344 166.636719 L 181.980469 171.101562 L 181.980469 167.015625 L 181.449219 167.015625 L 181.601562 197.117188 C 181.066406 197.117188 179.316406 196.738281 178.019531 196.359375 L 177.640625 171.25 C 177.640625 169.359375 176.34375 166.789062 172.992188 166.789062 C 169.640625 166.789062 167.355469 169.359375 167.355469 172.007812 L 167.886719 172.007812 C 168.039062 170.875 168.648438 169.964844 169.792969 169.964844 C 170.933594 169.964844 171.847656 170.722656 171.847656 173.140625 L 171.847656 180.402344 C 168.496094 180.554688 166.441406 182.445312 166.441406 184.863281 C 166.441406 186.378906 167.203125 188.570312 169.410156 188.570312 L 169.410156 188.191406 C 168.648438 187.8125 168.496094 187.285156 168.496094 186.90625 C 168.496094 185.773438 169.410156 185.394531 170.933594 185.394531 L 171.695312 185.394531 L 171.695312 196.890625 C 168.878906 197.796875 167.734375 199.839844 167.734375 202.109375 C 167.734375 205.285156 170.171875 207.476562 173.90625 207.476562 C 176.496094 207.476562 178.78125 207.101562 180.992188 206.570312 C 182.894531 206.191406 185.332031 205.664062 186.402344 205.664062 C 187.925781 205.664062 188.457031 206.417969 188.457031 207.328125 C 188.457031 208.613281 187.925781 209.21875 187.164062 209.367188 L 187.164062 209.746094 C 190.132812 209.21875 192.039062 207.328125 192.039062 204.527344 C 192.039062 201.730469 189.21875 200.066406 186.25 200.066406 C 184.722656 200.066406 181.601562 200.597656 179.316406 200.972656 C 176.726562 201.503906 174.058594 201.882812 173.296875 201.882812 C 172 201.882812 170.476562 201.351562 170.476562 199.460938 C 170.476562 197.949219 171.773438 196.664062 174.972656 196.664062 C 176.648438 196.664062 178.707031 196.8125 180.761719 197.417969 C 183.046875 197.949219 185.105469 198.554688 186.933594 198.554688 C 189.753906 198.554688 192.191406 197.644531 192.191406 193.714844 L 192.191406 170.875 L 194.476562 168.980469 Z M 186.476562 180.023438 C 185.941406 180.554688 185.179688 181.160156 184.191406 181.160156 C 183.199219 181.160156 182.285156 180.628906 181.90625 180.023438 L 181.90625 171.78125 L 183.808594 170.496094 L 186.402344 172.914062 C 186.476562 172.914062 186.476562 180.023438 186.476562 180.023438 Z M 186.476562 185.546875 C 186.09375 185.167969 185.179688 184.636719 184.191406 184.636719 C 183.199219 184.636719 182.285156 185.167969 181.90625 185.546875 L 181.90625 180.703125 C 182.285156 181.082031 183.199219 181.613281 184.191406 181.613281 C 185.179688 181.613281 186.09375 181.082031 186.476562 180.703125 Z M 186.476562 194.320312 C 186.476562 195.832031 185.5625 197.269531 183.503906 197.269531 L 181.980469 197.269531 L 181.980469 186.300781 C 182.363281 185.921875 183.277344 185.394531 184.265625 185.394531 C 185.257812 185.394531 185.941406 185.921875 186.554688 186.300781 C 186.476562 186.300781 186.476562 194.320312 186.476562 194.320312 Z M 212.152344 181.082031 L 206.132812 176.773438 L 196.914062 181.992188 L 196.914062 194.089844 L 195.007812 195.605469 L 195.160156 195.980469 L 196.6875 194.847656 L 202.703125 199.308594 L 212.074219 193.714844 C 212.152344 193.789062 212.152344 181.082031 212.152344 181.082031 Z M 202.019531 192.804688 L 202.019531 179.417969 L 206.664062 182.746094 L 206.664062 195.980469 C 206.742188 195.980469 202.019531 192.804688 202.019531 192.804688 Z M 229.980469 177.226562 L 229.597656 177.226562 C 229.066406 177.605469 228.457031 177.980469 227.921875 177.980469 C 227.160156 177.980469 226.246094 177.605469 225.863281 177.074219 L 225.484375 177.074219 L 222.285156 180.628906 L 219.085938 177.074219 L 213.445312 180.78125 L 213.597656 181.160156 L 215.121094 180.25 L 217.027344 182.292969 L 217.027344 194.015625 L 214.589844 195.90625 L 214.96875 196.285156 L 216.113281 195.378906 L 220.609375 199.082031 L 226.398438 195.152344 L 226.246094 194.773438 L 224.570312 195.679688 L 222.285156 193.789062 L 222.285156 180.78125 C 223.199219 181.6875 224.339844 182.671875 225.636719 182.671875 C 228.226562 182.824219 229.75 180.175781 229.980469 177.226562 Z M 252.453125 195.074219 L 246.054688 199.386719 L 237.445312 186.378906 L 243.617188 176.921875 L 243.996094 176.921875 C 244.757812 177.679688 245.902344 178.4375 247.195312 178.4375 C 248.492188 178.4375 249.484375 177.679688 250.015625 176.921875 L 250.398438 176.921875 C 250.246094 180.628906 247.578125 182.898438 245.75 182.898438 C 243.84375 182.898438 242.929688 181.992188 241.789062 181.386719 L 241.253906 182.292969 L 250.625 196.058594 L 252.53125 194.921875 L 252.53125 195.074219 Z M 231.808594 194.167969 L 229.371094 196.058594 L 229.75 196.4375 L 230.894531 195.527344 L 235.007812 199.234375 L 240.644531 195.527344 L 240.265625 195.152344 L 238.738281 196.058594 L 236.835938 194.167969 L 236.835938 165.503906 L 236.683594 165.503906 L 229.902344 169.964844 L 229.902344 170.34375 C 230.664062 170.722656 231.808594 170.875 231.808594 173.140625 C 231.808594 173.140625 231.808594 194.167969 231.808594 194.167969 Z M 283.539062 169.359375 C 283.539062 165.65625 279.957031 164.746094 277.136719 164.746094 L 277.136719 165.277344 C 278.8125 165.277344 280.109375 165.804688 280.109375 167.167969 C 280.109375 167.921875 279.574219 169.058594 277.824219 169.058594 C 276.527344 169.058594 273.710938 168.300781 271.652344 167.546875 C 269.214844 166.789062 267.003906 166.03125 265.101562 166.03125 C 261.367188 166.03125 258.699219 168.832031 258.699219 172.007812 C 258.699219 174.804688 260.757812 175.714844 261.519531 176.089844 L 261.671875 175.714844 C 261.140625 175.335938 260.53125 174.957031 260.53125 173.824219 C 260.53125 173.066406 261.292969 171.78125 263.121094 171.78125 C 264.796875 171.78125 267.082031 172.535156 270.054688 173.445312 C 272.644531 174.199219 275.460938 174.730469 276.984375 174.957031 L 276.984375 180.703125 L 274.167969 183.125 L 274.167969 183.277344 L 276.984375 185.695312 L 276.984375 193.714844 C 275.460938 194.621094 273.785156 194.847656 272.339844 194.847656 C 269.519531 194.847656 267.082031 194.089844 265.023438 191.898438 L 272.71875 188.191406 L 272.71875 175.183594 L 263.347656 179.269531 C 264.261719 176.847656 266.320312 175.183594 268.222656 173.898438 L 268.070312 173.519531 C 262.433594 175.03125 257.40625 180.023438 257.40625 186.378906 C 257.40625 193.789062 263.578125 199.386719 270.511719 199.386719 C 277.976562 199.386719 282.851562 193.410156 282.851562 187.285156 L 282.472656 187.285156 C 281.328125 189.703125 279.652344 191.898438 277.59375 193.03125 L 277.59375 185.394531 L 280.566406 182.972656 L 280.566406 182.824219 L 277.746094 180.402344 L 277.746094 174.804688 C 280.71875 174.804688 283.539062 172.914062 283.539062 169.359375 Z M 267.234375 189.855469 L 264.949219 190.992188 C 263.652344 189.328125 262.890625 187.058594 262.890625 183.957031 C 262.890625 182.671875 263.042969 181.160156 263.425781 180.023438 L 267.386719 178.359375 Z M 290.089844 167.546875 L 289.859375 167.546875 L 286.128906 170.722656 L 286.128906 170.875 L 289.328125 174.425781 L 289.707031 174.425781 L 293.441406 171.25 L 293.441406 171.101562 Z M 295.726562 195.074219 L 294.203125 195.980469 L 292.300781 194.089844 L 292.300781 181.234375 L 294.203125 179.949219 L 293.824219 179.570312 L 292.527344 180.703125 L 289.175781 176.773438 L 283.765625 180.476562 L 284.148438 181.007812 L 285.441406 180.101562 L 287.117188 182.140625 L 287.117188 194.242188 L 284.679688 196.132812 L 284.832031 196.511719 L 286.128906 195.605469 L 290.242188 199.308594 L 295.878906 195.605469 Z M 326.964844 194.847656 L 325.667969 195.753906 L 323.613281 193.863281 L 323.613281 181.308594 L 325.515625 179.796875 L 325.136719 179.417969 L 323.613281 180.703125 L 319.269531 176.773438 L 313.632812 180.703125 L 309.289062 176.773438 L 304.03125 180.703125 L 300.679688 176.773438 L 295.269531 180.476562 L 295.421875 181.007812 L 296.71875 180.101562 L 298.621094 182.140625 L 298.621094 194.242188 L 297.097656 195.753906 L 301.441406 199.308594 L 305.554688 195.605469 L 303.878906 193.941406 L 303.878906 181.308594 L 305.554688 180.175781 L 308.375 182.746094 L 308.375 193.941406 L 306.851562 195.453125 L 311.191406 199.007812 L 315.308594 195.300781 L 313.632812 193.636719 L 313.632812 181.308594 L 315.15625 180.402344 L 318.125 182.972656 L 318.125 194.167969 L 316.832031 195.453125 L 321.171875 199.386719 L 326.964844 195.453125 Z M 343.265625 192.125 L 338.621094 195.679688 L 333.972656 191.972656 L 333.972656 189.703125 L 342.808594 183.730469 L 342.808594 183.578125 L 338.316406 176.847656 L 328.5625 182.066406 L 328.5625 194.695312 L 335.117188 199.308594 L 343.574219 192.578125 C 343.496094 192.65625 343.265625 192.125 343.265625 192.125 Z M 333.898438 188.949219 L 333.898438 179.796875 L 334.277344 179.644531 L 338.390625 186.152344 C 338.390625 186.152344 333.898438 188.949219 333.898438 188.949219 Z M 360.332031 187.285156 L 356.753906 184.488281 C 359.191406 182.445312 360.105469 179.644531 360.105469 177.753906 L 360.105469 176.621094 L 359.722656 176.621094 C 359.34375 177.527344 358.582031 178.511719 357.132812 178.511719 C 355.609375 178.511719 354.695312 177.753906 353.78125 176.621094 L 345.324219 181.234375 L 345.324219 187.964844 L 348.523438 190.386719 C 345.324219 193.183594 344.792969 195 344.792969 196.511719 C 344.792969 198.402344 345.707031 199.6875 347.230469 200.21875 L 347.382812 199.839844 C 347 199.460938 346.621094 199.308594 346.621094 198.328125 C 346.621094 197.796875 347.382812 196.8125 348.90625 196.8125 C 350.808594 196.8125 351.875 198.101562 352.484375 198.703125 L 360.5625 193.863281 L 360.5625 187.132812 C 360.5625 187.285156 360.332031 187.285156 360.332031 187.285156 Z M 358.277344 181.6875 C 356.980469 183.957031 354.164062 186.152344 352.484375 187.285156 L 350.429688 185.621094 L 350.429688 179.117188 C 351.191406 181.007812 353.246094 182.445312 355.304688 182.445312 C 356.601562 182.445312 357.363281 182.21875 358.277344 181.6875 Z M 355.078125 196.585938 C 354.164062 194.546875 351.875 193.03125 349.667969 193.03125 C 349.132812 193.03125 347.609375 193.03125 346.085938 193.941406 C 347 192.425781 349.4375 189.855469 352.636719 187.964844 L 354.925781 189.855469 Z M 355.078125 196.585938 " fill-opacity="1" fill-rule="nonzero"/></g></svg>