<svg xmlns="http://www.w3.org/2000/svg" xmlns:xlink="http://www.w3.org/1999/xlink" width="1366" zoomAndPan="magnify" viewBox="0 0 1024.5 576" height="768" preserveAspectRatio="xMidYMid meet" version="1.0"><defs><clipPath id="e79e7d2cec"><path d="M 248 1 L 753 1 L 753 575.859375 L 248 575.859375 Z M 248 1 " clip-rule="nonzero"/></clipPath><clipPath id="9559ac81f1"><path d="M 247.691406 0.140625 L 774 0.140625 L 774 575.859375 L 247.691406 575.859375 Z M 247.691406 0.140625 " clip-rule="nonzero"/></clipPath></defs><g clip-path="url(#e79e7d2cec)"><path fill="#f5f6f7" d="M 707.144531 192.230469 L 686.097656 192.230469 L 686.097656 171.183594 L 707.144531 171.183594 L 707.144531 172.042969 L 715.886719 160.28125 L 722.003906 165.605469 L 707.144531 180.855469 Z M 727.84375 365.03125 C 714.34375 365.03125 703.402344 375.972656 703.402344 389.472656 C 703.402344 402.96875 714.34375 413.910156 727.84375 413.910156 C 741.339844 413.910156 752.285156 402.96875 752.285156 389.472656 C 752.285156 375.972656 741.339844 365.03125 727.84375 365.03125 Z M 520.933594 61.449219 L 427.625 61.449219 C 417.570312 61.449219 409.425781 69.597656 409.425781 79.648438 L 409.425781 90.089844 C 409.425781 100.140625 417.570312 108.289062 427.625 108.289062 L 510.144531 108.289062 L 520.996094 128.046875 L 520.996094 108.285156 C 531.015625 108.25 539.132812 100.117188 539.132812 90.089844 L 539.132812 79.648438 C 539.132812 69.597656 530.984375 61.449219 520.933594 61.449219 Z M 741.570312 261.230469 L 741.761719 227.636719 C 741.820312 217.28125 733.433594 208.855469 723.078125 208.863281 L 679.332031 208.902344 L 655.644531 208.902344 C 659.589844 205.976562 664.222656 200.875 665.453125 192.535156 C 667.695312 177.296875 667.820312 173.796875 667.820312 173.796875 C 667.820312 173.796875 674.382812 137.125 674.277344 115.515625 C 674.171875 93.902344 675.097656 84.875 669.273438 79.988281 C 663.453125 75.097656 654.886719 67.308594 639.960938 65.117188 L 639.960938 62.53125 C 639.960938 62.53125 651.597656 66.449219 655.269531 64.84375 C 654.5 62.199219 653.492188 57.613281 653.511719 53.023438 C 653.53125 48.4375 653.433594 41.121094 655.011719 33.03125 C 656.589844 24.9375 655.539062 16.132812 651.621094 10.171875 C 647.703125 4.207031 639.160156 0.125 627.28125 1.179688 C 615.398438 2.230469 605.300781 1.4375 600.613281 12.011719 C 595.929688 22.589844 597.15625 29.480469 601.546875 33.03125 C 597.460938 37.734375 597.050781 38.214844 596.847656 39.847656 C 596.644531 41.480469 601.101562 43.21875 601.101562 43.21875 C 601.101562 43.21875 601.21875 55.847656 604.699219 58.160156 C 608.183594 60.476562 618.246094 59.050781 618.246094 59.050781 L 617.78125 66.808594 C 617.78125 66.808594 595.574219 70.011719 589.011719 85.105469 C 582.449219 100.199219 576.398438 134.488281 576.398438 134.488281 C 576.398438 134.488281 572.796875 132.261719 567.734375 133.648438 C 562.675781 135.035156 550.796875 138.394531 546.25 143.703125 L 509.628906 143.703125 C 508.5625 143.703125 507.695312 144.570312 507.695312 145.636719 L 507.695312 207.128906 C 507.695312 207.925781 508.179688 208.605469 508.863281 208.902344 L 429.777344 208.902344 L 429.777344 163.636719 L 353.324219 163.636719 C 348.21875 163.636719 344.078125 167.777344 344.078125 172.882812 L 344.078125 208.902344 L 313.929688 208.902344 C 304.597656 208.902344 297.03125 216.464844 297.03125 225.800781 L 297.03125 480.636719 L 255.585938 480.636719 C 251.640625 480.636719 248.445312 483.832031 248.445312 487.777344 L 248.445312 525.792969 C 248.445312 529.734375 251.640625 532.933594 255.585938 532.933594 L 482.539062 532.933594 L 482.539062 561.582031 L 453.621094 561.582031 C 451.730469 561.582031 450.199219 563.113281 450.199219 565.003906 L 450.199219 571.773438 C 450.199219 573.664062 451.730469 575.199219 453.621094 575.199219 L 584.980469 575.199219 C 586.871094 575.199219 588.402344 573.664062 588.402344 571.773438 L 588.402344 565.003906 C 588.402344 563.113281 586.871094 561.582031 584.980469 561.582031 L 556.0625 561.582031 L 556.0625 521.550781 L 724.671875 521.550781 C 734.003906 521.550781 741.570312 513.984375 741.570312 504.652344 Z M 741.570312 261.230469 " fill-opacity="1" fill-rule="nonzero"/></g><path fill="#00aa67" d="M 727.84375 402.261719 C 722.125 402.261719 708.699219 385.777344 716.132812 380.203125 C 722.667969 375.300781 727.84375 384.5625 727.84375 384.5625 C 727.84375 384.5625 733.015625 375.300781 739.554688 380.203125 C 746.988281 385.777344 733.5625 402.261719 727.84375 402.261719 Z M 770.839844 342.828125 C 766.167969 339.320312 762.464844 345.941406 762.464844 345.941406 C 762.464844 345.941406 758.765625 339.320312 754.089844 342.828125 C 748.773438 346.8125 758.375 358.601562 762.464844 358.601562 C 766.554688 358.601562 776.15625 346.8125 770.839844 342.828125 Z M 370.554688 205.089844 L 364.089844 205.089844 L 364.089844 227.28125 L 370.554688 227.28125 Z M 398.28125 190.519531 L 391.816406 190.519531 L 391.816406 227.28125 L 398.28125 227.28125 Z M 508.621094 352.464844 L 497.210938 355.144531 C 497.210938 355.144531 496.257812 355.296875 494.21875 354.753906 C 492.175781 354.207031 491.085938 354.210938 491.3125 348.609375 C 491.535156 343.007812 499.738281 339.226562 499.738281 339.226562 L 486.59375 320.578125 L 346.347656 432.09375 L 474.609375 379.808594 L 523.875 450.503906 L 636.027344 348.3125 L 655.976562 369.59375 L 679.667969 280.136719 L 592.425781 301.785156 L 612.53125 323.238281 L 531.796875 384.707031 L 513.320312 358.496094 C 507.832031 357.816406 508.621094 352.464844 508.621094 352.464844 Z M 279.65625 491.5 L 284.621094 501.5625 L 295.726562 503.175781 L 287.691406 511.007812 L 289.589844 522.070312 L 279.65625 516.847656 L 269.722656 522.070312 L 271.621094 511.007812 L 263.582031 503.175781 L 274.6875 501.5625 Z M 325.316406 491.5 L 330.28125 501.5625 L 341.386719 503.175781 L 333.351562 511.007812 L 335.246094 522.070312 L 325.316406 516.847656 L 315.382812 522.070312 L 317.277344 511.007812 L 309.242188 503.175781 L 320.347656 501.5625 Z M 370.972656 491.5 L 375.941406 501.5625 L 387.046875 503.175781 L 379.007812 511.007812 L 380.90625 522.070312 L 370.972656 516.847656 L 361.039062 522.070312 L 362.9375 511.007812 L 354.902344 503.175781 L 366.007812 501.5625 Z M 416.632812 491.5 L 421.597656 501.5625 L 432.703125 503.175781 L 424.667969 511.007812 L 426.566406 522.070312 L 416.632812 516.847656 L 406.699219 522.070312 L 408.597656 511.007812 L 400.5625 503.175781 L 411.667969 501.5625 Z M 462.292969 491.5 L 462.292969 516.847656 L 452.359375 522.070312 L 454.257812 511.007812 L 446.21875 503.175781 L 457.324219 501.5625 Z M 715.886719 160.28125 L 698.925781 183.101562 L 693.726562 176.507812 L 688.625 180.949219 L 699.023438 189.1875 L 722.003906 165.605469 Z M 443.398438 80.894531 C 443.398438 85.285156 439.839844 88.84375 435.449219 88.84375 C 431.058594 88.84375 427.5 85.285156 427.5 80.894531 C 427.5 76.503906 431.058594 72.945312 435.449219 72.945312 C 439.839844 72.945312 443.398438 76.503906 443.398438 80.894531 Z M 443.398438 80.894531 " fill-opacity="1" fill-rule="nonzero"/><g clip-path="url(#9559ac81f1)"><path fill="#0a0147" d="M 742.21875 368.941406 L 742.21875 261.230469 L 742.234375 226.625 C 742.234375 216.582031 734.066406 208.414062 724.023438 208.414062 L 657.289062 208.414062 C 657.824219 208.007812 658.324219 207.605469 658.734375 207.21875 C 668.265625 198.234375 668.46875 175.253906 668.46875 173.84375 C 669.070312 170.117188 680.753906 96.640625 672.003906 82.5 C 665.15625 71.429688 644.179688 65.546875 640.609375 64.613281 L 640.609375 63.464844 C 644.535156 64.8125 649.429688 65.492188 655.269531 65.492188 C 655.488281 65.492188 655.691406 65.378906 655.8125 65.195312 C 655.929688 65.011719 655.949219 64.78125 655.859375 64.578125 C 655.832031 64.515625 653.007812 57.859375 654.65625 41.355469 C 654.773438 40.207031 654.9375 38.921875 655.117188 37.53125 C 656.21875 28.980469 657.882812 16.058594 650.753906 7.992188 C 646.367188 3.039062 639.160156 0.53125 629.320312 0.53125 C 629.207031 0.53125 629.09375 0.53125 628.976562 0.53125 C 614.78125 0.613281 606.648438 2.820312 602.605469 7.679688 C 598.917969 12.105469 596.75 19.550781 597.324219 25.785156 C 597.621094 28.972656 598.605469 31.472656 600.183594 33.070312 C 599.09375 34.28125 596.507812 37.3125 596.222656 39.117188 C 595.886719 41.265625 599.136719 43.164062 600.378906 43.808594 C 600.457031 44.675781 600.511719 45.5625 600.5625 46.460938 C 600.808594 50.429688 601.058594 54.535156 603.15625 57.679688 C 605.117188 60.621094 614.695312 60.019531 617.597656 59.761719 L 617.605469 65.582031 C 614.269531 66.417969 595.71875 71.492188 589.59375 82.527344 C 582.289062 95.691406 576.777344 128.140625 575.878906 133.632812 C 573.015625 132.757812 570.097656 132.402344 566.6875 133.203125 C 561.839844 134.335938 554.3125 137.238281 549.3125 140.585938 C 548.03125 141.441406 547.101562 142.289062 546.421875 143.089844 C 546.363281 143.074219 546.3125 143.054688 546.25 143.054688 L 509.628906 143.054688 C 508.207031 143.054688 507.046875 144.214844 507.046875 145.636719 L 507.046875 207.128906 C 507.046875 207.597656 507.183594 208.035156 507.402344 208.414062 L 430.425781 208.414062 L 430.425781 163.636719 C 430.425781 163.277344 430.136719 162.988281 429.777344 162.988281 L 351.570312 162.988281 C 347.082031 162.988281 343.429688 166.640625 343.429688 171.128906 L 343.429688 208.414062 L 314.597656 208.414062 C 304.554688 208.414062 296.382812 216.582031 296.382812 226.625 L 296.382812 479.988281 L 255.621094 479.988281 C 251.304688 479.988281 247.796875 483.496094 247.796875 487.8125 L 247.796875 525.757812 C 247.796875 530.070312 251.304688 533.582031 255.621094 533.582031 L 481.808594 533.582031 L 481.808594 560.933594 L 453.289062 560.933594 C 451.226562 560.933594 449.550781 562.609375 449.550781 564.671875 L 449.550781 572.105469 C 449.550781 573.046875 449.910156 573.894531 450.480469 574.550781 L 422.492188 574.550781 C 422.132812 574.550781 421.84375 574.839844 421.84375 575.199219 C 421.84375 575.558594 422.132812 575.847656 422.492188 575.847656 L 616.109375 575.847656 C 616.46875 575.847656 616.757812 575.558594 616.757812 575.199219 C 616.757812 574.839844 616.46875 574.550781 616.109375 574.550781 L 588.117188 574.550781 C 588.691406 573.894531 589.050781 573.046875 589.050781 572.105469 L 589.050781 564.671875 C 589.050781 562.609375 587.371094 560.933594 585.3125 560.933594 L 556.792969 560.933594 L 556.792969 522.199219 L 724.003906 522.199219 C 734.046875 522.199219 742.21875 514.027344 742.21875 503.984375 L 742.21875 410.078125 C 742.21875 410.054688 742.207031 410.035156 742.207031 410.011719 C 748.679688 405.46875 752.933594 397.964844 752.933594 389.472656 C 752.933594 380.984375 748.6875 373.484375 742.21875 368.941406 Z M 655.472656 209.710938 L 724.023438 209.710938 C 733.351562 209.710938 740.941406 217.296875 740.941406 226.625 L 740.921875 261.226562 C 740.921875 261.226562 740.921875 261.230469 740.921875 261.230469 L 740.921875 368.101562 C 738.613281 366.683594 736.066406 365.621094 733.34375 365.007812 L 733.34375 229.078125 C 733.34375 222.863281 728.289062 217.808594 722.074219 217.808594 L 638.902344 217.808594 C 645.433594 215.097656 651.429688 212.28125 655.4375 209.703125 C 655.453125 209.703125 655.460938 209.710938 655.472656 209.710938 Z M 732.046875 414.9375 C 732.042969 414.964844 732.027344 414.992188 732.027344 415.023438 L 732.027344 487.238281 C 732.027344 492.738281 727.554688 497.210938 722.054688 497.210938 L 691.9375 497.210938 L 691.9375 427.425781 C 691.9375 427.066406 691.648438 426.777344 691.289062 426.777344 L 582.613281 426.777344 C 582.253906 426.777344 581.964844 427.066406 581.964844 427.425781 L 581.964844 497.210938 L 494.152344 497.210938 L 494.152344 487.8125 C 494.152344 483.496094 490.640625 479.988281 486.328125 479.988281 L 306.574219 479.988281 L 306.574219 229.078125 C 306.574219 223.578125 311.046875 219.105469 316.546875 219.105469 L 343.429688 219.105469 L 343.429688 237.28125 C 343.429688 237.640625 343.71875 237.929688 344.078125 237.929688 L 422.289062 237.929688 C 426.777344 237.929688 430.425781 234.277344 430.425781 229.789062 L 430.425781 219.105469 L 533.738281 219.105469 C 528.75 244.53125 522.304688 305.28125 521.980469 308.363281 C 521.945312 308.699219 522.167969 309.003906 522.496094 309.070312 L 525.765625 309.730469 L 523.292969 322.136719 C 521.226562 323.484375 513.371094 328.644531 505.914062 334.046875 C 495.46875 302.078125 465.988281 280.65625 432.25 280.65625 C 389.515625 280.65625 354.746094 315.421875 354.746094 358.15625 C 354.746094 377.011719 361.589844 395.128906 374.007812 409.269531 L 345.941406 431.585938 C 345.691406 431.785156 345.625 432.140625 345.785156 432.421875 C 345.949219 432.699219 346.292969 432.8125 346.589844 432.691406 L 382.886719 417.898438 C 396.730469 429.351562 414.242188 435.660156 432.25 435.660156 C 432.964844 435.660156 433.675781 435.636719 434.382812 435.601562 C 457.253906 434.988281 478.324219 424.574219 492.601562 406.757812 L 523.34375 450.875 C 523.449219 451.027344 523.617188 451.125 523.800781 451.148438 C 523.828125 451.148438 523.851562 451.148438 523.875 451.148438 C 524.035156 451.148438 524.191406 451.089844 524.3125 450.980469 L 635.996094 349.21875 L 655.503906 370.039062 C 655.664062 370.210938 655.910156 370.28125 656.136719 370.222656 C 656.363281 370.167969 656.542969 369.988281 656.601562 369.761719 L 680.296875 280.304688 C 680.351562 280.082031 680.292969 279.847656 680.128906 279.683594 C 679.96875 279.519531 679.734375 279.453125 679.511719 279.507812 L 592.273438 301.15625 C 592.046875 301.214844 591.871094 301.382812 591.804688 301.601562 C 591.742188 301.824219 591.796875 302.0625 591.953125 302.230469 L 611.566406 323.15625 L 531.9375 383.785156 L 514.363281 358.851562 C 514.441406 358.835938 514.527344 358.84375 514.605469 358.824219 L 566.042969 347.5 C 567.328125 347.214844 568.425781 346.449219 569.132812 345.34375 C 569.738281 344.398438 569.972656 343.296875 569.859375 342.199219 C 569.875 342.113281 569.875 342.023438 569.855469 341.933594 C 569.847656 341.898438 569.828125 341.871094 569.816406 341.839844 C 569.804688 341.773438 569.804688 341.703125 569.789062 341.636719 L 567.183594 329.800781 C 567.183594 329.800781 567.183594 329.800781 567.183594 329.796875 L 566.683594 327.53125 L 567.191406 318.089844 L 569.457031 318.546875 C 569.5 318.558594 569.542969 318.5625 569.585938 318.5625 C 569.851562 318.5625 570.09375 318.398438 570.191406 318.140625 L 602.960938 230.691406 C 605.542969 229.878906 621.351562 224.863281 635.746094 219.097656 C 635.761719 219.097656 635.773438 219.105469 635.789062 219.105469 L 722.074219 219.105469 C 727.570312 219.105469 732.046875 223.578125 732.046875 229.078125 L 732.046875 264.609375 C 732.042969 264.640625 732.027344 264.667969 732.027344 264.699219 L 732.027344 279.027344 C 732.027344 279.058594 732.042969 279.085938 732.046875 279.117188 L 732.046875 364.761719 C 730.675781 364.53125 729.277344 364.382812 727.84375 364.382812 C 714.007812 364.382812 702.753906 375.636719 702.753906 389.472656 C 702.753906 403.304688 714.007812 414.558594 727.84375 414.558594 C 729.277344 414.558594 730.675781 414.410156 732.046875 414.179688 Z M 690.640625 497.210938 L 583.261719 497.210938 L 583.261719 428.074219 L 690.640625 428.074219 Z M 563.234375 209.710938 C 557.863281 222.136719 540.546875 302.386719 538.695312 311.015625 L 523.332031 307.914062 C 524.15625 300.179688 532.882812 219.355469 537.503906 209.710938 Z M 613.003906 322.792969 L 593.65625 302.148438 L 678.761719 281.03125 L 655.648438 368.300781 L 636.503906 347.867188 C 636.261719 347.609375 635.855469 347.589844 635.59375 347.832031 L 523.984375 449.527344 L 475.140625 379.4375 C 474.96875 379.1875 474.644531 379.089844 474.367188 379.207031 L 434.269531 395.550781 C 434.265625 395.550781 434.265625 395.554688 434.261719 395.554688 L 350.289062 429.785156 L 486.460938 321.511719 L 498.980469 339.273438 C 494.699219 342.667969 491.449219 345.667969 490.980469 347.265625 C 490.207031 349.898438 490.402344 351.1875 490.738281 352.601562 C 491.222656 354.613281 493.644531 355.796875 495.863281 355.796875 C 496.28125 355.796875 496.691406 355.753906 497.078125 355.671875 L 507.984375 353.269531 C 507.945312 354.222656 508.082031 354.976562 508.269531 355.753906 C 508.710938 357.597656 510.773438 358.734375 512.824219 358.914062 L 531.269531 385.082031 C 531.371094 385.226562 531.523438 385.324219 531.699219 385.347656 C 531.871094 385.378906 532.050781 385.332031 532.191406 385.222656 L 612.921875 323.75 C 613.066406 323.640625 613.160156 323.472656 613.175781 323.289062 C 613.191406 323.105469 613.128906 322.925781 613.003906 322.792969 Z M 412.375 405.875 C 416.070312 420.550781 421.242188 430.347656 427.054688 434.019531 C 414.855469 432.410156 403.488281 425.136719 394.546875 413.144531 Z M 393.304688 413.652344 C 400.148438 422.925781 408.421875 429.460938 417.425781 432.886719 C 405.328125 430.484375 393.914062 425.171875 384.261719 417.335938 Z M 413.585938 405.382812 L 434.632812 396.804688 C 440.71875 396.9375 446.691406 397.585938 452.449219 398.710938 C 448.160156 420.695312 440.589844 434.363281 432.25 434.363281 C 425.085938 434.363281 418.128906 423.535156 413.585938 405.382812 Z M 453.964844 397.710938 C 454.519531 394.722656 455.019531 391.59375 455.453125 388.316406 L 474.375 380.601562 L 481.492188 390.820312 C 479.78125 395.859375 477.691406 400.558594 475.289062 404.863281 C 468.71875 401.699219 461.53125 399.296875 453.964844 397.710938 Z M 474.648438 405.992188 C 465.539062 421.699219 452.191406 431.929688 437.648438 433.976562 C 444.441406 429.664062 450.183594 417.214844 453.722656 398.984375 C 461.148438 400.539062 468.199219 402.894531 474.648438 405.992188 Z M 452.691406 397.4375 C 447.777344 396.476562 442.707031 395.867188 437.542969 395.617188 L 454.066406 388.882812 C 453.660156 391.851562 453.203125 394.707031 452.691406 397.4375 Z M 475.808594 406.566406 C 479.3125 408.316406 482.628906 410.289062 485.722656 412.46875 C 475.003906 423.089844 461.480469 430.175781 446.699219 432.984375 C 458.140625 428.691406 468.375 419.414062 475.808594 406.566406 Z M 486.660156 411.539062 C 483.476562 409.28125 480.058594 407.25 476.453125 405.441406 C 478.738281 401.339844 480.734375 396.882812 482.40625 392.128906 L 491.832031 405.65625 C 490.195312 407.71875 488.46875 409.679688 486.660156 411.539062 Z M 506.015625 335.589844 C 511.8125 331.355469 518.457031 326.835938 523.914062 323.277344 L 532.992188 327.875 L 532.464844 330.871094 C 525.214844 335.816406 515.472656 342.753906 510.949219 347.226562 L 492.1875 351.359375 C 492.046875 351.386719 491.9375 351.46875 491.847656 351.570312 C 491.671875 350.570312 491.671875 349.507812 492.222656 347.628906 C 492.773438 345.761719 498.707031 340.917969 505.984375 335.609375 C 505.996094 335.601562 506.003906 335.597656 506.015625 335.589844 Z M 500 338.472656 L 487.121094 320.203125 C 487.019531 320.058594 486.863281 319.960938 486.6875 319.9375 C 486.503906 319.914062 486.328125 319.960938 486.191406 320.070312 L 482.101562 323.320312 C 480.488281 318.871094 478.605469 314.707031 476.488281 310.859375 C 480.09375 309.046875 483.515625 307.007812 486.707031 304.738281 C 494.8125 313.015625 501.089844 323.226562 504.816406 334.84375 C 503.152344 336.066406 501.527344 337.285156 500 338.472656 Z M 386.4375 399.382812 C 380.851562 387.273438 377.855469 373.28125 377.769531 358.804688 L 407.101562 358.804688 C 407.121094 366.730469 407.523438 374.53125 408.296875 382.003906 Z M 410.511719 318.613281 C 408.371094 329.953125 407.136719 343.210938 407.097656 357.507812 L 377.765625 357.507812 C 377.867188 340.179688 382.132812 324.21875 389.222656 311.472656 C 395.789062 314.636719 402.960938 317.03125 410.511719 318.613281 Z M 389.859375 310.339844 C 398.8125 294.847656 412.007812 284.34375 426.953125 282.316406 C 420.050781 286.707031 414.269531 299.558594 410.753906 317.339844 C 403.34375 315.789062 396.304688 313.441406 389.859375 310.339844 Z M 409.511719 381.039062 C 408.796875 373.863281 408.417969 366.398438 408.398438 358.804688 L 437.472656 358.804688 Z M 439.105469 357.507812 L 408.394531 357.507812 C 408.433594 343.390625 409.675781 330.175781 411.8125 318.871094 C 418.394531 320.15625 425.246094 320.835938 432.25 320.835938 C 439.234375 320.835938 446.066406 320.160156 452.628906 318.882812 C 454.109375 326.570312 455.179688 335.144531 455.710938 344.304688 Z M 456.945312 343.320312 C 456.390625 334.40625 455.355469 326.089844 453.925781 318.625 C 461.519531 317.042969 468.730469 314.636719 475.332031 311.449219 C 477.492188 315.363281 479.40625 319.617188 481.03125 324.171875 Z M 453.667969 317.355469 C 450.085938 299.46875 444.222656 286.648438 437.40625 282.296875 C 452.199219 284.21875 465.542969 294.351562 474.695312 310.316406 C 468.214844 313.441406 461.132812 315.800781 453.667969 317.355469 Z M 475.851562 309.730469 C 468.480469 296.84375 458.414062 287.664062 447.03125 283.382812 C 461.859375 286.273438 475.273438 293.449219 485.777344 303.808594 C 482.671875 306 479.351562 307.972656 475.851562 309.730469 Z M 452.378906 317.609375 C 445.898438 318.871094 439.148438 319.539062 432.25 319.539062 C 425.332031 319.539062 418.5625 318.867188 412.066406 317.597656 C 416.292969 296.203125 423.757812 281.953125 432.25 281.953125 C 440.484375 281.953125 448.066406 296.164062 452.378906 317.609375 Z M 388.71875 309.761719 C 385.230469 308.019531 381.921875 306.058594 378.828125 303.878906 C 389.28125 293.589844 402.675781 286.292969 417.628906 283.375 C 406.074219 287.738281 396.007812 297.132812 388.71875 309.761719 Z M 377.898438 304.8125 C 381.078125 307.066406 384.488281 309.089844 388.078125 310.890625 C 380.890625 323.824219 376.574219 339.976562 376.46875 357.507812 L 356.058594 357.507812 C 356.234375 337.011719 364.535156 318.425781 377.898438 304.8125 Z M 376.464844 358.804688 C 376.550781 373.582031 379.628906 387.875 385.382812 400.222656 L 375.023438 408.460938 C 362.925781 394.714844 356.214844 377.132812 356.058594 358.804688 Z M 509.714844 354.511719 C 509.574219 354.542969 509.464844 354.625 509.378906 354.722656 C 509.199219 353.722656 509.203125 352.664062 509.753906 350.785156 C 509.917969 350.222656 510.578125 349.390625 511.605469 348.359375 C 511.628906 348.339844 511.644531 348.316406 511.667969 348.296875 C 516.84375 343.140625 531.222656 333.09375 541.441406 326.429688 L 550.519531 331.03125 L 549.558594 336.480469 C 549.511719 336.746094 549.636719 337.019531 549.875 337.152344 C 549.972656 337.210938 550.085938 337.242188 550.199219 337.242188 C 550.347656 337.242188 550.496094 337.191406 550.613281 337.089844 L 555.449219 333.046875 L 566.058594 330.710938 L 568.449219 341.578125 Z M 565.90625 317.878906 L 565.386719 327.550781 C 565.382812 327.609375 565.386719 327.667969 565.398438 327.722656 L 565.78125 329.445312 L 555.015625 331.816406 C 554.914062 331.839844 554.820312 331.882812 554.738281 331.953125 L 551.144531 334.957031 L 551.878906 330.78125 C 551.929688 330.503906 551.789062 330.222656 551.535156 330.089844 L 542.132812 325.328125 L 544.492188 313.507812 L 565.917969 317.832031 C 565.914062 317.847656 565.90625 317.863281 565.90625 317.878906 Z M 540.820312 325.289062 C 539.765625 325.976562 537.203125 327.660156 533.957031 329.855469 L 534.351562 327.628906 C 534.402344 327.347656 534.261719 327.066406 534.007812 326.9375 L 524.605469 322.171875 L 527.039062 309.984375 L 539.054688 312.410156 C 539.054688 312.410156 539.058594 312.410156 539.058594 312.414062 C 539.058594 312.414062 539.058594 312.414062 539.0625 312.414062 L 543.222656 313.253906 Z M 657.847656 206.277344 C 648.53125 215.058594 602.734375 229.402344 602.273438 229.546875 C 602.082031 229.605469 601.929688 229.75 601.859375 229.9375 L 569.171875 317.167969 L 539.964844 311.273438 C 541.71875 303.121094 559.808594 219.421875 564.664062 209.710938 L 586.234375 209.710938 C 587.789062 209.710938 588.496094 209.621094 588.929688 209.375 L 631.933594 185.054688 C 632.96875 184.46875 633.460938 183.300781 633.160156 182.152344 C 632.855469 181 631.855469 180.226562 630.664062 180.226562 L 588.816406 180.226562 L 588.816406 177.964844 L 596.980469 174.445312 L 667.164062 174.445312 C 667.074219 178.3125 666.203125 198.394531 657.847656 206.277344 Z M 596.199219 159.191406 L 596.199219 173.371094 L 588.816406 176.554688 L 588.816406 157.132812 C 590.128906 157.527344 592.761719 158.300781 596.199219 159.191406 Z M 588.816406 181.523438 L 630.664062 181.523438 C 631.394531 181.523438 631.785156 182.019531 631.90625 182.480469 C 632.027344 182.945312 631.929688 183.566406 631.296875 183.925781 L 588.636719 208.050781 C 588.75 207.765625 588.816406 207.457031 588.816406 207.128906 Z M 604.234375 56.960938 C 602.332031 54.105469 602.089844 50.179688 601.859375 46.382812 C 601.796875 45.347656 601.734375 44.320312 601.636719 43.328125 C 601.617188 43.101562 601.476562 42.902344 601.273438 42.804688 C 599.605469 42 597.335938 40.390625 597.503906 39.320312 C 597.738281 37.816406 600.519531 34.589844 601.570312 33.476562 C 601.589844 33.457031 601.59375 33.433594 601.609375 33.417969 C 601.640625 33.375 601.667969 33.332031 601.6875 33.285156 C 601.703125 33.25 601.710938 33.21875 601.71875 33.183594 C 601.726562 33.152344 601.742188 33.128906 601.746094 33.101562 C 602.859375 22.808594 606.265625 14.0625 607.625 11.648438 C 610.28125 13.550781 622.097656 22.363281 629.621094 33.523438 C 629.816406 33.8125 630.199219 33.898438 630.5 33.714844 C 630.730469 33.574219 636.238281 30.296875 640.28125 35.265625 C 642.054688 37.4375 642.210938 40.382812 640.683594 42.765625 C 639.132812 45.179688 635.59375 47.269531 630.324219 45.902344 C 629.96875 45.808594 629.625 46.015625 629.535156 46.359375 C 629.46875 46.605469 627.941406 52.425781 631.941406 57.660156 C 633.667969 59.921875 636.132812 61.699219 639.3125 62.984375 C 639.3125 63 639.3125 63.015625 639.3125 63.03125 L 639.3125 64.890625 C 638.453125 65.925781 633.359375 71.601562 624.785156 71.601562 C 622.621094 71.601562 621.023438 71.035156 620.03125 69.917969 C 618.648438 68.363281 618.886719 66.191406 618.894531 66.09375 L 618.894531 59.050781 C 618.894531 58.867188 618.816406 58.691406 618.683594 58.566406 C 618.5625 58.460938 618.40625 58.402344 618.246094 58.402344 C 618.226562 58.402344 618.203125 58.402344 618.179688 58.40625 C 613.488281 58.898438 605.554688 58.941406 604.234375 56.960938 Z M 590.730469 83.15625 C 596.34375 73.039062 613.660156 67.964844 617.585938 66.929688 C 617.632812 67.898438 617.898438 69.460938 619.050781 70.769531 C 620.296875 72.179688 622.226562 72.898438 624.785156 72.898438 C 633.722656 72.898438 638.980469 67.308594 640.203125 65.851562 C 643.316406 66.675781 664.34375 72.574219 670.902344 83.179688 C 679.050781 96.355469 668.351562 166.238281 667.269531 173.148438 L 597.496094 173.148438 L 597.496094 159.523438 C 605.6875 161.597656 617.636719 164.121094 627.257812 164.121094 C 633.324219 164.121094 638.46875 163.117188 641.160156 160.367188 C 647.066406 154.320312 662.742188 129.886719 663.40625 128.851562 C 663.507812 128.699219 663.535156 128.507812 663.488281 128.332031 C 663.441406 128.15625 663.320312 128.007812 663.160156 127.925781 L 641.253906 116.59375 C 640.964844 116.441406 640.609375 116.53125 640.425781 116.800781 L 626.019531 137.640625 C 625.238281 138.765625 624.019531 139.480469 622.667969 139.601562 C 612.714844 140.492188 603.925781 140.675781 597.496094 140.160156 L 597.496094 122.464844 C 597.496094 122.148438 597.269531 121.878906 596.957031 121.824219 L 579.949219 118.929688 C 582.421875 106.953125 586.277344 91.179688 590.730469 83.15625 Z M 579.6875 120.203125 L 596.199219 123.011719 L 596.199219 140.042969 C 594.527344 139.875 593.03125 139.65625 591.75 139.382812 C 587.863281 138.558594 584.703125 137.195312 581.648438 135.878906 C 580.09375 135.210938 578.609375 134.570312 577.128906 134.042969 C 577.402344 132.375 578.304688 127.003906 579.6875 120.203125 Z M 550.035156 141.664062 C 554.90625 138.402344 562.25 135.574219 566.984375 134.464844 C 572.234375 133.230469 576.359375 135.007812 581.132812 137.066406 C 584.101562 138.347656 587.464844 139.800781 591.480469 140.652344 C 592.996094 140.976562 594.804688 141.222656 596.847656 141.402344 C 603.414062 141.980469 612.488281 141.8125 622.785156 140.894531 C 624.519531 140.738281 626.085938 139.820312 627.085938 138.375 L 641.164062 118.007812 L 661.933594 128.75 C 659.4375 132.613281 645.542969 154.023438 640.230469 159.460938 C 631.21875 168.679688 590.269531 156.226562 588.429688 155.660156 C 588.414062 155.652344 588.402344 155.652344 588.386719 155.644531 C 588.375 155.644531 588.34375 155.632812 588.339844 155.632812 C 588.328125 155.628906 588.320312 155.632812 588.308594 155.628906 C 588.261719 155.621094 588.21875 155.601562 588.167969 155.601562 C 588.136719 155.601562 588.109375 155.617188 588.078125 155.621094 C 588.054688 155.621094 588.03125 155.613281 588.007812 155.617188 C 582.160156 156.90625 575.1875 153.007812 575.121094 152.96875 C 574.972656 152.882812 574.800781 152.863281 574.636719 152.902344 C 573.714844 153.140625 572.464844 153.511719 571.042969 153.933594 C 567.414062 155.011719 562.445312 156.488281 559.214844 156.753906 C 557.824219 156.867188 556.824219 156.6875 556.476562 156.257812 C 556.277344 156.015625 556.257812 155.628906 556.410156 155.109375 C 556.421875 155.070312 556.417969 155.03125 556.421875 154.992188 C 562.222656 152.648438 568.398438 151.246094 568.464844 151.230469 C 568.816406 151.152344 569.035156 150.804688 568.957031 150.457031 C 568.878906 150.105469 568.527344 149.890625 568.183594 149.964844 C 568.109375 149.980469 560.941406 151.609375 554.710938 154.300781 C 552.96875 155.050781 551.679688 154.929688 551.171875 153.972656 C 550.832031 153.328125 550.992188 152.527344 551.355469 152.296875 C 551.375 152.285156 551.386719 152.265625 551.402344 152.25 C 559.53125 147.84375 566.015625 145.699219 566.085938 145.675781 C 566.425781 145.566406 566.609375 145.199219 566.5 144.859375 C 566.386719 144.515625 566.023438 144.332031 565.683594 144.445312 C 565.609375 144.46875 558.292969 146.882812 549.425781 151.859375 C 548.550781 152.351562 547.515625 151.953125 547.101562 151.273438 C 546.503906 150.289062 547.242188 148.945312 549.035156 147.765625 C 558.46875 141.542969 564.855469 140.671875 564.917969 140.660156 C 565.273438 140.617188 565.527344 140.292969 565.480469 139.9375 C 565.4375 139.582031 565.085938 139.332031 564.757812 139.375 C 564.496094 139.40625 558.429688 140.234375 549.226562 146.101562 C 549.203125 146.113281 549.175781 146.113281 549.152344 146.125 C 547.707031 146.917969 546.683594 146.894531 546.421875 146.460938 C 546.003906 145.777344 546.867188 143.78125 550.035156 141.664062 Z M 508.34375 207.128906 L 508.34375 145.636719 C 508.34375 144.929688 508.921875 144.351562 509.628906 144.351562 L 545.519531 144.351562 C 544.917969 145.480469 544.898438 146.453125 545.3125 147.132812 C 545.570312 147.558594 546.050781 147.90625 546.742188 148.011719 C 545.386719 149.503906 545.390625 150.957031 545.996094 151.949219 C 546.554688 152.863281 547.554688 153.375 548.582031 153.375 C 548.957031 153.375 549.328125 153.28125 549.6875 153.136719 C 549.679688 153.621094 549.785156 154.125 550.027344 154.582031 C 550.257812 155.011719 551.003906 156.085938 552.722656 156.085938 C 553.351562 156.085938 554.117188 155.933594 555.027344 155.566406 C 554.996094 156.152344 555.132812 156.664062 555.46875 157.074219 C 556.128906 157.886719 557.390625 158.207031 559.324219 158.046875 C 562.6875 157.769531 567.730469 156.269531 571.414062 155.175781 C 572.691406 154.792969 573.832031 154.457031 574.714844 154.222656 C 575.980469 154.902344 581.949219 157.867188 587.519531 157.015625 L 587.519531 177.191406 C 587.367188 177.375 587.3125 177.632812 587.414062 177.867188 C 587.4375 177.917969 587.484375 177.949219 587.519531 177.992188 L 587.519531 207.128906 C 587.519531 207.835938 586.945312 208.414062 586.234375 208.414062 L 509.628906 208.414062 C 508.921875 208.414062 508.34375 207.835938 508.34375 207.128906 Z M 509.628906 209.710938 L 536.097656 209.710938 C 535.449219 211.355469 534.742188 214.160156 533.996094 217.808594 L 430.425781 217.808594 L 430.425781 209.710938 Z M 344.726562 171.128906 C 344.726562 167.355469 347.796875 164.285156 351.570312 164.285156 L 429.128906 164.285156 L 429.128906 229.789062 C 429.128906 233.5625 426.058594 236.632812 422.289062 236.632812 L 344.726562 236.632812 Z M 297.679688 226.625 C 297.679688 217.296875 305.269531 209.710938 314.597656 209.710938 L 343.429688 209.710938 L 343.429688 217.808594 L 316.546875 217.808594 C 310.332031 217.808594 305.277344 222.863281 305.277344 229.078125 L 305.277344 479.988281 L 297.679688 479.988281 Z M 249.09375 525.757812 L 249.09375 487.8125 C 249.09375 484.214844 252.019531 481.285156 255.621094 481.285156 L 486.328125 481.285156 C 489.925781 481.285156 492.855469 484.214844 492.855469 487.8125 L 492.855469 525.757812 C 492.855469 529.355469 489.925781 532.285156 486.328125 532.285156 L 255.621094 532.285156 C 252.019531 532.285156 249.09375 529.355469 249.09375 525.757812 Z M 587.753906 564.671875 L 587.753906 572.105469 C 587.753906 573.453125 586.660156 574.550781 585.3125 574.550781 L 453.289062 574.550781 C 451.941406 574.550781 450.847656 573.453125 450.847656 572.105469 L 450.847656 564.671875 C 450.847656 563.324219 451.941406 562.230469 453.289062 562.230469 L 585.3125 562.230469 C 586.660156 562.230469 587.753906 563.324219 587.753906 564.671875 Z M 555.496094 560.933594 L 483.101562 560.933594 L 483.101562 533.582031 L 486.328125 533.582031 C 490.640625 533.582031 494.152344 530.070312 494.152344 525.757812 L 494.152344 522.199219 L 555.496094 522.199219 Z M 740.921875 503.984375 C 740.921875 513.3125 733.332031 520.902344 724.003906 520.902344 L 494.152344 520.902344 L 494.152344 498.507812 L 722.054688 498.507812 C 728.269531 498.507812 733.324219 493.453125 733.324219 487.238281 L 733.324219 480.722656 C 733.328125 480.695312 733.34375 480.667969 733.34375 480.636719 L 733.34375 413.933594 C 736.066406 413.320312 738.613281 412.257812 740.921875 410.839844 Z M 727.84375 413.261719 C 714.726562 413.261719 704.050781 402.589844 704.050781 389.472656 C 704.050781 376.351562 714.726562 365.679688 727.84375 365.679688 C 740.960938 365.679688 751.636719 376.351562 751.636719 389.472656 C 751.636719 402.589844 740.960938 413.261719 727.84375 413.261719 Z M 427.621094 108.9375 L 509.761719 108.9375 L 520.425781 128.359375 C 520.542969 128.566406 520.761719 128.695312 520.996094 128.695312 C 521.046875 128.695312 521.101562 128.6875 521.15625 128.671875 C 521.441406 128.601562 521.644531 128.339844 521.644531 128.046875 L 521.644531 108.917969 C 531.703125 108.542969 539.78125 100.230469 539.78125 90.089844 L 539.78125 79.648438 C 539.78125 69.253906 531.324219 60.800781 520.933594 60.800781 L 427.621094 60.800781 C 417.230469 60.800781 408.777344 69.253906 408.777344 79.648438 L 408.777344 90.089844 C 408.777344 100.480469 417.230469 108.9375 427.621094 108.9375 Z M 410.074219 79.648438 C 410.074219 69.96875 417.945312 62.097656 427.621094 62.097656 L 520.933594 62.097656 C 530.609375 62.097656 538.484375 69.96875 538.484375 79.648438 L 538.484375 90.089844 C 538.484375 99.734375 530.636719 107.605469 520.992188 107.636719 C 520.636719 107.636719 520.347656 107.925781 520.347656 108.285156 L 520.347656 125.519531 L 510.714844 107.976562 C 510.601562 107.769531 510.382812 107.640625 510.144531 107.640625 L 427.621094 107.640625 C 417.945312 107.640625 410.074219 99.765625 410.074219 90.089844 Z M 356.265625 227.929688 L 417.59375 227.929688 C 417.949219 227.929688 418.242188 227.640625 418.242188 227.28125 C 418.242188 226.925781 417.949219 226.632812 417.59375 226.632812 L 412.792969 226.632812 L 412.792969 173.636719 C 412.792969 173.277344 412.503906 172.988281 412.144531 172.988281 L 405.683594 172.988281 C 405.324219 172.988281 405.035156 173.277344 405.035156 173.636719 L 405.035156 226.632812 L 398.929688 226.632812 L 398.929688 190.519531 C 398.929688 190.160156 398.640625 189.871094 398.28125 189.871094 L 391.816406 189.871094 C 391.460938 189.871094 391.167969 190.160156 391.167969 190.519531 L 391.167969 226.632812 L 385.066406 226.632812 L 385.066406 197.191406 C 385.066406 196.832031 384.777344 196.542969 384.417969 196.542969 L 377.953125 196.542969 C 377.597656 196.542969 377.304688 196.832031 377.304688 197.191406 L 377.304688 226.632812 L 371.203125 226.632812 L 371.203125 205.089844 C 371.203125 204.730469 370.914062 204.441406 370.554688 204.441406 L 364.089844 204.441406 C 363.730469 204.441406 363.441406 204.730469 363.441406 205.089844 L 363.441406 226.632812 L 356.914062 226.632812 L 356.914062 173.636719 C 356.914062 173.277344 356.625 172.988281 356.265625 172.988281 C 355.90625 172.988281 355.617188 173.277344 355.617188 173.636719 L 355.617188 227.28125 C 355.617188 227.640625 355.90625 227.929688 356.265625 227.929688 Z M 392.464844 191.167969 L 397.632812 191.167969 L 397.632812 226.632812 L 392.464844 226.632812 Z M 378.601562 197.839844 L 383.769531 197.839844 L 383.769531 226.632812 L 378.601562 226.632812 Z M 364.738281 205.738281 L 369.90625 205.738281 L 369.90625 226.632812 L 364.738281 226.632812 Z M 686.097656 192.878906 L 707.144531 192.878906 C 707.503906 192.878906 707.792969 192.589844 707.792969 192.230469 L 707.792969 181.117188 L 722.46875 166.058594 C 722.589844 165.929688 722.65625 165.757812 722.652344 165.578125 C 722.644531 165.402344 722.5625 165.234375 722.429688 165.117188 L 716.308594 159.792969 C 716.171875 159.671875 715.992188 159.617188 715.816406 159.636719 C 715.636719 159.65625 715.472656 159.75 715.363281 159.894531 L 707.410156 170.597656 C 707.328125 170.558594 707.238281 170.535156 707.144531 170.535156 L 686.097656 170.535156 C 685.738281 170.535156 685.449219 170.824219 685.449219 171.183594 L 685.449219 192.230469 C 685.449219 192.589844 685.738281 192.878906 686.097656 192.878906 Z M 715.988281 161.230469 L 721.058594 165.644531 L 698.964844 188.316406 L 689.636719 180.925781 L 693.640625 177.445312 L 698.417969 183.503906 C 698.542969 183.660156 698.773438 183.726562 698.933594 183.75 C 699.136719 183.746094 699.324219 183.652344 699.445312 183.488281 Z M 686.742188 171.832031 L 706.492188 171.832031 L 698.910156 182.035156 L 694.234375 176.109375 C 694.125 175.96875 693.964844 175.882812 693.789062 175.863281 C 693.609375 175.84375 693.4375 175.90625 693.300781 176.019531 L 688.199219 180.457031 C 688.054688 180.585938 687.972656 180.769531 687.976562 180.960938 C 687.980469 181.15625 688.070312 181.335938 688.222656 181.453125 L 698.617188 189.695312 C 698.738281 189.789062 698.878906 189.835938 699.023438 189.835938 C 699.191406 189.835938 699.359375 189.769531 699.484375 189.640625 L 706.496094 182.449219 L 706.496094 191.582031 L 686.742188 191.582031 Z M 739.941406 379.683594 C 738.144531 378.335938 736.269531 377.859375 734.363281 378.261719 C 731.214844 378.929688 728.867188 381.84375 727.84375 383.347656 C 726.816406 381.84375 724.46875 378.929688 721.320312 378.261719 C 719.417969 377.855469 717.542969 378.335938 715.746094 379.683594 C 713.265625 381.546875 712.648438 384.613281 713.964844 388.5625 C 716.199219 395.265625 723.59375 402.910156 727.84375 402.910156 C 732.09375 402.910156 739.484375 395.265625 741.722656 388.5625 C 743.039062 384.613281 742.421875 381.546875 739.941406 379.683594 Z M 771.226562 342.308594 C 769.898438 341.3125 768.503906 340.957031 767.089844 341.257812 C 764.925781 341.71875 763.28125 343.613281 762.464844 344.753906 C 761.648438 343.613281 760.007812 341.71875 757.839844 341.257812 C 756.425781 340.957031 755.03125 341.3125 753.703125 342.308594 C 751.886719 343.671875 751.410156 346 752.363281 348.863281 C 753.984375 353.71875 759.363281 359.25 762.464844 359.25 C 765.566406 359.25 770.949219 353.71875 772.566406 348.863281 C 773.519531 346 773.046875 343.671875 771.226562 342.308594 Z M 771.335938 348.453125 C 769.808594 353.039062 764.820312 357.953125 762.464844 357.953125 C 760.109375 357.953125 755.125 353.039062 753.597656 348.453125 C 753.054688 346.832031 752.769531 344.628906 754.480469 343.347656 C 755.277344 342.746094 756.066406 342.453125 756.867188 342.453125 C 757.097656 342.453125 757.332031 342.476562 757.566406 342.523438 C 760.074219 343.054688 761.882812 346.226562 761.898438 346.257812 C 762.015625 346.464844 762.230469 346.589844 762.464844 346.589844 C 762.699219 346.589844 762.917969 346.464844 763.03125 346.257812 C 763.046875 346.226562 764.84375 343.058594 767.359375 342.527344 C 768.40625 342.304688 769.417969 342.570312 770.449219 343.347656 C 772.160156 344.628906 771.875 346.832031 771.335938 348.453125 Z M 295.820312 502.535156 L 285.050781 500.96875 L 280.238281 491.210938 C 280.019531 490.769531 279.292969 490.769531 279.074219 491.210938 L 274.257812 500.96875 L 263.488281 502.535156 C 263.246094 502.570312 263.042969 502.742188 262.96875 502.976562 C 262.890625 503.210938 262.953125 503.46875 263.132812 503.640625 L 270.925781 511.234375 L 269.082031 521.960938 C 269.042969 522.203125 269.140625 522.449219 269.339844 522.59375 C 269.453125 522.675781 269.589844 522.71875 269.722656 522.71875 C 269.828125 522.71875 269.929688 522.695312 270.023438 522.644531 L 279.65625 517.578125 L 289.285156 522.644531 C 289.503906 522.761719 289.769531 522.742188 289.96875 522.59375 C 290.167969 522.449219 290.269531 522.203125 290.226562 521.960938 L 288.386719 511.234375 L 296.179688 503.640625 C 296.355469 503.46875 296.417969 503.210938 296.34375 502.976562 C 296.265625 502.742188 296.066406 502.570312 295.820312 502.535156 Z M 287.238281 510.542969 C 287.085938 510.695312 287.015625 510.90625 287.050781 511.121094 L 288.726562 520.886719 L 279.957031 516.273438 C 279.863281 516.226562 279.757812 516.199219 279.65625 516.199219 C 279.550781 516.199219 279.449219 516.226562 279.355469 516.273438 L 270.582031 520.886719 L 272.257812 511.121094 C 272.296875 510.90625 272.226562 510.695312 272.070312 510.542969 L 264.976562 503.628906 L 274.78125 502.203125 C 274.992188 502.171875 275.175781 502.039062 275.269531 501.847656 L 279.65625 492.964844 L 284.039062 501.847656 C 284.132812 502.039062 284.316406 502.171875 284.527344 502.203125 L 294.335938 503.628906 Z M 341.480469 502.535156 L 330.710938 500.96875 L 325.894531 491.210938 C 325.679688 490.769531 324.949219 490.769531 324.734375 491.210938 L 319.917969 500.96875 L 309.148438 502.535156 C 308.90625 502.570312 308.703125 502.742188 308.625 502.976562 C 308.550781 503.210938 308.613281 503.46875 308.789062 503.640625 L 316.582031 511.234375 L 314.742188 521.960938 C 314.699219 522.203125 314.800781 522.449219 315 522.59375 C 315.113281 522.675781 315.246094 522.71875 315.382812 522.71875 C 315.484375 522.71875 315.589844 522.695312 315.683594 522.644531 L 325.316406 517.578125 L 334.945312 522.644531 C 335.164062 522.761719 335.429688 522.742188 335.628906 522.59375 C 335.828125 522.449219 335.929688 522.203125 335.886719 521.960938 L 334.046875 511.234375 L 341.839844 503.640625 C 342.015625 503.46875 342.078125 503.210938 342.003906 502.976562 C 341.925781 502.742188 341.722656 502.570312 341.480469 502.535156 Z M 332.898438 510.542969 C 332.746094 510.695312 332.675781 510.90625 332.710938 511.121094 L 334.386719 520.886719 L 325.617188 516.273438 C 325.523438 516.226562 325.417969 516.199219 325.316406 516.199219 C 325.210938 516.199219 325.105469 516.226562 325.011719 516.273438 L 316.242188 520.886719 L 317.917969 511.121094 C 317.953125 510.90625 317.882812 510.695312 317.730469 510.542969 L 310.636719 503.628906 L 320.441406 502.203125 C 320.652344 502.171875 320.835938 502.039062 320.929688 501.847656 L 325.316406 492.964844 L 329.699219 501.847656 C 329.792969 502.039062 329.976562 502.171875 330.1875 502.203125 L 339.992188 503.628906 Z M 387.140625 502.535156 L 376.371094 500.96875 L 371.554688 491.210938 C 371.335938 490.769531 370.609375 490.769531 370.390625 491.210938 L 365.578125 500.96875 L 354.808594 502.535156 C 354.5625 502.570312 354.363281 502.742188 354.285156 502.976562 C 354.210938 503.210938 354.273438 503.46875 354.449219 503.640625 L 362.242188 511.234375 L 360.402344 521.960938 C 360.359375 522.203125 360.460938 522.449219 360.660156 522.59375 C 360.773438 522.675781 360.90625 522.71875 361.039062 522.71875 C 361.144531 522.71875 361.246094 522.695312 361.34375 522.644531 L 370.972656 517.578125 L 380.605469 522.644531 C 380.824219 522.761719 381.085938 522.742188 381.289062 522.59375 C 381.488281 522.449219 381.585938 522.203125 381.546875 521.960938 L 379.707031 511.234375 L 387.496094 503.640625 C 387.675781 503.46875 387.738281 503.210938 387.664062 502.976562 C 387.585938 502.742188 387.382812 502.570312 387.140625 502.535156 Z M 378.558594 510.542969 C 378.40625 510.695312 378.335938 510.90625 378.371094 511.121094 L 380.046875 520.886719 L 371.273438 516.273438 C 371.179688 516.226562 371.078125 516.199219 370.972656 516.199219 C 370.871094 516.199219 370.765625 516.226562 370.671875 516.273438 L 361.902344 520.886719 L 363.578125 511.121094 C 363.613281 510.90625 363.542969 510.695312 363.390625 510.542969 L 356.292969 503.628906 L 366.101562 502.203125 C 366.3125 502.171875 366.496094 502.039062 366.589844 501.847656 L 370.972656 492.964844 L 375.359375 501.847656 C 375.453125 502.039062 375.636719 502.171875 375.847656 502.203125 L 385.652344 503.628906 Z M 432.796875 502.535156 L 422.03125 500.96875 L 417.214844 491.210938 C 416.996094 490.769531 416.269531 490.769531 416.050781 491.210938 L 411.234375 500.96875 L 400.46875 502.535156 C 400.222656 502.570312 400.019531 502.742188 399.945312 502.976562 C 399.867188 503.210938 399.933594 503.46875 400.109375 503.640625 L 407.902344 511.234375 L 406.0625 521.960938 C 406.019531 522.203125 406.117188 522.449219 406.320312 522.59375 C 406.429688 522.675781 406.566406 522.71875 406.699219 522.71875 C 406.804688 522.71875 406.90625 522.695312 407 522.644531 L 416.632812 517.578125 L 426.265625 522.644531 C 426.480469 522.761719 426.746094 522.742188 426.945312 522.59375 C 427.148438 522.449219 427.246094 522.203125 427.207031 521.960938 L 425.367188 511.234375 L 433.15625 503.640625 C 433.332031 503.46875 433.398438 503.210938 433.320312 502.976562 C 433.246094 502.742188 433.042969 502.570312 432.796875 502.535156 Z M 424.21875 510.542969 C 424.0625 510.695312 423.996094 510.90625 424.03125 511.121094 L 425.703125 520.886719 L 416.933594 516.273438 C 416.839844 516.226562 416.738281 516.199219 416.632812 516.199219 C 416.527344 516.199219 416.425781 516.226562 416.332031 516.273438 L 407.5625 520.886719 L 409.238281 511.121094 C 409.273438 510.90625 409.203125 510.695312 409.050781 510.542969 L 401.953125 503.628906 L 411.761719 502.203125 C 411.96875 502.171875 412.152344 502.039062 412.246094 501.847656 L 416.632812 492.964844 L 421.019531 501.847656 C 421.113281 502.039062 421.296875 502.171875 421.507812 502.203125 L 431.3125 503.628906 Z M 478.457031 502.535156 L 467.6875 500.96875 L 462.871094 491.210938 C 462.65625 490.769531 461.929688 490.769531 461.710938 491.210938 L 456.894531 500.96875 L 446.125 502.535156 C 445.882812 502.570312 445.679688 502.742188 445.605469 502.976562 C 445.527344 503.210938 445.589844 503.46875 445.769531 503.640625 L 453.558594 511.234375 L 451.71875 521.960938 C 451.679688 522.203125 451.777344 522.449219 451.976562 522.59375 C 452.089844 522.675781 452.226562 522.71875 452.359375 522.71875 C 452.460938 522.71875 452.566406 522.695312 452.660156 522.644531 L 462.292969 517.578125 L 471.921875 522.644531 C 472.144531 522.761719 472.40625 522.742188 472.605469 522.59375 C 472.804688 522.449219 472.90625 522.203125 472.863281 521.960938 L 471.023438 511.234375 L 478.816406 503.640625 C 478.992188 503.46875 479.054688 503.210938 478.980469 502.976562 C 478.902344 502.742188 478.703125 502.570312 478.457031 502.535156 Z M 469.875 510.542969 C 469.722656 510.695312 469.652344 510.90625 469.6875 511.121094 L 471.363281 520.886719 L 462.59375 516.273438 C 462.5 516.226562 462.394531 516.199219 462.292969 516.199219 C 462.1875 516.199219 462.085938 516.226562 461.992188 516.273438 L 453.21875 520.886719 L 454.894531 511.121094 C 454.929688 510.90625 454.863281 510.695312 454.707031 510.542969 L 447.613281 503.628906 L 457.417969 502.203125 C 457.628906 502.171875 457.8125 502.039062 457.90625 501.847656 L 462.292969 492.964844 L 466.675781 501.847656 C 466.769531 502.039062 466.953125 502.171875 467.164062 502.203125 L 476.972656 503.628906 Z M 705.457031 337.074219 C 705.457031 337.433594 705.746094 337.722656 706.105469 337.722656 C 706.464844 337.722656 706.753906 337.433594 706.753906 337.074219 L 706.753906 330.96875 L 711.742188 334.488281 C 711.855469 334.570312 711.984375 334.605469 712.113281 334.605469 C 712.316406 334.605469 712.519531 334.511719 712.644531 334.332031 C 712.851562 334.039062 712.78125 333.636719 712.488281 333.429688 L 707.226562 329.714844 L 712.488281 326.003906 C 712.78125 325.796875 712.851562 325.394531 712.644531 325.101562 C 712.4375 324.808594 712.03125 324.738281 711.742188 324.945312 L 706.753906 328.464844 L 706.753906 322.359375 C 706.753906 322 706.464844 321.710938 706.105469 321.710938 C 705.746094 321.710938 705.457031 322 705.457031 322.359375 L 705.457031 328.464844 L 700.46875 324.945312 C 700.175781 324.738281 699.769531 324.808594 699.566406 325.101562 C 699.359375 325.394531 699.429688 325.796875 699.71875 326.003906 L 704.980469 329.714844 L 699.71875 333.429688 C 699.429688 333.636719 699.359375 334.039062 699.566406 334.332031 C 699.691406 334.511719 699.890625 334.605469 700.09375 334.605469 C 700.222656 334.605469 700.355469 334.570312 700.46875 334.488281 L 705.457031 330.964844 Z M 435.449219 89.492188 C 440.191406 89.492188 444.046875 85.632812 444.046875 80.894531 C 444.046875 76.152344 440.191406 72.296875 435.449219 72.296875 C 430.710938 72.296875 426.851562 76.152344 426.851562 80.894531 C 426.851562 85.632812 430.710938 89.492188 435.449219 89.492188 Z M 435.449219 73.59375 C 439.476562 73.59375 442.75 76.867188 442.75 80.894531 C 442.75 84.917969 439.476562 88.195312 435.449219 88.195312 C 431.425781 88.195312 428.148438 84.917969 428.148438 80.894531 C 428.148438 76.867188 431.425781 73.59375 435.449219 73.59375 Z M 455.617188 89.492188 L 521.054688 89.492188 C 521.414062 89.492188 521.703125 89.199219 521.703125 88.84375 L 521.703125 72.945312 C 521.703125 72.585938 521.414062 72.296875 521.054688 72.296875 L 455.617188 72.296875 C 455.257812 72.296875 454.96875 72.585938 454.96875 72.945312 L 454.96875 88.84375 C 454.96875 89.199219 455.257812 89.492188 455.617188 89.492188 Z M 456.265625 73.59375 L 520.40625 73.59375 L 520.40625 88.195312 L 456.265625 88.195312 Z M 427.5 97.4375 L 521.054688 97.4375 C 521.414062 97.4375 521.703125 97.148438 521.703125 96.789062 C 521.703125 96.433594 521.414062 96.144531 521.054688 96.144531 L 427.5 96.144531 C 427.144531 96.144531 426.851562 96.433594 426.851562 96.789062 C 426.851562 97.148438 427.144531 97.4375 427.5 97.4375 Z M 602.535156 457.089844 C 607.09375 457.089844 610.796875 453.382812 610.796875 448.828125 C 610.796875 444.273438 607.089844 440.566406 602.535156 440.566406 C 597.980469 440.566406 594.277344 444.273438 594.277344 448.828125 C 594.277344 453.382812 597.980469 457.089844 602.535156 457.089844 Z M 602.535156 441.863281 C 606.378906 441.863281 609.503906 444.988281 609.503906 448.828125 C 609.503906 452.667969 606.378906 455.792969 602.535156 455.792969 C 598.695312 455.792969 595.574219 452.667969 595.574219 448.828125 C 595.574219 444.988281 598.695312 441.863281 602.535156 441.863281 Z M 594.925781 490.609375 L 678.976562 490.609375 C 679.335938 490.609375 679.625 490.320312 679.625 489.960938 L 679.625 468.285156 C 679.625 467.929688 679.335938 467.640625 678.976562 467.640625 L 594.925781 467.640625 C 594.566406 467.640625 594.277344 467.929688 594.277344 468.285156 L 594.277344 489.960938 C 594.277344 490.320312 594.566406 490.609375 594.925781 490.609375 Z M 595.574219 468.933594 L 678.332031 468.933594 L 678.332031 489.3125 L 595.574219 489.3125 Z M 621.664062 457.089844 L 654.933594 457.089844 C 656.089844 457.089844 657.03125 456.148438 657.03125 454.992188 L 657.03125 451.953125 C 657.03125 450.796875 656.089844 449.855469 654.933594 449.855469 L 621.664062 449.855469 C 620.503906 449.855469 619.5625 450.796875 619.5625 451.953125 L 619.5625 454.992188 C 619.5625 456.148438 620.503906 457.089844 621.664062 457.089844 Z M 620.859375 451.953125 C 620.859375 451.511719 621.21875 451.152344 621.660156 451.152344 L 654.933594 451.152344 C 655.375 451.152344 655.734375 451.511719 655.734375 451.953125 L 655.734375 454.992188 C 655.734375 455.433594 655.375 455.792969 654.933594 455.792969 L 621.660156 455.792969 C 621.21875 455.792969 620.859375 455.433594 620.859375 454.992188 Z M 679.511719 439.203125 C 679.636719 439.328125 679.804688 439.394531 679.96875 439.394531 C 680.136719 439.394531 680.300781 439.328125 680.429688 439.203125 L 681.996094 437.632812 L 683.566406 439.203125 C 683.695312 439.328125 683.859375 439.394531 684.027344 439.394531 C 684.191406 439.394531 684.359375 439.328125 684.484375 439.203125 C 684.738281 438.949219 684.738281 438.539062 684.484375 438.285156 L 682.914062 436.71875 L 684.484375 435.148438 C 684.738281 434.894531 684.738281 434.484375 684.484375 434.230469 C 684.230469 433.976562 683.820312 433.976562 683.566406 434.230469 L 681.996094 435.800781 L 680.429688 434.230469 C 680.175781 433.976562 679.765625 433.976562 679.511719 434.230469 C 679.257812 434.484375 679.257812 434.894531 679.511719 435.148438 L 681.082031 436.71875 L 679.511719 438.285156 C 679.257812 438.539062 679.257812 438.949219 679.511719 439.203125 Z M 679.511719 439.203125 " fill-opacity="1" fill-rule="nonzero"/></g></svg>