<svg xmlns="http://www.w3.org/2000/svg" xmlns:xlink="http://www.w3.org/1999/xlink" width="500" zoomAndPan="magnify" viewBox="0 0 375 374.999991" height="500" preserveAspectRatio="xMidYMid meet" version="1.0"><path fill="#000000" d="M 245.421875 182.601562 C 245.421875 177.242188 242.113281 173.335938 235.773438 173.335938 L 215.289062 173.335938 L 215.289062 201.140625 L 222.015625 201.140625 L 222.015625 191.652344 L 229.984375 191.652344 L 237.785156 201.140625 L 245.367188 201.140625 L 245.367188 200.535156 L 237.785156 191.488281 C 242.554688 190.523438 245.421875 187.058594 245.421875 182.601562 Z M 235.03125 186.042969 L 222.042969 186.042969 L 222.042969 179.109375 L 235.03125 179.109375 C 237.429688 179.109375 238.972656 180.375 238.972656 182.574219 C 238.972656 184.832031 237.484375 186.042969 235.03125 186.042969 Z M 235.03125 186.042969 " fill-opacity="1" fill-rule="nonzero"/><path fill="#000000" d="M 347.128906 173.335938 L 340.8125 173.335938 L 340.8125 183.894531 L 323.859375 183.894531 L 323.859375 173.335938 L 317.050781 173.335938 L 317.050781 201.167969 L 323.859375 201.167969 L 323.859375 190.195312 L 340.8125 190.195312 L 340.8125 201.167969 L 347.128906 201.167969 Z M 347.128906 173.335938 " fill-opacity="1" fill-rule="nonzero"/><path fill="#000000" d="M 197.289062 173.335938 L 189.789062 196.738281 L 189.375 196.738281 L 181.847656 173.335938 L 169.855469 173.335938 L 169.855469 201.167969 L 176.277344 201.167969 L 176.277344 178.3125 L 176.664062 178.3125 L 184.164062 201.167969 L 194.503906 201.167969 L 202.027344 178.3125 L 202.414062 178.3125 L 202.414062 201.167969 L 209.03125 201.167969 L 209.03125 173.335938 Z M 197.289062 173.335938 " fill-opacity="1" fill-rule="nonzero"/><path fill="#000000" d="M 124.007812 184.722656 C 121.636719 184.472656 117.199219 184.0625 114.828125 183.8125 C 112.484375 183.566406 111.132812 182.878906 111.132812 181.339844 C 111.132812 179.851562 112.566406 178.617188 118.355469 178.617188 C 123.484375 178.617188 128.199219 179.714844 132.304688 181.695312 L 132.304688 175.480469 C 128.199219 173.527344 123.648438 172.566406 117.996094 172.566406 C 110.058594 172.566406 104.570312 175.867188 104.570312 181.476562 C 104.570312 186.207031 107.796875 188.792969 114.246094 189.507812 C 116.589844 189.753906 120.5625 190.113281 123.347656 190.332031 C 126.378906 190.578125 127.261719 191.515625 127.261719 192.890625 C 127.261719 194.785156 125.136719 195.941406 119.761719 195.941406 C 114.304688 195.941406 108.761719 194.152344 104.820312 191.652344 L 104.820312 198.058594 C 107.988281 200.175781 113.449219 201.964844 119.542969 201.964844 C 128.199219 201.964844 133.765625 198.636719 133.765625 192.667969 C 133.820312 188.160156 130.84375 185.4375 124.007812 184.722656 Z M 124.007812 184.722656 " fill-opacity="1" fill-rule="nonzero"/><path fill="#000000" d="M 138.234375 173.335938 L 138.234375 201.167969 L 164.230469 201.167969 L 164.230469 195.472656 L 144.65625 195.472656 L 144.65625 189.835938 L 163.902344 189.835938 L 163.902344 184.199219 L 144.65625 184.199219 L 144.65625 179.027344 L 164.230469 179.027344 L 164.230469 173.335938 Z M 138.234375 173.335938 " fill-opacity="1" fill-rule="nonzero"/><path fill="#000000" d="M 303.125 184.722656 C 300.753906 184.472656 296.316406 184.0625 293.945312 183.8125 C 291.601562 183.566406 290.25 182.878906 290.25 181.339844 C 290.25 179.851562 291.683594 178.617188 297.472656 178.617188 C 302.601562 178.617188 307.316406 179.714844 311.425781 181.695312 L 311.425781 175.480469 C 307.316406 173.527344 302.769531 172.566406 297.117188 172.566406 C 289.175781 172.566406 283.691406 175.867188 283.691406 181.476562 C 283.691406 186.207031 286.914062 188.792969 293.367188 189.507812 C 295.710938 189.753906 299.679688 190.113281 302.464844 190.332031 C 305.496094 190.578125 306.378906 191.515625 306.378906 192.890625 C 306.378906 194.785156 304.257812 195.941406 298.878906 195.941406 C 293.421875 195.941406 287.878906 194.152344 283.9375 191.652344 L 283.9375 198.058594 C 287.109375 200.175781 292.566406 201.964844 298.660156 201.964844 C 307.316406 201.964844 312.886719 198.636719 312.886719 192.667969 C 312.941406 188.160156 309.964844 185.4375 303.125 184.722656 Z M 303.125 184.722656 " fill-opacity="1" fill-rule="nonzero"/><path fill="#000000" d="M 272.386719 173.335938 L 272.386719 187.582031 C 272.386719 192.972656 269.105469 195.941406 264.171875 195.941406 C 259.207031 195.941406 255.953125 193.027344 255.953125 187.5 L 255.953125 173.335938 L 249.253906 173.335938 L 249.253906 186.867188 C 249.253906 196.960938 255.570312 201.964844 264.28125 201.964844 C 272.632812 201.964844 279.113281 197.179688 279.113281 187.195312 L 279.113281 173.335938 Z M 272.386719 173.335938 " fill-opacity="1" fill-rule="nonzero"/><path fill="#ff642d" d="M 81.523438 187.085938 C 81.523438 188.433594 80.832031 188.652344 79.125 188.652344 C 77.304688 188.652344 76.972656 188.351562 76.78125 186.976562 C 76.421875 183.484375 74.050781 180.511719 70.082031 180.183594 C 68.8125 180.074219 68.511719 179.605469 68.511719 178.039062 C 68.511719 176.582031 68.730469 175.894531 69.859375 175.894531 C 76.753906 175.921875 81.523438 181.449219 81.523438 187.085938 Z M 91.558594 187.085938 C 91.558594 176.609375 84.445312 165.523438 68.015625 165.523438 L 35.371094 165.523438 C 34.710938 165.523438 34.296875 165.855469 34.296875 166.460938 C 34.296875 166.789062 34.542969 167.09375 34.765625 167.257812 C 35.949219 168.191406 37.714844 169.238281 40.03125 170.394531 C 42.292969 171.519531 44.054688 172.261719 45.820312 172.976562 C 46.566406 173.28125 46.839844 173.609375 46.839844 174.023438 C 46.839844 174.601562 46.425781 174.957031 45.628906 174.957031 L 19.710938 174.957031 C 18.941406 174.957031 18.582031 175.453125 18.582031 175.949219 C 18.582031 176.359375 18.71875 176.71875 19.078125 177.074219 C 21.171875 179.277344 24.535156 181.914062 29.417969 184.96875 C 33.691406 187.636719 38.984375 190.523438 43.203125 192.53125 C 43.917969 192.863281 44.140625 193.246094 44.140625 193.660156 C 44.109375 194.125 43.753906 194.511719 42.925781 194.511719 L 31.042969 194.511719 C 30.382812 194.511719 29.996094 194.871094 29.996094 195.417969 C 29.996094 195.722656 30.242188 196.105469 30.574219 196.410156 C 33.277344 198.855469 37.605469 201.523438 43.367188 203.972656 C 51.058594 207.246094 58.859375 209.199219 67.628906 209.199219 C 84.253906 209.199219 91.558594 196.792969 91.558594 187.085938 Z M 69.859375 201.964844 C 61.699219 201.964844 54.890625 195.335938 54.890625 187.085938 C 54.890625 178.945312 61.699219 172.429688 69.859375 172.429688 C 78.242188 172.429688 84.777344 178.945312 84.777344 187.085938 C 84.75 195.335938 78.214844 201.964844 69.859375 201.964844 Z M 69.859375 201.964844 " fill-opacity="1" fill-rule="nonzero"/></svg>