<svg xmlns="http://www.w3.org/2000/svg" xmlns:xlink="http://www.w3.org/1999/xlink" width="1366" zoomAndPan="magnify" viewBox="0 0 1024.5 576" height="768" preserveAspectRatio="xMidYMid meet" version="1.0"><defs><clipPath id="d6f2c4a978"><path d="M 217 1 L 807 1 L 807 575.859375 L 217 575.859375 Z M 217 1 " clip-rule="nonzero"/></clipPath><clipPath id="b8a5dfb773"><path d="M 216.070312 1 L 808 1 L 808 575.859375 L 216.070312 575.859375 Z M 216.070312 1 " clip-rule="nonzero"/></clipPath></defs><g clip-path="url(#d6f2c4a978)"><path fill="#f5f6f7" d="M 799.507812 152.09375 L 799.976562 122.765625 C 799.976562 122.765625 799.910156 120.960938 796.328125 122.664062 C 792.746094 124.371094 771.941406 135.019531 771.941406 135.019531 L 731.074219 141.199219 L 737.894531 130.328125 L 749.652344 110.769531 C 749.652344 110.769531 763.308594 87.6875 768.53125 77.046875 C 773.753906 66.40625 778.726562 59.597656 781.214844 48.585938 C 783.402344 39.558594 781.683594 34.878906 776.328125 36.324219 C 777.246094 33.9375 779.738281 27.820312 772.71875 27.871094 C 774.152344 25.636719 773.449219 20.765625 767.933594 22.65625 C 768.3125 21.40625 768.824219 20.824219 768.824219 20.824219 C 768.824219 20.824219 774.652344 13.726562 777.121094 8.628906 C 779.589844 3.53125 776.9375 1.761719 774.683594 2.015625 C 772.429688 2.269531 767.753906 5.820312 760.808594 14.933594 C 753.863281 24.042969 743.082031 37.789062 743.082031 37.789062 L 741.757812 26.996094 C 741.757812 26.996094 741.757812 20.949219 739.714844 17.726562 C 737.675781 14.503906 735.898438 10.382812 731.074219 11.484375 C 727.882812 12.214844 729.742188 17.695312 729.339844 26.132812 C 729.140625 30.246094 727.792969 46.292969 726.621094 56.164062 C 725.453125 66.039062 724.222656 72.796875 724.222656 72.796875 C 724.222656 72.796875 721.871094 77.574219 717.582031 83.472656 C 713.289062 89.371094 695.289062 113.769531 675.308594 137.371094 C 655.328125 160.972656 645.542969 168.539062 616.027344 192.984375 C 616.457031 190.574219 616.671875 188.851562 616.671875 188.851562 C 616.671875 188.851562 622.742188 186.328125 623.222656 182.746094 C 623.707031 179.167969 616.59375 172.519531 616.59375 172.519531 C 616.59375 172.519531 615.949219 155.496094 612.964844 144.117188 C 572.890625 146.09375 572.019531 146.136719 572.019531 146.136719 L 571.210938 167.957031 C 571.210938 167.957031 565.914062 163.167969 557.671875 167.636719 C 549.425781 172.109375 551.667969 182.023438 555.519531 185.816406 C 559.371094 189.609375 566.007812 190.441406 571.089844 189.03125 C 568.21875 196.867188 564.4375 203.683594 551.511719 207.039062 C 551.476562 213.261719 551.433594 216.847656 551.414062 218.472656 L 473.089844 218.472656 L 473.089844 82.460938 C 473.089844 77.570312 469.128906 73.605469 464.238281 73.605469 L 274.023438 73.605469 C 269.132812 73.605469 265.167969 77.570312 265.167969 82.460938 L 265.167969 172.585938 L 219.664062 172.585938 C 218.199219 172.585938 217.015625 173.773438 217.015625 175.234375 L 217.015625 228.503906 C 217.015625 229.96875 218.199219 231.15625 219.664062 231.15625 L 265.167969 231.15625 L 265.167969 331.871094 C 265.167969 336.761719 269.132812 340.722656 274.023438 340.722656 L 312.855469 340.722656 L 312.855469 444.742188 C 296.128906 442.65625 275.3125 451.9375 274.515625 477.390625 C 273.964844 495.007812 293.078125 513.71875 312.855469 507.984375 L 312.855469 536.441406 C 312.855469 538.378906 314.425781 539.953125 316.363281 539.953125 L 334.011719 539.953125 L 334.011719 553.246094 L 298.015625 553.246094 C 296.078125 553.246094 294.507812 554.816406 294.507812 556.753906 L 294.507812 571.75 C 294.507812 573.6875 296.078125 575.257812 298.015625 575.257812 L 732.574219 575.257812 C 734.511719 575.257812 736.085938 573.6875 736.085938 571.75 L 736.085938 556.753906 C 736.085938 554.816406 734.511719 553.246094 732.574219 553.246094 L 696.582031 553.246094 L 696.582031 539.953125 L 714.226562 539.953125 C 716.164062 539.953125 717.738281 538.378906 717.738281 536.441406 L 717.738281 487.554688 L 735.195312 487.554688 L 735.195312 425.984375 L 717.738281 425.984375 L 717.738281 271.140625 C 719.21875 267.5 721.367188 261.953125 722.460938 257.796875 C 731.234375 254.332031 744.082031 250.507812 747.632812 244.617188 C 751.183594 238.730469 747.882812 236.0625 747.882812 236.0625 C 747.882812 236.0625 753.035156 232.085938 747.882812 225.8125 C 750.6875 222.820312 749.988281 218.097656 746.707031 216.382812 C 747.105469 214.667969 747.785156 208.855469 739.292969 208.179688 C 739.207031 202.734375 739.207031 192.195312 739.207031 192.195312 L 772.863281 194.144531 L 793.089844 203.539062 L 799 206.015625 C 799 206.015625 799.976562 206.613281 799.976562 203.035156 C 799.976562 199.453125 800.367188 173.953125 800.367188 173.953125 C 800.367188 173.953125 806.964844 171.890625 806.964844 162.453125 C 806.964844 153.015625 799.507812 152.09375 799.507812 152.09375 Z M 696.226562 189.222656 C 701.296875 189.734375 716.152344 190.523438 716.152344 190.523438 L 716.152344 202.4375 C 716.152344 202.4375 704.625 205.265625 699.515625 210.992188 C 697.632812 213.101562 696.9375 215.84375 696.796875 218.472656 L 669.425781 218.472656 C 674.109375 213.65625 693.746094 193.375 696.226562 189.222656 Z M 584.757812 217.445312 L 586.078125 210.015625 L 594.101562 210.941406 L 585.675781 218.097656 L 585.859375 218.472656 L 584.949219 218.472656 Z M 643.695312 546.742188 L 386.894531 546.742188 L 386.894531 539.953125 L 643.695312 539.953125 Z M 432.875 254.558594 L 429.527344 254.550781 L 430.253906 251.28125 C 430.714844 249.210938 429.410156 247.160156 427.339844 246.699219 C 425.269531 246.242188 423.21875 247.542969 422.757812 249.613281 L 421.667969 254.523438 L 410.785156 254.488281 L 411.5 251.28125 C 411.960938 249.210938 410.65625 247.160156 408.585938 246.699219 C 406.515625 246.242188 404.464844 247.542969 404.003906 249.613281 L 402.925781 254.464844 L 397.957031 254.449219 C 397.953125 254.449219 397.949219 254.449219 397.941406 254.449219 C 395.828125 254.449219 394.109375 256.160156 394.105469 258.277344 C 394.097656 260.398438 395.8125 262.121094 397.929688 262.128906 L 401.21875 262.140625 L 398.855469 272.757812 L 393.828125 272.742188 C 393.820312 272.742188 393.816406 272.742188 393.8125 272.742188 C 391.699219 272.742188 389.980469 274.453125 389.976562 276.570312 C 389.96875 278.691406 391.679688 280.414062 393.800781 280.421875 L 397.148438 280.433594 L 396.421875 283.699219 C 395.960938 285.773438 397.265625 287.824219 399.335938 288.28125 C 399.617188 288.34375 399.898438 288.375 400.175781 288.375 C 401.933594 288.375 403.519531 287.15625 403.917969 285.367188 L 405.011719 280.457031 L 415.890625 280.492188 L 415.175781 283.699219 C 414.714844 285.769531 416.019531 287.824219 418.089844 288.28125 C 418.371094 288.34375 418.652344 288.375 418.929688 288.375 C 420.6875 288.375 422.273438 287.15625 422.671875 285.367188 L 423.753906 280.515625 L 428.722656 280.53125 C 428.726562 280.53125 428.730469 280.53125 428.734375 280.53125 C 430.847656 280.53125 432.566406 278.820312 432.574219 276.703125 C 432.582031 274.582031 430.867188 272.859375 428.746094 272.851562 L 425.460938 272.84375 L 427.820312 262.222656 L 432.851562 262.238281 C 432.855469 262.238281 432.859375 262.238281 432.863281 262.238281 C 434.976562 262.238281 436.695312 260.527344 436.703125 258.410156 C 436.710938 256.289062 434.996094 254.566406 432.875 254.558594 Z M 417.597656 272.816406 L 406.71875 272.785156 L 409.078125 262.164062 L 419.960938 262.199219 Z M 521.085938 60.472656 L 578.867188 60.472656 L 588.800781 74.691406 L 598.734375 60.472656 L 652.988281 60.472656 C 663.558594 60.472656 672.132812 51.902344 672.132812 41.328125 C 672.132812 30.757812 663.558594 22.1875 652.988281 22.1875 L 521.085938 22.1875 C 510.511719 22.1875 501.941406 30.757812 501.941406 41.328125 C 501.941406 51.902344 510.511719 60.472656 521.085938 60.472656 Z M 758.328125 394.332031 C 768.464844 394.332031 776.683594 386.113281 776.683594 375.976562 C 776.683594 365.835938 768.464844 357.617188 758.328125 357.617188 C 748.191406 357.617188 739.972656 365.835938 739.972656 375.976562 C 739.972656 386.113281 748.191406 394.332031 758.328125 394.332031 Z M 758.328125 394.332031 " fill-opacity="1" fill-rule="nonzero"/></g><path fill="#00aa67" d="M 759.101562 351.039062 C 746.066406 351.039062 735.5 361.605469 735.5 374.640625 C 735.5 387.675781 746.066406 398.242188 759.101562 398.242188 C 772.136719 398.242188 782.703125 387.675781 782.703125 374.640625 C 782.703125 361.605469 772.136719 351.039062 759.101562 351.039062 Z M 772.855469 382.386719 C 772.855469 384.09375 771.46875 385.480469 769.757812 385.480469 L 745.347656 385.480469 L 745.347656 371.683594 L 751.539062 371.683594 C 751.539062 371.683594 757.726562 369.78125 759.332031 367.144531 C 760.933594 364.507812 761.199219 361.277344 762.65625 359.582031 C 764.375 357.574219 766.894531 359.464844 765.519531 370.46875 L 769.757812 370.46875 C 771.46875 370.46875 772.855469 371.851562 772.855469 373.5625 Z M 391.894531 373.183594 C 386.660156 373.183594 382.417969 377.425781 382.417969 382.664062 C 382.417969 387.898438 386.660156 392.140625 391.894531 392.140625 C 397.132812 392.140625 401.375 387.898438 401.375 382.664062 C 401.375 377.425781 397.132812 373.183594 391.894531 373.183594 Z M 659.972656 405.324219 C 658.015625 405.324219 656.433594 406.910156 656.433594 408.863281 C 656.433594 410.820312 658.015625 412.402344 659.972656 412.402344 C 661.925781 412.402344 663.511719 410.820312 663.511719 408.863281 C 663.511719 406.910156 661.925781 405.324219 659.972656 405.324219 Z M 312.664062 470.539062 L 306.925781 458.910156 L 301.183594 470.539062 L 288.351562 472.402344 L 297.636719 481.453125 L 295.445312 494.234375 L 306.925781 488.199219 L 318.402344 494.234375 L 316.210938 481.453125 L 325.496094 472.402344 Z M 694.363281 148.175781 C 694.363281 148.175781 696.003906 186.007812 696.105469 188.34375 C 696.207031 190.675781 697.269531 189.519531 697.269531 189.519531 L 731.964844 191.816406 L 732.011719 141.660156 L 695.421875 146.90625 Z M 698.925781 455.441406 L 683.234375 446.847656 C 682.226562 446.296875 680.992188 447.023438 680.992188 448.175781 L 680.992188 465.363281 C 680.992188 466.511719 682.226562 467.242188 683.234375 466.691406 L 690.144531 462.90625 L 698.925781 458.097656 C 699.976562 457.523438 699.976562 456.015625 698.925781 455.441406 Z M 623.242188 286.472656 C 623.242188 286.472656 609.023438 269.308594 597.648438 258.546875 C 586.277344 247.785156 583.5 247.910156 576.8125 248.507812 C 570.125 249.101562 557.917969 252.519531 553.191406 282.695312 C 548.46875 312.875 553.867188 332.441406 557.0625 342.261719 C 560.195312 351.878906 581.492188 370.304688 595.695312 345.296875 C 590.722656 339.078125 582.6875 328.308594 582.6875 328.308594 Z M 598.355469 211.523438 L 594.835938 210.992188 L 585.167969 218.472656 L 585.113281 227.847656 L 591.621094 227.847656 L 591.621094 253.207031 L 612.179688 273.96875 L 634.78125 252.992188 Z M 537.0625 227.847656 L 534.90625 244.425781 C 534.90625 244.425781 540.886719 239.035156 555.964844 239.761719 C 571.042969 240.488281 585.082031 247.738281 591.621094 253.207031 C 591.621094 246.308594 591.621094 227.847656 591.621094 227.847656 Z M 301.347656 310.300781 C 297.242188 307.226562 293.996094 313.039062 293.996094 313.039062 C 293.996094 313.039062 290.746094 307.226562 286.644531 310.300781 C 281.976562 313.800781 290.402344 324.152344 293.996094 324.152344 C 297.585938 324.152344 306.011719 313.800781 301.347656 310.300781 Z M 610.949219 34.300781 C 606.28125 30.800781 602.585938 37.414062 602.585938 37.414062 C 602.585938 37.414062 598.894531 30.800781 594.226562 34.300781 C 588.921875 38.28125 598.503906 50.050781 602.585938 50.050781 C 606.671875 50.050781 616.253906 38.28125 610.949219 34.300781 Z M 610.949219 34.300781 " fill-opacity="1" fill-rule="nonzero"/><g clip-path="url(#b8a5dfb773)"><path fill="#0a0147" d="M 807.707031 163.105469 C 807.707031 157.941406 804.902344 153.421875 800.699219 151.636719 L 800.699219 122.765625 C 800.699219 122.082031 800.351562 121.464844 799.773438 121.105469 C 799.191406 120.746094 798.484375 120.714844 797.878906 121.019531 C 789.265625 125.296875 773.011719 133.363281 771.734375 133.964844 L 732.539062 140.238281 C 756.53125 102.464844 776.472656 64.019531 776.675781 63.628906 C 776.679688 63.625 776.675781 63.621094 776.679688 63.617188 C 776.679688 63.613281 776.683594 63.613281 776.6875 63.609375 C 782.445312 51.601562 784.109375 41.222656 780.925781 37.164062 C 780.023438 36.011719 778.765625 35.453125 777.277344 35.496094 C 779.164062 32.171875 778.515625 30.140625 777.539062 28.984375 C 776.570312 27.832031 775.027344 27.292969 773.636719 27.1875 C 774.421875 23.84375 773.101562 22.359375 772.175781 21.769531 C 771.417969 21.292969 770.484375 21.109375 769.476562 21.167969 C 776.253906 13.371094 779.464844 7.222656 778.519531 3.785156 C 778.199219 2.628906 777.417969 1.828125 776.25 1.464844 C 772.203125 0.199219 766.734375 6.023438 759.203125 15.832031 C 755.394531 20.792969 746.734375 32.292969 743.660156 36.378906 C 743.382812 33.757812 742.769531 28.519531 741.699219 21.769531 C 740.625 15.003906 735.300781 10.015625 731.617188 10.359375 C 729.625 10.554688 728.496094 12.269531 728.601562 14.941406 C 728.90625 22.710938 728.488281 39.492188 726.628906 50.832031 C 726.058594 54.308594 725.664062 57.855469 725.28125 61.285156 C 724.667969 66.757812 724.089844 71.921875 722.945312 74.066406 C 721.417969 78.746094 670.535156 146.226562 646.828125 166.453125 C 640.800781 171.597656 635.386719 176.246094 630.425781 180.511719 C 625.535156 184.710938 621.097656 188.519531 616.933594 192.0625 C 617.101562 191.15625 617.242188 190.242188 617.34375 189.324219 C 618.953125 188.511719 624.425781 185.492188 623.929688 182.207031 C 623.460938 179.097656 618.480469 173.515625 617.304688 172.230469 C 617.257812 169.835938 616.8125 153.683594 613.703125 144.058594 C 612.8125 134.917969 609.292969 127.917969 603.238281 123.246094 C 594.496094 116.5 580.5625 114.632812 561.832031 117.6875 C 527.933594 123.21875 526.117188 150.546875 528.050781 166.34375 C 529.585938 178.855469 533.898438 185.488281 540.824219 194.921875 C 545.894531 201.832031 549.070312 205.785156 550.789062 207.347656 L 550.730469 217.753906 L 473.8125 217.753906 L 473.8125 82.460938 C 473.8125 77.183594 469.515625 72.886719 464.238281 72.886719 L 274.023438 72.886719 C 268.742188 72.886719 264.449219 77.183594 264.449219 82.460938 L 264.449219 171.867188 L 219.679688 171.867188 C 217.8125 171.867188 216.296875 173.382812 216.296875 175.25 L 216.296875 228.488281 C 216.296875 230.355469 217.8125 231.875 219.679688 231.875 L 264.449219 231.875 L 264.449219 331.871094 C 264.449219 337.417969 268.058594 341.445312 273.027344 341.445312 L 312.136719 341.445312 L 312.136719 444.191406 C 310.367188 443.898438 308.554688 443.734375 306.703125 443.734375 C 288.597656 443.734375 273.867188 458.464844 273.867188 476.570312 C 273.867188 494.679688 288.597656 509.410156 306.703125 509.410156 C 308.554688 509.410156 310.367188 509.246094 312.136719 508.949219 L 312.136719 536.441406 C 312.136719 538.773438 314.035156 540.671875 316.363281 540.671875 L 333.292969 540.671875 L 333.292969 552.523438 L 297.203125 552.523438 C 295.320312 552.523438 293.789062 554.058594 293.789062 555.941406 L 293.789062 572.566406 C 293.789062 574.449219 295.320312 575.980469 297.203125 575.980469 L 733.390625 575.980469 C 735.273438 575.980469 736.804688 574.449219 736.804688 572.566406 L 736.804688 555.941406 C 736.804688 554.058594 735.273438 552.523438 733.390625 552.523438 L 697.300781 552.523438 L 697.300781 540.671875 L 714.226562 540.671875 C 716.558594 540.671875 718.457031 538.773438 718.457031 536.441406 L 718.457031 488.273438 L 735.199219 488.273438 C 735.597656 488.273438 735.917969 487.953125 735.917969 487.554688 L 735.917969 425.980469 C 735.917969 425.585938 735.597656 425.261719 735.199219 425.261719 L 718.457031 425.261719 L 718.457031 272.871094 C 720.96875 265.277344 722.574219 259.945312 723.050781 258.34375 C 725.4375 257.433594 739.160156 252.164062 743.4375 249.453125 C 747.65625 246.773438 750.535156 242.546875 750.441406 239.171875 C 750.40625 237.808594 749.886719 236.695312 748.929688 235.90625 C 750.269531 234.035156 750.960938 231.351562 750.628906 229.089844 C 750.417969 227.644531 749.824219 226.476562 748.902344 225.671875 C 750.335938 223.644531 750.78125 221.175781 750.0625 219.074219 C 749.539062 217.546875 748.441406 216.414062 746.992188 215.886719 C 747.582031 213.445312 747.292969 211.46875 746.136719 210.003906 C 744.4375 207.859375 741.375 207.507812 739.929688 207.46875 L 739.929688 192.585938 L 772.375 194.75 C 772.4375 194.753906 772.5 194.769531 772.558594 194.796875 L 797.925781 206.578125 C 798.53125 206.863281 799.234375 206.816406 799.796875 206.457031 C 800.363281 206.09375 800.699219 205.480469 800.699219 204.808594 L 800.699219 174.570312 C 804.902344 172.785156 807.707031 168.265625 807.707031 163.105469 Z M 738.488281 207.621094 L 716.871094 212.332031 L 716.871094 191.285156 L 738.488281 192.496094 Z M 581.714844 328.980469 C 582.269531 329.746094 587.234375 336.519531 594.855469 344.925781 C 594.054688 347.097656 589.839844 357.140625 580.097656 357.140625 C 573.148438 357.441406 567.371094 355.019531 562.867188 350.003906 C 552.542969 338.511719 549.328125 313.664062 554.042969 281.832031 C 556.335938 266.363281 561.519531 256.214844 569.449219 251.667969 C 577.816406 246.867188 586.414062 250.226562 586.5 250.261719 C 586.523438 250.273438 586.546875 250.269531 586.570312 250.273438 C 594.835938 256.015625 602.652344 264.171875 611.640625 274.4375 C 611.640625 274.441406 611.640625 274.445312 611.644531 274.445312 C 611.644531 274.449219 611.648438 274.449219 611.648438 274.449219 C 614.628906 277.855469 617.730469 281.480469 621.027344 285.339844 C 621.382812 285.753906 621.75 286.183594 622.109375 286.601562 L 581.78125 328.054688 C 581.535156 328.308594 581.507812 328.699219 581.714844 328.980469 Z M 656.070312 425.261719 C 655.671875 425.261719 655.351562 425.585938 655.351562 425.980469 L 655.351562 487.554688 C 655.351562 487.953125 655.671875 488.273438 656.070312 488.273438 L 708.554688 488.273438 L 708.554688 525.433594 C 708.554688 526.972656 707.304688 528.222656 705.765625 528.222656 L 604.8125 528.222656 L 605.773438 441.496094 L 609.527344 441.496094 C 609.910156 441.496094 610.226562 441.195312 610.246094 440.816406 L 614.410156 363.664062 C 626.039062 373.097656 639.421875 380.769531 652.226562 380.765625 C 652.828125 380.765625 653.4375 380.75 654.039062 380.714844 C 674.332031 379.539062 695.136719 335.65625 708.554688 300.667969 L 708.554688 425.261719 Z M 321.140625 506.054688 C 332.027344 500.703125 339.539062 489.5 339.539062 476.570312 C 339.539062 463.644531 332.027344 452.441406 321.140625 447.089844 L 321.140625 341.445312 L 465.433594 341.445312 C 470.835938 341.445312 473.8125 338.042969 473.8125 331.871094 L 473.8125 236.550781 L 535.355469 236.550781 L 534.246094 243.960938 C 531.171875 245.566406 528.292969 247.546875 525.625 249.933594 C 513.175781 261.082031 505.625 280.917969 504.914062 304.355469 C 503.96875 335.613281 510.078125 439.769531 510.140625 440.816406 C 510.164062 441.199219 510.476562 441.496094 510.859375 441.496094 L 513.597656 441.496094 C 513.222656 447.226562 511.171875 484.863281 518.664062 528.222656 L 323.929688 528.222656 C 322.390625 528.222656 321.140625 526.972656 321.140625 525.433594 Z M 551.390625 228.570312 C 551.390625 228.570312 551.394531 228.570312 551.394531 228.570312 L 585.109375 228.570312 C 585.113281 228.570312 585.113281 228.570312 585.113281 228.570312 L 590.902344 228.570312 L 590.902344 251.78125 C 589.710938 250.847656 588.515625 249.964844 587.308594 249.128906 C 587.234375 249.046875 587.148438 248.972656 587.039062 248.929688 C 587.035156 248.925781 587.007812 248.917969 587 248.914062 C 578.992188 243.429688 570.488281 240.054688 560.25 239.234375 C 551.132812 238.503906 542.960938 239.839844 535.816406 243.183594 L 538 228.570312 Z M 585.886719 218.835938 C 587.996094 217.28125 590.269531 215.496094 592.476562 213.757812 C 593.363281 213.058594 594.21875 212.386719 595.039062 211.746094 C 595.914062 211.804688 596.804688 211.84375 597.695312 211.863281 L 633.773438 252.9375 C 622.574219 263.59375 614.332031 271.0625 612.238281 272.945312 C 605.285156 265.035156 598.890625 258.28125 592.339844 252.925781 L 592.339844 227.847656 C 592.339844 227.449219 592.019531 227.128906 591.621094 227.128906 L 585.839844 227.128906 Z M 585.894531 217.03125 L 585.929688 210.726562 C 587.304688 210.945312 589.90625 211.324219 592.910156 211.589844 C 592.46875 211.9375 592.042969 212.265625 591.585938 212.625 C 589.6875 214.121094 587.742188 215.648438 585.894531 217.03125 Z M 608.847656 440.054688 L 511.539062 440.054688 C 511.007812 430.976562 505.449219 334.269531 506.355469 304.402344 C 507.050781 281.355469 514.425781 261.890625 526.585938 251.003906 C 535.449219 243.070312 546.734375 239.589844 560.136719 240.667969 C 568.75 241.359375 576.035156 243.824219 582.859375 247.882812 C 579.34375 247.359375 574.066406 247.367188 568.753906 250.40625 C 560.410156 255.179688 554.980469 265.683594 552.621094 281.621094 C 547.839844 313.878906 551.1875 339.15625 561.792969 350.964844 C 566.351562 356.035156 572.140625 358.605469 578.996094 358.605469 C 579.371094 358.605469 579.746094 358.597656 580.128906 358.582031 C 589.910156 358.582031 594.566406 349.429688 595.933594 346.109375 C 600.785156 351.382812 606.617188 357.199219 613.03125 362.539062 Z M 623.742188 285.957031 C 623.617188 285.832031 623.453125 285.773438 623.285156 285.761719 C 622.902344 285.3125 622.503906 284.851562 622.125 284.40625 C 619.011719 280.765625 616.050781 277.304688 613.1875 274.027344 C 615.289062 272.136719 623.742188 264.480469 635.207031 253.558594 C 635.222656 253.546875 635.242188 253.542969 635.253906 253.53125 C 635.273438 253.511719 635.285156 253.488281 635.300781 253.472656 C 640.585938 248.4375 646.496094 242.71875 652.722656 236.550781 L 691.378906 236.550781 C 689.773438 242.460938 687.859375 248.304688 685.429688 252.8125 C 679.28125 264.214844 653.394531 308.644531 649.519531 315.292969 C 639.664062 304.835938 631.347656 295.1875 623.949219 286.535156 C 623.96875 286.328125 623.90625 286.113281 623.742188 285.957031 Z M 691.761719 235.113281 L 654.171875 235.113281 C 659.273438 230.039062 664.554688 224.695312 669.855469 219.191406 L 695.621094 219.191406 C 695.183594 220.9375 694.726562 222.890625 694.230469 225.007812 C 693.484375 228.1875 692.675781 231.644531 691.761719 235.113281 Z M 695.992188 217.753906 L 671.234375 217.753906 C 679.925781 208.6875 688.597656 199.253906 696.476562 190.03125 C 696.707031 190.144531 696.960938 190.222656 697.230469 190.238281 L 715.429688 191.207031 L 715.429688 201.90625 C 712.785156 202.71875 700.5625 206.726562 697.851562 212.148438 C 697.234375 213.386719 696.628906 215.324219 695.992188 217.753906 Z M 695.253906 185.289062 L 689.199219 185.289062 C 688.179688 185.289062 687.335938 184.488281 687.277344 183.472656 L 685.746094 155.828125 C 685.660156 154.296875 686.789062 152.988281 688.3125 152.84375 L 693.824219 152.324219 Z M 716.191406 189.804688 C 716.191406 189.804688 716.191406 189.804688 716.1875 189.804688 L 697.308594 188.796875 C 697.042969 188.785156 696.835938 188.574219 696.824219 188.3125 L 695.082031 148.144531 C 695.070312 147.882812 695.261719 147.652344 695.535156 147.617188 L 731.292969 141.894531 L 731.292969 190.652344 Z M 775.246094 36.03125 C 773.230469 37.96875 764.375 46.738281 763.613281 51.945312 C 763.402344 51.890625 763.164062 51.933594 762.980469 52.082031 C 761.988281 52.882812 760.726562 53.082031 759.914062 52.570312 C 758.789062 51.859375 758.523438 49.851562 759.1875 47.066406 C 761.085938 39.117188 768.085938 30.640625 771.882812 28.804688 C 772.167969 28.667969 772.605469 28.589844 773.113281 28.589844 C 774.21875 28.589844 775.640625 28.964844 776.441406 29.910156 C 777.855469 31.589844 776.527344 34.21875 775.246094 36.03125 Z M 771.402344 22.984375 C 772.472656 23.664062 772.726562 25.175781 772.144531 27.25 C 771.8125 27.3125 771.5 27.390625 771.257812 27.507812 C 766.710938 29.707031 759.6875 38.773438 757.789062 46.730469 C 757.589844 47.570312 757.496094 48.285156 757.445312 48.945312 C 755.121094 48.601562 753.71875 47.691406 753.191406 46.160156 C 751.3125 40.671875 760.800781 28.59375 764.722656 24.929688 C 766.972656 22.832031 769.84375 22 771.402344 22.984375 Z M 631.363281 181.601562 C 636.324219 177.339844 641.738281 172.691406 647.761719 167.546875 C 671.582031 147.222656 722.769531 79.238281 724.261719 74.632812 C 725.488281 72.359375 726.054688 67.304688 726.710938 61.445312 C 727.089844 58.035156 727.488281 54.503906 728.050781 51.0625 C 729.925781 39.625 730.347656 22.714844 730.039062 14.886719 C 729.988281 13.554688 730.242188 11.941406 731.757812 11.789062 C 734.511719 11.527344 739.277344 15.6875 740.277344 21.996094 C 741.820312 31.71875 742.40625 38.28125 742.414062 38.347656 C 742.4375 38.644531 742.644531 38.894531 742.929688 38.976562 C 743.21875 39.054688 743.527344 38.957031 743.703125 38.714844 C 743.824219 38.558594 755.699219 22.757812 760.347656 16.707031 C 764.109375 11.808594 771.960938 1.625 775.820312 2.835938 C 776.515625 3.054688 776.945312 3.488281 777.132812 4.167969 C 777.445312 5.300781 777.664062 9.882812 767.421875 21.324219 C 767.335938 21.421875 767.289062 21.539062 767.265625 21.65625 C 766.058594 22.113281 764.835938 22.855469 763.742188 23.878906 C 760.449219 26.953125 749.535156 39.929688 751.832031 46.625 C 752.554688 48.734375 754.449219 49.992188 757.433594 50.390625 C 757.601562 52.402344 758.480469 53.363281 759.148438 53.785156 C 760.417969 54.59375 762.195312 54.425781 763.644531 53.386719 C 763.703125 53.648438 763.796875 53.890625 763.925781 54.117188 C 764.589844 55.265625 765.621094 55.914062 766.910156 55.988281 C 766.996094 55.992188 767.082031 55.996094 767.167969 55.996094 C 770.539062 55.996094 775.125 52.28125 777.808594 48.683594 C 778.046875 48.367188 777.980469 47.914062 777.664062 47.675781 C 777.34375 47.441406 776.894531 47.503906 776.65625 47.824219 C 774.148438 51.183594 769.730469 54.710938 766.996094 54.550781 C 766.191406 54.503906 765.59375 54.128906 765.175781 53.398438 C 763.644531 50.742188 771.085938 42.042969 776.269531 37.03125 C 776.335938 37.035156 776.40625 37.042969 776.476562 37.027344 C 777.929688 36.726562 779.015625 37.058594 779.796875 38.054688 C 782.128906 41.027344 781.667969 49.890625 775.386719 62.988281 C 775.03125 63.679688 754.808594 102.632812 730.640625 140.542969 L 695.320312 146.191406 C 694.320312 146.332031 693.601562 147.199219 693.644531 148.207031 L 693.761719 150.882812 L 688.179688 151.410156 C 685.878906 151.628906 684.179688 153.601562 684.308594 155.90625 L 685.84375 183.550781 C 685.941406 185.332031 687.417969 186.726562 689.199219 186.726562 L 695.316406 186.726562 L 695.386719 188.375 C 695.394531 188.574219 695.453125 188.761719 695.519531 188.941406 C 676.265625 211.496094 652.214844 235.351562 634.820312 251.945312 L 599.625 211.878906 C 604.140625 211.832031 608.304688 211.160156 609.722656 209.0625 C 613 204.203125 615.222656 199.355469 616.449219 194.367188 C 621.015625 190.488281 625.914062 186.28125 631.363281 181.601562 Z M 615.871094 172.53125 C 615.875 172.707031 615.945312 172.878906 616.066406 173.011719 C 617.730469 174.796875 622.136719 179.976562 622.507812 182.421875 C 622.800781 184.367188 618.894531 187 616.363281 188.203125 C 616.136719 188.308594 615.980469 188.53125 615.957031 188.78125 C 615.277344 195.484375 612.847656 201.855469 608.53125 208.253906 C 607.308594 210.066406 602.886719 210.53125 598.078125 210.425781 C 598.0625 210.425781 598.050781 210.425781 598.035156 210.425781 C 597.007812 210.402344 595.960938 210.347656 594.925781 210.28125 C 594.921875 210.28125 594.917969 210.28125 594.914062 210.28125 C 591.15625 210.03125 587.527344 209.546875 585.339844 209.167969 C 585.132812 209.136719 584.917969 209.191406 584.753906 209.324219 C 584.589844 209.460938 584.496094 209.660156 584.496094 209.875 L 584.398438 227.128906 L 552.117188 227.128906 L 552.164062 218.765625 C 552.207031 218.675781 552.230469 218.578125 552.230469 218.472656 C 552.230469 218.371094 552.207031 218.273438 552.167969 218.183594 L 552.226562 207.664062 C 566.105469 205.730469 571.71875 189.425781 571.773438 189.257812 C 571.855469 189.007812 571.796875 188.734375 571.617188 188.542969 C 571.441406 188.347656 571.171875 188.269531 570.914062 188.332031 C 562.421875 190.484375 556.753906 187.078125 554.28125 183.171875 C 551.816406 179.285156 552.101562 174.503906 554.996094 170.988281 C 561.59375 162.984375 570.453125 168.335938 570.828125 168.566406 C 571.042969 168.699219 571.308594 168.710938 571.535156 168.597656 C 571.757812 168.484375 571.90625 168.261719 571.925781 168.011719 C 571.9375 167.890625 572.839844 156.160156 572.75 146.820312 L 612.449219 144.863281 C 615.566406 154.914062 615.871094 172.351562 615.871094 172.53125 Z M 550.722656 219.191406 L 550.679688 227.128906 L 537.382812 227.128906 C 537.023438 227.128906 536.722656 227.390625 536.671875 227.742188 L 535.570312 235.113281 L 473.8125 235.113281 L 473.8125 219.191406 Z M 217.734375 228.488281 L 217.734375 175.25 C 217.734375 174.179688 218.609375 173.304688 219.679688 173.304688 L 367.714844 173.304688 C 368.785156 173.304688 369.660156 174.179688 369.660156 175.25 L 369.660156 228.488281 C 369.660156 229.5625 368.785156 230.433594 367.714844 230.433594 L 359.609375 230.433594 C 359.351562 230.433594 359.113281 230.574219 358.984375 230.796875 L 328.917969 283.335938 L 339.019531 231.292969 C 339.0625 231.082031 339.003906 230.863281 338.867188 230.695312 C 338.730469 230.53125 338.527344 230.433594 338.3125 230.433594 L 219.679688 230.433594 C 218.609375 230.433594 217.734375 229.5625 217.734375 228.488281 Z M 285.988281 231.875 L 337.441406 231.875 L 326.679688 287.332031 C 326.613281 287.675781 326.804688 288.019531 327.132812 288.144531 C 327.214844 288.171875 327.300781 288.1875 327.382812 288.1875 C 327.636719 288.1875 327.878906 288.054688 328.007812 287.828125 L 360.027344 231.875 L 367.714844 231.875 C 369.578125 231.875 371.097656 230.355469 371.097656 228.488281 L 371.097656 175.25 C 371.097656 173.382812 369.578125 171.867188 367.714844 171.867188 L 285.988281 171.867188 L 285.988281 131.671875 L 448.917969 131.671875 L 448.917969 300.308594 L 285.988281 300.308594 Z M 265.886719 331.871094 L 265.886719 231.875 L 284.550781 231.875 L 284.550781 301.027344 C 284.550781 301.425781 284.871094 301.75 285.269531 301.75 L 449.640625 301.75 C 450.035156 301.75 450.359375 301.425781 450.359375 301.027344 L 450.359375 130.949219 C 450.359375 130.554688 450.035156 130.230469 449.640625 130.230469 L 285.269531 130.230469 C 284.871094 130.230469 284.550781 130.554688 284.550781 130.949219 L 284.550781 171.867188 L 265.886719 171.867188 L 265.886719 82.460938 C 265.886719 77.976562 269.539062 74.324219 274.023438 74.324219 L 464.238281 74.324219 C 468.722656 74.324219 472.371094 77.976562 472.371094 82.460938 L 472.371094 331.871094 C 472.371094 337.269531 470.039062 340.003906 465.433594 340.003906 L 273.027344 340.003906 C 268.890625 340.003906 265.886719 336.585938 265.886719 331.871094 Z M 313.574219 341.445312 L 319.703125 341.445312 L 319.703125 446.421875 C 317.75 445.578125 315.699219 444.917969 313.574219 444.464844 Z M 275.304688 476.570312 C 275.304688 459.257812 289.390625 445.171875 306.703125 445.171875 C 324.015625 445.171875 338.097656 459.257812 338.097656 476.570312 C 338.097656 489.070312 330.757812 499.882812 320.160156 504.933594 C 320.144531 504.9375 320.132812 504.945312 320.121094 504.949219 C 316.050781 506.882812 311.5 507.96875 306.703125 507.96875 C 289.390625 507.96875 275.304688 493.882812 275.304688 476.570312 Z M 334.730469 540.671875 L 386.175781 540.671875 L 386.175781 552.523438 L 334.730469 552.523438 Z M 387.613281 552.523438 L 387.613281 547.265625 L 642.976562 547.265625 L 642.976562 552.523438 Z M 735.363281 555.9375 L 735.363281 572.5625 C 735.363281 573.652344 734.480469 574.539062 733.390625 574.539062 L 297.203125 574.539062 C 296.113281 574.539062 295.226562 573.652344 295.226562 572.5625 L 295.226562 555.9375 C 295.226562 554.851562 296.113281 553.964844 297.203125 553.964844 L 733.390625 553.964844 C 734.480469 553.964844 735.363281 554.851562 735.363281 555.9375 Z M 695.863281 552.523438 L 644.417969 552.523438 L 644.417969 540.671875 L 695.863281 540.671875 Z M 717.015625 536.441406 C 717.015625 537.980469 715.765625 539.230469 714.226562 539.230469 L 334.367188 539.230469 C 334.257812 539.167969 334.140625 539.125 334.011719 539.125 C 333.878906 539.125 333.761719 539.167969 333.65625 539.230469 L 316.363281 539.230469 C 314.824219 539.230469 313.574219 537.980469 313.574219 536.441406 L 313.574219 508.679688 C 315.699219 508.222656 317.75 507.5625 319.703125 506.71875 L 319.703125 525.433594 C 319.703125 527.765625 321.597656 529.664062 323.929688 529.664062 L 604.074219 529.664062 C 604.078125 529.664062 604.082031 529.664062 604.082031 529.664062 L 705.765625 529.664062 C 708.09375 529.664062 709.992188 527.765625 709.992188 525.433594 L 709.992188 488.273438 L 717.015625 488.273438 Z M 734.476562 486.835938 L 656.789062 486.835938 L 656.789062 426.703125 L 734.476562 426.703125 Z M 717.015625 425.261719 L 709.992188 425.261719 L 709.992188 296.871094 C 712.699219 289.667969 715.0625 282.945312 717.015625 277.171875 Z M 745.011719 210.902344 C 745.917969 212.050781 746.0625 213.71875 745.5 215.835938 L 739.90625 217.792969 C 739.53125 217.925781 739.332031 218.335938 739.464844 218.710938 C 739.566406 219.007812 739.84375 219.191406 740.144531 219.191406 C 740.222656 219.191406 740.300781 219.179688 740.378906 219.152344 L 746.125 217.140625 C 747.355469 217.457031 748.273438 218.292969 748.699219 219.539062 C 749.308594 221.3125 748.804688 223.519531 747.429688 225.222656 L 741.03125 227.824219 C 740.664062 227.976562 740.488281 228.394531 740.636719 228.761719 C 740.75 229.042969 741.019531 229.210938 741.304688 229.210938 C 741.394531 229.210938 741.484375 229.195312 741.574219 229.15625 L 747.761719 226.640625 C 748.703125 227.363281 749.082031 228.457031 749.203125 229.300781 C 749.492188 231.253906 748.871094 233.574219 747.6875 235.152344 C 747.664062 235.160156 747.636719 235.15625 747.613281 235.167969 L 741.03125 237.84375 C 740.664062 237.996094 740.488281 238.414062 740.636719 238.78125 C 740.75 239.0625 741.019531 239.230469 741.304688 239.230469 C 741.394531 239.230469 741.484375 239.214844 741.574219 239.175781 L 747.585938 236.730469 C 748.492188 237.257812 748.972656 238.089844 749.003906 239.210938 C 749.082031 242.058594 746.417969 245.855469 742.667969 248.238281 C 738.199219 251.070312 722.367188 257.0625 722.207031 257.121094 C 721.996094 257.203125 721.835938 257.375 721.773438 257.59375 C 721.417969 258.789062 686.097656 377.414062 653.953125 379.277344 C 653.390625 379.308594 652.828125 379.328125 652.257812 379.328125 C 622.054688 379.328125 587.15625 333.859375 583.238281 328.621094 L 623.050781 287.703125 C 630.578125 296.5 639.054688 306.320312 649.132812 316.980469 C 649.285156 317.144531 649.507812 317.226562 649.738281 317.199219 C 649.964844 317.171875 650.164062 317.042969 650.277344 316.847656 C 650.574219 316.339844 680.066406 265.789062 686.695312 253.496094 C 690.839844 245.808594 693.496094 234.457031 695.632812 225.335938 C 696.9375 219.761719 698.0625 214.945312 699.140625 212.792969 C 701.4375 208.195312 712.203125 204.449219 715.429688 203.414062 L 715.429688 212.46875 C 715.429688 212.53125 715.453125 212.582031 715.464844 212.636719 L 710.679688 213.683594 C 710.292969 213.765625 710.046875 214.152344 710.132812 214.539062 C 710.214844 214.925781 710.59375 215.179688 710.988281 215.085938 L 739.332031 208.898438 C 739.371094 208.898438 743.277344 208.707031 745.011719 210.902344 Z M 739.253906 191.097656 C 739.253906 191.097656 739.253906 191.097656 739.25 191.097656 L 732.730469 190.734375 L 732.730469 141.664062 L 771.234375 135.503906 L 772.128906 193.289062 Z M 799.257812 204.808594 C 799.257812 205.0625 799.09375 205.195312 799.023438 205.242188 C 798.949219 205.289062 798.757812 205.378906 798.53125 205.273438 L 773.574219 193.679688 L 772.667969 135.101562 C 774.140625 134.402344 779.339844 131.835938 798.519531 122.304688 C 798.75 122.191406 798.945312 122.285156 799.015625 122.328125 C 799.089844 122.375 799.257812 122.507812 799.257812 122.765625 Z M 598.3125 203.367188 C 598.679688 203.46875 599.050781 203.519531 599.421875 203.519531 C 601.984375 203.519531 604.566406 201.183594 605.519531 197.796875 C 606.035156 195.960938 606 194.078125 605.429688 192.5 C 604.828125 190.839844 603.699219 189.699219 602.257812 189.296875 C 599.382812 188.488281 596.144531 190.984375 595.054688 194.863281 C 594.539062 196.699219 594.570312 198.582031 595.140625 200.160156 C 595.746094 201.824219 596.871094 202.960938 598.3125 203.367188 Z M 596.4375 195.253906 C 597.210938 192.5 599.203125 190.578125 601.117188 190.578125 C 601.371094 190.578125 601.621094 190.613281 601.867188 190.679688 C 602.851562 190.957031 603.636719 191.777344 604.074219 192.992188 C 604.546875 194.289062 604.566406 195.859375 604.132812 197.410156 C 603.257812 200.523438 600.835938 202.578125 598.699219 201.980469 C 597.71875 201.703125 596.933594 200.882812 596.496094 199.671875 C 596.023438 198.371094 596.003906 196.804688 596.4375 195.253906 Z M 390.804688 393.054688 L 390.804688 434.503906 C 390.804688 434.507812 390.808594 434.511719 390.808594 434.515625 C 390.808594 434.578125 390.828125 434.632812 390.84375 434.691406 C 390.851562 434.726562 390.851562 434.757812 390.863281 434.789062 C 390.882812 434.828125 390.910156 434.855469 390.933594 434.890625 C 390.960938 434.933594 390.984375 434.980469 391.019531 435.015625 C 391.039062 435.035156 391.066406 435.042969 391.085938 435.058594 C 391.140625 435.101562 391.195312 435.144531 391.257812 435.167969 C 391.261719 435.171875 391.261719 435.171875 391.265625 435.175781 C 391.351562 435.207031 391.4375 435.222656 391.523438 435.222656 L 462.085938 435.222656 C 462.175781 435.222656 462.261719 435.207031 462.347656 435.175781 C 462.351562 435.171875 462.351562 435.171875 462.355469 435.167969 C 462.417969 435.144531 462.472656 435.101562 462.527344 435.058594 C 462.546875 435.042969 462.574219 435.035156 462.589844 435.015625 C 462.628906 434.980469 462.648438 434.933594 462.675781 434.890625 C 462.699219 434.855469 462.730469 434.828125 462.746094 434.789062 C 462.757812 434.757812 462.761719 434.726562 462.769531 434.691406 C 462.785156 434.632812 462.804688 434.578125 462.804688 434.515625 C 462.804688 434.511719 462.808594 434.507812 462.808594 434.503906 L 462.808594 382.574219 C 462.808594 382.570312 462.804688 382.566406 462.804688 382.5625 C 462.804688 382.507812 462.785156 382.457031 462.773438 382.402344 C 462.761719 382.363281 462.761719 382.324219 462.746094 382.285156 C 462.738281 382.269531 462.722656 382.253906 462.710938 382.234375 C 462.675781 382.171875 462.636719 382.105469 462.585938 382.054688 C 462.582031 382.054688 462.582031 382.050781 462.582031 382.050781 C 462.558594 382.03125 462.535156 382.023438 462.511719 382.007812 C 462.460938 381.96875 462.410156 381.929688 462.351562 381.90625 C 462.296875 381.886719 462.246094 381.882812 462.191406 381.875 C 462.15625 381.867188 462.125 381.851562 462.085938 381.851562 L 402.050781 381.851562 C 401.523438 376.722656 397.171875 372.707031 391.902344 372.707031 C 386.277344 372.707031 381.699219 377.28125 381.699219 382.910156 C 381.699219 388.164062 385.695312 392.503906 390.804688 393.054688 Z M 398.324219 390.828125 L 404.972656 397.875 L 392.246094 430.664062 L 392.246094 393.097656 C 394.542969 393.019531 396.652344 392.1875 398.324219 390.828125 Z M 402.085938 383.292969 L 460.417969 383.292969 L 447.300781 397.195312 L 426.804688 418.914062 L 399.371094 389.839844 C 400.980469 388.105469 401.992188 385.816406 402.085938 383.292969 Z M 426.28125 420.457031 C 426.417969 420.601562 426.609375 420.683594 426.804688 420.683594 C 427.003906 420.683594 427.195312 420.601562 427.328125 420.457031 L 447.542969 399.03125 L 461.035156 433.785156 L 392.574219 433.785156 L 406.066406 399.03125 Z M 448.636719 397.875 L 461.367188 384.382812 L 461.367188 430.664062 Z M 391.902344 374.144531 C 396.628906 374.144531 400.484375 377.910156 400.652344 382.59375 C 400.652344 382.597656 400.652344 382.597656 400.652344 382.597656 C 400.652344 382.601562 400.65625 382.648438 400.65625 382.691406 C 400.660156 382.765625 400.667969 382.835938 400.667969 382.910156 C 400.667969 387.742188 396.738281 391.675781 391.902344 391.675781 L 391.71875 391.664062 C 391.710938 391.664062 391.5625 391.65625 391.558594 391.65625 C 391.554688 391.65625 391.554688 391.65625 391.554688 391.65625 C 386.882812 391.472656 383.140625 387.625 383.140625 382.910156 C 383.140625 378.078125 387.070312 374.144531 391.902344 374.144531 Z M 387.097656 387.070312 L 388.292969 387.070312 L 388.292969 379.183594 L 387.460938 379.183594 C 387.222656 379.613281 386.671875 379.984375 385.746094 380.050781 L 385.746094 380.882812 L 387.097656 380.882812 Z M 391.300781 387.183594 C 392.476562 387.183594 393.183594 386.460938 393.183594 385.265625 L 393.183594 383.285156 C 393.183594 382.328125 392.644531 381.695312 391.753906 381.695312 C 391.210938 381.695312 390.785156 381.964844 390.617188 382.269531 L 390.617188 380.3125 L 392.878906 380.3125 L 392.878906 379.183594 L 389.46875 379.183594 L 389.46875 383.691406 L 390.617188 383.691406 L 390.617188 383.554688 C 390.617188 383.070312 390.929688 382.777344 391.359375 382.777344 C 391.742188 382.777344 391.988281 383.003906 391.988281 383.464844 L 391.988281 385.289062 C 391.988281 385.808594 391.71875 386.058594 391.28125 386.058594 C 390.839844 386.058594 390.570312 385.808594 390.570312 385.175781 L 390.570312 384.917969 L 389.421875 385.03125 L 389.421875 385.265625 C 389.421875 386.460938 390.132812 387.183594 391.300781 387.183594 Z M 396.207031 387.070312 L 397.402344 387.070312 L 397.402344 385.425781 L 398.042969 385.425781 L 398.042969 384.296875 L 397.402344 384.296875 L 397.402344 379.183594 L 395.980469 379.183594 L 393.875 384.355469 L 393.875 385.425781 L 396.207031 385.425781 Z M 395.003906 384.296875 L 396.207031 381.199219 L 396.207031 384.296875 Z M 297.234375 90.929688 C 290.238281 90.929688 284.550781 96.617188 284.550781 103.613281 C 284.550781 110.605469 290.238281 116.296875 297.234375 116.296875 C 304.226562 116.296875 309.917969 110.605469 309.917969 103.613281 C 309.917969 96.617188 304.226562 90.929688 297.234375 90.929688 Z M 422.71875 107.097656 L 323.199219 107.097656 C 321.414062 107.097656 319.964844 108.550781 319.964844 110.332031 L 319.964844 111.851562 C 319.964844 113.636719 321.414062 115.085938 323.199219 115.085938 L 422.71875 115.085938 C 424.5 115.085938 425.953125 113.636719 425.953125 111.851562 L 425.953125 110.332031 C 425.949219 108.550781 424.5 107.097656 422.71875 107.097656 Z M 424.511719 111.851562 C 424.511719 112.84375 423.707031 113.648438 422.71875 113.648438 L 323.199219 113.648438 C 322.210938 113.648438 321.402344 112.84375 321.402344 111.851562 L 321.402344 110.332031 C 321.402344 109.34375 322.210938 108.539062 323.199219 108.539062 L 422.71875 108.539062 C 423.707031 108.539062 424.511719 109.34375 424.511719 110.332031 Z M 323.199219 100.125 L 362.65625 100.125 C 364.4375 100.125 365.890625 98.675781 365.890625 96.890625 L 365.890625 95.371094 C 365.890625 93.589844 364.4375 92.136719 362.65625 92.136719 L 323.199219 92.136719 C 321.414062 92.136719 319.964844 93.589844 319.964844 95.371094 L 319.964844 96.890625 C 319.964844 98.675781 321.414062 100.125 323.199219 100.125 Z M 321.402344 95.371094 C 321.402344 94.382812 322.210938 93.578125 323.199219 93.578125 L 362.65625 93.578125 C 363.644531 93.578125 364.449219 94.382812 364.449219 95.371094 L 364.449219 96.890625 C 364.449219 97.882812 363.644531 98.6875 362.65625 98.6875 L 323.199219 98.6875 C 322.210938 98.6875 321.402344 97.882812 321.402344 96.890625 Z M 436.082031 324.796875 L 442.699219 321.507812 L 449.320312 324.796875 C 449.421875 324.84375 449.53125 324.871094 449.640625 324.871094 C 449.773438 324.871094 449.902344 324.832031 450.019531 324.761719 C 450.230469 324.632812 450.359375 324.398438 450.359375 324.152344 L 450.359375 309.402344 C 450.359375 309.003906 450.039062 308.683594 449.640625 308.683594 L 435.761719 308.683594 C 435.363281 308.683594 435.039062 309.003906 435.039062 309.402344 L 435.039062 324.152344 C 435.039062 324.398438 435.171875 324.632812 435.382812 324.761719 C 435.59375 324.890625 435.855469 324.902344 436.082031 324.796875 Z M 301.777344 309.726562 C 300.574219 308.824219 299.3125 308.503906 298.023438 308.777344 C 296.175781 309.167969 294.757812 310.710938 293.992188 311.738281 C 293.230469 310.710938 291.8125 309.167969 289.964844 308.777344 C 288.679688 308.503906 287.417969 308.824219 286.210938 309.726562 C 284.558594 310.964844 284.125 313.070312 284.984375 315.648438 C 286.421875 319.957031 291.222656 324.871094 293.992188 324.871094 C 296.769531 324.871094 301.566406 319.957031 303.003906 315.648438 C 303.863281 313.070312 303.429688 310.964844 301.777344 309.726562 Z M 301.636719 315.195312 C 300.339844 319.089844 295.972656 323.429688 293.992188 323.429688 C 292.015625 323.429688 287.652344 319.09375 286.351562 315.195312 C 285.683594 313.191406 285.925781 311.738281 287.074219 310.878906 C 287.75 310.371094 288.410156 310.121094 289.082031 310.121094 C 289.273438 310.121094 289.46875 310.144531 289.660156 310.183594 C 291.792969 310.632812 293.351562 313.363281 293.367188 313.390625 C 293.621094 313.84375 294.367188 313.84375 294.621094 313.390625 C 294.636719 313.363281 296.195312 310.632812 298.324219 310.183594 C 299.195312 310.003906 300.042969 310.226562 300.914062 310.878906 C 302.0625 311.738281 302.304688 313.191406 301.636719 315.195312 Z M 321.324219 325.253906 C 322.597656 325.253906 323.84375 324.953125 325.035156 324.363281 L 328.988281 324.863281 C 329.242188 324.894531 329.484375 324.796875 329.640625 324.605469 C 329.796875 324.410156 329.84375 324.152344 329.761719 323.914062 L 328.714844 320.890625 C 329.425781 319.621094 329.800781 318.207031 329.800781 316.777344 C 329.800781 312.101562 325.996094 308.300781 321.324219 308.300781 C 316.648438 308.300781 312.84375 312.101562 312.84375 316.777344 C 312.84375 321.453125 316.648438 325.253906 321.324219 325.253906 Z M 321.324219 309.738281 C 325.203125 309.738281 328.363281 312.894531 328.363281 316.777344 C 328.363281 318.078125 327.984375 319.363281 327.273438 320.496094 C 327.113281 320.753906 327.148438 321.058594 327.328125 321.289062 L 328.019531 323.289062 L 325.515625 322.972656 C 325.292969 322.792969 324.976562 322.757812 324.714844 322.90625 C 323.628906 323.507812 322.484375 323.816406 321.324219 323.816406 C 317.441406 323.816406 314.285156 320.65625 314.285156 316.777344 C 314.285156 312.894531 317.441406 309.738281 321.324219 309.738281 Z M 339.480469 313.792969 L 347.246094 317.050781 L 350.503906 324.8125 C 350.617188 325.082031 350.878906 325.253906 351.167969 325.253906 C 351.183594 325.253906 351.203125 325.253906 351.21875 325.253906 C 351.523438 325.234375 351.785156 325.015625 351.863281 324.71875 L 355.972656 309.203125 C 355.976562 309.183594 355.96875 309.164062 355.972656 309.140625 C 355.988281 309.058594 355.988281 308.976562 355.972656 308.890625 C 355.964844 308.859375 355.964844 308.832031 355.953125 308.800781 C 355.921875 308.695312 355.871094 308.59375 355.785156 308.507812 C 355.699219 308.421875 355.597656 308.371094 355.488281 308.339844 C 355.464844 308.332031 355.441406 308.332031 355.414062 308.324219 C 355.324219 308.308594 355.234375 308.308594 355.144531 308.324219 C 355.128906 308.328125 355.109375 308.320312 355.09375 308.324219 L 339.578125 312.433594 C 339.277344 312.511719 339.0625 312.769531 339.042969 313.078125 C 339.019531 313.386719 339.199219 313.671875 339.480469 313.792969 Z M 351.011719 322.308594 L 348.648438 316.667969 L 353.898438 311.414062 Z M 352.878906 310.398438 L 347.628906 315.648438 L 341.988281 313.28125 Z M 238.917969 181.140625 C 234.167969 181.140625 230.304688 185.003906 230.304688 189.757812 C 230.304688 194.507812 234.167969 198.375 238.917969 198.375 C 243.671875 198.375 247.535156 194.507812 247.535156 189.757812 C 247.535156 185.007812 243.671875 181.140625 238.917969 181.140625 Z M 238.917969 196.933594 C 234.964844 196.933594 231.742188 193.714844 231.742188 189.757812 C 231.742188 185.800781 234.964844 182.578125 238.917969 182.578125 C 242.875 182.578125 246.097656 185.800781 246.097656 189.757812 C 246.097656 193.714844 242.875 196.933594 238.917969 196.933594 Z M 256.386719 198.375 L 357.925781 198.375 C 358.324219 198.375 358.648438 198.050781 358.648438 197.652344 C 358.648438 197.257812 358.324219 196.933594 357.925781 196.933594 L 256.386719 196.933594 C 255.992188 196.933594 255.667969 197.257812 255.667969 197.652344 C 255.667969 198.050781 255.992188 198.375 256.386719 198.375 Z M 256.386719 190.476562 L 319.304688 190.476562 C 319.703125 190.476562 320.023438 190.15625 320.023438 189.757812 C 320.023438 189.359375 319.703125 189.035156 319.304688 189.035156 L 256.386719 189.035156 C 255.992188 189.035156 255.667969 189.359375 255.667969 189.757812 C 255.667969 190.15625 255.992188 190.476562 256.386719 190.476562 Z M 238.917969 204.992188 C 234.167969 204.992188 230.304688 208.855469 230.304688 213.605469 C 230.304688 218.359375 234.167969 222.222656 238.917969 222.222656 C 243.671875 222.222656 247.535156 218.359375 247.535156 213.605469 C 247.535156 208.855469 243.671875 204.992188 238.917969 204.992188 Z M 238.917969 220.785156 C 234.964844 220.785156 231.742188 217.5625 231.742188 213.605469 C 231.742188 209.648438 234.964844 206.429688 238.917969 206.429688 C 242.875 206.429688 246.097656 209.648438 246.097656 213.605469 C 246.097656 217.5625 242.875 220.785156 238.917969 220.785156 Z M 358.648438 221.503906 C 358.648438 221.105469 358.324219 220.785156 357.925781 220.785156 L 256.386719 220.785156 C 255.992188 220.785156 255.667969 221.105469 255.667969 221.503906 C 255.667969 221.902344 255.992188 222.222656 256.386719 222.222656 L 357.925781 222.222656 C 358.324219 222.222656 358.648438 221.902344 358.648438 221.503906 Z M 256.386719 214.324219 L 319.304688 214.324219 C 319.703125 214.324219 320.023438 214.003906 320.023438 213.605469 C 320.023438 213.207031 319.703125 212.886719 319.304688 212.886719 L 256.386719 212.886719 C 255.992188 212.886719 255.667969 213.207031 255.667969 213.605469 C 255.667969 214.003906 255.992188 214.324219 256.386719 214.324219 Z M 659.972656 404.421875 C 657.523438 404.421875 655.53125 406.417969 655.53125 408.863281 C 655.53125 411.3125 657.523438 413.304688 659.972656 413.304688 C 662.421875 413.304688 664.414062 411.3125 664.414062 408.863281 C 664.414062 406.417969 662.421875 404.421875 659.972656 404.421875 Z M 659.972656 411.867188 C 658.316406 411.867188 656.96875 410.519531 656.96875 408.863281 C 656.96875 407.210938 658.316406 405.863281 659.972656 405.863281 C 661.628906 405.863281 662.972656 407.210938 662.972656 408.863281 C 662.972656 410.519531 661.628906 411.867188 659.972656 411.867188 Z M 674.976562 402.121094 L 672.933594 402.121094 L 672.933594 415.609375 L 678.617188 415.609375 L 678.617188 413.683594 L 674.976562 413.683594 Z M 680.203125 415.609375 L 682.246094 415.609375 L 682.246094 402.121094 L 680.203125 402.121094 Z M 687.449219 412.71875 L 685.90625 402.121094 L 683.828125 402.121094 L 686.0625 415.609375 L 688.796875 415.609375 L 691.035156 402.121094 L 688.992188 402.121094 Z M 698.421875 404.046875 L 698.421875 402.121094 L 692.621094 402.121094 L 692.621094 415.609375 L 698.421875 415.609375 L 698.421875 413.683594 L 694.660156 413.683594 L 694.660156 409.730469 L 697.648438 409.730469 L 697.648438 407.804688 L 694.660156 407.804688 L 694.660156 404.046875 Z M 699.273438 454.808594 L 683.578125 446.214844 C 682.878906 445.832031 682.054688 445.847656 681.367188 446.253906 C 680.683594 446.660156 680.273438 447.378906 680.273438 448.175781 L 680.273438 465.363281 C 680.273438 466.160156 680.683594 466.878906 681.367188 467.285156 C 681.722656 467.496094 682.113281 467.597656 682.507812 467.597656 C 682.871094 467.597656 683.242188 467.507812 683.578125 467.320312 L 699.273438 458.726562 C 700 458.328125 700.433594 457.597656 700.433594 456.769531 C 700.433594 455.941406 700 455.207031 699.273438 454.808594 Z M 698.582031 457.464844 L 689.796875 462.273438 L 682.886719 466.058594 C 682.527344 466.253906 682.21875 466.113281 682.101562 466.046875 C 681.984375 465.976562 681.714844 465.769531 681.714844 465.363281 L 681.714844 448.175781 C 681.714844 447.765625 681.984375 447.5625 682.101562 447.492188 C 682.175781 447.449219 682.320312 447.378906 682.511719 447.378906 C 682.625 447.378906 682.753906 447.40625 682.886719 447.480469 L 698.582031 456.074219 C 698.953125 456.277344 698.992188 456.628906 698.992188 456.769531 C 698.992188 456.910156 698.953125 457.261719 698.582031 457.464844 Z M 708.160156 438.742188 C 708.160156 438.34375 707.835938 438.023438 707.4375 438.023438 L 671.386719 438.023438 C 670.988281 438.023438 670.664062 438.34375 670.664062 438.742188 L 670.664062 474.796875 C 670.664062 475.195312 670.988281 475.515625 671.386719 475.515625 L 707.4375 475.515625 C 707.835938 475.515625 708.160156 475.195312 708.160156 474.796875 L 708.160156 464.550781 L 721.480469 471.847656 C 722.070312 472.171875 722.769531 472.160156 723.347656 471.816406 C 723.925781 471.476562 724.269531 470.867188 724.269531 470.195312 L 724.269531 443.339844 C 724.269531 442.667969 723.925781 442.0625 723.347656 441.71875 C 722.769531 441.375 722.070312 441.367188 721.480469 441.6875 L 708.160156 448.984375 Z M 706.71875 474.078125 L 672.105469 474.078125 L 672.105469 439.460938 L 706.71875 439.460938 Z M 722.171875 442.953125 C 722.375 442.839844 722.546875 442.921875 722.613281 442.957031 C 722.679688 442.996094 722.832031 443.113281 722.832031 443.339844 L 722.832031 470.195312 C 722.832031 470.425781 722.679688 470.542969 722.613281 470.578125 C 722.546875 470.617188 722.375 470.699219 722.171875 470.585938 L 708.160156 462.910156 L 708.160156 450.625 Z M 674.75 511.929688 C 675.71875 511.929688 676.582031 511.5 677.183594 510.828125 L 687.921875 516.777344 C 687.839844 517.070312 687.777344 517.371094 687.777344 517.691406 C 687.777344 519.496094 689.246094 520.964844 691.054688 520.964844 C 692.859375 520.964844 694.328125 519.496094 694.328125 517.691406 C 694.328125 515.886719 692.859375 514.417969 691.054688 514.417969 C 690.082031 514.417969 689.21875 514.847656 688.621094 515.519531 L 677.878906 509.566406 C 677.964844 509.277344 678.023438 508.972656 678.023438 508.65625 C 678.023438 508.335938 677.964844 508.035156 677.878906 507.746094 L 688.621094 501.792969 C 689.21875 502.464844 690.082031 502.894531 691.054688 502.894531 C 692.859375 502.894531 694.328125 501.425781 694.328125 499.621094 C 694.328125 497.816406 692.859375 496.347656 691.054688 496.347656 C 689.246094 496.347656 687.777344 497.816406 687.777344 499.621094 C 687.777344 499.941406 687.839844 500.242188 687.921875 500.535156 L 677.183594 506.484375 C 676.582031 505.8125 675.71875 505.382812 674.75 505.382812 C 672.945312 505.382812 671.476562 506.851562 671.476562 508.65625 C 671.476562 510.460938 672.945312 511.929688 674.75 511.929688 Z M 691.054688 515.855469 C 692.066406 515.855469 692.886719 516.675781 692.886719 517.691406 C 692.886719 518.703125 692.066406 519.523438 691.054688 519.523438 C 690.042969 519.523438 689.21875 518.703125 689.21875 517.691406 C 689.21875 516.675781 690.042969 515.855469 691.054688 515.855469 Z M 691.054688 497.785156 C 692.066406 497.785156 692.886719 498.609375 692.886719 499.621094 C 692.886719 500.632812 692.066406 501.457031 691.054688 501.457031 C 690.042969 501.457031 689.21875 500.632812 689.21875 499.621094 C 689.21875 498.609375 690.042969 497.785156 691.054688 497.785156 Z M 674.75 506.820312 C 675.761719 506.820312 676.585938 507.644531 676.585938 508.65625 C 676.585938 509.667969 675.761719 510.488281 674.75 510.488281 C 673.738281 510.488281 672.914062 509.667969 672.914062 508.65625 C 672.914062 507.644531 673.738281 506.820312 674.75 506.820312 Z M 316.507812 481.570312 L 325.265625 473.03125 C 325.464844 472.839844 325.535156 472.554688 325.449219 472.292969 C 325.363281 472.03125 325.136719 471.84375 324.867188 471.804688 L 312.761719 470.046875 L 307.347656 459.074219 C 307.105469 458.585938 306.296875 458.585938 306.058594 459.074219 L 300.640625 470.046875 L 288.535156 471.804688 C 288.265625 471.84375 288.039062 472.03125 287.953125 472.292969 C 287.871094 472.554688 287.941406 472.839844 288.136719 473.03125 L 296.898438 481.570312 L 294.828125 493.628906 C 294.78125 493.898438 294.894531 494.171875 295.117188 494.332031 C 295.242188 494.421875 295.390625 494.46875 295.539062 494.46875 C 295.652344 494.46875 295.769531 494.441406 295.875 494.386719 L 306.703125 488.695312 L 317.53125 494.386719 C 317.773438 494.515625 318.066406 494.492188 318.289062 494.332031 C 318.511719 494.171875 318.621094 493.898438 318.574219 493.628906 Z M 307.035156 487.246094 C 306.933594 487.191406 306.816406 487.160156 306.703125 487.160156 C 306.585938 487.160156 306.472656 487.191406 306.367188 487.246094 L 296.496094 492.433594 L 298.378906 481.441406 C 298.421875 481.207031 298.34375 480.96875 298.171875 480.804688 L 290.183594 473.019531 L 301.222656 471.414062 C 301.457031 471.378906 301.660156 471.234375 301.765625 471.023438 L 306.703125 461.019531 L 311.640625 471.023438 C 311.742188 471.234375 311.949219 471.378906 312.179688 471.414062 L 323.21875 473.019531 L 315.230469 480.804688 C 315.0625 480.96875 314.984375 481.207031 315.023438 481.441406 L 316.910156 492.433594 Z M 532.507812 40.800781 C 535 40.800781 537.027344 38.773438 537.027344 36.28125 C 537.027344 33.785156 535 31.757812 532.507812 31.757812 C 530.015625 31.757812 527.988281 33.785156 527.988281 36.28125 C 527.988281 38.773438 530.015625 40.800781 532.507812 40.800781 Z M 532.507812 33.199219 C 534.207031 33.199219 535.589844 34.582031 535.589844 36.28125 C 535.589844 37.980469 534.207031 39.363281 532.507812 39.363281 C 530.808594 39.363281 529.425781 37.980469 529.425781 36.28125 C 529.425781 34.582031 530.808594 33.199219 532.507812 33.199219 Z M 525.867188 50.769531 L 539.148438 50.769531 C 539.542969 50.769531 539.867188 50.449219 539.867188 50.050781 C 539.867188 45.566406 536.566406 41.921875 532.507812 41.921875 C 528.449219 41.921875 525.148438 45.566406 525.148438 50.050781 C 525.148438 50.449219 525.472656 50.769531 525.867188 50.769531 Z M 532.507812 43.363281 C 535.558594 43.363281 538.074219 45.980469 538.394531 49.332031 L 526.621094 49.332031 C 526.941406 45.980469 529.460938 43.363281 532.507812 43.363281 Z M 551.160156 50 C 553.75 50 555.289062 48.390625 555.289062 45.800781 L 555.289062 44.210938 C 555.289062 42.601562 554.605469 41.453125 553.285156 40.84375 C 554.480469 40.230469 555.117188 39.109375 555.117188 37.570312 L 555.117188 36.445312 C 555.117188 33.976562 553.625 32.414062 551.113281 32.414062 C 548.597656 32.414062 547.105469 33.976562 547.105469 36.445312 L 547.105469 37.03125 L 549.597656 37.03125 L 549.597656 36.640625 C 549.597656 35.394531 550.132812 34.859375 551.0625 34.859375 C 551.992188 34.859375 552.527344 35.394531 552.527344 36.398438 L 552.527344 37.714844 C 552.527344 39.082031 551.941406 39.667969 550.574219 39.667969 L 549.71875 39.667969 L 549.71875 42.113281 L 550.746094 42.113281 C 552.113281 42.113281 552.699219 42.699219 552.699219 44.066406 L 552.699219 45.847656 C 552.699219 46.972656 552.113281 47.558594 551.113281 47.558594 C 550.109375 47.558594 549.523438 46.972656 549.523438 45.605469 L 549.523438 45.042969 L 547.035156 45.289062 L 547.035156 45.800781 C 547.035156 48.390625 548.570312 50 551.160156 50 Z M 560.222656 44.605469 L 561.203125 42.722656 L 563.914062 49.757812 L 566.695312 49.757812 L 562.789062 39.914062 L 566.429688 32.660156 L 563.644531 32.660156 L 560.222656 39.597656 L 560.222656 32.660156 L 557.636719 32.660156 L 557.636719 49.757812 L 560.222656 49.757812 Z M 602.585938 50.769531 C 605.707031 50.769531 611.117188 45.21875 612.738281 40.351562 C 613.703125 37.460938 613.21875 35.105469 611.378906 33.726562 C 610.035156 32.71875 608.628906 32.359375 607.191406 32.664062 C 605.054688 33.117188 603.425781 34.949219 602.585938 36.101562 C 601.746094 34.949219 600.121094 33.117188 597.984375 32.664062 C 596.542969 32.359375 595.136719 32.71875 593.796875 33.726562 C 591.957031 35.105469 591.472656 37.460938 592.4375 40.351562 C 594.058594 45.21875 599.464844 50.769531 602.585938 50.769531 Z M 594.660156 34.878906 C 595.441406 34.289062 596.214844 34 597 34 C 597.226562 34 597.453125 34.023438 597.683594 34.070312 C 600.152344 34.589844 601.941406 37.730469 601.957031 37.765625 C 602.214844 38.21875 602.960938 38.21875 603.214844 37.765625 C 603.230469 37.730469 605.023438 34.589844 607.492188 34.070312 C 608.515625 33.855469 609.503906 34.121094 610.515625 34.878906 C 611.859375 35.886719 612.148438 37.574219 611.375 39.894531 C 609.882812 44.359375 604.867188 49.332031 602.585938 49.332031 C 600.308594 49.332031 595.289062 44.359375 593.800781 39.894531 C 593.027344 37.574219 593.316406 35.882812 594.660156 34.878906 Z M 624.996094 50 C 627.535156 50 629.074219 48.4375 629.074219 45.847656 L 629.074219 41.550781 C 629.074219 39.472656 627.902344 38.105469 625.972656 38.105469 C 624.800781 38.105469 623.871094 38.691406 623.507812 39.351562 L 623.507812 35.101562 L 628.414062 35.101562 L 628.414062 32.660156 L 621.011719 32.660156 L 621.011719 42.429688 L 623.507812 42.429688 L 623.507812 42.136719 C 623.507812 41.085938 624.1875 40.449219 625.117188 40.449219 C 625.949219 40.449219 626.488281 40.941406 626.488281 41.941406 L 626.488281 45.898438 C 626.488281 47.023438 625.898438 47.558594 624.945312 47.558594 C 623.992188 47.558594 623.40625 47.023438 623.40625 45.652344 L 623.40625 45.09375 L 620.917969 45.335938 L 620.917969 45.847656 C 620.917969 48.4375 622.457031 50 624.996094 50 Z M 635.28125 50 C 637.773438 50 639.433594 48.339844 639.433594 45.875 L 639.433594 36.542969 C 639.433594 34.074219 637.773438 32.414062 635.28125 32.414062 C 632.789062 32.414062 631.128906 34.074219 631.128906 36.542969 L 631.128906 45.875 C 631.128906 48.339844 632.789062 50 635.28125 50 Z M 633.71875 36.542969 C 633.71875 35.46875 634.328125 34.859375 635.28125 34.859375 C 636.234375 34.859375 636.84375 35.46875 636.84375 36.542969 L 636.84375 45.875 C 636.84375 46.949219 636.234375 47.558594 635.28125 47.558594 C 634.328125 47.558594 633.71875 46.949219 633.71875 45.875 Z M 645.886719 50 C 648.378906 50 650.039062 48.339844 650.039062 45.875 L 650.039062 36.542969 C 650.039062 34.074219 648.378906 32.414062 645.886719 32.414062 C 643.394531 32.414062 641.734375 34.074219 641.734375 36.542969 L 641.734375 45.875 C 641.734375 48.339844 643.394531 50 645.886719 50 Z M 644.324219 36.542969 C 644.324219 35.46875 644.933594 34.859375 645.886719 34.859375 C 646.839844 34.859375 647.449219 35.46875 647.449219 36.542969 L 647.449219 45.875 C 647.449219 46.949219 646.839844 47.558594 645.886719 47.558594 C 644.933594 47.558594 644.324219 46.949219 644.324219 45.875 Z M 521.085938 61.191406 L 578.492188 61.191406 L 588.210938 75.105469 C 588.34375 75.296875 588.566406 75.414062 588.800781 75.414062 C 589.035156 75.414062 589.253906 75.296875 589.390625 75.105469 L 599.109375 61.191406 L 652.988281 61.191406 C 663.941406 61.191406 672.851562 52.28125 672.851562 41.328125 C 672.851562 30.378906 663.941406 21.464844 652.988281 21.464844 L 521.085938 21.464844 C 510.132812 21.464844 501.222656 30.378906 501.222656 41.328125 C 501.222656 52.28125 510.132812 61.191406 521.085938 61.191406 Z M 521.085938 22.90625 L 652.988281 22.90625 C 663.148438 22.90625 671.410156 31.171875 671.410156 41.328125 C 671.410156 51.488281 663.148438 59.753906 652.988281 59.753906 L 598.734375 59.753906 C 598.5 59.753906 598.277344 59.867188 598.144531 60.0625 L 588.800781 73.4375 L 579.457031 60.0625 C 579.320312 59.867188 579.101562 59.753906 578.867188 59.753906 L 521.085938 59.753906 C 510.925781 59.753906 502.660156 51.488281 502.660156 41.328125 C 502.660156 31.171875 510.925781 22.90625 521.085938 22.90625 Z M 745.894531 76.316406 C 745.945312 76.328125 745.996094 76.332031 746.046875 76.332031 C 746.378906 76.332031 746.675781 76.101562 746.75 75.765625 C 749.785156 61.660156 762.21875 60.730469 762.746094 60.699219 C 763.140625 60.671875 763.445312 60.332031 763.421875 59.9375 C 763.394531 59.539062 763.050781 59.238281 762.660156 59.261719 C 762.519531 59.269531 748.609375 60.265625 745.34375 75.460938 C 745.257812 75.851562 745.507812 76.234375 745.894531 76.316406 Z M 759.101562 350.316406 C 745.691406 350.316406 734.777344 361.230469 734.777344 374.640625 C 734.777344 388.054688 745.691406 398.964844 759.101562 398.964844 C 772.511719 398.964844 783.425781 388.054688 783.425781 374.640625 C 783.425781 361.230469 772.511719 350.316406 759.101562 350.316406 Z M 759.101562 397.523438 C 746.484375 397.523438 736.21875 387.257812 736.21875 374.640625 C 736.21875 362.023438 746.484375 351.757812 759.101562 351.757812 C 771.71875 351.757812 781.984375 362.023438 781.984375 374.640625 C 781.984375 387.257812 771.71875 397.523438 759.101562 397.523438 Z M 769.757812 369.75 L 766.328125 369.75 C 767.066406 363.1875 766.449219 359.136719 764.574219 358.308594 C 763.753906 357.941406 762.859375 358.238281 762.105469 359.113281 C 761.25 360.113281 760.789062 361.507812 760.296875 362.988281 C 759.875 364.265625 759.433594 365.589844 758.71875 366.769531 C 757.539062 368.707031 753.136719 370.425781 751.421875 370.964844 L 745.347656 370.964844 C 744.949219 370.964844 744.628906 371.285156 744.628906 371.683594 L 744.628906 385.480469 C 744.628906 385.878906 744.949219 386.199219 745.347656 386.199219 L 769.757812 386.199219 C 771.863281 386.199219 773.574219 384.488281 773.574219 382.386719 L 773.574219 373.5625 C 773.574219 371.457031 771.863281 369.75 769.757812 369.75 Z M 746.066406 372.402344 L 750.816406 372.402344 L 750.816406 384.761719 L 746.066406 384.761719 Z M 772.132812 382.386719 C 772.132812 383.695312 771.070312 384.761719 769.757812 384.761719 L 752.257812 384.761719 L 752.257812 372.203125 C 753.808594 371.675781 758.480469 369.921875 759.945312 367.515625 C 760.75 366.195312 761.234375 364.734375 761.664062 363.441406 C 762.105469 362.101562 762.527344 360.835938 763.199219 360.046875 C 763.3125 359.914062 763.714844 359.503906 763.992188 359.621094 C 764.699219 359.9375 765.78125 362.585938 764.804688 370.378906 C 764.78125 370.582031 764.84375 370.789062 764.980469 370.945312 C 765.117188 371.097656 765.3125 371.1875 765.519531 371.1875 L 769.757812 371.1875 C 771.070312 371.1875 772.132812 372.253906 772.132812 373.5625 Z M 419.960938 261.476562 L 409.082031 261.445312 C 408.761719 261.40625 408.449219 261.675781 408.378906 262.007812 L 406.015625 272.628906 C 405.96875 272.839844 406.019531 273.0625 406.15625 273.230469 C 406.292969 273.402344 406.496094 273.503906 406.714844 273.503906 L 417.59375 273.539062 C 417.597656 273.539062 417.597656 273.539062 417.597656 273.539062 C 417.9375 273.539062 418.226562 273.304688 418.300781 272.972656 L 420.664062 262.355469 C 420.707031 262.140625 420.65625 261.917969 420.523438 261.75 C 420.386719 261.578125 420.179688 261.480469 419.960938 261.476562 Z M 417.023438 272.097656 L 407.613281 272.066406 L 409.65625 262.886719 L 419.0625 262.914062 Z M 432.878906 253.839844 L 430.425781 253.832031 L 430.957031 251.4375 C 431.5 248.980469 429.949219 246.542969 427.496094 245.996094 C 425.039062 245.453125 422.601562 247.003906 422.054688 249.457031 L 421.089844 253.800781 L 411.683594 253.773438 L 412.203125 251.4375 C 412.746094 248.980469 411.195312 246.542969 408.742188 245.996094 C 406.28125 245.453125 403.84375 247.003906 403.300781 249.457031 L 402.347656 253.742188 L 397.941406 253.730469 C 395.4375 253.730469 393.394531 255.769531 393.382812 258.273438 C 393.378906 259.492188 393.851562 260.636719 394.710938 261.503906 C 395.566406 262.367188 396.710938 262.84375 397.929688 262.847656 L 400.320312 262.855469 L 398.28125 272.035156 L 393.8125 272.023438 C 391.308594 272.023438 389.261719 274.0625 389.253906 276.570312 C 389.25 277.785156 389.722656 278.933594 390.582031 279.796875 C 391.4375 280.660156 392.582031 281.136719 393.796875 281.140625 L 396.253906 281.148438 L 395.71875 283.542969 C 395.457031 284.734375 395.667969 285.953125 396.324219 286.980469 C 396.976562 288.007812 397.992188 288.71875 399.183594 288.984375 C 401.585938 289.515625 404.089844 287.917969 404.621094 285.523438 L 405.585938 281.179688 L 414.996094 281.210938 L 414.472656 283.542969 C 413.929688 285.996094 415.480469 288.4375 417.9375 288.984375 C 418.261719 289.058594 418.597656 289.09375 418.929688 289.09375 C 421.046875 289.09375 422.917969 287.59375 423.375 285.523438 L 424.328125 281.238281 L 428.734375 281.253906 C 431.238281 281.253906 433.285156 279.214844 433.292969 276.707031 C 433.300781 274.195312 431.261719 272.140625 428.75 272.132812 L 426.355469 272.125 L 428.398438 262.945312 L 432.863281 262.957031 C 435.371094 262.957031 437.414062 260.921875 437.421875 258.414062 C 437.429688 255.898438 435.390625 253.847656 432.878906 253.839844 Z M 432.855469 261.519531 L 427.824219 261.503906 C 427.820312 261.503906 427.820312 261.503906 427.820312 261.503906 C 427.484375 261.503906 427.191406 261.738281 427.117188 262.066406 L 424.757812 272.6875 C 424.710938 272.898438 424.761719 273.121094 424.898438 273.292969 C 425.035156 273.464844 425.238281 273.5625 425.457031 273.5625 L 428.742188 273.574219 C 430.464844 273.578125 431.859375 274.980469 431.855469 276.703125 C 431.847656 278.417969 430.449219 279.8125 428.722656 279.8125 L 423.753906 279.796875 C 423.414062 279.796875 423.125 280.03125 423.050781 280.359375 L 421.96875 285.210938 C 421.605469 286.851562 419.894531 287.9375 418.246094 287.582031 C 416.570312 287.207031 415.507812 285.535156 415.878906 283.855469 L 416.59375 280.648438 C 416.640625 280.4375 416.589844 280.214844 416.453125 280.042969 C 416.316406 279.871094 416.113281 279.773438 415.894531 279.773438 L 405.015625 279.738281 C 405.011719 279.738281 405.011719 279.738281 405.011719 279.738281 C 404.671875 279.738281 404.382812 279.972656 404.308594 280.300781 L 403.214844 285.210938 C 402.851562 286.851562 401.136719 287.941406 399.492188 287.582031 C 398.679688 287.398438 397.984375 286.914062 397.539062 286.210938 C 397.089844 285.507812 396.945312 284.671875 397.125 283.855469 L 397.851562 280.589844 C 397.898438 280.375 397.847656 280.152344 397.710938 279.984375 C 397.574219 279.8125 397.371094 279.714844 397.152344 279.710938 L 393.804688 279.703125 C 392.96875 279.699219 392.1875 279.371094 391.601562 278.78125 C 391.011719 278.191406 390.691406 277.40625 390.695312 276.574219 C 390.699219 274.859375 392.097656 273.460938 393.824219 273.460938 L 398.851562 273.476562 C 398.855469 273.476562 398.855469 273.476562 398.855469 273.476562 C 399.191406 273.476562 399.484375 273.246094 399.558594 272.914062 L 401.921875 262.292969 C 401.96875 262.082031 401.917969 261.859375 401.78125 261.691406 C 401.644531 261.519531 401.4375 261.421875 401.222656 261.417969 L 397.933594 261.410156 C 397.101562 261.40625 396.316406 261.078125 395.730469 260.488281 C 395.140625 259.898438 394.820312 259.113281 394.824219 258.277344 C 394.828125 256.566406 396.226562 255.167969 397.953125 255.167969 L 402.921875 255.183594 C 402.921875 255.183594 402.921875 255.183594 402.925781 255.183594 C 403.261719 255.183594 403.554688 254.949219 403.628906 254.621094 L 404.707031 249.769531 C 405.078125 248.089844 406.757812 247.027344 408.429688 247.402344 C 410.105469 247.773438 411.167969 249.445312 410.796875 251.125 L 410.082031 254.332031 C 410.035156 254.546875 410.085938 254.769531 410.222656 254.9375 C 410.359375 255.109375 410.566406 255.207031 410.785156 255.210938 L 421.664062 255.242188 C 421.972656 255.308594 422.296875 255.011719 422.371094 254.679688 L 423.460938 249.769531 C 423.832031 248.089844 425.511719 247.027344 427.183594 247.402344 C 428.863281 247.773438 429.925781 249.445312 429.550781 251.125 L 428.824219 254.394531 C 428.777344 254.605469 428.828125 254.828125 428.964844 254.996094 C 429.101562 255.167969 429.308594 255.269531 429.523438 255.269531 L 432.871094 255.277344 C 434.59375 255.285156 435.988281 256.6875 435.984375 258.410156 C 435.976562 260.125 434.578125 261.519531 432.855469 261.519531 Z M 432.855469 261.519531 " fill-opacity="1" fill-rule="nonzero"/></g></svg>