<svg xmlns="http://www.w3.org/2000/svg" xmlns:xlink="http://www.w3.org/1999/xlink" width="1366" zoomAndPan="magnify" viewBox="0 0 1024.5 576" height="768" preserveAspectRatio="xMidYMid meet" version="1.0"><defs><clipPath id="a426b967af"><path d="M 343 0.140625 L 736 0.140625 L 736 254 L 343 254 Z M 343 0.140625 " clip-rule="nonzero"/></clipPath><clipPath id="9002760328"><path d="M 447 521 L 508 521 L 508 575.859375 L 447 575.859375 Z M 447 521 " clip-rule="nonzero"/></clipPath><clipPath id="6c5b311ec9"><path d="M 446 520 L 508 520 L 508 575.859375 L 446 575.859375 Z M 446 520 " clip-rule="nonzero"/></clipPath><clipPath id="4db7c9b523"><path d="M 267 406 L 387 406 L 387 575.859375 L 267 575.859375 Z M 267 406 " clip-rule="nonzero"/></clipPath><clipPath id="47523181d6"><path d="M 267 406 L 387 406 L 387 575.859375 L 267 575.859375 Z M 267 406 " clip-rule="nonzero"/></clipPath><clipPath id="3d58730219"><path d="M 617 548 L 667 548 L 667 575.859375 L 617 575.859375 Z M 617 548 " clip-rule="nonzero"/></clipPath><clipPath id="64f91f2b33"><path d="M 616 547 L 668 547 L 668 575.859375 L 616 575.859375 Z M 616 547 " clip-rule="nonzero"/></clipPath><clipPath id="e214cf47ac"><path d="M 670 420 L 798 420 L 798 575.859375 L 670 575.859375 Z M 670 420 " clip-rule="nonzero"/></clipPath><clipPath id="7232aae41b"><path d="M 669 419 L 799 419 L 799 575.859375 L 669 575.859375 Z M 669 419 " clip-rule="nonzero"/></clipPath></defs><path fill="#ffffff" d="M 344.617188 1.492188 L 735.1875 1.492188 L 735.1875 254.214844 L 344.617188 254.214844 Z M 344.617188 1.492188 " fill-opacity="1" fill-rule="nonzero"/><path fill="#1f4d3f" d="M 735.1875 1.492188 L 344.617188 1.492188 L 344.617188 22.773438 L 735.1875 22.773438 Z M 735.1875 1.492188 " fill-opacity="1" fill-rule="nonzero"/><g clip-path="url(#a426b967af)"><path fill="#2f2f2f" d="M 343.941406 0.140625 L 735.863281 0.140625 L 735.863281 253.539062 L 343.941406 253.539062 Z M 345.292969 1.492188 L 345.292969 22.097656 L 734.511719 22.097656 L 734.511719 1.492188 Z M 734.511719 23.449219 L 345.292969 23.449219 L 345.292969 252.1875 L 734.511719 252.1875 Z M 734.511719 23.449219 " fill-opacity="1" fill-rule="evenodd"/></g><path fill="#ffffff" d="M 370.296875 12.304688 C 370.296875 15.289062 367.875 17.710938 364.890625 17.710938 C 361.90625 17.710938 359.484375 15.289062 359.484375 12.304688 C 359.484375 9.316406 361.90625 6.898438 364.890625 6.898438 C 367.875 6.898438 370.296875 9.316406 370.296875 12.304688 Z M 370.296875 12.304688 " fill-opacity="1" fill-rule="nonzero"/><path fill="#ffffff" d="M 397.324219 12.304688 C 397.324219 15.289062 394.90625 17.710938 391.917969 17.710938 C 388.933594 17.710938 386.515625 15.289062 386.515625 12.304688 C 386.515625 9.316406 388.933594 6.898438 391.917969 6.898438 C 394.90625 6.898438 397.324219 9.316406 397.324219 12.304688 Z M 397.324219 12.304688 " fill-opacity="1" fill-rule="nonzero"/><path fill="#ffffff" d="M 424.355469 12.304688 C 424.355469 15.289062 421.933594 17.710938 418.949219 17.710938 C 415.964844 17.710938 413.542969 15.289062 413.542969 12.304688 C 413.542969 9.316406 415.964844 6.898438 418.949219 6.898438 C 421.933594 6.898438 424.355469 9.316406 424.355469 12.304688 Z M 424.355469 12.304688 " fill-opacity="1" fill-rule="nonzero"/><path fill="#1f4d3f" d="M 475.820312 222.265625 C 501.234375 222.265625 521.835938 201.664062 521.835938 176.25 L 475.820312 176.25 Z M 475.820312 222.265625 " fill-opacity="1" fill-rule="nonzero"/><path fill="#2f2f2f" d="M 522.511719 175.574219 L 522.511719 176.25 C 522.511719 202.035156 501.605469 222.941406 475.820312 222.941406 L 475.144531 222.941406 L 475.144531 175.574219 Z M 521.152344 176.925781 L 476.496094 176.925781 L 476.496094 221.585938 C 501 221.226562 520.796875 201.429688 521.152344 176.925781 Z M 521.152344 176.925781 " fill-opacity="1" fill-rule="evenodd"/><path fill="#ffffff" d="M 418.949219 167.785156 C 418.949219 193.199219 439.550781 213.796875 464.964844 213.796875 L 464.964844 167.785156 L 510.976562 167.785156 C 510.976562 142.371094 490.375 121.769531 464.964844 121.769531 C 439.550781 121.769531 418.949219 142.371094 418.949219 167.785156 Z M 418.949219 167.785156 " fill-opacity="1" fill-rule="nonzero"/><path fill="#2f2f2f" d="M 510.296875 167.109375 C 509.933594 142.382812 489.777344 122.445312 464.964844 122.445312 C 439.921875 122.445312 419.625 142.746094 419.625 167.785156 C 419.625 192.597656 439.558594 212.757812 464.289062 213.117188 L 464.289062 167.109375 Z M 464.964844 121.09375 C 490.75 121.09375 511.652344 142 511.652344 167.785156 L 511.652344 168.460938 L 465.640625 168.460938 L 465.640625 214.472656 L 464.964844 214.472656 C 439.175781 214.472656 418.273438 193.570312 418.273438 167.785156 C 418.273438 142 439.175781 121.09375 464.964844 121.09375 Z M 464.964844 121.09375 " fill-opacity="1" fill-rule="evenodd"/><path fill="#2f2f2f" d="M 515.757812 203.316406 L 516.75 202.398438 L 542.746094 230.5625 L 558.824219 230.5625 L 558.824219 231.914062 L 542.15625 231.914062 Z M 558.824219 241.375 L 542.453125 241.375 L 542.453125 240.023438 L 558.824219 240.023438 Z M 558.824219 241.375 " fill-opacity="1" fill-rule="evenodd"/><path fill="#2f2f2f" d="M 421.472656 137.53125 L 420.480469 138.445312 L 394.480469 110.285156 L 378.40625 110.285156 L 378.40625 108.933594 L 395.074219 108.933594 Z M 378.40625 99.472656 L 394.777344 99.472656 L 394.777344 100.824219 L 378.40625 100.824219 Z M 378.40625 99.472656 " fill-opacity="1" fill-rule="evenodd"/><path fill="#8bd4be" d="M 375.703125 40.683594 L 536.523438 40.683594 L 536.523438 54.199219 L 375.703125 54.199219 Z M 375.703125 40.683594 " fill-opacity="1" fill-rule="nonzero"/><path fill="#2f2f2f" d="M 375.027344 40.007812 L 537.199219 40.007812 L 537.199219 54.875 L 375.027344 54.875 Z M 376.378906 41.359375 L 376.378906 53.523438 L 535.847656 53.523438 L 535.847656 41.359375 Z M 376.378906 41.359375 " fill-opacity="1" fill-rule="evenodd"/><path fill="#ffffff" d="M 375.703125 66.363281 L 495.980469 66.363281 L 495.980469 78.523438 L 375.703125 78.523438 Z M 375.703125 66.363281 " fill-opacity="1" fill-rule="nonzero"/><path fill="#2f2f2f" d="M 375.027344 65.6875 L 496.65625 65.6875 L 496.65625 79.199219 L 375.027344 79.199219 Z M 376.378906 67.039062 L 376.378906 77.847656 L 495.304688 77.847656 L 495.304688 67.039062 Z M 376.378906 67.039062 " fill-opacity="1" fill-rule="evenodd"/><path fill="#ffffff" d="M 375.703125 220.425781 L 424.355469 220.425781 L 424.355469 232.589844 L 375.703125 232.589844 Z M 375.703125 220.425781 " fill-opacity="1" fill-rule="nonzero"/><path fill="#2f2f2f" d="M 375.027344 219.75 L 425.03125 219.75 L 425.03125 233.265625 L 375.027344 233.265625 Z M 376.378906 221.101562 L 376.378906 231.914062 L 423.679688 231.914062 L 423.679688 221.101562 Z M 376.378906 221.101562 " fill-opacity="1" fill-rule="evenodd"/><path fill="#1f4d3f" d="M 356.78125 177.179688 L 405.433594 177.179688 L 405.433594 189.34375 L 356.78125 189.34375 Z M 356.78125 177.179688 " fill-opacity="1" fill-rule="nonzero"/><path fill="#2f2f2f" d="M 356.105469 176.503906 L 406.109375 176.503906 L 406.109375 190.019531 L 356.105469 190.019531 Z M 357.457031 177.855469 L 357.457031 188.667969 L 404.757812 188.667969 L 404.757812 177.855469 Z M 357.457031 177.855469 " fill-opacity="1" fill-rule="evenodd"/><path fill="#2f2f2f" d="M 552.632812 158.601562 L 585.28125 158.601562 L 585.28125 159.953125 L 552.632812 159.953125 Z M 552.632812 158.601562 " fill-opacity="1" fill-rule="evenodd"/><path fill="#2f2f2f" d="M 552.632812 167.425781 L 576.457031 167.425781 L 576.457031 168.777344 L 552.632812 168.777344 Z M 552.632812 167.425781 " fill-opacity="1" fill-rule="evenodd"/><path fill="#1f4d3f" d="M 721.175781 206.929688 L 548.21875 206.929688 L 556.160156 193.691406 L 564.984375 198.988281 L 580.867188 175.160156 L 591.457031 188.398438 L 601.164062 175.160156 L 620.578125 195.457031 L 635.578125 143.394531 L 656.757812 201.636719 L 676.167969 181.339844 L 692.9375 195.457031 L 721.175781 153.984375 Z M 721.175781 206.929688 " fill-opacity="1" fill-rule="nonzero"/><path fill="#2f2f2f" d="M 635.503906 141.210938 L 657.019531 200.382812 L 676.121094 180.414062 L 692.800781 194.460938 L 721.851562 151.789062 L 721.851562 207.605469 L 547.027344 207.605469 L 555.929688 192.765625 L 564.78125 198.078125 L 580.820312 174.019531 L 591.433594 187.285156 L 601.097656 174.113281 L 620.253906 194.140625 Z M 635.65625 145.578125 L 620.902344 196.773438 L 601.234375 176.210938 L 591.480469 189.507812 L 580.917969 176.304688 L 565.191406 199.898438 L 556.394531 194.621094 L 549.414062 206.253906 L 720.5 206.253906 L 720.5 156.175781 L 693.074219 196.457031 L 676.222656 182.265625 L 656.492188 202.886719 Z M 635.65625 145.578125 " fill-opacity="1" fill-rule="evenodd"/><path fill="#2f2f2f" d="M 547.335938 214.070312 L 721.175781 214.070312 L 721.175781 215.421875 L 547.335938 215.421875 Z M 547.335938 214.070312 " fill-opacity="1" fill-rule="evenodd"/><path fill="#2f2f2f" d="M 565.195312 221.804688 L 565.195312 218.277344 L 566.546875 218.277344 L 566.546875 221.804688 Z M 584.605469 221.804688 L 584.605469 218.277344 L 585.957031 218.277344 L 585.957031 221.804688 Z M 604.019531 221.804688 L 604.019531 218.277344 L 605.371094 218.277344 L 605.371094 221.804688 Z M 623.433594 221.804688 L 623.433594 218.277344 L 624.785156 218.277344 L 624.785156 221.804688 Z M 642.847656 221.804688 L 642.847656 218.277344 L 644.199219 218.277344 L 644.199219 221.804688 Z M 662.261719 221.804688 L 662.261719 218.277344 L 663.613281 218.277344 L 663.613281 221.804688 Z M 681.675781 221.804688 L 681.675781 218.277344 L 683.027344 218.277344 L 683.027344 221.804688 Z M 701.085938 221.804688 L 701.085938 218.277344 L 702.4375 218.277344 L 702.4375 221.804688 Z M 701.085938 221.804688 " fill-opacity="1" fill-rule="evenodd"/><path fill="#1f4d3f" d="M 593.542969 47.125 C 573.25 47.125 556.796875 64.046875 556.796875 84.921875 C 556.796875 90.296875 557.886719 95.410156 559.855469 100.039062 L 593.542969 92.480469 Z M 593.542969 47.125 " fill-opacity="1" fill-rule="nonzero"/><path fill="#2f2f2f" d="M 593.601562 47.808594 C 573.585938 48.167969 557.472656 64.507812 557.472656 84.605469 C 557.472656 89.644531 558.484375 94.445312 560.316406 98.820312 L 593.601562 91.558594 Z M 594.953125 47.808594 L 594.953125 91.558594 L 628.234375 98.820312 C 630.066406 94.449219 631.078125 89.644531 631.078125 84.605469 C 631.078125 64.507812 614.964844 48.167969 594.953125 47.808594 Z M 627.679688 100.082031 L 594.277344 92.792969 L 560.875 100.082031 C 566.71875 112.675781 579.476562 121.410156 594.277344 121.410156 C 609.074219 121.410156 621.832031 112.675781 627.679688 100.082031 Z M 556.121094 84.605469 C 556.121094 63.535156 573.203125 46.449219 594.277344 46.449219 C 615.347656 46.449219 632.429688 63.535156 632.429688 84.605469 C 632.429688 90.03125 631.296875 95.195312 629.257812 99.867188 C 623.371094 113.34375 609.925781 122.761719 594.277344 122.761719 C 578.628906 122.761719 565.183594 113.34375 559.296875 99.867188 C 557.253906 95.195312 556.121094 90.03125 556.121094 84.605469 Z M 556.121094 84.605469 " fill-opacity="1" fill-rule="evenodd"/><path fill="#2f2f2f" d="M 647.1875 62.617188 L 716.269531 62.617188 L 716.269531 63.96875 L 647.1875 63.96875 Z M 647.1875 62.617188 " fill-opacity="1" fill-rule="evenodd"/><path fill="#2f2f2f" d="M 647.1875 83.195312 L 716.269531 83.195312 L 716.269531 84.546875 L 647.1875 84.546875 Z M 647.1875 83.195312 " fill-opacity="1" fill-rule="evenodd"/><path fill="#2f2f2f" d="M 647.1875 103.773438 L 716.269531 103.773438 L 716.269531 105.125 L 647.1875 105.125 Z M 647.1875 103.773438 " fill-opacity="1" fill-rule="evenodd"/><path fill="#ffffff" d="M 227.042969 87.984375 L 329.644531 87.984375 L 329.644531 207.339844 L 227.042969 207.339844 Z M 227.042969 87.984375 " fill-opacity="1" fill-rule="nonzero"/><path fill="#2f2f2f" d="M 226.367188 87.308594 L 330.320312 87.308594 L 330.320312 208.015625 L 226.367188 208.015625 Z M 227.71875 88.660156 L 227.71875 206.664062 L 328.96875 206.664062 L 328.96875 88.660156 Z M 227.71875 88.660156 " fill-opacity="1" fill-rule="evenodd"/><path fill="#2f2f2f" d="M 236.835938 177.347656 L 248.660156 177.347656 L 248.660156 193.359375 L 236.835938 193.359375 Z M 238.1875 178.699219 L 238.1875 192.007812 L 247.308594 192.007812 L 247.308594 178.699219 Z M 238.1875 178.699219 " fill-opacity="1" fill-rule="evenodd"/><path fill="#1f4d3f" d="M 271.015625 173.835938 L 281.484375 173.835938 L 281.484375 192.683594 L 271.015625 192.683594 Z M 271.015625 173.835938 " fill-opacity="1" fill-rule="nonzero"/><path fill="#2f2f2f" d="M 270.339844 173.160156 L 282.160156 173.160156 L 282.160156 193.359375 L 270.339844 193.359375 Z M 271.691406 174.511719 L 271.691406 192.007812 L 280.808594 192.007812 L 280.808594 174.511719 Z M 271.691406 174.511719 " fill-opacity="1" fill-rule="evenodd"/><path fill="#2f2f2f" d="M 253.589844 166.878906 L 265.410156 166.878906 L 265.410156 193.359375 L 253.589844 193.359375 Z M 254.941406 168.230469 L 254.941406 192.007812 L 264.058594 192.007812 L 264.058594 168.230469 Z M 254.941406 168.230469 " fill-opacity="1" fill-rule="evenodd"/><path fill="#2f2f2f" d="M 289.183594 158.503906 L 301.003906 158.503906 L 301.003906 193.359375 L 289.183594 193.359375 Z M 290.535156 159.855469 L 290.535156 192.007812 L 299.652344 192.007812 L 299.652344 159.855469 Z M 290.535156 159.855469 " fill-opacity="1" fill-rule="evenodd"/><path fill="#1f4d3f" d="M 308.707031 148.710938 L 319.179688 148.710938 L 319.179688 192.683594 L 308.707031 192.683594 Z M 308.707031 148.710938 " fill-opacity="1" fill-rule="nonzero"/><path fill="#2f2f2f" d="M 308.03125 148.035156 L 319.851562 148.035156 L 319.851562 193.359375 L 308.03125 193.359375 Z M 309.382812 149.386719 L 309.382812 192.007812 L 318.503906 192.007812 L 318.503906 149.386719 Z M 309.382812 149.386719 " fill-opacity="1" fill-rule="evenodd"/><path fill="#1f4d3f" d="M 296.253906 145.304688 C 291.328125 150.855469 285.769531 157.121094 275.386719 157.121094 C 272.242188 157.121094 269.132812 156.0625 266.203125 155.039062 C 266.105469 155.003906 266.003906 154.96875 265.902344 154.933594 C 263.003906 153.917969 260.238281 152.949219 257.386719 152.726562 C 254.503906 152.496094 251.523438 153.027344 248.324219 155.199219 C 245.085938 157.394531 241.550781 161.316406 237.707031 168 L 235.363281 166.65625 C 239.320312 159.777344 243.101562 155.472656 246.808594 152.960938 C 250.558594 150.417969 254.15625 149.757812 257.597656 150.03125 C 260.8125 150.285156 263.875 151.359375 266.683594 152.34375 C 266.824219 152.390625 266.960938 152.4375 267.097656 152.484375 C 270.09375 153.535156 272.773438 154.417969 275.386719 154.417969 C 284.515625 154.417969 289.296875 149.046875 294.304688 143.421875 C 294.65625 143.03125 295.007812 142.632812 295.363281 142.238281 C 298.019531 139.28125 300.867188 136.328125 304.535156 134.566406 C 308.273438 132.773438 312.730469 132.277344 318.5 133.925781 L 317.757812 136.523438 C 312.535156 135.03125 308.769531 135.53125 305.707031 137.003906 C 302.570312 138.507812 300.035156 141.082031 297.375 144.046875 C 297.003906 144.457031 296.628906 144.878906 296.253906 145.304688 Z M 296.253906 145.304688 " fill-opacity="1" fill-rule="evenodd"/><path fill="#8bd4be" d="M 243.316406 96.121094 L 314.511719 96.121094 L 314.511719 121.25 L 243.316406 121.25 Z M 243.316406 96.121094 " fill-opacity="1" fill-rule="nonzero"/><path fill="#2f2f2f" d="M 242.640625 95.445312 L 315.1875 95.445312 L 315.1875 121.925781 L 242.640625 121.925781 Z M 243.992188 96.796875 L 243.992188 120.574219 L 313.835938 120.574219 L 313.835938 96.796875 Z M 243.992188 96.796875 " fill-opacity="1" fill-rule="evenodd"/><path fill="#ffffff" d="M 465.476562 483.421875 C 456.003906 478.621094 448.898438 435.429688 465.480469 422.234375 C 474.957031 429.433594 479.695312 464.226562 465.476562 483.421875 L 468.621094 511.015625 C 465.460938 504.753906 460.089844 497.875 454.429688 491.820312 C 437.050781 497.820312 422.835938 477.421875 421.652344 466.625 C 431.660156 466.226562 452.222656 470.703125 454.429688 491.820312 C 460.089844 497.875 465.460938 504.753906 468.621094 511.015625 Z M 465.476562 483.421875 " fill-opacity="1" fill-rule="nonzero"/><path fill="#ffffff" d="M 493.910156 500.21875 C 488.222656 502.136719 478.117188 510.617188 473.773438 514.613281 C 473.773438 505.871094 479.800781 493.140625 485.386719 483.421875 C 482.0625 470.222656 496.277344 439.03125 521.15625 445.03125 C 524.707031 452.230469 518.785156 487.019531 485.386719 483.421875 C 479.800781 493.140625 473.773438 505.871094 473.773438 514.613281 C 478.117188 510.617188 488.222656 502.136719 493.910156 500.21875 C 506.9375 485.820312 531.816406 488.21875 536.554688 499.015625 C 531.816406 507.417969 499.832031 514.613281 493.910156 500.21875 Z M 493.910156 500.21875 " fill-opacity="1" fill-rule="nonzero"/><path fill="#ffffff" d="M 485.390625 453.425781 C 477.328125 445.03125 473.773438 433.03125 486.804688 415.035156 C 501.96875 428.472656 492.179688 446.230469 485.390625 453.425781 Z M 485.390625 453.425781 " fill-opacity="1" fill-rule="nonzero"/><path fill="#2f2f2f" d="M 486.691406 414.035156 L 487.25 414.53125 C 495.035156 421.429688 496.429688 429.480469 494.988281 436.703125 C 493.566406 443.828125 489.394531 450.132812 485.957031 453.808594 C 485 455.925781 483.847656 459.78125 482.601562 464.699219 C 481.34375 469.675781 480.003906 475.695312 478.691406 482 C 476.070312 494.605469 473.570312 508.335938 472.066406 517.128906 L 470.738281 516.898438 C 472.238281 508.097656 474.742188 494.351562 477.371094 481.722656 C 478.683594 475.410156 480.027344 469.371094 481.292969 464.367188 C 482.476562 459.679688 483.605469 455.855469 484.585938 453.566406 C 480.636719 449.347656 477.777344 444.203125 477.511719 437.859375 C 477.234375 431.359375 479.683594 423.714844 486.253906 414.640625 Z M 486.40625 451.238281 C 489.371094 447.605469 492.496094 442.289062 493.664062 436.441406 C 494.988281 429.800781 493.796875 422.46875 486.910156 416.046875 C 480.785156 424.691406 478.605469 431.847656 478.859375 437.804688 C 479.097656 443.402344 481.484375 448.039062 484.941406 451.949219 C 485.207031 450.179688 485.460938 447.878906 485.550781 445.601562 C 485.609375 444.140625 485.59375 442.699219 485.472656 441.421875 C 485.351562 440.136719 485.121094 439.058594 484.773438 438.300781 L 486 437.734375 C 486.441406 438.699219 486.691406 439.949219 486.820312 441.296875 C 486.949219 442.652344 486.960938 444.15625 486.902344 445.652344 C 486.824219 447.613281 486.628906 449.582031 486.40625 451.238281 Z M 465.46875 421.378906 L 465.886719 421.695312 C 468.417969 423.617188 470.546875 427.296875 472.113281 431.914062 C 473.695312 436.558594 474.738281 442.242188 475.039062 448.296875 C 475.628906 460.292969 473.289062 473.851562 466.179688 483.609375 L 469.703125 514.539062 L 468.359375 514.691406 L 467.960938 511.210938 C 464.890625 505.167969 459.730469 498.515625 454.230469 492.597656 C 445.378906 495.453125 437.382812 491.714844 431.496094 486.003906 C 425.53125 480.21875 421.589844 472.285156 420.980469 466.699219 L 420.898438 465.976562 L 421.625 465.949219 C 426.71875 465.746094 434.492188 466.78125 441.292969 470.5625 C 448.078125 474.335938 453.890625 480.847656 455.078125 491.523438 C 459.8125 496.605469 464.347656 502.273438 467.5625 507.691406 L 464.84375 483.84375 C 463.632812 483.128906 462.515625 481.890625 461.507812 480.320312 C 460.402344 478.597656 459.390625 476.414062 458.511719 473.917969 C 456.746094 468.921875 455.480469 462.597656 455.03125 456.023438 C 454.582031 449.449219 454.957031 442.589844 456.496094 436.523438 C 458.03125 430.460938 460.753906 425.128906 465.054688 421.707031 Z M 466.144531 481.273438 C 472.1875 471.992188 474.242188 459.554688 473.6875 448.363281 C 473.394531 442.417969 472.367188 436.855469 470.835938 432.351562 C 469.390625 428.101562 467.527344 424.875 465.480469 423.109375 C 461.726562 426.292969 459.25 431.164062 457.804688 436.855469 C 456.308594 442.75 455.9375 449.460938 456.378906 455.929688 C 456.820312 462.402344 458.070312 468.601562 459.785156 473.464844 C 460.644531 475.898438 461.613281 477.980469 462.644531 479.589844 C 463.355469 480.699219 464.082031 481.558594 464.796875 482.15625 C 464.789062 478.753906 464.746094 474.035156 464.644531 469.625 C 464.535156 464.609375 464.347656 460.054688 464.070312 458.226562 L 465.40625 458.023438 C 465.703125 459.957031 465.886719 464.613281 465.996094 469.59375 C 466.085938 473.644531 466.128906 477.957031 466.144531 481.273438 Z M 453.472656 489.832031 C 451.917969 480.746094 446.695312 475.117188 440.636719 471.746094 C 434.421875 468.289062 427.324219 467.210938 422.417969 467.28125 C 423.242188 472.457031 426.914062 479.679688 432.4375 485.035156 C 437.972656 490.40625 445.234375 493.785156 453.199219 491.5 C 449.230469 487.320312 445.160156 483.582031 441.652344 480.78125 C 439.789062 479.289062 438.09375 478.074219 436.664062 477.195312 C 435.210938 476.304688 434.097656 475.808594 433.382812 475.691406 L 433.609375 474.355469 C 434.597656 474.523438 435.894531 475.140625 437.367188 476.042969 C 438.863281 476.960938 440.605469 478.214844 442.496094 479.722656 C 445.847656 482.402344 449.691406 485.910156 453.472656 489.832031 Z M 485.71875 481.503906 C 488.992188 475.945312 491.992188 471.5625 493.378906 469.804688 L 494.441406 470.644531 C 493.050781 472.402344 489.902344 477.007812 486.5 482.851562 C 494.234375 483.507812 500.390625 482.039062 505.238281 479.363281 C 510.304688 476.5625 513.984375 472.425781 516.539062 467.941406 C 519.097656 463.449219 520.523438 458.621094 521.089844 454.480469 C 521.375 452.410156 521.441406 450.519531 521.332031 448.941406 C 521.234375 447.527344 521 446.398438 520.675781 445.613281 C 508.746094 442.882812 499.339844 448.9375 493.246094 457.421875 C 490.171875 461.699219 487.960938 466.574219 486.726562 471.1875 C 485.707031 475 485.363281 478.59375 485.71875 481.503906 Z M 485.753906 484.140625 C 494.023438 484.953125 500.652344 483.4375 505.890625 480.542969 C 511.214844 477.605469 515.058594 473.269531 517.714844 468.609375 C 520.367188 463.949219 521.84375 458.957031 522.429688 454.664062 C 522.726562 452.515625 522.796875 450.535156 522.683594 448.847656 C 522.566406 447.171875 522.261719 445.742188 521.761719 444.730469 L 521.621094 444.445312 L 521.3125 444.371094 C 508.519531 441.289062 498.492188 447.796875 492.148438 456.632812 C 488.972656 461.050781 486.695312 466.074219 485.421875 470.835938 C 484.183594 475.464844 483.878906 479.902344 484.667969 483.320312 C 481.90625 488.140625 479.042969 493.691406 476.855469 499.132812 C 474.640625 504.644531 473.097656 510.113281 473.097656 514.613281 L 473.097656 516.15625 L 474.230469 515.113281 C 476.386719 513.125 479.984375 510.019531 483.746094 507.175781 C 487.269531 504.507812 490.867188 502.128906 493.550781 501.070312 C 495.214844 504.5625 498.382812 506.738281 502.203125 507.929688 C 506.226562 509.1875 511.03125 509.367188 515.75 508.835938 C 520.476562 508.304688 525.171875 507.050781 528.992188 505.390625 C 532.78125 503.75 535.84375 501.652344 537.144531 499.351562 L 537.308594 499.054688 L 537.171875 498.746094 C 535.902344 495.851562 533.3125 493.578125 530.015625 492.015625 C 526.710938 490.449219 522.652344 489.570312 518.355469 489.492188 C 509.8125 489.34375 500.195312 492.355469 493.527344 499.636719 C 490.582031 500.675781 486.636719 503.292969 482.929688 506.097656 C 479.757812 508.496094 476.703125 511.078125 474.507812 513.03125 C 474.8125 509.097656 476.179688 504.441406 478.113281 499.636719 C 480.246094 494.328125 483.039062 488.894531 485.753906 484.140625 Z M 494.921875 500.796875 C 496.421875 503.679688 499.152344 505.5625 502.605469 506.640625 C 506.394531 507.820312 510.992188 508.011719 515.601562 507.492188 C 520.203125 506.976562 524.761719 505.753906 528.457031 504.152344 C 531.996094 502.617188 534.617188 500.78125 535.789062 498.976562 C 534.640625 496.609375 532.410156 494.648438 529.433594 493.234375 C 526.332031 491.765625 522.46875 490.917969 518.328125 490.84375 C 510.570312 490.707031 501.953125 493.28125 495.667969 499.371094 C 498.351562 499.132812 501.789062 498.894531 504.960938 498.8125 C 506.933594 498.761719 508.820312 498.773438 510.367188 498.886719 C 511.140625 498.941406 511.839844 499.019531 512.425781 499.136719 C 513.003906 499.25 513.53125 499.40625 513.917969 499.636719 L 513.226562 500.796875 C 513.039062 500.6875 512.699219 500.566406 512.167969 500.464844 C 511.652344 500.363281 511.011719 500.285156 510.269531 500.230469 C 508.785156 500.125 506.949219 500.113281 504.996094 500.164062 C 501.507812 500.253906 497.683594 500.535156 494.921875 500.796875 Z M 494.921875 500.796875 " fill-opacity="1" fill-rule="evenodd"/><g clip-path="url(#9002760328)"><path fill="#ffffff" d="M 447.667969 521.554688 L 507.253906 521.554688 L 503 575.183594 L 453.625 575.183594 Z M 447.667969 521.554688 " fill-opacity="1" fill-rule="nonzero"/></g><g clip-path="url(#6c5b311ec9)"><path fill="#2f2f2f" d="M 446.910156 520.878906 L 507.988281 520.878906 L 503.621094 575.859375 L 453.019531 575.859375 Z M 448.421875 522.230469 L 454.230469 574.507812 L 502.375 574.507812 L 506.523438 522.230469 Z M 448.421875 522.230469 " fill-opacity="1" fill-rule="evenodd"/></g><path fill="#1f4d3f" d="M 438.886719 521.554688 L 515.769531 521.554688 L 515.769531 513.042969 L 438.886719 513.042969 Z M 438.886719 521.554688 " fill-opacity="1" fill-rule="nonzero"/><path fill="#2f2f2f" d="M 438.210938 522.230469 L 516.445312 522.230469 L 516.445312 512.367188 L 438.210938 512.367188 Z M 439.5625 520.878906 L 439.5625 513.71875 L 515.09375 513.71875 L 515.09375 520.878906 Z M 439.5625 520.878906 " fill-opacity="1" fill-rule="evenodd"/><path fill="#ffffff" d="M 249.59375 258.746094 L 250.527344 269.292969 C 247.3125 269.035156 242.574219 270.191406 242.585938 274.277344 C 242.59375 278.691406 244.90625 283.777344 246.226562 286.664062 L 260.777344 284.386719 L 258.667969 277.910156 C 258.105469 276.179688 258.558594 274.28125 259.84375 272.992188 L 262.109375 270.714844 C 262.898438 269.925781 262.90625 268.652344 262.132812 267.851562 C 261.359375 267.050781 260.089844 267.015625 259.273438 267.769531 L 256.488281 270.351562 L 254.007812 258.105469 C 253.796875 257.0625 252.878906 256.316406 251.816406 256.316406 C 250.507812 256.320312 249.480469 257.441406 249.59375 258.746094 Z M 249.59375 258.746094 " fill-opacity="1" fill-rule="nonzero"/><path fill="#2f2f2f" d="M 251.816406 256.992188 C 250.902344 256.996094 250.1875 257.777344 250.269531 258.6875 L 251.273438 270.03125 L 250.472656 269.96875 C 248.953125 269.84375 247.09375 270.0625 245.640625 270.765625 C 244.21875 271.453125 243.257812 272.5625 243.261719 274.277344 C 243.269531 278.300781 245.28125 282.957031 246.628906 285.917969 L 259.890625 283.839844 L 258.027344 278.117188 C 257.382812 276.148438 257.902344 273.984375 259.363281 272.515625 L 261.632812 270.238281 C 262.160156 269.710938 262.164062 268.859375 261.648438 268.320312 C 261.128906 267.785156 260.277344 267.761719 259.734375 268.265625 L 256.066406 271.664062 L 253.34375 258.238281 C 253.195312 257.511719 252.558594 256.992188 251.816406 256.992188 Z M 248.921875 258.804688 C 248.773438 257.105469 250.109375 255.644531 251.8125 255.640625 C 253.199219 255.636719 254.394531 256.613281 254.667969 257.972656 L 256.910156 269.039062 L 258.8125 267.277344 C 259.902344 266.269531 261.59375 266.316406 262.621094 267.382812 C 263.648438 268.449219 263.636719 270.140625 262.589844 271.191406 L 260.320312 273.46875 C 259.214844 274.578125 258.828125 276.210938 259.3125 277.699219 L 261.667969 284.933594 L 245.824219 287.410156 L 245.601562 286.921875 C 244.296875 284.0625 241.917969 278.855469 241.910156 274.28125 C 241.902344 271.910156 243.304688 270.394531 245.054688 269.546875 C 246.511719 268.839844 248.257812 268.566406 249.789062 268.585938 Z M 248.921875 258.804688 " fill-opacity="1" fill-rule="evenodd"/><path fill="#ffffff" d="M 313.835938 247.140625 C 315.089844 251.21875 317.738281 260.964844 313.578125 270.152344 C 330.414062 282.714844 336.101562 280.023438 338.664062 267.703125 L 337.140625 254.902344 C 350.265625 255.210938 351.800781 235.90625 345.316406 222.363281 C 346.851562 221.007812 347.488281 218.871094 346.613281 215.546875 C 342.828125 201.152344 313.8125 196.402344 306.101562 211.15625 C 299 215.90625 290.605469 229.753906 313.835938 247.140625 Z M 313.835938 247.140625 " fill-opacity="1" fill-rule="nonzero"/><path fill="#2f2f2f" d="M 339.398438 207.277344 C 342.671875 209.449219 345.066406 212.324219 345.957031 215.71875 C 346.792969 218.886719 346.152344 220.722656 344.867188 221.855469 C 343.742188 222.847656 342.003906 223.410156 339.875 223.683594 C 337.761719 223.953125 335.363281 223.929688 333 223.828125 C 332.160156 223.789062 331.320312 223.742188 330.5 223.699219 C 329.042969 223.617188 327.65625 223.542969 326.457031 223.53125 C 325.511719 223.523438 324.648438 223.554688 323.921875 223.664062 C 323.21875 223.769531 322.542969 223.964844 322.074219 224.355469 C 320.488281 225.664062 320.027344 227.675781 320.03125 229.511719 C 320.035156 230.648438 320.210938 231.773438 320.445312 232.730469 C 319.230469 232.175781 317.773438 231.664062 316.371094 231.46875 C 315.355469 231.332031 314.3125 231.351562 313.398438 231.691406 C 312.457031 232.046875 311.691406 232.730469 311.261719 233.820312 C 310.816406 234.941406 310.976562 236.128906 311.433594 237.242188 C 311.890625 238.355469 312.667969 239.457031 313.5625 240.472656 C 314.992188 242.101562 316.792969 243.589844 318.292969 244.664062 L 313.941406 246.375 C 302.652344 237.835938 299.191406 230.289062 299.269531 224.417969 C 299.347656 218.476562 303.046875 214.011719 306.476562 211.71875 L 306.617188 211.621094 L 306.699219 211.46875 C 310.363281 204.457031 319.175781 201.964844 327.742188 203.089844 C 332 203.652344 336.121094 205.101562 339.398438 207.277344 Z M 314.664062 247.542969 L 321.203125 244.972656 L 320.097656 244.257812 C 318.523438 243.242188 316.261719 241.496094 314.574219 239.582031 C 313.734375 238.625 313.0625 237.648438 312.683594 236.730469 C 312.308594 235.8125 312.246094 235.007812 312.519531 234.316406 C 312.804688 233.59375 313.277344 233.183594 313.871094 232.957031 C 314.496094 232.722656 315.289062 232.6875 316.1875 232.808594 C 317.980469 233.058594 319.953125 233.917969 321.226562 234.648438 L 322.878906 235.597656 L 322.195312 233.820312 C 321.808594 232.816406 321.382812 231.160156 321.382812 229.511719 C 321.378906 227.847656 321.800781 226.332031 322.933594 225.398438 C 323.113281 225.246094 323.480469 225.097656 324.125 225.003906 C 324.742188 224.90625 325.527344 224.875 326.445312 224.882812 C 327.617188 224.890625 328.945312 224.96875 330.378906 225.046875 C 331.203125 225.089844 332.0625 225.136719 332.941406 225.175781 C 335.316406 225.277344 337.8125 225.3125 340.046875 225.023438 C 341.925781 224.785156 343.691406 224.3125 345.058594 223.410156 C 347.980469 229.914062 349.058594 237.617188 347.917969 243.703125 C 347.324219 246.859375 346.148438 249.53125 344.378906 251.386719 C 342.625 253.222656 340.253906 254.296875 337.15625 254.226562 C 333.367188 254.136719 328.453125 252.324219 322.292969 247.953125 L 321.511719 249.054688 C 327.484375 253.292969 332.46875 255.289062 336.539062 255.550781 L 337.976562 267.671875 C 337.347656 270.671875 336.539062 273.015625 335.460938 274.683594 C 334.386719 276.34375 333.0625 277.308594 331.363281 277.589844 C 329.625 277.882812 327.402344 277.480469 324.515625 276.183594 C 321.738281 274.933594 318.410156 272.882812 314.414062 269.929688 C 318.1875 261.078125 315.949219 251.863281 314.664062 247.542969 Z M 337.902344 255.574219 C 341.003906 255.46875 343.488281 254.277344 345.355469 252.320312 C 347.363281 250.21875 348.625 247.273438 349.246094 243.949219 C 350.460938 237.453125 349.273438 229.308594 346.132812 222.511719 C 347.632812 220.933594 348.113281 218.601562 347.265625 215.371094 C 346.265625 211.574219 343.613281 208.453125 340.144531 206.152344 C 336.671875 203.847656 332.351562 202.335938 327.917969 201.75 C 319.160156 200.601562 309.675781 203.066406 305.582031 210.691406 C 301.949219 213.175781 298.003906 217.96875 297.917969 224.402344 C 297.832031 230.902344 301.691406 238.84375 313.253906 247.550781 C 314.527344 251.726562 316.945312 261.082031 312.960938 269.871094 L 312.738281 270.367188 L 313.171875 270.691406 C 317.402344 273.847656 320.957031 276.066406 323.960938 277.417969 C 326.960938 278.765625 329.472656 279.277344 331.585938 278.925781 C 333.730469 278.566406 335.359375 277.332031 336.597656 275.417969 C 337.820312 273.523438 338.679688 270.949219 339.324219 267.839844 L 339.347656 267.730469 Z M 337.902344 255.574219 " fill-opacity="1" fill-rule="evenodd"/><path fill="#2f2f2f" d="M 311.886719 234.070312 C 313.320312 230.441406 318.933594 232.554688 321.5625 234.0625 C 320.742188 231.933594 319.785156 227.117188 322.5 224.875 C 325.898438 222.070312 350.394531 229.9375 346.609375 215.542969 C 342.828125 201.152344 313.8125 196.402344 306.101562 211.15625 C 299 215.90625 290.605469 229.753906 313.835938 247.140625 L 319.730469 244.824219 C 316.519531 242.75 310.457031 237.695312 311.886719 234.070312 Z M 311.886719 234.070312 " fill-opacity="1" fill-rule="nonzero"/><path fill="#ffffff" d="M 327.300781 372.324219 C 338.707031 372.324219 350.027344 371.703125 360.25 367.914062 C 362.3125 367.148438 364.429688 366.453125 366.578125 366.085938 C 367.085938 365.996094 367.59375 365.929688 368.101562 365.882812 L 368.101562 342.058594 L 373.675781 344.761719 L 378.351562 346.765625 C 381.425781 348.082031 384.882812 348.179688 388.027344 347.035156 C 393.84375 344.921875 397.429688 338.960938 396.367188 332.859375 C 383.820312 260.945312 355.035156 274.710938 339.214844 265.023438 L 331.78125 275.160156 L 321.644531 275.160156 L 314.886719 265.023438 C 306.441406 271.78125 277.398438 265.023438 269.589844 300.34375 L 262.855469 281.917969 L 241.910156 286.648438 L 257.382812 333.957031 C 261.136719 345.429688 275.65625 348.929688 284.222656 340.429688 L 288.027344 336.652344 L 288.027344 366.085938 C 290.175781 366.453125 292.292969 367.148438 294.359375 367.914062 C 304.582031 371.703125 315.050781 372.324219 327.300781 372.324219 Z M 327.300781 372.324219 " fill-opacity="1" fill-rule="nonzero"/><path fill="#8bd4be" d="M 305.164062 398.683594 L 294.070312 396.792969 L 295.09375 411.796875 L 364.644531 411.796875 L 366.578125 396.792969 L 354.363281 398.808594 C 338.070312 401.5 321.445312 401.457031 305.164062 398.683594 Z M 305.164062 398.683594 " fill-opacity="1" fill-rule="nonzero"/><g clip-path="url(#4db7c9b523)"><path fill="#ffffff" d="M 267.753906 406.929688 L 386.007812 406.929688 L 381.140625 467.742188 L 376.277344 528.558594 L 372.324219 575.183594 L 281.101562 575.183594 L 277.484375 528.558594 L 272.621094 467.742188 Z M 267.753906 406.929688 " fill-opacity="1" fill-rule="nonzero"/></g><path fill="#1f4d3f" d="M 376.277344 528.558594 L 277.484375 528.558594 L 272.621094 467.742188 L 381.140625 467.742188 Z M 376.277344 528.558594 " fill-opacity="1" fill-rule="nonzero"/><g clip-path="url(#47523181d6)"><path fill="#2f2f2f" d="M 267.023438 406.253906 L 386.738281 406.253906 L 376.949219 528.617188 L 372.945312 575.859375 L 280.476562 575.859375 L 276.8125 528.613281 Z M 278.214844 529.234375 L 281.726562 574.507812 L 371.703125 574.507812 L 375.542969 529.234375 Z M 375.652344 527.882812 L 380.410156 468.417969 L 273.351562 468.417969 L 278.109375 527.882812 Z M 273.246094 467.066406 L 380.515625 467.066406 L 385.273438 407.605469 L 268.488281 407.605469 Z M 273.246094 467.066406 " fill-opacity="1" fill-rule="evenodd"/></g><path fill="#1f4d3f" d="M 296.472656 346.113281 L 293.09375 275.332031 L 363.203125 275.332031 L 359.484375 312.324219 L 342.589844 306.921875 L 333.132812 325.839844 L 358.132812 337.328125 L 357.289062 346.113281 Z M 296.472656 346.113281 " fill-opacity="1" fill-rule="nonzero"/><path fill="#ffffff" d="M 298.667969 495.617188 C 300.804688 501.3125 308.335938 517.199219 304.589844 529.132812 C 303.1875 533.605469 298.679688 537.574219 294.351562 535.789062 C 291.667969 534.683594 289.390625 532.039062 287.488281 528.558594 C 283.089844 520.503906 280.726562 507.992188 280.085938 499.839844 Z M 298.667969 495.617188 " fill-opacity="1" fill-rule="nonzero"/><path fill="#2f2f2f" d="M 299.097656 494.828125 L 299.304688 495.378906 C 299.550781 496.035156 299.871094 496.835938 300.242188 497.761719 C 301.457031 500.78125 303.191406 505.097656 304.488281 509.859375 C 306.179688 516.070312 307.167969 523.183594 305.238281 529.335938 C 304.496094 531.703125 302.933594 533.9375 300.964844 535.355469 C 298.988281 536.78125 296.53125 537.417969 294.09375 536.414062 C 291.199219 535.21875 288.824219 532.40625 286.898438 528.882812 C 282.433594 520.707031 280.058594 508.082031 279.414062 499.894531 L 279.367188 499.308594 Z M 280.808594 500.367188 C 281.511719 508.488281 283.855469 520.492188 288.082031 528.234375 C 289.957031 531.664062 292.140625 534.148438 294.609375 535.164062 C 296.503906 535.945312 298.464844 535.492188 300.175781 534.257812 C 301.894531 533.019531 303.289062 531.039062 303.949219 528.933594 C 305.761719 523.152344 304.855469 516.351562 303.183594 510.210938 C 301.914062 505.539062 300.222656 501.339844 299.011719 498.320312 C 298.726562 497.613281 298.46875 496.972656 298.25 496.40625 Z M 280.808594 500.367188 " fill-opacity="1" fill-rule="evenodd"/><path fill="#ffffff" d="M 361.296875 535.789062 C 370.191406 532.117188 374.640625 511.511719 375.558594 499.839844 L 356.976562 495.617188 C 354.839844 501.3125 347.308594 517.199219 351.054688 529.132812 C 352.457031 533.605469 356.96875 537.574219 361.296875 535.789062 Z M 361.296875 535.789062 " fill-opacity="1" fill-rule="nonzero"/><path fill="#2f2f2f" d="M 356.550781 494.828125 L 356.339844 495.378906 C 356.097656 496.035156 355.773438 496.835938 355.402344 497.761719 C 354.1875 500.78125 352.453125 505.097656 351.15625 509.859375 C 349.464844 516.070312 348.476562 523.183594 350.410156 529.335938 C 351.152344 531.703125 352.710938 533.9375 354.683594 535.355469 C 356.660156 536.78125 359.117188 537.417969 361.554688 536.410156 C 363.960938 535.421875 366 533.3125 367.71875 530.628906 C 369.441406 527.933594 370.882812 524.59375 372.058594 521.027344 C 374.417969 513.898438 375.769531 505.773438 376.230469 499.894531 L 376.277344 499.308594 Z M 374.835938 500.367188 C 374.339844 506.109375 373.019531 513.828125 370.777344 520.601562 C 369.617188 524.105469 368.21875 527.335938 366.578125 529.898438 C 364.933594 532.472656 363.082031 534.320312 361.039062 535.164062 C 359.148438 535.945312 357.183594 535.492188 355.472656 534.257812 C 353.753906 533.019531 352.355469 531.039062 351.699219 528.933594 C 349.882812 523.152344 350.789062 516.351562 352.460938 510.210938 C 353.734375 505.539062 355.421875 501.339844 356.632812 498.320312 C 356.917969 497.613281 357.175781 496.972656 357.398438 496.40625 Z M 374.835938 500.367188 " fill-opacity="1" fill-rule="evenodd"/><path fill="#8bd4be" d="M 255.914062 390.089844 C 260.296875 373.585938 271.96875 367.457031 282.910156 365.941406 C 284.625 365.703125 286.335938 365.792969 288.027344 366.085938 C 290.175781 366.453125 292.292969 367.148438 294.359375 367.914062 C 304.578125 371.703125 315.050781 372.324219 327.304688 372.324219 C 338.707031 372.324219 350.027344 371.703125 360.246094 367.914062 C 362.3125 367.148438 364.429688 366.453125 366.582031 366.085938 C 368.273438 365.792969 369.980469 365.703125 371.695312 365.941406 C 382.640625 367.457031 394.308594 373.585938 398.691406 390.089844 C 400.574219 397.179688 399.539062 404.644531 397.910156 411.796875 L 377.558594 501.53125 L 352.386719 496.460938 L 365.222656 396.792969 L 355.289062 398.496094 C 338.390625 401.390625 321.121094 401.34375 304.238281 398.355469 L 295.421875 396.792969 L 296.445312 411.796875 L 302.214844 496.460938 L 277.046875 501.53125 L 256.695312 411.796875 C 255.066406 404.644531 254.035156 397.179688 255.914062 390.089844 Z M 255.914062 390.089844 " fill-opacity="1" fill-rule="nonzero"/><path fill="#2f2f2f" d="M 315.042969 264.039062 L 322.207031 274.785156 L 321.082031 275.535156 L 314.71875 265.988281 C 313.675781 266.6875 312.425781 267.222656 311.046875 267.675781 C 309.394531 268.21875 307.503906 268.652344 305.488281 269.085938 C 305.042969 269.183594 304.589844 269.28125 304.132812 269.378906 C 300.421875 270.164062 296.324219 271.035156 292.242188 272.605469 C 287.667969 274.363281 283.140625 276.988281 279.277344 281.324219 C 275.441406 285.632812 272.226562 291.667969 270.289062 300.308594 L 278.039062 322.933594 L 276.757812 323.371094 L 268.949219 300.558594 L 263.082031 282.710938 L 242.785156 287.148438 L 258.027344 333.75 C 261.621094 344.742188 275.539062 348.097656 283.746094 339.949219 L 288.703125 335.027344 L 288.703125 365.523438 C 290.71875 365.917969 292.695312 366.578125 294.59375 367.28125 C 304.695312 371.027344 315.0625 371.648438 327.304688 371.648438 C 338.695312 371.648438 349.914062 371.027344 360.015625 367.28125 C 362.089844 366.511719 364.257812 365.796875 366.46875 365.417969 C 366.785156 365.363281 367.105469 365.316406 367.425781 365.277344 L 367.425781 342.488281 L 332.75 326.167969 L 341.722656 306.429688 L 380.644531 319.117188 L 380.222656 320.402344 L 342.449219 308.089844 L 334.53125 325.511719 L 368.394531 341.449219 L 373.957031 344.144531 L 378.621094 346.144531 C 381.535156 347.394531 384.816406 347.484375 387.796875 346.402344 C 393.320312 344.394531 396.707031 338.742188 395.699219 332.976562 C 389.410156 297.09375 378.964844 282.789062 368.304688 276.179688 C 362.953125 272.863281 357.496094 271.449219 352.328125 270.257812 C 351.882812 270.152344 351.441406 270.050781 351 269.953125 C 346.578125 268.945312 342.347656 267.980469 338.746094 265.933594 L 332.34375 275.535156 L 331.21875 274.785156 L 338.335938 264.109375 L 338.890625 264.449219 C 342.410156 266.605469 346.632812 267.570312 351.339844 268.644531 C 351.765625 268.742188 352.195312 268.839844 352.628906 268.9375 C 357.816406 270.136719 363.460938 271.589844 369.015625 275.03125 C 380.160156 281.941406 390.714844 296.710938 397.03125 332.742188 C 398.15625 339.175781 394.375 345.449219 388.257812 347.671875 C 384.957031 348.875 381.320312 348.769531 378.085938 347.386719 L 373.398438 345.375 L 368.777344 343.136719 L 368.777344 365.15625 C 369.773438 365.101562 370.78125 365.132812 371.792969 365.273438 C 377.351562 366.042969 383.125 367.988281 388.070312 371.863281 C 393.027344 375.746094 397.121094 381.535156 399.347656 389.917969 C 401.273438 397.171875 400.207031 404.773438 398.570312 411.945312 M 398.570312 411.945312 L 378.074219 502.320312 L 351.640625 497 L 364.441406 397.613281 L 355.40625 399.160156 C 338.433594 402.070312 321.082031 402.023438 304.125 399.019531 L 296.15625 397.609375 L 302.933594 497.007812 L 276.535156 502.320312 L 256.039062 411.945312 C 254.402344 404.773438 253.335938 397.171875 255.261719 389.917969 C 257.488281 381.535156 261.582031 375.746094 266.535156 371.863281 C 271.484375 367.988281 277.257812 366.042969 282.816406 365.273438 C 284.347656 365.0625 285.863281 365.097656 287.351562 365.296875 L 287.351562 338.277344 L 284.699219 340.90625 C 275.777344 349.765625 260.652344 346.117188 256.742188 334.167969 L 241.035156 286.148438 L 263.984375 281.128906 L 269.488281 297.875 C 271.5 290.167969 274.585938 284.5625 278.269531 280.425781 C 282.3125 275.886719 287.039062 273.15625 291.757812 271.34375 C 295.945312 269.734375 300.152344 268.839844 303.855469 268.054688 C 304.3125 267.957031 304.761719 267.863281 305.203125 267.765625 C 307.21875 267.332031 309.046875 266.910156 310.628906 266.390625 C 312.210938 265.871094 313.5 265.269531 314.464844 264.496094 L 315.042969 264.039062 M 296.058594 396.21875 L 295.289062 384.921875 L 293.941406 385.011719 L 301.503906 495.914062 L 277.558594 500.734375 L 257.355469 411.648438 C 255.730469 404.519531 254.730469 397.1875 256.570312 390.265625 C 258.726562 382.144531 262.660156 376.617188 267.371094 372.929688 C 272.085938 369.234375 277.617188 367.355469 283.003906 366.613281 C 284.636719 366.386719 286.273438 366.46875 287.914062 366.75 C 290 367.109375 292.074219 367.785156 294.125 368.546875 C 304.464844 372.382812 315.035156 373 327.304688 373 C 338.71875 373 350.140625 372.382812 360.484375 368.546875 C 362.535156 367.785156 364.609375 367.109375 366.695312 366.75 C 367.183594 366.667969 367.675781 366.597656 368.164062 366.554688 C 369.3125 366.445312 370.460938 366.453125 371.605469 366.613281 C 376.992188 367.355469 382.523438 369.234375 387.238281 372.929688 C 391.949219 376.617188 395.882812 382.144531 398.039062 390.265625 C 399.878906 397.1875 398.878906 404.519531 397.253906 411.644531 L 377.046875 500.734375 L 353.140625 495.921875 L 367.421875 385.054688 L 366.078125 384.878906 L 364.621094 396.210938 L 355.179688 397.828125 C 338.355469 400.710938 321.164062 400.664062 304.359375 397.6875 Z M 296.058594 396.21875 " fill-opacity="1" fill-rule="evenodd"/><path fill="#ffffff" d="M 320.96875 302.191406 C 326.371094 304.21875 331.777344 310.601562 340.5625 310.601562 L 335.523438 321.6875 C 312.183594 318.40625 316.914062 300.671875 320.96875 302.191406 Z M 320.96875 302.191406 " fill-opacity="1" fill-rule="nonzero"/><path fill="#2f2f2f" d="M 319.074219 301.914062 C 319.6875 301.460938 320.441406 301.269531 321.207031 301.558594 C 322.625 302.089844 324.027344 302.898438 325.4375 303.789062 C 325.941406 304.105469 326.441406 304.429688 326.953125 304.757812 C 327.886719 305.363281 328.835938 305.976562 329.84375 306.574219 C 332.925781 308.398438 336.347656 309.925781 340.566406 309.925781 L 341.617188 309.925781 L 335.933594 322.425781 L 335.433594 322.355469 C 323.582031 320.691406 318.640625 315.304688 317.320312 310.3125 C 316.671875 307.847656 316.917969 305.515625 317.632812 303.867188 C 317.988281 303.046875 318.476562 302.351562 319.074219 301.914062 Z M 335.125 320.945312 L 339.53125 311.25 C 335.4375 311.023438 332.085938 309.472656 329.15625 307.738281 C 328.128906 307.128906 327.132812 306.488281 326.183594 305.871094 C 325.679688 305.546875 325.191406 305.230469 324.71875 304.933594 C 323.320312 304.050781 322.015625 303.304688 320.730469 302.824219 C 320.484375 302.730469 320.203125 302.761719 319.875 303.003906 C 319.527344 303.253906 319.167969 303.722656 318.875 304.402344 C 318.289062 305.753906 318.050781 307.777344 318.628906 309.964844 C 319.75 314.21875 324.003906 319.253906 335.125 320.945312 Z M 335.125 320.945312 " fill-opacity="1" fill-rule="evenodd"/><path fill="#2f2f2f" d="M 325.699219 371.789062 L 327.050781 371.789062 L 327.050781 406.929688 L 325.699219 406.929688 Z M 325.699219 371.789062 " fill-opacity="1" fill-rule="evenodd"/><path fill="#2f2f2f" d="M 327.726562 421.117188 C 318.023438 421.117188 310.15625 428.984375 310.15625 438.6875 C 310.15625 448.390625 318.023438 456.257812 327.726562 456.257812 C 337.429688 456.257812 345.292969 448.390625 345.292969 438.6875 C 345.292969 428.984375 337.429688 421.117188 327.726562 421.117188 Z M 308.804688 438.6875 C 308.804688 428.238281 317.277344 419.765625 327.726562 419.765625 C 338.175781 419.765625 346.644531 428.238281 346.644531 438.6875 C 346.644531 449.136719 338.175781 457.605469 327.726562 457.605469 C 317.277344 457.605469 308.804688 449.136719 308.804688 438.6875 Z M 308.804688 438.6875 " fill-opacity="1" fill-rule="evenodd"/><path fill="#2f2f2f" d="M 292.386719 274.65625 L 363.949219 274.65625 L 360.160156 313.066406 L 358.8125 312.9375 L 362.457031 276.007812 L 293.804688 276.007812 L 297.117188 345.4375 L 356.675781 345.4375 L 357.460938 337.261719 L 358.808594 337.394531 L 357.902344 346.789062 L 295.832031 346.789062 Z M 292.386719 274.65625 " fill-opacity="1" fill-rule="evenodd"/><path fill="#ffffff" d="M 774.253906 284.488281 C 768.621094 273.734375 748.136719 269.125 740.457031 277.316406 C 730.21875 278.855469 723.046875 297.800781 724.585938 323.917969 C 743.429688 341.121094 767.660156 332.449219 778.863281 324.9375 C 778.863281 309.066406 779.917969 295.300781 774.253906 284.488281 Z M 774.253906 284.488281 " fill-opacity="1" fill-rule="nonzero"/><path fill="#2f2f2f" d="M 774.253906 284.488281 C 768.621094 273.734375 748.136719 269.125 740.457031 277.316406 C 730.21875 278.855469 723.046875 297.800781 724.585938 323.917969 C 743.429688 341.121094 767.660156 332.449219 778.863281 324.9375 C 778.863281 309.066406 779.917969 295.300781 774.253906 284.488281 Z M 774.253906 284.488281 " fill-opacity="1" fill-rule="nonzero"/><path fill="#2f2f2f" d="M 740.128906 276.6875 C 744.238281 272.480469 751.480469 271.664062 758.269531 273.136719 C 765.164062 274.632812 771.910156 278.554688 774.851562 284.171875 C 777.746094 289.699219 778.910156 295.949219 779.355469 302.769531 C 779.679688 307.699219 779.628906 312.96875 779.578125 318.5 C 779.558594 320.609375 779.539062 322.757812 779.539062 324.9375 L 779.539062 325.300781 L 779.238281 325.5 C 773.566406 329.304688 764.601562 333.398438 754.652344 334.367188 C 744.6875 335.339844 733.71875 333.167969 724.128906 324.414062 L 723.925781 324.230469 L 723.910156 323.957031 C 723.136719 310.835938 724.550781 299.476562 727.464844 291.175781 C 730.324219 283.046875 734.71875 277.628906 740.128906 276.6875 Z M 757.980469 274.457031 C 764.65625 275.90625 770.964844 279.664062 773.65625 284.800781 C 776.425781 290.089844 777.566406 296.125 778.007812 302.859375 C 778.328125 307.734375 778.277344 312.925781 778.226562 318.4375 C 778.207031 320.441406 778.1875 322.488281 778.1875 324.578125 C 772.644531 328.226562 764.03125 332.097656 754.523438 333.023438 C 744.933594 333.957031 734.449219 331.898438 725.242188 323.601562 C 724.515625 310.722656 725.917969 299.652344 728.742188 291.625 C 731.605469 283.480469 735.832031 278.695312 740.558594 277.984375 L 740.789062 277.949219 L 740.953125 277.78125 C 744.550781 273.941406 751.289062 273.003906 757.980469 274.457031 Z M 736.808594 286.027344 L 736.339844 286.632812 C 732.757812 291.25 729.488281 299.074219 729.488281 305.992188 L 730.839844 305.992188 C 730.839844 299.703125 733.714844 292.523438 736.972656 288.042969 C 738.683594 289.457031 742.488281 291.726562 748.007812 292.832031 C 751.644531 293.558594 755.621094 296.507812 758.738281 299.5625 C 760.285156 301.078125 761.589844 302.585938 762.503906 303.804688 C 762.960938 304.417969 763.3125 304.945312 763.550781 305.355469 C 763.667969 305.5625 763.746094 305.726562 763.796875 305.855469 C 763.839844 305.960938 763.847656 306.007812 763.847656 306.007812 C 763.847656 306.007812 763.847656 306 763.847656 305.992188 L 765.128906 306.296875 C 765.503906 305.542969 766.292969 304.585938 767.402344 304.136719 C 768.464844 303.707031 769.929688 303.6875 771.820312 305.011719 C 772.804688 305.703125 773.148438 306.878906 772.890625 308.394531 C 772.636719 309.914062 771.785156 311.640625 770.589844 313.148438 C 769.390625 314.652344 767.898438 315.867188 766.421875 316.425781 C 765.128906 316.914062 763.886719 316.898438 762.796875 316.1875 C 763.148438 315.363281 763.425781 314.582031 763.636719 313.867188 L 762.339844 313.484375 C 762.105469 314.277344 761.777344 315.179688 761.347656 316.125 L 761.140625 316.589844 L 761.527344 316.917969 C 763.167969 318.308594 765.105469 318.371094 766.902344 317.6875 C 768.671875 317.019531 770.347656 315.617188 771.648438 313.988281 C 772.945312 312.355469 773.921875 310.421875 774.222656 308.621094 C 774.53125 306.8125 774.167969 305.003906 772.59375 303.902344 C 770.386719 302.359375 768.4375 302.257812 766.894531 302.882812 C 765.949219 303.269531 765.199219 303.910156 764.65625 304.570312 C 764.386719 304.117188 764.023438 303.582031 763.585938 302.996094 C 762.628906 301.71875 761.277344 300.15625 759.683594 298.597656 C 756.53125 295.507812 752.3125 292.3125 748.273438 291.503906 C 742.242188 290.296875 738.441406 287.660156 737.351562 286.570312 Z M 736.808594 286.027344 " fill-opacity="1" fill-rule="evenodd"/><path fill="#ffffff" d="M 772.207031 304.457031 C 768.109375 301.589844 765.378906 304.285156 764.523438 305.992188 C 764.523438 304.457031 755.820312 293.703125 748.136719 292.167969 C 741.992188 290.9375 738.066406 288.242188 736.871094 287.046875 C 733.367188 291.566406 730.164062 299.25 730.164062 305.992188 C 730.996094 314.976562 734.144531 324.757812 742.503906 326.988281 C 753.042969 329.796875 759.3125 322.265625 761.964844 316.40625 C 767.597656 321.183594 777.324219 308.042969 772.207031 304.457031 Z M 772.207031 304.457031 " fill-opacity="1" fill-rule="nonzero"/><path fill="#ffffff" d="M 736.296875 342.105469 C 740.3125 357.8125 752.464844 347.765625 758.035156 340.777344 C 758.035156 339.339844 757.070312 330.703125 756.828125 323.636719 C 753.449219 326.707031 748.71875 328.644531 742.503906 326.988281 C 740.734375 326.515625 739.199219 325.707031 737.867188 324.636719 C 737.683594 330.113281 736.796875 338.734375 736.296875 342.105469 Z M 736.296875 342.105469 " fill-opacity="1" fill-rule="nonzero"/><path fill="#2f2f2f" d="M 736.808594 286.027344 L 736.339844 286.632812 C 732.757812 291.25 729.488281 299.074219 729.488281 305.992188 L 729.488281 306.054688 C 730.140625 313.042969 732.191406 320.726562 737.179688 324.945312 C 736.972656 330.40625 736.113281 338.722656 735.628906 342.003906 L 735.609375 342.140625 L 735.640625 342.273438 C 736.660156 346.265625 738.15625 348.800781 740.015625 350.148438 C 741.917969 351.523438 744.074219 351.578125 746.183594 350.898438 C 748.273438 350.222656 750.371094 348.8125 752.273438 347.164062 C 754.1875 345.507812 755.941406 343.574219 757.355469 341.804688 L 757.503906 341.617188 L 757.503906 341.382812 C 757.503906 341.101562 757.511719 340.496094 757.527344 339.652344 C 757.578125 336.378906 757.691406 329.519531 757.511719 323.921875 C 759.59375 321.96875 761.148438 319.613281 762.230469 317.425781 C 763.703125 318.3125 765.355469 318.273438 766.902344 317.691406 C 768.671875 317.019531 770.347656 315.617188 771.644531 313.988281 C 772.945312 312.355469 773.921875 310.421875 774.222656 308.621094 C 774.527344 306.8125 774.167969 305.003906 772.59375 303.902344 C 770.382812 302.359375 768.4375 302.257812 766.894531 302.882812 C 765.949219 303.269531 765.199219 303.910156 764.65625 304.570312 C 764.386719 304.117188 764.023438 303.582031 763.585938 302.996094 C 762.625 301.71875 761.277344 300.15625 759.683594 298.597656 C 756.53125 295.507812 752.3125 292.3125 748.269531 291.503906 C 742.242188 290.296875 738.441406 287.660156 737.351562 286.570312 Z M 762.796875 316.1875 C 763.144531 315.367188 763.425781 314.582031 763.636719 313.867188 L 762.339844 313.484375 C 762.105469 314.277344 761.777344 315.179688 761.347656 316.125 C 760.289062 318.46875 758.640625 321.074219 756.371094 323.136719 C 753.140625 326.074219 748.640625 327.925781 742.679688 326.335938 C 741.003906 325.886719 739.550781 325.121094 738.292969 324.109375 C 733.574219 320.316406 731.496094 313.003906 730.839844 305.960938 C 730.847656 299.679688 733.722656 292.515625 736.972656 288.042969 C 738.683594 289.457031 742.488281 291.726562 748.007812 292.832031 C 751.644531 293.558594 755.621094 296.511719 758.738281 299.5625 C 760.285156 301.078125 761.589844 302.585938 762.503906 303.804688 C 762.960938 304.417969 763.3125 304.945312 763.546875 305.355469 C 763.664062 305.5625 763.746094 305.726562 763.796875 305.855469 C 763.839844 305.960938 763.847656 306.007812 763.847656 306.007812 C 763.847656 306.007812 763.847656 306 763.847656 305.992188 L 765.128906 306.296875 C 765.503906 305.546875 766.292969 304.585938 767.402344 304.136719 C 768.460938 303.707031 769.929688 303.6875 771.816406 305.011719 C 772.804688 305.703125 773.144531 306.878906 772.890625 308.394531 C 772.636719 309.914062 771.785156 311.640625 770.589844 313.148438 C 769.390625 314.652344 767.898438 315.867188 766.421875 316.425781 C 765.128906 316.914062 763.886719 316.898438 762.796875 316.1875 Z M 756.191406 325.050781 C 756.324219 330.371094 756.226562 336.492188 756.175781 339.578125 C 756.164062 340.261719 756.15625 340.796875 756.152344 341.144531 C 754.804688 342.816406 753.160156 344.609375 751.390625 346.140625 C 749.550781 347.738281 747.613281 349.015625 745.769531 349.613281 C 743.945312 350.199219 742.265625 350.109375 740.8125 349.054688 C 739.335938 347.984375 737.96875 345.847656 736.984375 342.066406 C 737.453125 338.847656 738.230469 331.335938 738.492188 325.925781 C 739.636719 326.679688 740.914062 327.261719 742.332031 327.640625 C 748.15625 329.195312 752.761719 327.703125 756.191406 325.050781 Z M 756.191406 325.050781 " fill-opacity="1" fill-rule="evenodd"/><g clip-path="url(#3d58730219)"><path fill="#ffffff" d="M 617.613281 575.183594 L 662.871094 575.183594 C 664.863281 575.183594 667.082031 573.539062 666.996094 571.546875 C 666.707031 565.121094 666.390625 555.273438 666.246094 550.25 C 663.160156 549.535156 651.886719 550.628906 648.488281 548.777344 C 644.902344 555.261719 643.625 557.351562 635.324219 558.007812 C 620.734375 559.160156 618.753906 565.667969 618.273438 570.757812 Z M 617.613281 575.183594 " fill-opacity="1" fill-rule="nonzero"/></g><g clip-path="url(#64f91f2b33)"><path fill="#2f2f2f" d="M 648.222656 547.863281 L 647.898438 548.449219 C 646.085938 551.730469 644.933594 553.734375 643.257812 555.046875 C 641.613281 556.335938 639.386719 557.007812 635.269531 557.332031 C 627.890625 557.914062 623.5625 559.863281 621.027344 562.429688 C 618.492188 565 617.847656 568.082031 617.601562 570.675781 L 616.832031 575.859375 L 662.871094 575.859375 C 664.042969 575.859375 665.246094 575.382812 666.144531 574.632812 C 667.046875 573.878906 667.726562 572.785156 667.667969 571.515625 C 667.382812 565.097656 667.066406 555.253906 666.921875 550.226562 L 666.90625 549.707031 L 666.398438 549.589844 C 665.542969 549.394531 664.1875 549.328125 662.660156 549.300781 C 661.851562 549.289062 660.953125 549.285156 660.023438 549.28125 C 659.191406 549.277344 658.332031 549.273438 657.492188 549.265625 C 655.683594 549.242188 653.886719 549.183594 652.335938 549.015625 C 650.757812 548.847656 649.535156 548.578125 648.8125 548.183594 Z M 619.023438 570.09375 C 619.3125 567.8125 619.988281 565.40625 621.988281 563.382812 C 624.207031 561.132812 628.167969 559.25 635.375 558.679688 C 639.5625 558.351562 642.125 557.652344 644.09375 556.109375 C 645.914062 554.679688 647.15625 552.570312 648.777344 549.652344 C 649.707031 550.007812 650.90625 550.222656 652.191406 550.359375 C 653.808594 550.535156 655.65625 550.59375 657.476562 550.617188 C 658.355469 550.628906 659.210938 550.628906 660.035156 550.632812 C 660.945312 550.636719 661.816406 550.640625 662.636719 550.652344 C 663.863281 550.675781 664.875 550.71875 665.585938 550.816406 C 665.730469 555.789062 666.019531 564.667969 666.289062 570.859375 Z M 666.242188 572.210938 C 666.097656 572.710938 665.765625 573.191406 665.28125 573.59375 C 664.597656 574.160156 663.695312 574.507812 662.871094 574.507812 L 618.398438 574.507812 L 618.851562 571.445312 Z M 666.242188 572.210938 " fill-opacity="1" fill-rule="evenodd"/></g><path fill="#ffffff" d="M 557.390625 503.679688 L 594.117188 529.332031 C 595.957031 530.613281 598.5 530.082031 599.699219 528.191406 C 603.144531 522.757812 608.523438 514.503906 611.28125 510.300781 C 609.160156 507.949219 599.289062 502.390625 597.566406 498.925781 C 590.914062 502.191406 588.671875 503.171875 581.488281 498.957031 C 568.867188 491.542969 563.519531 495.75 560.207031 499.644531 Z M 557.390625 503.679688 " fill-opacity="1" fill-rule="nonzero"/><path fill="#2f2f2f" d="M 597.875 498.023438 L 597.269531 498.320312 C 593.90625 499.96875 591.816406 500.957031 589.691406 501.074219 C 587.605469 501.1875 585.390625 500.464844 581.832031 498.371094 C 575.445312 494.625 570.785156 493.742188 567.234375 494.398438 C 563.675781 495.050781 561.386719 497.21875 559.691406 499.207031 L 559.671875 499.230469 L 556.449219 503.847656 L 593.730469 529.882812 C 595.890625 531.390625 598.867188 530.765625 600.273438 528.550781 C 603.710938 523.125 609.089844 514.875 611.847656 510.671875 L 612.136719 510.234375 L 611.785156 509.847656 C 611.199219 509.199219 610.125 508.371094 608.882812 507.46875 C 608.230469 506.996094 607.496094 506.480469 606.734375 505.945312 C 606.054688 505.464844 605.351562 504.972656 604.671875 504.484375 C 603.199219 503.425781 601.761719 502.347656 600.585938 501.324219 C 599.390625 500.285156 598.539062 499.363281 598.171875 498.625 Z M 610.417969 510.386719 C 607.691406 514.550781 602.839844 521.992188 599.515625 527.222656 L 561.207031 499.53125 C 562.746094 497.828125 564.679688 496.238281 567.480469 495.726562 C 570.585938 495.152344 574.910156 495.875 581.148438 499.539062 C 584.769531 501.667969 587.269531 502.558594 589.765625 502.421875 C 592.078125 502.292969 594.304688 501.277344 597.304688 499.808594 C 597.859375 500.632812 598.722656 501.496094 599.699219 502.34375 C 600.921875 503.410156 602.40625 504.519531 603.882812 505.578125 C 604.597656 506.09375 605.296875 506.585938 605.972656 507.058594 C 606.71875 507.585938 607.429688 508.085938 608.089844 508.566406 C 609.085938 509.285156 609.890625 509.902344 610.417969 510.386719 Z M 560.367188 500.597656 L 598.742188 528.332031 C 597.652344 529.480469 595.847656 529.710938 594.503906 528.777344 L 558.332031 503.511719 Z M 560.367188 500.597656 " fill-opacity="1" fill-rule="evenodd"/><g clip-path="url(#e214cf47ac)"><path fill="#ffffff" d="M 789.925781 573.832031 L 785.195312 573.832031 L 772.355469 509.636719 L 764.585938 509.511719 L 775.058594 573.832031 L 770.328125 573.832031 L 756.816406 509.382812 L 704.109375 508.519531 L 691.945312 573.832031 L 686.539062 573.832031 L 697.011719 508.402344 L 689.917969 508.285156 L 675.050781 575.183594 L 670.320312 575.183594 L 682.484375 504.234375 C 683.835938 495.449219 687.890625 487.339844 693.972656 485.988281 L 764.921875 482.609375 L 766.949219 420.441406 L 777.761719 420.441406 L 794.976562 429.882812 C 797.167969 431.082031 798.25 433.628906 797.597656 436.035156 L 779.113281 504.234375 Z M 789.925781 573.832031 " fill-opacity="1" fill-rule="nonzero"/></g><g clip-path="url(#7232aae41b)"><path fill="#2f2f2f" d="M 766.296875 419.765625 L 777.933594 419.765625 L 795.300781 429.289062 C 797.765625 430.640625 798.984375 433.503906 798.246094 436.214844 L 779.804688 504.269531 L 790.714844 574.507812 L 784.640625 574.507812 L 771.800781 510.304688 L 765.382812 510.199219 L 775.851562 574.507812 L 769.777344 574.507812 L 756.261719 510.050781 L 704.667969 509.203125 L 692.507812 574.507812 L 685.746094 574.507812 L 696.222656 509.066406 L 690.457031 508.972656 L 675.59375 575.859375 L 669.519531 575.859375 L 681.816406 504.128906 L 681.816406 504.125 C 682.503906 499.671875 683.875 495.363281 685.871094 491.980469 C 687.863281 488.601562 690.527344 486.0625 693.824219 485.328125 L 693.882812 485.316406 L 764.269531 481.964844 Z M 697.585938 509.089844 L 687.332031 573.15625 L 691.382812 573.15625 L 703.296875 509.179688 Z M 757.648438 510.074219 L 770.875 573.15625 L 774.261719 573.15625 L 764.007812 510.175781 Z M 767.601562 421.117188 L 765.578125 483.253906 L 694.0625 486.660156 C 691.300781 487.292969 688.917969 489.476562 687.035156 492.664062 C 685.148438 495.867188 683.816406 500.003906 683.152344 504.335938 L 683.148438 504.347656 L 671.121094 574.507812 L 674.507812 574.507812 L 689.378906 507.601562 L 772.910156 508.972656 L 785.75 573.15625 L 789.136719 573.15625 L 778.421875 504.195312 L 796.945312 435.859375 C 797.515625 433.75 796.566406 431.527344 794.652344 430.476562 L 777.589844 421.117188 Z M 767.601562 421.117188 " fill-opacity="1" fill-rule="evenodd"/></g><path fill="#8bd4be" d="M 768.921875 445.371094 L 771.375 459.144531 C 773.253906 469.667969 769.695312 480.425781 761.914062 487.753906 L 761.335938 488.300781 C 751.113281 497.925781 735.660156 499.375 723.824219 491.820312 C 715.214844 493.402344 686.175781 491.359375 668.96875 490.042969 L 670.996094 550.183594 L 642.617188 550.183594 L 639.265625 477.984375 L 613.5625 516.394531 L 593.289062 496.125 L 635.597656 425.917969 C 643.382812 412.996094 659.914062 408.425781 673.234375 415.507812 L 725.078125 443.089844 Z M 768.921875 445.371094 " fill-opacity="1" fill-rule="nonzero"/><path fill="#ffffff" d="M 725.078125 443.089844 L 768.917969 445.371094 L 766.566406 430.761719 L 777.164062 436.734375 C 778.933594 437.730469 780.925781 438.253906 782.957031 438.253906 C 789.941406 438.253906 795.398438 432.21875 794.699219 425.269531 L 791.539062 368.449219 C 790.964844 358.097656 784.519531 348.984375 774.949219 344.996094 L 758.164062 338.003906 C 748.289062 343.34375 740.65625 339.152344 736.542969 335.976562 L 721.257812 342.855469 C 713.675781 346.265625 707.546875 352.257812 703.964844 359.761719 L 687.890625 393.449219 L 661.242188 397.46875 C 663.132812 400.632812 670.78125 410.511719 685.816406 418.140625 C 691.910156 421.234375 699.171875 419.671875 704.296875 415.152344 L 710.535156 409.65625 L 710.535156 435.871094 Z M 725.078125 443.089844 " fill-opacity="1" fill-rule="nonzero"/><path fill="#2f2f2f" d="M 736.625 334.511719 L 736.953125 334.765625 C 739.351562 336.617188 742.601562 338.945312 746.773438 339.554688 C 747.398438 339.648438 748.042969 339.703125 748.710938 339.707031 C 751.199219 339.730469 754.015625 339.113281 757.167969 337.410156 L 757.445312 337.257812 L 775.027344 344.433594 C 784.9375 348.476562 791.628906 357.863281 792.222656 368.546875 L 795.371094 425.21875 C 796.101562 432.558594 790.335938 438.929688 782.957031 438.929688 C 780.808594 438.929688 778.699219 438.375 776.832031 437.320312 L 767.453125 432.039062 L 769.585938 445.253906 L 769.585938 445.261719 L 772.039062 459.023438 C 773.957031 469.773438 770.320312 480.761719 762.371094 488.246094 L 761.792969 488.789062 C 751.414062 498.570312 735.75 500.09375 723.683594 492.53125 C 721.457031 492.90625 718.082031 493.0625 714.042969 493.070312 C 709.824219 493.082031 704.835938 492.933594 699.589844 492.695312 C 689.394531 492.230469 678.1875 491.421875 669.667969 490.773438 L 671.605469 550.859375 L 642.019531 550.859375 L 638.683594 480.066406 L 613.660156 517.457031 L 592.433594 496.226562 L 635.464844 425.203125 C 643.222656 412.113281 659.757812 407.222656 673.386719 413.988281 L 673.402344 413.996094 L 709.773438 434.664062 L 709.632812 432.644531 C 709.140625 425.527344 709.167969 418.382812 709.71875 411.273438 L 704.746094 415.660156 C 699.449219 420.328125 691.894531 421.988281 685.507812 418.746094 C 670.351562 411.054688 662.613281 401.082031 660.660156 397.816406 L 660.144531 396.949219 L 687.433594 392.835938 L 703.53125 359.105469 C 707.070312 351.683594 713.058594 345.707031 720.488281 342.179688 Z M 710.535156 409.65625 L 711.207031 409.714844 C 710.527344 417.308594 710.453125 424.945312 710.980469 432.554688 L 711.179688 435.4375 L 725.25 442.421875 L 768.117188 444.652344 L 765.945312 431.167969 L 726.824219 406.464844 L 729.214844 402.640625 C 727.046875 401.972656 725.070312 400.199219 723.8125 398.0625 C 722.511719 395.847656 721.90625 393.105469 722.75 390.582031 L 715.5625 389.554688 C 714.417969 389.390625 713.566406 388.410156 713.566406 387.253906 C 713.566406 386.097656 714.414062 385.117188 715.558594 384.949219 L 725.324219 383.535156 C 729.375 382.949219 733.292969 385.234375 734.773438 389.050781 L 735.898438 391.945312 L 737.648438 389.148438 L 768.089844 405.027344 L 764.949219 385.933594 L 766.28125 385.714844 L 769.589844 405.828125 L 780.195312 411.929688 L 779.523438 413.101562 L 768.648438 406.84375 L 738.132812 390.921875 L 728.6875 406.039062 L 766.910156 430.179688 L 777.496094 436.144531 C 779.160156 437.082031 781.042969 437.578125 782.957031 437.578125 C 789.539062 437.578125 794.683594 431.890625 794.023438 425.335938 L 794.023438 425.324219 L 790.871094 368.621094 C 790.308594 358.460938 783.941406 349.53125 774.515625 345.683594 L 766.960938 342.601562 L 749.253906 350.59375 L 749.382812 349.417969 C 749.59375 347.515625 749.625 343.816406 748.285156 341.050781 C 747.714844 341.03125 747.160156 340.976562 746.621094 340.898438 C 746.109375 340.890625 745.484375 341.070312 744.78125 341.449219 C 744.066406 341.835938 743.3125 342.40625 742.585938 343.113281 C 741.132812 344.53125 739.84375 346.445312 739.207031 348.351562 L 738.855469 349.410156 L 729.277344 339.5 L 721.066406 343.398438 C 713.917969 346.792969 708.15625 352.546875 704.75 359.683594 L 688.34375 394.066406 L 662.371094 397.980469 C 664.90625 401.734375 672.398438 410.578125 686.121094 417.539062 C 691.921875 420.484375 698.890625 419.019531 703.851562 414.644531 L 709.875 409.335938 C 710.101562 404.882812 710.65625 400.457031 711.53125 396.082031 L 711.550781 395.984375 L 712.875 396.25 L 712.855469 396.347656 C 711.976562 400.746094 711.425781 405.207031 711.207031 409.6875 Z M 730.566406 338.886719 L 738.320312 346.910156 C 739.097656 345.128906 740.308594 343.445312 741.644531 342.144531 C 742.410156 341.398438 743.226562 340.765625 744.042969 340.3125 C 740.898438 339.328125 738.363281 337.546875 736.457031 336.089844 Z M 749.757812 341.035156 C 750.78125 343.515625 750.917969 346.421875 750.820312 348.40625 L 765.234375 341.894531 L 757.527344 338.75 C 754.726562 340.21875 752.136719 340.898438 749.757812 341.035156 Z M 735.003906 393.378906 L 733.515625 389.539062 C 732.261719 386.3125 728.945312 384.375 725.519531 384.871094 L 715.753906 386.289062 C 715.273438 386.355469 714.917969 386.769531 714.917969 387.253906 C 714.917969 387.738281 715.273438 388.148438 715.753906 388.21875 L 724.707031 389.496094 L 724.3125 390.328125 C 723.25 392.539062 723.679688 395.167969 724.980469 397.378906 C 726.191406 399.441406 728.082031 400.996094 729.960938 401.445312 Z M 768.347656 446.015625 L 728.296875 443.9375 L 741.910156 450.695312 L 741.308594 451.90625 L 710.214844 436.46875 L 672.769531 415.191406 C 659.777344 408.753906 644.019531 413.417969 636.628906 425.894531 L 636.625 425.898438 L 594.140625 496.019531 L 613.453125 515.335938 L 638.574219 477.796875 L 638.183594 470.089844 C 637.980469 466.105469 638.980469 462.152344 641.058594 458.746094 C 643.890625 454.109375 647.050781 450.960938 650.761719 449.769531 C 654.503906 448.566406 658.632812 449.40625 663.257812 452.359375 L 724.1875 491.25 C 735.761719 498.640625 750.875 497.21875 760.871094 487.808594 L 761.445312 487.261719 C 769.0625 480.089844 772.542969 469.558594 770.710938 459.261719 Z M 669.644531 489.417969 L 669.644531 477.984375 L 668.292969 477.984375 L 668.292969 490.054688 L 670.210938 549.507812 L 643.308594 549.507812 L 639.9375 477.953125 L 639.53125 470.023438 C 639.34375 466.308594 640.277344 462.625 642.214844 459.449219 C 644.972656 454.925781 647.917969 452.101562 651.175781 451.054688 C 654.40625 450.019531 658.113281 450.675781 662.53125 453.496094 L 721.914062 491.40625 C 719.886719 491.617188 717.195312 491.710938 714.039062 491.722656 C 709.851562 491.730469 704.886719 491.582031 699.648438 491.34375 C 689.425781 490.878906 678.175781 490.066406 669.644531 489.417969 Z M 717.929688 364.675781 C 720.078125 359.777344 723.171875 355.824219 725.25 353.746094 L 726.207031 354.699219 C 724.230469 356.675781 721.242188 360.492188 719.167969 365.21875 C 717.09375 369.949219 715.964844 375.519531 717.59375 381.058594 L 716.296875 381.441406 C 714.546875 375.492188 715.78125 369.578125 717.929688 364.675781 Z M 717.929688 364.675781 " fill-opacity="1" fill-rule="evenodd"/><path fill="#1f4d3f" d="M 688.304688 344.578125 L 638.046875 344.578125 L 652.40625 404.066406 L 702.664062 404.066406 Z M 688.304688 344.578125 " fill-opacity="1" fill-rule="nonzero"/><path fill="#2f2f2f" d="M 637.191406 343.902344 L 688.835938 343.902344 L 703.523438 404.742188 L 651.875 404.742188 Z M 638.90625 345.253906 L 652.9375 403.390625 L 701.804688 403.390625 L 687.773438 345.253906 Z M 638.90625 345.253906 " fill-opacity="1" fill-rule="evenodd"/><path fill="#ffffff" d="M 674.519531 373.890625 C 674.519531 377.289062 671.765625 380.042969 668.367188 380.042969 C 664.96875 380.042969 662.214844 377.289062 662.214844 373.890625 C 662.214844 370.492188 664.96875 367.734375 668.367188 367.734375 C 671.765625 367.734375 674.519531 370.492188 674.519531 373.890625 Z M 674.519531 373.890625 " fill-opacity="1" fill-rule="nonzero"/><path fill="#ffffff" d="M 648.019531 385.980469 L 651.992188 385.828125 C 654.113281 385.742188 655.945312 384.320312 656.550781 382.289062 C 657.625 378.691406 656.574219 374.792969 653.835938 372.222656 L 653.667969 372.0625 C 652.601562 371.0625 651.167969 370.5625 649.710938 370.6875 L 644.644531 371.113281 Z M 648.019531 385.980469 " fill-opacity="1" fill-rule="nonzero"/><path fill="#2f2f2f" d="M 653.203125 372.554688 C 652.28125 371.6875 651.03125 371.253906 649.769531 371.359375 L 645.472656 371.722656 L 648.554688 385.28125 L 651.96875 385.152344 C 653.796875 385.078125 655.378906 383.851562 655.90625 382.097656 C 656.90625 378.742188 655.925781 375.109375 653.375 372.714844 Z M 649.65625 370.011719 C 651.300781 369.875 652.925781 370.441406 654.128906 371.570312 L 654.300781 371.730469 C 657.222656 374.476562 658.347656 378.636719 657.199219 382.484375 C 656.511719 384.792969 654.425781 386.40625 652.019531 386.5 L 647.484375 386.675781 L 643.8125 370.507812 Z M 649.65625 370.011719 " fill-opacity="1" fill-rule="evenodd"/><path fill="#ffffff" d="M 225.691406 70.417969 L 362.1875 70.417969 L 362.1875 37.980469 L 225.691406 37.980469 Z M 225.691406 70.417969 " fill-opacity="1" fill-rule="nonzero"/><path fill="#2f2f2f" d="M 225.015625 37.304688 L 362.863281 37.304688 L 362.863281 71.089844 L 225.015625 71.089844 Z M 226.367188 38.65625 L 226.367188 69.742188 L 361.511719 69.742188 L 361.511719 38.65625 Z M 226.367188 38.65625 " fill-opacity="1" fill-rule="evenodd"/><path fill="#1f4d3f" d="M 258.125 53.523438 C 258.125 59.121094 253.585938 63.660156 247.988281 63.660156 C 242.390625 63.660156 237.855469 59.121094 237.855469 53.523438 C 237.855469 47.925781 242.390625 43.386719 247.988281 43.386719 C 253.585938 43.386719 258.125 47.925781 258.125 53.523438 Z M 258.125 53.523438 " fill-opacity="1" fill-rule="nonzero"/><path fill="#2f2f2f" d="M 247.988281 44.0625 C 242.765625 44.0625 238.53125 48.296875 238.53125 53.523438 C 238.53125 58.746094 242.765625 62.984375 247.988281 62.984375 C 253.214844 62.984375 257.449219 58.746094 257.449219 53.523438 C 257.449219 48.296875 253.214844 44.0625 247.988281 44.0625 Z M 237.179688 53.523438 C 237.179688 47.550781 242.019531 42.710938 247.988281 42.710938 C 253.960938 42.710938 258.800781 47.550781 258.800781 53.523438 C 258.800781 59.492188 253.960938 64.335938 247.988281 64.335938 C 242.019531 64.335938 237.179688 59.492188 237.179688 53.523438 Z M 237.179688 53.523438 " fill-opacity="1" fill-rule="evenodd"/><path fill="#2f2f2f" d="M 254.566406 49.253906 L 246.5 57.898438 L 242.761719 53.808594 L 243.757812 52.898438 L 246.507812 55.90625 L 253.578125 48.332031 Z M 254.566406 49.253906 " fill-opacity="1" fill-rule="evenodd"/><path fill="#2f2f2f" d="M 271.640625 48.792969 L 343.941406 48.792969 L 343.941406 50.144531 L 271.640625 50.144531 Z M 271.640625 48.792969 " fill-opacity="1" fill-rule="evenodd"/><path fill="#2f2f2f" d="M 271.640625 59.605469 L 316.914062 59.605469 L 316.914062 60.957031 L 271.640625 60.957031 Z M 271.640625 59.605469 " fill-opacity="1" fill-rule="evenodd"/><path fill="#2f2f2f" d="M 441.414062 264.347656 L 453.144531 264.347656 L 453.144531 265.699219 L 443.789062 265.699219 L 511.101562 323.953125 L 522.25 323.953125 L 543.65625 340.507812 L 566.949219 340.507812 L 623.914062 390.347656 L 623.023438 391.363281 L 566.441406 341.859375 L 543.195312 341.859375 L 521.789062 325.304688 L 510.597656 325.304688 L 442.421875 266.304688 L 440.777344 275.085938 L 439.449219 274.835938 Z M 441.414062 264.347656 " fill-opacity="1" fill-rule="evenodd"/><path fill="#ffffff" d="M 436.519531 301.660156 L 467.078125 301.660156 L 467.078125 398.820312 L 436.519531 398.820312 Z M 436.519531 301.660156 " fill-opacity="1" fill-rule="nonzero"/><path fill="#2f2f2f" d="M 435.84375 300.984375 L 467.753906 300.984375 L 467.753906 399.496094 L 435.84375 399.496094 Z M 437.195312 302.335938 L 437.195312 398.144531 L 466.402344 398.144531 L 466.402344 302.335938 Z M 437.195312 302.335938 " fill-opacity="1" fill-rule="evenodd"/><path fill="#8bd4be" d="M 474.269531 336.699219 L 504.828125 336.699219 L 504.828125 398.820312 L 474.269531 398.820312 Z M 474.269531 336.699219 " fill-opacity="1" fill-rule="nonzero"/><path fill="#2f2f2f" d="M 473.59375 336.023438 L 505.503906 336.023438 L 505.503906 399.496094 L 473.59375 399.496094 Z M 474.945312 337.375 L 474.945312 398.144531 L 504.152344 398.144531 L 504.152344 337.375 Z M 474.945312 337.375 " fill-opacity="1" fill-rule="evenodd"/><path fill="#1f4d3f" d="M 553.359375 374.925781 L 583.921875 374.925781 L 583.921875 398.820312 L 553.359375 398.820312 Z M 553.359375 374.925781 " fill-opacity="1" fill-rule="nonzero"/><path fill="#2f2f2f" d="M 552.683594 374.25 L 584.597656 374.25 L 584.597656 399.496094 L 552.683594 399.496094 Z M 554.035156 375.601562 L 554.035156 398.144531 L 583.246094 398.144531 L 583.246094 375.601562 Z M 554.035156 375.601562 " fill-opacity="1" fill-rule="evenodd"/><path fill="#ffffff" d="M 512.015625 352.628906 L 542.574219 352.628906 L 542.574219 398.820312 L 512.015625 398.820312 Z M 512.015625 352.628906 " fill-opacity="1" fill-rule="nonzero"/><path fill="#2f2f2f" d="M 511.339844 351.953125 L 543.25 351.953125 L 543.25 399.496094 L 511.339844 399.496094 Z M 512.691406 353.304688 L 512.691406 398.144531 L 541.898438 398.144531 L 541.898438 353.304688 Z M 512.691406 353.304688 " fill-opacity="1" fill-rule="evenodd"/><path fill="#ffffff" d="M 699.035156 321.785156 L 650.636719 280.679688 L 638.332031 294.605469 Z M 699.035156 321.785156 " fill-opacity="1" fill-rule="nonzero"/><path fill="#2f2f2f" d="M 650.570312 279.738281 L 699.472656 321.269531 L 698.761719 322.402344 L 637.214844 294.84375 Z M 650.707031 281.625 L 639.445312 294.363281 L 694.984375 319.230469 Z M 650.707031 281.625 " fill-opacity="1" fill-rule="evenodd"/><path fill="#1f4d3f" d="M 659.335938 274.9375 C 659.335938 257.070312 642.386719 239.347656 624.824219 239.347656 C 623.546875 239.347656 622.285156 239.421875 621.050781 239.566406 L 621.050781 260.3125 C 622.257812 260.003906 623.519531 259.839844 624.824219 259.839844 C 633.164062 259.839844 639.921875 266.597656 639.921875 274.9375 C 639.921875 276.4375 639.703125 277.882812 639.296875 279.253906 L 659.050781 279.253906 C 659.238281 277.839844 659.335938 276.402344 659.335938 274.9375 Z M 659.335938 274.9375 " fill-opacity="1" fill-rule="nonzero"/><path fill="#2f2f2f" d="M 621.726562 240.171875 L 621.726562 259.46875 C 622.726562 259.269531 623.765625 259.164062 624.824219 259.164062 C 633.535156 259.164062 640.597656 266.226562 640.597656 274.9375 C 640.597656 276.191406 640.453125 277.40625 640.175781 278.578125 L 658.453125 278.578125 C 658.589844 277.382812 658.660156 276.167969 658.660156 274.9375 C 658.660156 266.210938 654.515625 257.476562 648.179688 250.910156 C 641.84375 244.347656 633.382812 240.023438 624.824219 240.023438 C 623.777344 240.023438 622.742188 240.074219 621.726562 240.171875 Z M 620.972656 238.894531 C 622.234375 238.746094 623.519531 238.671875 624.824219 238.671875 C 633.828125 238.671875 642.625 243.210938 649.152344 249.972656 C 655.679688 256.734375 660.011719 265.792969 660.011719 274.9375 C 660.011719 276.429688 659.910156 277.902344 659.71875 279.339844 L 659.640625 279.929688 L 638.390625 279.929688 L 638.648438 279.058594 C 639.039062 277.753906 639.246094 276.371094 639.246094 274.9375 C 639.246094 266.972656 632.789062 260.515625 624.824219 260.515625 C 623.578125 260.515625 622.371094 260.671875 621.21875 260.96875 L 620.375 261.1875 L 620.375 238.964844 Z M 620.972656 238.894531 " fill-opacity="1" fill-rule="evenodd"/><path fill="#ffffff" d="M 624.824219 307.292969 C 606.953125 307.292969 592.46875 292.804688 592.46875 274.9375 C 592.46875 258.34375 604.957031 244.671875 621.046875 242.800781 L 621.046875 260.3125 C 614.535156 261.988281 609.722656 267.902344 609.722656 274.9375 C 609.722656 283.277344 616.484375 290.035156 624.824219 290.035156 C 631.664062 290.035156 637.441406 285.488281 639.296875 279.253906 L 656.890625 279.253906 C 654.78125 295.082031 641.230469 307.292969 624.824219 307.292969 Z M 624.824219 307.292969 " fill-opacity="1" fill-rule="nonzero"/><path fill="#2f2f2f" d="M 621.722656 242.042969 L 621.722656 259.46875 C 622.726562 259.269531 623.761719 259.164062 624.824219 259.164062 C 633.535156 259.164062 640.597656 266.226562 640.597656 274.9375 C 640.597656 276.191406 640.449219 277.40625 640.175781 278.578125 L 657.664062 278.578125 L 657.5625 279.339844 C 655.410156 295.5 641.574219 307.96875 624.824219 307.96875 C 606.582031 307.96875 591.792969 293.179688 591.792969 274.9375 C 591.792969 258 604.542969 244.039062 620.96875 242.128906 Z M 639.792969 279.929688 C 637.769531 285.992188 632.171875 290.417969 625.5 290.699219 L 625.5 306.609375 C 640.992188 306.285156 653.75 294.835938 656.109375 279.929688 Z M 624.148438 306.609375 L 624.148438 290.699219 C 615.75 290.34375 609.046875 283.425781 609.046875 274.9375 C 609.046875 267.769531 613.828125 261.722656 620.371094 259.800781 L 620.371094 243.570312 C 604.984375 245.730469 593.144531 258.953125 593.144531 274.9375 C 593.144531 292.207031 606.964844 306.25 624.148438 306.609375 Z M 624.824219 260.515625 C 623.578125 260.515625 622.367188 260.671875 621.214844 260.96875 C 614.996094 262.570312 610.398438 268.21875 610.398438 274.9375 C 610.398438 282.902344 616.855469 289.359375 624.824219 289.359375 C 631.355469 289.359375 636.875 285.015625 638.648438 279.058594 C 639.035156 277.753906 639.246094 276.371094 639.246094 274.9375 C 639.246094 266.972656 632.789062 260.515625 624.824219 260.515625 Z M 624.824219 260.515625 " fill-opacity="1" fill-rule="evenodd"/><path fill="#8bd4be" d="M 744.648438 104.203125 L 762.21875 104.203125 L 762.21875 185.289062 L 744.648438 185.289062 Z M 744.648438 104.203125 " fill-opacity="1" fill-rule="nonzero"/><path fill="#2f2f2f" d="M 743.972656 103.527344 L 762.894531 103.527344 L 762.894531 185.964844 L 743.972656 185.964844 Z M 745.324219 104.878906 L 745.324219 184.613281 L 761.542969 184.613281 L 761.542969 104.878906 Z M 745.324219 104.878906 " fill-opacity="1" fill-rule="evenodd"/><path fill="#ffffff" d="M 775.730469 135.285156 L 793.300781 135.285156 L 793.300781 185.289062 L 775.730469 185.289062 Z M 775.730469 135.285156 " fill-opacity="1" fill-rule="nonzero"/><path fill="#2f2f2f" d="M 775.058594 134.609375 L 793.976562 134.609375 L 793.976562 185.964844 L 775.058594 185.964844 Z M 776.40625 135.960938 L 776.40625 184.613281 L 792.625 184.613281 L 792.625 135.960938 Z M 776.40625 135.960938 " fill-opacity="1" fill-rule="evenodd"/><path fill="#2f2f2f" d="M 753.433594 36.628906 L 754.785156 36.628906 L 754.785156 90.6875 L 753.433594 90.6875 Z M 753.433594 36.628906 " fill-opacity="1" fill-rule="evenodd"/><path fill="#2f2f2f" d="M 783.164062 65.011719 L 784.515625 65.011719 L 784.515625 119.070312 L 783.164062 119.070312 Z M 783.164062 65.011719 " fill-opacity="1" fill-rule="evenodd"/></svg>